<svg id="Layer_1" height="512" viewBox="0 0 150 150" width="512" xmlns="http://www.w3.org/2000/svg" data-name="Layer 1"><path d="m70.114 130.569a5.887 5.887 0 0 1 -5.871-5.527l-3.265-54.017a1 1 0 1 1 2-.121l3.265 54.017a3.886 3.886 0 0 0 3.875 3.648h.01a3.889 3.889 0 0 0 3.872-3.887l-.034-23.708a1 1 0 0 1 1-1 1 1 0 0 1 1 1l.034 23.705a5.891 5.891 0 0 1 -5.867 5.89z"/><path d="m79.888 130.569h-.014a5.891 5.891 0 0 1 -5.867-5.89l.033-23.708a1 1 0 0 1 1-1 1 1 0 0 1 1 1l-.033 23.708a3.888 3.888 0 0 0 3.872 3.887h.009a3.886 3.886 0 0 0 3.875-3.648l3.266-54.018a1 1 0 1 1 2 .121l-3.269 54.021a5.888 5.888 0 0 1 -5.872 5.527z"/><path d="m87.806 97.584h-1.159a1 1 0 1 1 0-2h1.159a6.149 6.149 0 0 0 6.143-6.143v-19.867a7.333 7.333 0 0 0 -7.083-7.546h-3.874a13.934 13.934 0 0 1 -15.982 0h-3.874a7.333 7.333 0 0 0 -7.083 7.546v19.867a6.15 6.15 0 0 0 6.147 6.143h1.159a1 1 0 0 1 0 2h-1.159a8.153 8.153 0 0 1 -8.144-8.143v-19.867a9.334 9.334 0 0 1 9.083-9.546h4.188a1.008 1.008 0 0 1 .581.185 11.955 11.955 0 0 0 14.193 0 1 1 0 0 1 .58-.185h4.188a9.334 9.334 0 0 1 9.083 9.546v19.867a8.152 8.152 0 0 1 -8.146 8.143z"/><path d="m75 60.073c-7.334 0-13.617-9.811-13.617-17.844a13.626 13.626 0 1 1 27.234 0c0 8.033-6.284 17.844-13.617 17.844zm0-29.973a11.9 11.9 0 0 0 -11.617 12.129c0 6.984 5.47 15.844 11.617 15.844s11.617-8.86 11.617-15.844a11.9 11.9 0 0 0 -11.617-12.129z"/><path d="m86.51 44.7c-7.273 0-12.234-5.226-14.117-7.606-4.547 5.683-9.522 5.174-10.1 5.094-.025 0-.05-.008-.074-.013a1 1 0 0 1 .166-1.987 1.26 1.26 0 0 1 .208.022c.39.047 4.946.466 8.987-5.369a1.019 1.019 0 0 1 .839-.43 1 1 0 0 1 .824.457c.054.084 5.562 8.431 14.232 7.8a1 1 0 1 1 .144 1.995c-.377.025-.746.037-1.109.037z"/><path d="m74.962 140c-11.69 0-20.847-4.582-20.847-10.432 0-3.881 3.979-7.294 10.644-9.13a1 1 0 1 1 .531 1.928c-5.659 1.559-9.175 4.319-9.175 7.2 0 4.571 8.63 8.432 18.847 8.432s18.847-3.861 18.847-8.432c0-2.867-3.487-5.619-9.1-7.181a1 1 0 0 1 .536-1.927c6.616 1.841 10.565 5.246 10.565 9.108-.001 5.852-9.158 10.434-20.848 10.434z"/><path d="m26.062 112.473a5.886 5.886 0 0 1 -5.87-5.527l-3.266-54.016a1 1 0 1 1 2-.121l3.266 54.016a3.885 3.885 0 0 0 3.874 3.648h.01a3.887 3.887 0 0 0 3.872-3.887l-.038-23.708a1 1 0 0 1 1-1 1 1 0 0 1 1 1l.034 23.708a5.889 5.889 0 0 1 -5.867 5.89z"/><path d="m35.837 112.473h-.014a5.89 5.89 0 0 1 -5.868-5.89l.034-23.708a1 1 0 0 1 1-1 1 1 0 0 1 1 1l-.034 23.708a3.887 3.887 0 0 0 3.872 3.887h.01a3.885 3.885 0 0 0 3.875-3.648l3.265-54.016a1 1 0 1 1 2 .121l-3.265 54.016a5.887 5.887 0 0 1 -5.875 5.53z"/><path d="m43.754 79.489h-1.154a1 1 0 0 1 0-2h1.159a6.151 6.151 0 0 0 6.141-6.144v-19.867a7.333 7.333 0 0 0 -7.083-7.545h-3.876a13.939 13.939 0 0 1 -15.982 0h-3.875a7.333 7.333 0 0 0 -7.084 7.545v19.867a6.151 6.151 0 0 0 6.144 6.144h1.156a1 1 0 1 1 0 2h-1.155a8.153 8.153 0 0 1 -8.145-8.144v-19.867a9.334 9.334 0 0 1 9.083-9.545h4.189a1 1 0 0 1 .58.185 11.961 11.961 0 0 0 14.194 0 1 1 0 0 1 .58-.185h4.188a9.334 9.334 0 0 1 9.086 9.545v19.867a8.153 8.153 0 0 1 -8.146 8.144z"/><path d="m30.948 41.978c-7.333 0-13.617-9.812-13.617-17.844a13.9 13.9 0 0 1 13.617-14.134 13.9 13.9 0 0 1 13.617 14.134c0 8.032-6.283 17.844-13.617 17.844zm0-29.978a11.9 11.9 0 0 0 -11.617 12.134c0 6.984 5.47 15.844 11.617 15.844s11.617-8.86 11.617-15.844a11.9 11.9 0 0 0 -11.617-12.134z"/><path d="m42.457 26.606c-7.273 0-12.233-5.226-14.115-7.606-4.546 5.682-9.521 5.174-10.1 5.094-.025 0-.05-.008-.075-.013a1 1 0 0 1 .167-1.986 1.143 1.143 0 0 1 .208.022c.4.05 4.95.463 8.988-5.37a1 1 0 0 1 1.662.027c.054.084 5.559 8.432 14.232 7.8a1.013 1.013 0 0 1 1.07.925 1 1 0 0 1 -.925 1.07q-.569.038-1.112.037z"/><path d="m30.91 121.9c-11.69 0-20.847-4.582-20.847-10.431 0-3.882 3.979-7.3 10.644-9.13a1 1 0 1 1 .532 1.928c-5.66 1.559-9.176 4.318-9.176 7.2 0 4.57 8.631 8.431 18.847 8.431s18.848-3.861 18.848-8.431c0-2.868-3.488-5.619-9.1-7.181a1 1 0 0 1 .536-1.927c6.615 1.841 10.565 5.245 10.565 9.108-.001 5.855-9.159 10.433-20.849 10.433z"/><path d="m123.937 112.473h-.014a5.889 5.889 0 0 1 -5.867-5.89l.033-23.708a1 1 0 0 1 1-1 1 1 0 0 1 1 1l-.033 23.708a3.886 3.886 0 0 0 3.871 3.887h.01a3.885 3.885 0 0 0 3.875-3.648l3.265-54.016a1 1 0 1 1 2 .121l-3.265 54.016a5.887 5.887 0 0 1 -5.875 5.53z"/><path d="m114.163 112.473a5.886 5.886 0 0 1 -5.871-5.527l-3.265-54.016a1 1 0 1 1 2-.121l3.265 54.016a3.885 3.885 0 0 0 3.875 3.648h.01a3.887 3.887 0 0 0 3.872-3.887l-.034-23.708a1 1 0 0 1 1-1 1 1 0 0 1 1 1l.034 23.708a5.89 5.89 0 0 1 -5.868 5.89z"/><path d="m131.855 79.489h-1.155a1 1 0 0 1 0-2h1.159a6.151 6.151 0 0 0 6.141-6.144v-19.867a7.333 7.333 0 0 0 -7.084-7.545h-3.874a13.939 13.939 0 0 1 -15.982 0h-3.874a7.333 7.333 0 0 0 -7.083 7.545v19.867a6.151 6.151 0 0 0 6.143 6.144h1.16a1 1 0 0 1 0 2h-1.16a8.153 8.153 0 0 1 -8.146-8.144v-19.867a9.334 9.334 0 0 1 9.083-9.545h4.188a1 1 0 0 1 .58.185 11.961 11.961 0 0 0 14.194 0 1 1 0 0 1 .58-.185h4.188a9.334 9.334 0 0 1 9.087 9.545v19.867a8.153 8.153 0 0 1 -8.145 8.144z"/><path d="m119.052 41.978c-7.334 0-13.618-9.812-13.618-17.844a13.627 13.627 0 1 1 27.235 0c0 8.032-6.284 17.844-13.617 17.844zm0-29.978a11.9 11.9 0 0 0 -11.618 12.134c0 6.984 5.47 15.844 11.618 15.844s11.617-8.86 11.617-15.844a11.9 11.9 0 0 0 -11.617-12.134z"/><path d="m107.543 26.606c-.365 0-.734-.013-1.109-.04a1 1 0 0 1 .144-1.995c8.684.629 14.178-7.712 14.232-7.8a1 1 0 0 1 1.663-.028c4.041 5.836 8.593 5.418 8.988 5.37a1.152 1.152 0 0 1 .208-.022 1 1 0 0 1 .165 1.986c-.024 0-.049.01-.074.013-.584.08-5.555.588-10.1-5.094-1.884 2.384-6.846 7.61-14.117 7.61z"/><path d="m119.09 121.9c-11.69 0-20.848-4.582-20.848-10.431 0-3.863 3.95-7.267 10.565-9.108a1 1 0 0 1 .536 1.927c-5.613 1.562-9.1 4.313-9.1 7.181 0 4.57 8.631 8.431 18.848 8.431s18.847-3.861 18.847-8.431c0-2.884-3.516-5.643-9.176-7.2a1 1 0 0 1 .531-1.928c6.665 1.835 10.645 5.248 10.645 9.13-.001 5.851-9.158 10.429-20.848 10.429z"/><path d="m58.749 125.133a.992.992 0 0 1 -.53-.154l-11.567-7.263a1 1 0 0 1 1.063-1.694l11.567 7.264a1 1 0 0 1 -.533 1.847z"/><path d="m91.175 125.133a1 1 0 0 1 -.533-1.847l11.566-7.264a1 1 0 0 1 1.064 1.694l-11.567 7.263a.992.992 0 0 1 -.53.154z"/></svg>