<svg id="Layer_1" height="512" viewBox="0 0 150 150" width="512" xmlns="http://www.w3.org/2000/svg" data-name="Layer 1"><path d="m69.059 134.824a22.245 22.245 0 0 1 -11.048-2.932l-24.8-13.5a1 1 0 0 1 .956-1.757l24.819 13.515a20.264 20.264 0 0 0 16.155 1.741l58.325-30.329a1.012 1.012 0 0 1 .131-.056 6.623 6.623 0 0 0 4.076-8.271 7.071 7.071 0 0 0 -3.646-4.138 5.33 5.33 0 0 0 -4.27-.189c-2.873 1.147-6.466 2.809-10.27 4.569-12.094 5.6-27.148 12.565-36.74 11.572a1 1 0 0 1 .2-1.99c9.057.932 23.823-5.9 35.7-11.4 3.828-1.772 7.445-3.445 10.367-4.612a7.306 7.306 0 0 1 5.858.235 9.1 9.1 0 0 1 4.7 5.326 8.635 8.635 0 0 1 -5.245 10.758l-58.339 30.334a.969.969 0 0 1 -.156.065 22.136 22.136 0 0 1 -6.773 1.059z"/><path d="m81.019 105.308h-.087l-18.55-.206a1 1 0 0 1 .011-2h.007l18.551.206a5.5 5.5 0 0 0 4-1.619 5.6 5.6 0 0 0 -3.94-9.588h-20.354a1 1 0 0 1 -.985-.831c-1.374-8-9.837-11.212-25.885-9.809a1 1 0 0 1 -.174-1.992c16.747-1.463 25.878 2.014 27.863 10.631h19.541a7.6 7.6 0 0 1 0 15.207z"/><path d="m33.689 122.3-22.689-.012a1 1 0 0 1 -1-1v-44.694a1 1 0 0 1 1-1h22.7a1 1 0 0 1 1 1l-.011 44.706a1 1 0 0 1 -1 1zm-21.689-2.011 20.686.01.01-42.705h-20.696z"/><path d="m23.181 88.542a3.888 3.888 0 1 1 3.888-3.887 3.892 3.892 0 0 1 -3.888 3.887zm0-5.775a1.888 1.888 0 1 0 1.888 1.888 1.89 1.89 0 0 0 -1.888-1.888z"/><path d="m15.721 107.09a1 1 0 0 1 -1-1v-12.58a1 1 0 0 1 2 0v12.58a1 1 0 0 1 -1 1z"/><path d="m15.721 117.573a1 1 0 0 1 -1-1v-5.923a1 1 0 0 1 2 0v5.923a1 1 0 0 1 -1 1z"/><path d="m53.5 87.805a1 1 0 0 1 -.549-.164c-2.422-1.592-6.362-2.431-11.712-2.494a1 1 0 0 1 .011-2h.012c5.739.068 10.041 1.017 12.788 2.823a1 1 0 0 1 -.55 1.835z"/><path d="m69.074 130.823a1 1 0 1 1 0-2 16.131 16.131 0 0 0 4.547-.653l8.8-4.574a1 1 0 1 1 .923 1.774l-8.881 4.619a1.091 1.091 0 0 1 -.174.07 18.111 18.111 0 0 1 -5.215.764z"/><path d="m88.519 122.551a1 1 0 0 1 -.463-1.888l11.486-5.972a1 1 0 1 1 .923 1.774l-11.486 5.973a1 1 0 0 1 -.46.113z"/><path d="m99.4 24.319a1 1 0 0 1 -.681-1.733l6.1-5.67a1 1 0 0 1 1.361 1.465l-6.1 5.67a.994.994 0 0 1 -.68.268z"/><path d="m95.633 84.2a34.511 34.511 0 1 1 0-69.022 1 1 0 0 1 1 1.062l-.928 14.76a1 1 0 0 1 -.949.937 17.774 17.774 0 1 0 15.835 27.326 1 1 0 0 1 1.284-.359l13.284 6.537a1 1 0 0 1 .427 1.395 34.6 34.6 0 0 1 -29.953 17.364zm-1.066-67a32.511 32.511 0 1 0 28.738 49.561l-11.529-5.673a19.77 19.77 0 1 1 -18.013-31.088z"/><path d="m112.181 41.839a1 1 0 0 1 -.881-.527 17.914 17.914 0 0 0 -12.566-9.12 1 1 0 0 1 -.825-1.047l.926-14.769a1 1 0 0 1 1.122-.929 34.316 34.316 0 0 1 26.875 19.491 1 1 0 0 1 -.532 1.362l-13.747 5.473a1 1 0 0 1 -.372.066zm-12.221-11.439a19.956 19.956 0 0 1 12.66 9.189l11.933-4.751a32.307 32.307 0 0 0 -23.79-17.257z"/><path d="m126.581 63.556a.985.985 0 0 1 -.441-.1l-13.284-6.526a1 1 0 0 1 -.5-1.238 17.7 17.7 0 0 0 .418-10.669 1 1 0 0 1 .594-1.194l13.748-5.474a1 1 0 0 1 1.32.617 34.619 34.619 0 0 1 -.932 23.972 1 1 0 0 1 -.923.615zm-12.058-8.039 11.529 5.665a32.669 32.669 0 0 0 .8-20.572l-11.93 4.751a19.74 19.74 0 0 1 -.4 10.156z"/><path d="m119.475 38.935a1 1 0 0 1 -.681-1.732l5.24-4.876a1 1 0 0 1 1.362 1.464l-5.24 4.876a1 1 0 0 1 -.681.268z"/><path d="m111.1 40.071a1 1 0 0 1 -.681-1.732l10.866-10.094a1 1 0 0 1 1.361 1.465l-10.863 10.09a.991.991 0 0 1 -.683.271z"/><path d="m107.826 36.442a1 1 0 0 1 -.68-1.733l10.854-10.072a1 1 0 0 1 1.36 1.466l-10.853 10.072a1 1 0 0 1 -.681.267z"/><path d="m103.6 33.717a1 1 0 0 1 -.68-1.732l11.263-10.469a1 1 0 0 1 1.361 1.465l-11.262 10.468a.992.992 0 0 1 -.682.268z"/><path d="m98.957 31.378a1 1 0 0 1 -.68-1.733l11.55-10.722a1 1 0 0 1 1.36 1.466l-11.55 10.722a.993.993 0 0 1 -.68.267z"/></svg>