<?xml version="1.0" encoding="UTF-8"?>
<svg xmlns="http://www.w3.org/2000/svg" id="Layer_1" data-name="Layer 1" viewBox="0 0 150 150" width="512" height="512"><path d="M18.747,109.059a1,1,0,0,1-1-1V31.8a1,1,0,0,1,.638-.932,76.506,76.506,0,0,1,56.977,0A1,1,0,0,1,76,31.8v76.264a1,1,0,0,1-1.289.957c-20.077-6.065-38.793-6.071-55.626-.016A.99.99,0,0,1,18.747,109.059Zm26.908-6.6A101.645,101.645,0,0,1,74,106.72V32.483a74.452,74.452,0,0,0-54.253,0V106.65A80.2,80.2,0,0,1,45.655,102.461Z"/><path d="M75,109.059a1,1,0,0,1-1-1V31.8a1,1,0,0,1,.638-.932,76.506,76.506,0,0,1,56.977,0,1,1,0,0,1,.638.932v76.264a1,1,0,0,1-1.289.957c-20.076-6.065-38.792-6.071-55.626-.016A.982.982,0,0,1,75,109.059Zm26.909-6.6a101.639,101.639,0,0,1,28.344,4.259V32.483a74.457,74.457,0,0,0-54.253,0V106.65A80.2,80.2,0,0,1,101.909,102.461Z"/><path d="M79.567,124.639H70.433a7.727,7.727,0,0,1-7.716-7.557H15.108A5.114,5.114,0,0,1,10,111.974V42.566a5.109,5.109,0,0,1,5.108-5.1h3.639a1,1,0,0,1,0,2H15.108A3.106,3.106,0,0,0,12,42.566v69.408a3.112,3.112,0,0,0,3.108,3.108H63.771a1,1,0,0,1,.993,1.123,5.817,5.817,0,0,0-.048.716,5.724,5.724,0,0,0,5.717,5.718h9.134a5.727,5.727,0,0,0,5.717-5.718,5.771,5.771,0,0,0-.048-.714,1,1,0,0,1,.992-1.125h48.664A3.112,3.112,0,0,0,138,111.974V42.566a3.106,3.106,0,0,0-3.108-3.1h-3.639a1,1,0,0,1,0-2h3.639a5.109,5.109,0,0,1,5.108,5.1v69.408a5.114,5.114,0,0,1-5.108,5.108H87.283a7.73,7.73,0,0,1-7.716,7.557Z"/><path d="M122.251,65.177H84a1,1,0,0,1-1-1V38.469a1,1,0,0,1,1-1h38.25a1,1,0,0,1,1,1V64.177A1,1,0,0,1,122.251,65.177Zm-37.25-2h36.25V39.469H85Z"/><path d="M99.977,58.323a1,1,0,0,1-1-1v-12a1,1,0,0,1,1.451-.892l11.875,6a1,1,0,0,1,0,1.785l-11.875,6A1,1,0,0,1,99.977,58.323Zm1-11.374V55.7l8.658-4.375Z"/><path d="M68,40.121a1.011,1.011,0,0,1-.305-.048,68.3,68.3,0,0,0-20.821-3.354,68.293,68.293,0,0,0-20.822,3.354,1,1,0,1,1-.611-1.905,70.311,70.311,0,0,1,21.433-3.449,70.3,70.3,0,0,1,21.431,3.449A1,1,0,0,1,68,40.121Z"/><path d="M68,52.032a.981.981,0,0,1-.305-.048A68.3,68.3,0,0,0,46.874,48.63a68.293,68.293,0,0,0-20.822,3.354,1,1,0,1,1-.611-1.9,70.282,70.282,0,0,1,21.433-3.45,70.269,70.269,0,0,1,21.431,3.45A1,1,0,0,1,68,52.032Z"/><path d="M68,63.944a1.011,1.011,0,0,1-.305-.048,68.266,68.266,0,0,0-20.821-3.354A68.262,68.262,0,0,0,26.052,63.9a1,1,0,1,1-.611-1.905,70.311,70.311,0,0,1,21.433-3.449,70.3,70.3,0,0,1,21.431,3.449A1,1,0,0,1,68,63.944Z"/><path d="M68,75.855a.981.981,0,0,1-.305-.048,68.3,68.3,0,0,0-20.821-3.353,68.291,68.291,0,0,0-20.822,3.353,1,1,0,1,1-.611-1.9,70.28,70.28,0,0,1,21.433-3.449A70.268,70.268,0,0,1,68.305,73.9,1,1,0,0,1,68,75.855Z"/><path d="M68,87.767a1.011,1.011,0,0,1-.305-.048,68.3,68.3,0,0,0-20.821-3.354,68.293,68.293,0,0,0-20.822,3.354,1,1,0,1,1-.611-1.905,70.311,70.311,0,0,1,21.433-3.449,70.3,70.3,0,0,1,21.431,3.449A1,1,0,0,1,68,87.767Z"/><path d="M68,99.678a.981.981,0,0,1-.305-.048,68.3,68.3,0,0,0-20.821-3.354A68.293,68.293,0,0,0,26.052,99.63a1,1,0,1,1-.611-1.9,70.282,70.282,0,0,1,21.433-3.45,70.269,70.269,0,0,1,21.431,3.45A1,1,0,0,1,68,99.678Z"/><path d="M124.253,75.855a.985.985,0,0,1-.305-.048,66.325,66.325,0,0,0-41.643,0,1,1,0,0,1-.61-1.9,68.313,68.313,0,0,1,42.864,0,1,1,0,0,1-.306,1.952Z"/><path d="M124.253,87.767a1.016,1.016,0,0,1-.305-.048,66.307,66.307,0,0,0-41.643,0,1,1,0,0,1-.61-1.905,68.313,68.313,0,0,1,42.864,0,1,1,0,0,1-.306,1.953Z"/><path d="M124.253,99.678a.985.985,0,0,1-.305-.048,66.307,66.307,0,0,0-41.643,0,1,1,0,0,1-.61-1.9,68.295,68.295,0,0,1,42.864,0,1,1,0,0,1-.306,1.952Z"/></svg>
