<svg id="Layer_1" height="512" viewBox="0 0 150 150" width="512" xmlns="http://www.w3.org/2000/svg" data-name="Layer 1"><path d="m60.263 110.533a50.272 50.272 0 1 1 35.548-14.724 49.944 49.944 0 0 1 -35.548 14.724zm0-98.522a48.25 48.25 0 1 0 34.137 14.116 48.125 48.125 0 0 0 -34.137-14.116z"/><path d="m60.263 101.791a41.53 41.53 0 1 1 29.38-12.15 41.425 41.425 0 0 1 -29.38 12.15zm0-81.061a39.531 39.531 0 1 0 27.966 11.57 39.423 39.423 0 0 0 -27.966-11.57z"/><path d="m92.242 111.453a5.5 5.5 0 0 1 -3.9-1.613l-5.459-5.459a1 1 0 0 1 1.414-1.414l5.459 5.459a3.538 3.538 0 0 0 5-.01l13.67-13.676a3.526 3.526 0 0 0 0-4.987l-5.459-5.459a1 1 0 0 1 1.414-1.414l5.459 5.459a5.525 5.525 0 0 1 0 7.815l-13.676 13.676a5.528 5.528 0 0 1 -3.922 1.623z"/><path d="m129.061 139.989a10.393 10.393 0 0 1 -7.4-3.064l-27-27a1 1 0 0 1 0-1.414l13.85-13.851a1 1 0 0 1 1.414 0l27 27a10.473 10.473 0 0 1 0 14.793l-.469.47a10.4 10.4 0 0 1 -7.395 3.066zm-32.277-30.773 26.295 26.294a8.457 8.457 0 0 0 11.964 0l.47-.469a8.47 8.47 0 0 0 0-11.965l-26.295-26.295z"/><path d="m67.695 37.792a4.5 4.5 0 0 1 -3.195-7.664 4.443 4.443 0 0 1 3.193-1.337 4.5 4.5 0 0 1 1.848 8.609 4.572 4.572 0 0 1 -1.846.392zm0-7a2.453 2.453 0 0 0 -1.766.738 2.5 2.5 0 0 0 1.766 4.263 2.574 2.574 0 0 0 1.033-.221 2.5 2.5 0 0 0 -1.033-4.78z"/><path d="m60.266 92.933c-8.09 0-14.427-14.35-14.427-32.669s6.337-32.664 14.427-32.664a8.187 8.187 0 0 1 5.634 2.5 1 1 0 0 1 .028 1.429 2.5 2.5 0 0 0 1.766 4.263 2.574 2.574 0 0 0 1.033-.221 1 1 0 0 1 1.3.481c2.966 6.121 4.666 14.948 4.666 24.212 0 18.319-6.337 32.669-14.427 32.669zm0-63.337c-6.736 0-12.427 14.044-12.427 30.668s5.691 30.669 12.427 30.669 12.427-14.045 12.427-30.669c0-8.584-1.489-16.742-4.1-22.562a4.5 4.5 0 0 1 -4.743-6.733 5.805 5.805 0 0 0 -3.584-1.369z"/><path d="m44.3 80.8a1 1 0 0 1 -.976-1.216 2.517 2.517 0 0 0 -2.5-2.572 2.489 2.489 0 0 0 -2.5 2.336 1 1 0 0 1 -1.278.905 8.35 8.35 0 0 1 -5.083-3.66c-2.009-3.474-.818-8.431 3.353-13.961 3.991-5.292 10.285-10.573 17.721-14.87s15.164-7.1 21.743-7.911c6.872-.848 11.759.6 13.761 4.072 4.044 7.007-5.213 19.67-21.076 28.829-7.912 4.578-16.329 7.511-23.084 8.048-.026 0-.052 0-.081 0zm-3.47-5.786a4.5 4.5 0 0 1 4.423 3.691c6.287-.715 13.951-3.482 21.221-7.683 14.395-8.312 23.712-20.263 20.344-26.1-1.552-2.693-5.847-3.819-11.785-3.087-6.319.778-13.772 3.5-20.987 7.658s-13.291 9.262-17.125 14.346c-3.6 4.776-4.776 9.061-3.219 11.754a5.8 5.8 0 0 0 2.891 2.383 4.5 4.5 0 0 1 4.237-2.962z"/><path d="m78.426 80.906c-6.991 0-16.364-2.947-25.379-8.152-15.86-9.164-25.118-21.827-21.077-28.829a7.748 7.748 0 0 1 3.888-3.243 1 1 0 0 1 1.353.68 2.5 2.5 0 0 0 4.919-.577 1 1 0 0 1 .214-.78.973.973 0 0 1 .814-.368c6.994.277 15.857 3.239 24.317 8.127 8.74 5.047 15.852 11.425 19.51 17.5a1 1 0 0 1 -.406 1.409 2.5 2.5 0 0 0 1.128 4.727 2.516 2.516 0 0 0 .545-.065 1 1 0 0 1 1.219.9 7.455 7.455 0 0 1 -.92 4.359 8.369 8.369 0 0 1 -5.381 3.754 18.4 18.4 0 0 1 -4.744.558zm-42.706-37.933a5.367 5.367 0 0 0 -2.02 1.951c-3.366 5.831 5.951 17.782 20.344 26.1 10.826 6.251 22.054 9.154 28.6 7.392a6.46 6.46 0 0 0 4.166-2.82 5.1 5.1 0 0 0 .657-2.2 4.5 4.5 0 0 1 -2.708-7.9c-3.621-5.55-10.227-11.337-18.3-15.995-7.8-4.509-15.914-7.322-22.441-7.806a4.5 4.5 0 0 1 -8.313 1.283z"/><path d="m39.635 45.256a4.5 4.5 0 1 1 4.48-4.728 1.515 1.515 0 0 1 .015.232 4.5 4.5 0 0 1 -4.495 4.496zm0-6.991a2.5 2.5 0 0 0 -2.495 2.495 2.55 2.55 0 0 0 .071.605 2.5 2.5 0 0 0 4.919-.58.941.941 0 0 1 -.011-.118 2.5 2.5 0 0 0 -2.484-2.402zm3.3 2.495h.192-.174z"/><path d="m40.83 84.015a4.511 4.511 0 0 1 -4.506-4.506 2.725 2.725 0 0 1 .015-.31 4.5 4.5 0 0 1 8.986.31 2.313 2.313 0 0 1 -.031.429 4.5 4.5 0 0 1 -4.464 4.077zm0-7a2.489 2.489 0 0 0 -2.5 2.336.791.791 0 0 1 -.011.108 2.523 2.523 0 0 0 2.508 2.557 2.488 2.488 0 0 0 2.475-2.288.98.98 0 0 1 .021-.141v-.077a2.5 2.5 0 0 0 -2.493-2.496z"/><path d="m87.707 73.4a4.5 4.5 0 0 1 -2.029-8.51 4.39 4.39 0 0 1 2.029-.491 4.5 4.5 0 0 1 .984 8.887 4.46 4.46 0 0 1 -.984.114zm0-7a2.4 2.4 0 0 0 -1.114.269 2.5 2.5 0 0 0 1.114 4.731 2.5 2.5 0 0 0 0-5z"/><path d="m125.712 119.933a1 1 0 0 1 -.707-.293l-7.553-7.554a1 1 0 1 1 1.414-1.414l7.553 7.554a1 1 0 0 1 -.707 1.707z"/><path d="m132.685 126.905a1 1 0 0 1 -.707-.293l-4.138-4.138a1 1 0 1 1 1.414-1.414l4.138 4.138a1 1 0 0 1 -.707 1.707z"/></svg>