<svg id="Layer_1" height="512" viewBox="0 0 150 150" width="512" xmlns="http://www.w3.org/2000/svg" data-name="Layer 1"><path d="m105.6 140h-88.333a5.568 5.568 0 0 1 -5.561-5.561v-105.578a5.568 5.568 0 0 1 5.561-5.561h21.267a1 1 0 0 1 0 2h-21.267a3.564 3.564 0 0 0 -3.561 3.561v105.577a3.564 3.564 0 0 0 3.561 3.562h88.333a3.565 3.565 0 0 0 3.561-3.561v-105.578a3.565 3.565 0 0 0 -3.561-3.561h-21.268a1 1 0 0 1 0-2h21.268a5.568 5.568 0 0 1 5.561 5.561v105.577a5.568 5.568 0 0 1 -5.561 5.562z"/><path d="m104.213 134.052h-85.561a1 1 0 0 1 -1-1v-102.806a1 1 0 0 1 1-1h18.748a1 1 0 0 1 0 2h-17.748v100.806h83.561v-100.806h-17.751a1 1 0 0 1 0-2h18.751a1 1 0 0 1 1 1v102.806a1 1 0 0 1 -1 1z"/><path d="m86.043 34.3h-49.224a1 1 0 0 1 -.983-1.187l2.1-11.024a5.327 5.327 0 0 1 5.228-4.325h11.456v-.952a6.81 6.81 0 0 1 7.02-6.812 6.989 6.989 0 0 1 6.6 7.051v.709h11.46a5.329 5.329 0 0 1 5.229 4.325l2.1 11.024a1 1 0 0 1 -.983 1.187zm-48.016-2h46.808l-1.875-9.837a3.326 3.326 0 0 0 -3.264-2.7h-12.453a1 1 0 0 1 -1-1v-1.709a4.975 4.975 0 0 0 -4.663-5.054 4.81 4.81 0 0 0 -4.96 4.809v1.952a1 1 0 0 1 -1 1h-12.454a3.324 3.324 0 0 0 -3.263 2.7z"/><path d="m78.383 28.6h-9.168a1 1 0 0 1 0-2h9.168a1 1 0 0 1 0 2z"/><path d="m65.313 28.6h-27.408a1 1 0 0 1 0-2h27.408a1 1 0 0 1 0 2z"/><path d="m95.293 44.953h-12a1 1 0 0 1 0-2h12a1 1 0 0 1 0 2z"/><path d="m76.634 44.953h-27.14a1 1 0 0 1 0-2h27.14a1 1 0 0 1 0 2z"/><path d="m41.012 44.953h-13.44a1 1 0 0 1 0-2h13.44a1 1 0 0 1 0 2z"/><path d="m95.293 58.168h-45.8a1 1 0 0 1 0-2h45.8a1 1 0 0 1 0 2z"/><path d="m41.012 58.168h-13.44a1 1 0 1 1 0-2h13.44a1 1 0 0 1 0 2z"/><path d="m95.293 71.383h-12a1 1 0 0 1 0-2h12a1 1 0 0 1 0 2z"/><path d="m76.634 71.383h-19.5a1 1 0 0 1 0-2h19.5a1 1 0 0 1 0 2z"/><path d="m52.8 71.383h-25.228a1 1 0 0 1 0-2h25.228a1 1 0 0 1 0 2z"/><path d="m95.293 84.6h-37.318a1 1 0 0 1 0-2h37.318a1 1 0 0 1 0 2z"/><path d="m49.494 84.6h-21.922a1 1 0 0 1 0-2h21.922a1 1 0 1 1 0 2z"/><path d="m61.433 125.441a17.045 17.045 0 1 1 17.045-17.041 17.064 17.064 0 0 1 -17.045 17.041zm0-32.089a15.045 15.045 0 1 0 15.045 15.048 15.062 15.062 0 0 0 -15.045-15.048z"/><path d="m58.194 114.605a1 1 0 0 1 -.707-.293l-3.393-3.392a1 1 0 1 1 1.414-1.414l2.686 2.685 9.163-9.163a1 1 0 0 1 1.414 1.414l-9.87 9.87a.993.993 0 0 1 -.707.293z"/><path d="m131.644 127.389h-14.714a1 1 0 0 1 -1-1v-69.115a4.912 4.912 0 0 1 4.9-4.906h6.9a4.912 4.912 0 0 1 4.906 4.906v69.115a1 1 0 0 1 -.992 1zm-13.714-2h12.714v-68.115a2.91 2.91 0 0 0 -2.906-2.906h-6.9a2.909 2.909 0 0 0 -2.9 2.906z"/><path d="m124.287 140a1 1 0 0 1 -.864-.5l-7.357-12.61a1 1 0 0 1 .864-1.5h14.714a1 1 0 0 1 .863 1.5l-7.356 12.61a1 1 0 0 1 -.864.5zm-5.616-12.61 5.616 9.626 5.615-9.626z"/><path d="m135.3 89.732a1 1 0 0 1 -1-1v-3.266a1 1 0 0 1 .237-.646l.45-.532a5.549 5.549 0 0 0 1.311-3.581v-11.371a3.205 3.205 0 0 0 -3.2-3.2h-16.168a1 1 0 0 1 0-2h16.162a5.208 5.208 0 0 1 5.2 5.2v11.371a7.554 7.554 0 0 1 -1.784 4.873l-.214.252v2.9a1 1 0 0 1 -.994 1z"/><path d="m121.29 102.78a1 1 0 0 1 -1-1v-18.8a1 1 0 0 1 2 0v18.8a1 1 0 0 1 -1 1z"/><path d="m121.29 114.36a1 1 0 0 1 -1-1v-7.76a1 1 0 0 1 2 0v7.765a1 1 0 0 1 -1 .995z"/></svg>