<svg id="Layer_1" height="512" viewBox="0 0 150 150" width="512" xmlns="http://www.w3.org/2000/svg" data-name="Layer 1"><path d="m87.6 39.734h-25.2a1 1 0 0 1 -.748-.336 17.854 17.854 0 1 1 26.692 0 1 1 0 0 1 -.744.336zm-24.738-2h24.278a15.854 15.854 0 1 0 -24.28 0z"/><path d="m99.234 111.161h-48.469a4.451 4.451 0 1 1 0-8.9h48.469a4.451 4.451 0 1 1 0 8.9zm-48.469-6.9a2.451 2.451 0 1 0 0 4.9h48.469a2.451 2.451 0 1 0 0-4.9z"/><path d="m99.219 132.738h-48.438a1 1 0 0 1 -1-1v-21.577a1 1 0 0 1 1-1h48.438a1 1 0 0 1 1 1v21.577a1 1 0 0 1 -1 1zm-47.438-2h46.438v-19.577h-46.438z"/><path d="m97.65 104.26h-45.3a1 1 0 0 1 -.948-1.322c5.083-14.954 8.123-34.653 9.036-58.552a1 1 0 0 1 1-.961h27.124a1 1 0 0 1 1 .961c.914 23.9 3.954 43.6 9.037 58.552a1 1 0 0 1 -.948 1.322zm-43.914-2h42.528c-4.814-14.76-7.726-33.86-8.664-56.835h-25.2c-.937 22.966-3.85 42.075-8.664 56.835z"/><path d="m89.924 45.425h-29.848a3.846 3.846 0 1 1 0-7.691h29.848a3.846 3.846 0 0 1 0 7.691zm-29.848-5.691a1.846 1.846 0 1 0 0 3.691h29.848a1.846 1.846 0 0 0 0-3.691z"/><path d="m112.191 140.282h-74.382a1 1 0 0 1 -1-1 8.554 8.554 0 0 1 8.544-8.544h59.293a8.554 8.554 0 0 1 8.545 8.544 1 1 0 0 1 -1 1zm-73.306-2h72.23a6.555 6.555 0 0 0 -6.469-5.544h-59.293a6.554 6.554 0 0 0 -6.468 5.544z"/><path d="m63.146 28.571a1 1 0 0 1 -1-1 12.868 12.868 0 0 1 12.854-12.854 1 1 0 1 1 0 2 10.867 10.867 0 0 0 -10.854 10.854 1 1 0 0 1 -1 1z"/><path d="m58.375 127.012a1 1 0 0 1 -1-1v-10.125a1 1 0 0 1 2 0v10.125a1 1 0 0 1 -1 1z"/><path d="m66.687 127.012a1 1 0 0 1 -1-1v-10.125a1 1 0 0 1 2 0v10.125a1 1 0 0 1 -1 1z"/><path d="m75 127.012a1 1 0 0 1 -1-1v-10.125a1 1 0 0 1 2 0v10.125a1 1 0 0 1 -1 1z"/><path d="m83.312 127.012a1 1 0 0 1 -1-1v-10.125a1 1 0 0 1 2 0v10.125a1 1 0 0 1 -1 1z"/><path d="m91.625 127.012a1 1 0 0 1 -1-1v-10.125a1 1 0 0 1 2 0v10.125a1 1 0 0 1 -1 1z"/></svg>