<svg id="Layer_1" height="512" viewBox="0 0 150 150" width="512" xmlns="http://www.w3.org/2000/svg" data-name="Layer 1"><path d="m69.309 129.016a6.691 6.691 0 0 1 -6.674-6.282l-3.8-62.911a1 1 0 0 1 2-.121l3.8 62.911a4.69 4.69 0 0 0 4.678 4.4h.011a4.691 4.691 0 0 0 4.673-4.692l-.039-27.611a1 1 0 0 1 1-1 1 1 0 0 1 1 1l.039 27.611a6.693 6.693 0 0 1 -6.668 6.695z"/><path d="m80.691 129.016h-.015a6.693 6.693 0 0 1 -6.669-6.695l.039-27.611a1 1 0 0 1 1-1 1 1 0 0 1 1 1l-.039 27.611a4.691 4.691 0 0 0 4.674 4.692h.01a4.69 4.69 0 0 0 4.678-4.4l3.8-62.911a1 1 0 0 1 2 .121l-3.8 62.911a6.691 6.691 0 0 1 -6.678 6.282z"/><path d="m89.913 90.6h-1.35a1 1 0 1 1 0-2h1.35a7.329 7.329 0 0 0 7.32-7.32v-23.137a8.706 8.706 0 0 0 -8.415-8.952h-4.563a16.068 16.068 0 0 1 -18.51 0h-4.563a8.706 8.706 0 0 0 -8.415 8.952v23.138a7.329 7.329 0 0 0 7.32 7.32h1.35a1 1 0 1 1 0 2h-1.35a9.33 9.33 0 0 1 -9.32-9.32v-23.138a10.7 10.7 0 0 1 10.415-10.952h4.878a1 1 0 0 1 .58.185 14.09 14.09 0 0 0 16.72 0 1 1 0 0 1 .58-.185h4.878a10.7 10.7 0 0 1 10.415 10.952v23.138a9.33 9.33 0 0 1 -9.32 9.319z"/><path d="m75 46.914c-8.454 0-15.7-11.337-15.7-20.614 0-8.989 7.044-16.3 15.7-16.3s15.694 7.311 15.694 16.3c-.002 9.277-7.244 20.614-15.694 20.614zm0-34.914c-7.553 0-13.7 6.414-13.7 14.3 0 8.2 6.451 18.614 13.7 18.614s13.692-10.414 13.692-18.614c0-7.886-6.143-14.3-13.692-14.3z"/><path d="m88.4 29.011c-8.573 0-14.37-6.294-16.439-8.959-5.271 6.717-11.071 6.131-11.743 6.035a.686.686 0 0 1 -.079-.014 1 1 0 0 1 .163-1.987 1.293 1.293 0 0 1 .217.024c.69.087 5.9.512 10.627-6.323a1 1 0 0 1 .823-.43h.015a1 1 0 0 1 .825.457c.064.1 6.534 9.9 16.726 9.156a1 1 0 0 1 .145 2q-.647.041-1.28.041z"/><path d="m74.954 140c-13.522 0-24.115-5.264-24.115-11.984 0-4.442 4.589-8.358 12.276-10.475a1 1 0 1 1 .531 1.928c-6.666 1.836-10.807 5.111-10.807 8.547 0 5.412 10.128 9.984 22.115 9.984s22.115-4.572 22.115-9.984c0-3.417-4.107-6.682-10.719-8.522a1 1 0 1 1 .537-1.927c7.628 2.123 12.182 6.029 12.182 10.449 0 6.72-10.592 11.984-24.115 11.984z"/><path d="m39.482 62.294a1 1 0 0 1 -.707-.294l-19.152-19.151a1 1 0 1 1 1.414-1.414l19.152 19.152a1 1 0 0 1 -.707 1.707z"/><path d="m39.482 62.294h-.055l-7.539-.419a1 1 0 1 1 .111-2l6.423.357-.358-6.422a1 1 0 0 1 .943-1.055 1.011 1.011 0 0 1 1.054.943l.419 7.539a1 1 0 0 1 -1 1.056z"/><path d="m20.33 109.753a1 1 0 0 1 -.707-1.707l19.152-19.152a1 1 0 1 1 1.414 1.414l-19.152 19.152a.993.993 0 0 1 -.707.293z"/><path d="m39.063 98.14h-.056a1 1 0 0 1 -.943-1.055l.358-6.422-6.422.356a1.01 1.01 0 0 1 -1.054-.943 1 1 0 0 1 .943-1.054l7.539-.419a1 1 0 0 1 1.053 1.054l-.42 7.543a1 1 0 0 1 -.998.94z"/><path d="m110.518 62.294a1 1 0 0 1 -.707-1.707l19.152-19.152a1 1 0 1 1 1.414 1.414l-19.152 19.151a1 1 0 0 1 -.707.294z"/><path d="m110.518 62.294a1 1 0 0 1 -1-1.056l.419-7.539a1 1 0 1 1 2 .112l-.358 6.422 6.421-.357a1 1 0 0 1 .111 2l-7.539.419z"/><path d="m129.67 109.753a.993.993 0 0 1 -.707-.293l-19.152-19.152a1 1 0 1 1 1.414-1.414l19.152 19.152a1 1 0 0 1 -.707 1.707z"/><path d="m110.937 98.14a1 1 0 0 1 -1-.944l-.419-7.539a1 1 0 0 1 1.053-1.054l7.539.419a1 1 0 1 1 -.111 2l-6.423-.357.358 6.422a1 1 0 0 1 -.943 1.055z"/></svg>