<svg id="Layer_1" height="512" viewBox="0 0 150 150" width="512" xmlns="http://www.w3.org/2000/svg" data-name="Layer 1"><path d="m99.589 105.507h-49.166a4.576 4.576 0 0 1 -4.571-4.572v-10.092a12.7 12.7 0 0 1 12.687-12.687h6.427a1 1 0 0 1 .637.229 14.348 14.348 0 0 0 9.378 3.146 14.389 14.389 0 0 0 9.428-3.146 1 1 0 0 1 .637-.229h6.427a12.7 12.7 0 0 1 12.687 12.687v10.092a4.577 4.577 0 0 1 -4.571 4.572zm-41.05-25.351a10.7 10.7 0 0 0 -10.687 10.687v10.092a2.574 2.574 0 0 0 2.571 2.572h49.166a2.574 2.574 0 0 0 2.571-2.572v-10.092a10.7 10.7 0 0 0 -10.687-10.687h-6.073a16.362 16.362 0 0 1 -10.364 3.375 16.42 16.42 0 0 1 -10.421-3.375z"/><path d="m75 78.731c-10.281 0-18.335-11.185-18.335-25.463 0-8.5 7.841-18.016 18.335-18.016s18.336 9.512 18.336 18.016c-.001 14.278-8.055 25.463-18.336 25.463zm0-41.479c-9.35 0-16.335 8.456-16.335 16.016 0 12.938 7.328 23.463 16.335 23.463s16.335-10.525 16.335-23.463c0-7.56-6.986-16.016-16.335-16.016z"/><path d="m61.649 54.647a21.812 21.812 0 0 1 -4.176-.4 1 1 0 0 1 .382-1.963c7.216 1.405 14.956-1.326 17.991-6.356a1 1 0 0 1 1.456-.284c4.446 3.334 9.58 6.669 14.278 4.055a1 1 0 0 1 .973 1.747c-5.76 3.209-11.891-.827-15.606-3.571-3.087 4.191-9.081 6.772-15.298 6.772z"/><path d="m93.4 105.507a1 1 0 0 1 -1-1v-12.822a1 1 0 0 1 2 0v12.822a1 1 0 0 1 -1 1z"/><path d="m56.638 105.507a1 1 0 0 1 -1-1v-12.822a1 1 0 0 1 2 0v12.822a1 1 0 0 1 -1 1z"/><path d="m81.082 130.692a1 1 0 0 1 -.5-1.866l38.374-22.161a1 1 0 1 1 1 1.731l-38.375 22.162a.992.992 0 0 1 -.499.134z"/><path d="m24.6 98.972a1 1 0 0 1 -1-1v-45.948a1 1 0 0 1 2 0v45.948a1 1 0 0 1 -1 1z"/><path d="m119.454 43.465a1 1 0 0 1 -.5-.133l-38.373-22.161a1 1 0 0 1 1-1.733l38.374 22.162a1 1 0 0 1 -.5 1.866z"/><path d="m30.554 43.465a1 1 0 0 1 -.5-1.866l38.374-22.161a1 1 0 0 1 1 1.733l-38.375 22.161a1 1 0 0 1 -.499.133z"/><path d="m68.927 130.692a.992.992 0 0 1 -.5-.134l-38.374-22.151a1 1 0 0 1 1-1.732l38.375 22.151a1 1 0 0 1 -.5 1.866z"/><path d="m125.4 98.972a1 1 0 0 1 -1-1v-45.948a1 1 0 1 1 2 0v45.948a1 1 0 0 1 -1 1z"/><path d="m75.006 25.279a7.64 7.64 0 1 1 7.64-7.639 7.648 7.648 0 0 1 -7.64 7.639zm0-13.279a5.64 5.64 0 1 0 5.64 5.64 5.646 5.646 0 0 0 -5.64-5.64z"/><path d="m24.594 53.026a7.64 7.64 0 1 1 7.639-7.639 7.648 7.648 0 0 1 -7.639 7.639zm0-13.279a5.64 5.64 0 1 0 5.639 5.64 5.646 5.646 0 0 0 -5.639-5.64z"/><path d="m125.406 53.026a7.64 7.64 0 1 1 7.64-7.639 7.647 7.647 0 0 1 -7.64 7.639zm0-13.279a5.64 5.64 0 1 0 5.64 5.64 5.646 5.646 0 0 0 -5.64-5.64z"/><path d="m75.006 140a7.64 7.64 0 1 1 7.64-7.64 7.648 7.648 0 0 1 -7.64 7.64zm0-13.279a5.64 5.64 0 1 0 5.64 5.639 5.645 5.645 0 0 0 -5.64-5.639z"/><path d="m24.594 112.253a7.64 7.64 0 1 1 7.639-7.64 7.648 7.648 0 0 1 -7.639 7.64zm0-13.279a5.64 5.64 0 1 0 5.639 5.639 5.645 5.645 0 0 0 -5.639-5.639z"/><path d="m125.406 112.253a7.64 7.64 0 1 1 7.64-7.64 7.647 7.647 0 0 1 -7.64 7.64zm0-13.279a5.64 5.64 0 1 0 5.64 5.639 5.645 5.645 0 0 0 -5.64-5.639z"/><path d="m59.924 66.438a1.015 1.015 0 0 1 -.31-.05c-2.365-.77-6.331-2.727-6.319-7.187a4.739 4.739 0 0 1 4.275-4.922 1 1 0 0 1 .319 1.975 2.741 2.741 0 0 0 -2.589 2.953c-.008 3.192 3.091 4.678 4.938 5.279a1 1 0 0 1 -.309 1.952z"/><path d="m90.075 66.438a1 1 0 0 1 -.309-1.952c1.847-.6 4.946-2.088 4.937-5.279a2.741 2.741 0 0 0 -2.594-2.953 1 1 0 0 1 .319-1.975 4.738 4.738 0 0 1 4.272 4.921c.013 4.46-3.953 6.418-6.318 7.188a1.015 1.015 0 0 1 -.307.05z"/><path d="m40.065 43.733a1 1 0 0 1 -.5-1.866l24.074-13.9a1 1 0 0 1 1 1.733l-24.075 13.9a1 1 0 0 1 -.499.133z"/><path d="m62.789 121.388a.992.992 0 0 1 -.5-.134l-19.9-11.484a1 1 0 1 1 1-1.733l19.9 11.485a1 1 0 0 1 -.5 1.866z"/><path d="m120.413 89.505a1 1 0 0 1 -1-1v-28.605a1 1 0 0 1 2 0v28.6a1 1 0 0 1 -1 1.005z"/></svg>