<svg id="Layer_1" height="512" viewBox="0 0 150 150" width="512" xmlns="http://www.w3.org/2000/svg" data-name="Layer 1"><path d="m131.755 112.057a1 1 0 0 1 -1-1v-76.927a4.3 4.3 0 0 0 -4.3-4.3h-102.918a4.3 4.3 0 0 0 -4.295 4.3v76.927a1 1 0 0 1 -2 0v-76.927a6.3 6.3 0 0 1 6.295-6.3h102.923a6.3 6.3 0 0 1 6.3 6.3v76.927a1 1 0 0 1 -1.005 1z"/><path d="m126.181 106.484h-102.366a1 1 0 0 1 -1-1v-71.076a1 1 0 0 1 1-1h102.366a1 1 0 0 1 1 1v71.076a1 1 0 0 1 -1 1zm-101.366-2h100.366v-69.076h-100.366z"/><path d="m131.665 122.165h-113.33a8.344 8.344 0 0 1 -8.335-8.335v-2.775a1 1 0 0 1 1-1h52.268a1 1 0 0 1 .9.563l1.75 3.606h18.165l1.75-3.606a1 1 0 0 1 .9-.563h52.267a1 1 0 0 1 1 1v2.775a8.344 8.344 0 0 1 -8.335 8.335zm-119.665-10.11v1.775a6.342 6.342 0 0 0 6.335 6.335h113.33a6.342 6.342 0 0 0 6.335-6.335v-1.775h-50.642l-1.75 3.6a1 1 0 0 1 -.9.564h-19.417a1 1 0 0 1 -.9-.564l-1.75-3.6z"/><path d="m118.972 87.258h-87.947a1 1 0 1 1 0-2h87.947a1 1 0 0 1 0 2z"/><path d="m118.972 97.317h-87.947a1 1 0 1 1 0-2h87.947a1 1 0 0 1 0 2z"/><path d="m87 80.946h-24a3.691 3.691 0 0 1 -3.687-3.687v-14.618a3.691 3.691 0 0 1 3.687-3.687h24a3.691 3.691 0 0 1 3.687 3.687v14.618a3.691 3.691 0 0 1 -3.687 3.687zm-24-19.992a1.689 1.689 0 0 0 -1.687 1.687v14.618a1.689 1.689 0 0 0 1.687 1.687h24a1.689 1.689 0 0 0 1.687-1.687v-14.618a1.689 1.689 0 0 0 -1.687-1.687z"/><path d="m85.93 60.954h-21.863a1 1 0 0 1 -1-1v-8.848a11.932 11.932 0 0 1 23.863 0v8.848a1 1 0 0 1 -1 1zm-20.863-2h19.863v-7.848a9.932 9.932 0 0 0 -19.863 0z"/><path d="m75 71.408a2.75 2.75 0 1 1 2.75-2.75 2.752 2.752 0 0 1 -2.75 2.75zm0-3.5a.75.75 0 1 0 .75.75.751.751 0 0 0 -.75-.75z"/><path d="m75 73.991a1 1 0 0 1 -1-1v-2.583a1 1 0 0 1 2 0v2.583a1 1 0 0 1 -1 1z"/></svg>