<svg id="Layer_1" height="512" viewBox="0 0 150 150" width="512" xmlns="http://www.w3.org/2000/svg" data-name="Layer 1"><path d="m114 34.846h-22.846a1 1 0 0 1 -1-1v-22.846a1 1 0 0 1 1.707-.707l22.846 22.846a1 1 0 0 1 -.707 1.707zm-21.846-2h19.432l-19.432-19.432z"/><path d="m114 140h-103a1 1 0 0 1 -1-1v-128a1 1 0 0 1 1-1h80.154a1 1 0 0 1 .707.293l22.846 22.846a1 1 0 0 1 .293.707v105.154a1 1 0 0 1 -1 1zm-102-2h101v-103.74l-22.26-22.26h-78.74z"/><path d="m55.25 23.423h-35.7a1 1 0 0 1 0-2h35.7a1 1 0 0 1 0 2z"/><path d="m55.25 32.6h-35.7a1 1 0 0 1 0-2h35.7a1 1 0 0 1 0 2z"/><path d="m38.42 65.221h-18.875a1 1 0 0 1 -1-1v-18.875a1 1 0 0 1 1-1h18.875a1 1 0 0 1 1 1v18.875a1 1 0 0 1 -1 1zm-17.875-2h16.875v-16.875h-16.875z"/><path d="m26.065 60.114a1 1 0 0 1 -.707-.293l-2.828-2.828a1 1 0 0 1 1.414-1.414l2.121 2.121 7.955-7.955a1 1 0 1 1 1.414 1.414l-8.662 8.662a1 1 0 0 1 -.707.293z"/><path d="m105.455 49.6h-60.08a1 1 0 0 1 0-2h60.08a1 1 0 0 1 0 2z"/><path d="m93.045 61.971h-47.67a1 1 0 0 1 0-2h47.67a1 1 0 0 1 0 2z"/><path d="m38.42 92.97h-18.875a1 1 0 0 1 -1-1v-18.87a1 1 0 0 1 1-1h18.875a1 1 0 0 1 1 1v18.87a1 1 0 0 1 -1 1zm-17.875-2h16.875v-16.87h-16.875z"/><path d="m105.455 77.345h-60.08a1 1 0 0 1 0-2h60.08a1 1 0 1 1 0 2z"/><path d="m24.651 87.864a1 1 0 0 1 -.707-1.707l8.662-8.657a1 1 0 1 1 1.414 1.414l-8.662 8.662a1 1 0 0 1 -.707.288z"/><path d="m33.313 87.864a1 1 0 0 1 -.707-.293l-8.662-8.662a1 1 0 1 1 1.414-1.409l8.662 8.662a1 1 0 0 1 -.707 1.707z"/><path d="m62.5 122.025a13.441 13.441 0 1 1 13.44-13.441 13.456 13.456 0 0 1 -13.44 13.441zm0-24.881a11.441 11.441 0 1 0 11.44 11.44 11.453 11.453 0 0 0 -11.44-11.44z"/><path d="m65.748 133.074h-6.5a1 1 0 0 1 -1-1v-4.491a19.216 19.216 0 0 1 -6.186-2.557l-3.168 3.174a1 1 0 0 1 -1.414 0l-4.593-4.6a1 1 0 0 1 0-1.414l3.171-3.171a19.242 19.242 0 0 1 -2.557-6.186h-4.49a1 1 0 0 1 -1-1v-6.5a1 1 0 0 1 1-1h4.489a19.242 19.242 0 0 1 2.557-6.186l-3.171-3.171a1 1 0 0 1 0-1.414l4.593-4.593a1 1 0 0 1 1.414 0l3.172 3.171a19.24 19.24 0 0 1 6.186-2.558v-4.478a1 1 0 0 1 1-1h6.5a1 1 0 0 1 1 1v4.49a19.226 19.226 0 0 1 6.185 2.558l3.172-3.171a1 1 0 0 1 1.414 0l4.594 4.593a1 1 0 0 1 0 1.414l-3.174 3.166a19.19 19.19 0 0 1 2.557 6.186h4.49a1 1 0 0 1 1 1v6.5a1 1 0 0 1 -1 1h-4.489a19.225 19.225 0 0 1 -2.557 6.186l3.171 3.171a1 1 0 0 1 0 1.414l-4.595 4.593a1 1 0 0 1 -1.414 0l-3.172-3.171a19.2 19.2 0 0 1 -6.185 2.557v4.491a1 1 0 0 1 -1 .997zm-5.5-2h4.5v-4.31a1 1 0 0 1 .825-.985 17.272 17.272 0 0 0 6.916-2.86 1 1 0 0 1 1.279.113l3.044 3.044 3.18-3.179-3.044-3.044a1 1 0 0 1 -.113-1.279 17.267 17.267 0 0 0 2.859-6.916 1 1 0 0 1 .985-.825h4.31v-4.5h-4.31a1 1 0 0 1 -.985-.825 17.259 17.259 0 0 0 -2.859-6.908 1 1 0 0 1 .113-1.279l3.044-3.044-3.18-3.179-3.044 3.044a1 1 0 0 1 -1.279.113 17.257 17.257 0 0 0 -6.916-2.86 1 1 0 0 1 -.825-.985v-4.31h-4.5v4.31a1 1 0 0 1 -.825.985 17.257 17.257 0 0 0 -6.916 2.86 1 1 0 0 1 -1.28-.113l-3.044-3.044-3.179 3.179 3.045 3.044a1 1 0 0 1 .112 1.28 17.262 17.262 0 0 0 -2.859 6.915 1 1 0 0 1 -.985.825h-4.31v4.5h4.31a1 1 0 0 1 .985.825 17.268 17.268 0 0 0 2.859 6.915 1 1 0 0 1 -.112 1.28l-3.041 3.039 3.179 3.179 3.044-3.044a1 1 0 0 1 1.28-.113 17.272 17.272 0 0 0 6.916 2.86 1 1 0 0 1 .825.985z"/><path d="m139 124.655a1 1 0 0 1 -1-1v-61.424h-14.143v61.424a1 1 0 0 1 -2 0v-62.424a1 1 0 0 1 1-1h16.143a1 1 0 0 1 1 1v62.424a1 1 0 0 1 -1 1z"/><path d="m139 62.231h-16.143a1 1 0 0 1 -1-1v-7.894a5.64 5.64 0 0 1 5.633-5.637h6.877a5.639 5.639 0 0 1 5.633 5.637v7.894a1 1 0 0 1 -1 1zm-15.143-2h14.143v-6.894a3.637 3.637 0 0 0 -3.633-3.633h-6.877a3.637 3.637 0 0 0 -3.633 3.633z"/><path d="m130.929 140a1 1 0 0 1 -.885-.535l-8.071-15.344a1 1 0 0 1 .487-1.383 20.555 20.555 0 0 1 16.937 0 1 1 0 0 1 .488 1.383l-8.072 15.344a1 1 0 0 1 -.884.535zm-6.672-15.832 6.672 12.684 6.671-12.684a18.446 18.446 0 0 0 -13.343 0z"/><path d="m127.765 122.908a1 1 0 0 1 -1-1v-60.677a1 1 0 1 1 2 0v60.677a1 1 0 0 1 -1 1z"/><path d="m133.416 122.908a1 1 0 0 1 -1-1v-60.677a1 1 0 1 1 2 0v60.677a1 1 0 0 1 -1 1z"/></svg>