<svg id="Layer_1" height="512" viewBox="0 0 150 150" width="512" xmlns="http://www.w3.org/2000/svg" data-name="Layer 1"><path d="m139 119.833h-128a1 1 0 0 1 -1-1v-87.666a1 1 0 0 1 1-1h128a1 1 0 0 1 1 1v87.666a1 1 0 0 1 -1 1zm-127-2h126v-85.666h-126z"/><path d="m75 87.5a1 1 0 0 1 -.654-.244l-64-55.333a1 1 0 0 1 .654-1.756h128a1 1 0 0 1 .654 1.756l-64 55.333a1 1 0 0 1 -.654.244zm-61.314-55.333 61.314 53.011 61.314-53.011z"/><path d="m139 119.833h-128a1 1 0 0 1 -.565-1.825l56.578-38.75a1 1 0 0 1 1.13 1.651l-53.913 36.924h121.54l-53.913-36.924a1 1 0 0 1 1.13-1.651l56.578 38.75a1 1 0 0 1 -.565 1.825z"/><path d="m62.565 111.562h-3.3a1 1 0 0 1 0-2h3.305a1 1 0 1 1 0 2z"/><path d="m71.957 111.562h-3.3a1 1 0 0 1 0-2h3.3a1 1 0 0 1 0 2z"/><path d="m81.348 111.562h-3.3a1 1 0 0 1 0-2h3.3a1 1 0 0 1 0 2z"/><path d="m90.74 111.562h-3.3a1 1 0 0 1 0-2h3.3a1 1 0 0 1 0 2z"/><path d="m17 100.417a1 1 0 0 1 -1-1v-9.834a1 1 0 0 1 2 0v9.834a1 1 0 0 1 -1 1z"/><path d="m17 81.083a1 1 0 0 1 -1-1v-34.916a1 1 0 0 1 2 0v34.916a1 1 0 0 1 -1 1z"/></svg>