<svg id="Layer_1" height="512" viewBox="0 0 150 150" width="512" xmlns="http://www.w3.org/2000/svg" data-name="Layer 1"><path d="m75 140a1 1 0 0 1 -.816-.422c-1.47-2.075-36-51.044-36-70.915a36.817 36.817 0 1 1 73.634 0c0 19.871-34.531 68.84-36 70.915a1 1 0 0 1 -.818.422zm0-106.155a34.857 34.857 0 0 0 -34.817 34.818c0 17.593 29.493 60.915 34.817 68.59 5.324-7.675 34.817-51 34.817-68.59a34.857 34.857 0 0 0 -34.817-34.818z"/><path d="m75 94.06a25.4 25.4 0 1 1 25.4-25.4 25.426 25.426 0 0 1 -25.4 25.4zm0-48.794a23.4 23.4 0 1 0 23.4 23.4 23.423 23.423 0 0 0 -23.4-23.4z"/><path d="m73.857 129.812a1 1 0 0 1 -.833-.444c-1.8-2.69-3.6-5.452-5.357-8.209a1 1 0 0 1 1.686-1.076c1.75 2.745 3.544 5.5 5.334 8.174a1 1 0 0 1 -.83 1.555z"/><path d="m66.182 117.927a1 1 0 0 1 -.849-.47c-3.213-5.152-6.16-10.11-8.759-14.736a1 1 0 1 1 1.744-.98c2.584 4.6 5.515 9.531 8.712 14.657a1 1 0 0 1 -.848 1.529z"/><path d="m75 33.845a1 1 0 0 1 -1-1v-11.245a1 1 0 0 1 2 0v11.25a1 1 0 0 1 -1 .995z"/><path d="m75 22.6a6.3 6.3 0 1 1 6.3-6.3 6.3 6.3 0 0 1 -6.3 6.3zm0-10.6a4.3 4.3 0 1 0 4.3 4.3 4.3 4.3 0 0 0 -4.3-4.3z"/><path d="m57.091 38.646a1 1 0 0 1 -.867-.5l-5.624-9.741a1 1 0 1 1 1.732-1l5.621 9.741a1 1 0 0 1 -.866 1.5z"/><path d="m48.828 29.614a6.3 6.3 0 1 1 3.138-.846 6.316 6.316 0 0 1 -3.138.846zm-.018-10.6a4.3 4.3 0 0 0 -3.71 6.448 4.3 4.3 0 1 0 3.714-6.446z"/><path d="m43.979 51.755a1 1 0 0 1 -.5-.134l-9.739-5.63a1 1 0 0 1 1-1.731l9.739 5.63a1 1 0 0 1 -.5 1.865z"/><path d="m29.64 48.777a6.274 6.274 0 0 1 -3.139-.842 6.3 6.3 0 1 1 3.139.842zm-2.14-2.577a4.3 4.3 0 1 0 -1.572-5.871 4.305 4.305 0 0 0 1.572 5.871z"/><path d="m39.18 69.666h-11.25a1 1 0 0 1 0-2h11.25a1 1 0 1 1 0 2z"/><path d="m22.635 74.96a6.3 6.3 0 1 1 6.3-6.3 6.3 6.3 0 0 1 -6.3 6.3zm0-10.595a4.3 4.3 0 1 0 4.3 4.3 4.3 4.3 0 0 0 -4.3-4.3z"/><path d="m34.241 93.2a1 1 0 0 1 -.5-1.866l9.88-5.7a1 1 0 0 1 1 1.733l-9.88 5.7a1 1 0 0 1 -.5.133z"/><path d="m29.661 101.146a6.344 6.344 0 0 1 -1.64-.217 6.3 6.3 0 1 1 4.779-.629 6.26 6.26 0 0 1 -3.139.846zm-.017-10.598a4.3 4.3 0 1 0 3.73 2.148 4.265 4.265 0 0 0 -3.731-2.148z"/><path d="m92.909 38.646a1 1 0 0 1 -.865-1.5l5.62-9.741a1 1 0 1 1 1.732 1l-5.62 9.741a1 1 0 0 1 -.867.5z"/><path d="m101.172 29.61a6.3 6.3 0 1 1 5.464-3.148 6.268 6.268 0 0 1 -5.464 3.148zm.018-10.594a4.3 4.3 0 1 0 3.714 6.446 4.3 4.3 0 0 0 -3.715-6.446z"/><path d="m106.021 51.755a1 1 0 0 1 -.5-1.865l9.74-5.63a1 1 0 0 1 1 1.731l-9.74 5.63a1 1 0 0 1 -.5.134z"/><path d="m120.36 48.781a6.3 6.3 0 1 1 3.139-.846 6.3 6.3 0 0 1 -3.139.846zm-.018-10.6a4.3 4.3 0 1 0 2.158 8.019 4.3 4.3 0 0 0 -2.157-8.019z"/><path d="m122.07 69.666h-11.25a1 1 0 0 1 0-2h11.25a1 1 0 0 1 0 2z"/><path d="m127.365 74.96a6.3 6.3 0 1 1 6.3-6.3 6.305 6.305 0 0 1 -6.3 6.3zm0-10.595a4.3 4.3 0 1 0 4.3 4.3 4.3 4.3 0 0 0 -4.3-4.3z"/><path d="m115.759 93.2a1 1 0 0 1 -.5-.133l-9.881-5.7a1 1 0 0 1 1-1.733l9.881 5.7a1 1 0 0 1 -.5 1.866z"/><path d="m120.339 101.142a6.258 6.258 0 0 1 -3.138-.842 6.3 6.3 0 1 1 3.138.843zm-2.139-2.575a4.3 4.3 0 1 0 -1.573-5.871 4.3 4.3 0 0 0 1.573 5.871z"/></svg>