<svg id="Layer_1" height="512" viewBox="0 0 150 150" width="512" xmlns="http://www.w3.org/2000/svg" data-name="Layer 1"><path d="m73.042 140h-35.667a1 1 0 0 1 -1-1v-128a1 1 0 0 1 1-1h35.667a1 1 0 0 1 1 1v128a1 1 0 0 1 -1 1zm-34.667-2h33.667v-126h-33.667z"/><path d="m44.333 140a1 1 0 0 1 -1-1v-128a1 1 0 0 1 2 0v128a1 1 0 0 1 -1 1z"/><path d="m55.208 26.262a5.25 5.25 0 1 1 5.25-5.25 5.256 5.256 0 0 1 -5.25 5.25zm0-8.5a3.25 3.25 0 1 0 3.25 3.25 3.254 3.254 0 0 0 -3.25-3.25z"/><path d="m73.042 34.262h-8.167a1 1 0 0 1 0-2h8.167a1 1 0 0 1 0 2z"/><path d="m73.042 42.457h-5.875a1 1 0 0 1 0-2h5.875a1 1 0 0 1 0 2z"/><path d="m73.042 50.651h-8.167a1 1 0 0 1 0-2h8.167a1 1 0 0 1 0 2z"/><path d="m73.042 58.845h-5.875a1 1 0 0 1 0-2h5.875a1 1 0 0 1 0 2z"/><path d="m73.042 67.04h-8.167a1 1 0 0 1 0-2h8.167a1 1 0 0 1 0 2z"/><path d="m73.042 75.234h-5.875a1 1 0 0 1 0-2h5.875a1 1 0 0 1 0 2z"/><path d="m73.042 83.429h-8.167a1 1 0 0 1 0-2h8.167a1 1 0 0 1 0 2z"/><path d="m73.042 91.623h-5.875a1 1 0 0 1 0-2h5.875a1 1 0 0 1 0 2z"/><path d="m73.042 99.817h-8.167a1 1 0 0 1 0-2h8.167a1 1 0 0 1 0 2z"/><path d="m73.042 108.012h-5.875a1 1 0 0 1 0-2h5.875a1 1 0 0 1 0 2z"/><path d="m73.042 116.207h-8.167a1 1 0 0 1 0-2h8.167a1 1 0 0 1 0 2z"/><path d="m73.042 124.4h-5.875a1 1 0 0 1 0-2h5.875a1 1 0 0 1 0 2z"/><path d="m73.042 132.6h-8.167a1 1 0 0 1 0-2h8.167a1 1 0 0 1 0 2z"/><path d="m112.625 118.325a1 1 0 0 1 -1-1v-88.563h-22v88.563a1 1 0 0 1 -2 0v-89.563a1 1 0 0 1 1-1h24a1 1 0 0 1 1 1v89.563a1 1 0 0 1 -1 1z"/><path d="m104.955 115.535a1 1 0 0 1 -1-1v-80.269h-6.655v80.269a1 1 0 0 1 -2 0v-81.269a1 1 0 0 1 1-1h8.66a1 1 0 0 1 1 1v81.269a1 1 0 0 1 -1.005 1z"/><path d="m100.625 140a1 1 0 0 1 -.875-.516l-12-21.675a1 1 0 0 1 .4-1.366 25.1 25.1 0 0 1 24.944 0 1 1 0 0 1 .4 1.366l-12 21.675a1 1 0 0 1 -.869.516zm-10.625-22.258 10.626 19.193 10.626-19.193a22.654 22.654 0 0 0 -21.252 0z"/><path d="m112.625 28.762h-24a1 1 0 0 1 -1-1v-10.881a6.889 6.889 0 0 1 6.881-6.881h12.238a6.889 6.889 0 0 1 6.881 6.881v10.881a1 1 0 0 1 -1 1zm-23-2h22v-9.881a4.886 4.886 0 0 0 -4.881-4.881h-12.238a4.886 4.886 0 0 0 -4.881 4.881z"/><path d="m112.625 34.262h-24a1 1 0 0 1 0-2h24a1 1 0 0 1 0 2z"/><path d="m104.415 133.155h-7.58a1 1 0 0 1 0-2h7.58a1 1 0 0 1 0 2z"/></svg>