<svg id="Layer_1" height="512" viewBox="0 0 150 150" width="512" xmlns="http://www.w3.org/2000/svg" data-name="Layer 1"><path d="m133.625 111.663h-117.25a6.383 6.383 0 0 1 -6.375-6.376v-81.547a6.383 6.383 0 0 1 6.375-6.376h117.25a6.383 6.383 0 0 1 6.375 6.376v81.547a6.383 6.383 0 0 1 -6.375 6.376zm-117.25-92.3a4.381 4.381 0 0 0 -4.375 4.377v81.547a4.381 4.381 0 0 0 4.375 4.376h117.25a4.381 4.381 0 0 0 4.375-4.376v-81.547a4.381 4.381 0 0 0 -4.375-4.376z"/><path d="m133.625 111.663h-117.25a6.383 6.383 0 0 1 -6.375-6.376v-11.868a1 1 0 0 1 1-1h128a1 1 0 0 1 1 1v11.868a6.383 6.383 0 0 1 -6.375 6.376zm-121.625-17.244v10.868a4.381 4.381 0 0 0 4.375 4.376h117.25a4.381 4.381 0 0 0 4.375-4.376v-10.868z"/><path d="m94 125.656h-38.012a1 1 0 0 1 -.98-1.2l2.847-13.991a1 1 0 1 1 1.96.4l-2.6 12.793h35.565l-2.6-12.793a1 1 0 0 1 1.96-.4l2.847 13.991a1 1 0 0 1 -.98 1.2z"/><path d="m103.607 132.636h-57.214a1 1 0 0 1 -1-1v-1.358c0-3.652 3.268-6.624 7.285-6.624h44.644c4.017 0 7.285 2.972 7.285 6.624v1.358a1 1 0 0 1 -1 1zm-56.214-2h55.214v-.358c0-2.55-2.371-4.624-5.285-4.624h-44.644c-2.914 0-5.285 2.074-5.285 4.624z"/><path d="m48.93 87.419h-6.04a1 1 0 0 1 -1-1v-26.474a1 1 0 0 1 1-1h6.04a1 1 0 0 1 1 1v26.474a1 1 0 0 1 -1 1zm-5.04-2h4.04v-24.474h-4.04z"/><path d="m66.949 87.419h-6.04a1 1 0 0 1 -1-1v-35.458a1 1 0 0 1 1-1h6.04a1 1 0 0 1 1 1v35.458a1 1 0 0 1 -1 1zm-5.04-2h4.04v-33.458h-4.04z"/><path d="m84.968 87.419h-6.04a1 1 0 0 1 -1-1v-30.159a1 1 0 0 1 1-1h6.04a1 1 0 0 1 1 1v30.159a1 1 0 0 1 -1 1zm-5.04-2h4.04v-28.159h-4.04z"/><path d="m102.987 87.419h-6.04a1 1 0 0 1 -1-1v-38.632a1 1 0 0 1 1-1h6.04a1 1 0 0 1 1 1v38.632a1 1 0 0 1 -1 1zm-5.04-2h4.04v-36.632h-4.04z"/><path d="m78.8 45.886a1 1 0 0 1 -.46-.112l-12.262-6.381a1 1 0 0 1 .922-1.774l12.263 6.381a1 1 0 0 1 -.463 1.887z"/><path d="m48.376 50.357a1 1 0 0 1 -.63-1.777l12.9-10.45a1 1 0 0 1 1.254 1.553l-12.9 10.451a1 1 0 0 1 -.624.223z"/><path d="m84.414 45.151a1 1 0 0 1 -.626-1.78l17.251-13.824a1 1 0 1 1 1.251 1.56l-17.251 13.824a1 1 0 0 1 -.625.22z"/><path d="m45.91 55.534a4.176 4.176 0 1 1 4.176-4.176 4.181 4.181 0 0 1 -4.176 4.176zm0-6.352a2.176 2.176 0 1 0 2.176 2.176 2.178 2.178 0 0 0 -2.176-2.176z"/><path d="m63.773 41.121a4.176 4.176 0 1 1 4.176-4.176 4.181 4.181 0 0 1 -4.176 4.176zm0-6.352a2.176 2.176 0 1 0 2.176 2.176 2.178 2.178 0 0 0 -2.176-2.176z"/><path d="m81.792 50.118a4.176 4.176 0 1 1 4.176-4.176 4.18 4.18 0 0 1 -4.176 4.176zm0-6.352a2.176 2.176 0 1 0 2.176 2.176 2.178 2.178 0 0 0 -2.176-2.176z"/><path d="m104.293 32.728a4.176 4.176 0 1 1 4.177-4.176 4.18 4.18 0 0 1 -4.177 4.176zm0-6.352a2.176 2.176 0 1 0 2.177 2.176 2.178 2.178 0 0 0 -2.177-2.176z"/><path d="m108.406 87.419h-70.935a1 1 0 1 1 0-2h70.935a1 1 0 0 1 0 2z"/><path d="m16 81.585a1 1 0 0 1 -1-1v-8.728a1 1 0 0 1 2 0v8.728a1 1 0 0 1 -1 1z"/><path d="m16 66.523a1 1 0 0 1 -1-1v-38.438a1 1 0 0 1 2 0v38.438a1 1 0 0 1 -1 1z"/><path d="m75 106.038a4 4 0 1 1 4-4 4 4 0 0 1 -4 4zm0-5.994a2 2 0 1 0 2 2 2 2 0 0 0 -2-2z"/></svg>