<svg id="Layer_1" height="512" viewBox="0 0 150 150" width="512" xmlns="http://www.w3.org/2000/svg" data-name="Layer 1"><path d="m76.619 114.239a37.619 37.619 0 1 1 26.6-11.019 37.37 37.37 0 0 1 -26.6 11.019zm0-73.237a35.619 35.619 0 1 0 25.186 10.433 35.385 35.385 0 0 0 -25.186-10.435z"/><path d="m76.619 107.927a31.274 31.274 0 1 1 22.146-9.16 31.107 31.107 0 0 1 -22.146 9.16zm0-60.614a29.308 29.308 0 1 0 20.732 8.575 29.23 29.23 0 0 0 -20.732-8.575z"/><path d="m99.226 116.123a1 1 0 0 1 -.707-.293l-5.9-5.9a1 1 0 0 1 1.414-1.414l5.193 5.192 14.48-14.48-5.192-5.193a1 1 0 0 1 1.414-1.414l5.9 5.9a1 1 0 0 1 0 1.414l-15.895 15.895a1 1 0 0 1 -.707.293z"/><path d="m129.37 139.741c-.11 0-.221 0-.333-.005a10.279 10.279 0 0 1 -7.458-3.5l-20.429-23.125a1 1 0 0 1 .043-1.369l10.547-10.542a1 1 0 0 1 1.369-.043l23.122 20.429a10.381 10.381 0 0 1 -6.861 18.16zm-26.1-27.25 19.807 22.418a8.38 8.38 0 1 0 11.829-11.829l-22.418-19.807z"/><path d="m48.311 54.389a1 1 0 0 1 -1-1v-42.13a1 1 0 0 1 2 0v42.13a1 1 0 0 1 -1 1z"/><path d="m40.882 85.619a1.051 1.051 0 0 1 -.2-.02 38.057 38.057 0 1 1 44.918-44.92 1 1 0 0 1 -1.96.4 36.057 36.057 0 1 0 -42.56 42.56 1 1 0 0 1 -.2 1.98z"/><path d="m40.222 81.568a1 1 0 0 1 -.787-.381c-5.289-6.728-8.574-19.325-8.574-32.878 0-21.337 7.665-38.05 17.45-38.05 8.583 0 15.82 13.333 17.207 31.7a1 1 0 1 1 -1.994.151c-1.285-17.016-7.824-29.851-15.213-29.851-8.375 0-15.45 16.509-15.45 36.05 0 13.126 3.122 25.25 8.146 31.641a1 1 0 0 1 -.168 1.4.989.989 0 0 1 -.617.218z"/><path d="m48.311 34.029a37.817 37.817 0 0 1 -26.938-11.174 1 1 0 1 1 1.415-1.413 35.832 35.832 0 0 0 25.523 10.587 35.829 35.829 0 0 0 25.522-10.587 1 1 0 1 1 1.415 1.413 37.813 37.813 0 0 1 -26.937 11.174z"/><path d="m22.081 75.479a1 1 0 0 1 -.709-1.707 37.7 37.7 0 0 1 20.666-10.672 1 1 0 1 1 .326 1.973 35.714 35.714 0 0 0 -19.575 10.11 1 1 0 0 1 -.708.296z"/><path d="m53.391 49.309h-42.13a1 1 0 1 1 0-2h42.13a1 1 0 0 1 0 2z"/><path d="m97.872 63.858a1 1 0 0 1 -.84-.456 24.246 24.246 0 0 0 -19.8-11.073 1 1 0 0 1 .05-2 26.242 26.242 0 0 1 21.428 11.986 1 1 0 0 1 -.838 1.543z"/></svg>