<svg id="Layer_1" height="512" viewBox="0 0 150 150" width="512" xmlns="http://www.w3.org/2000/svg" data-name="Layer 1"><path d="m66.5 123a56.45 56.45 0 1 1 53.8-39.2 1 1 0 1 1 -1.9-.613 54.45 54.45 0 1 0 -35.213 35.214 1 1 0 1 1 .611 1.9 56.4 56.4 0 0 1 -17.298 2.699z"/><path d="m66.5 115.965a49.422 49.422 0 1 1 46.826-33.476 1 1 0 0 1 -1.893-.647 47.423 47.423 0 1 0 -29.587 29.587 1 1 0 1 1 .647 1.893 49.305 49.305 0 0 1 -15.993 2.643z"/><path d="m66.5 28.244a1 1 0 0 1 -1-1v-4.086a1 1 0 0 1 2 0v4.086a1 1 0 0 1 -1 1z"/><path d="m46.871 33.5a1 1 0 0 1 -.871-.5l-2.04-3.535a1 1 0 0 1 1.733-1l2.043 3.535a1 1 0 0 1 -.865 1.5z"/><path d="m32.5 47.872a1 1 0 0 1 -.5-.134l-3.538-2.038a1 1 0 0 1 1-1.732l3.538 2.038a1 1 0 0 1 -.5 1.866z"/><path d="m27.242 67.5h-4.086a1 1 0 0 1 0-2h4.086a1 1 0 1 1 0 2z"/><path d="m28.963 89.17a1 1 0 0 1 -.5-1.866l3.537-2.043a1 1 0 1 1 1 1.733l-3.539 2.043a1 1 0 0 1 -.498.133z"/><path d="m44.826 105.035a1 1 0 0 1 -.866-1.5l2.04-3.535a1 1 0 0 1 1.733 1l-2.043 3.539a1 1 0 0 1 -.864.496z"/><path d="m66.5 110.841a1 1 0 0 1 -1-1v-4.086a1 1 0 0 1 2 0v4.086a1 1 0 0 1 -1 1z"/><path d="m109.839 67.5h-4.086a1 1 0 1 1 0-2h4.086a1 1 0 0 1 0 2z"/><path d="m100.5 47.872a1 1 0 0 1 -.5-1.866l3.539-2.043a1 1 0 1 1 1 1.732l-3.539 2.043a1 1 0 0 1 -.5.134z"/><path d="m86.125 33.5a1 1 0 0 1 -.866-1.5l2.041-3.535a1 1 0 0 1 1.733 1l-2.041 3.535a1 1 0 0 1 -.867.5z"/><path d="m88.813 67.5h-18.665a1 1 0 0 1 0-2h18.665a1 1 0 0 1 0 2z"/><path d="m63.965 64.867a.994.994 0 0 1 -.718-.305l-24.539-25.402a1 1 0 0 1 1.438-1.39l24.538 25.4a1 1 0 0 1 -.719 1.7z"/><path d="m66.5 71.154a4.655 4.655 0 1 1 4.652-4.654 4.66 4.66 0 0 1 -4.652 4.654zm0-7.309a2.655 2.655 0 1 0 2.652 2.655 2.658 2.658 0 0 0 -2.652-2.655z"/><path d="m110.547 140a29.455 29.455 0 1 1 29.453-29.45 29.487 29.487 0 0 1 -29.453 29.45zm0-56.909a27.455 27.455 0 1 0 27.453 27.459 27.486 27.486 0 0 0 -27.453-27.45z"/><path d="m100.219 109.218a1 1 0 0 1 -.949-.688c-1.513-4.617-1.434-9.475-.963-10.987a10.921 10.921 0 0 1 4.993-7.143c4.624-3.077 9.19-3.053 13.951.072 5.35 2.024 6.962 8.405 4.537 17.988a1 1 0 0 1 -1.968-.177 14.133 14.133 0 0 0 -3.367-8.319c-4.525 3.27-9.149 3.96-13.764 2.053a14.486 14.486 0 0 0 -1.466 6.157 1 1 0 0 1 -.821 1.024.985.985 0 0 1 -.183.02zm16.258-11.518a1 1 0 0 1 .564.174 11.643 11.643 0 0 1 3.681 5.407c.507-4.481-.022-9.421-4.272-10.965a1.025 1.025 0 0 1 -.212-.106c-4.108-2.732-7.87-2.777-11.832-.138a8.948 8.948 0 0 0 -4.155 5.952.949.949 0 0 1 -.03.1 15.936 15.936 0 0 0 -.077 4.841 17.4 17.4 0 0 1 1.214-2.736 1 1 0 0 1 1.31-.41c4.443 2.16 8.761 1.537 13.2-1.912a1 1 0 0 1 .609-.207z"/><path d="m110.521 120.946c-5.419 0-10.061-5.166-11.287-12.564a1 1 0 1 1 1.973-.327c1.063 6.412 4.893 10.891 9.314 10.891s8.243-4.479 9.307-10.891a1 1 0 1 1 1.972.327c-1.226 7.398-5.864 12.564-11.279 12.564z"/><path d="m124.122 136.56a1 1 0 0 1 -1-1l.011-5.578a1 1 0 0 1 1-1 1 1 0 0 1 1 1l-.011 5.578a1 1 0 0 1 -1 1z"/><path d="m96.968 136.56a1 1 0 0 1 -1-1v-5.578a1 1 0 0 1 2 0v5.578a1 1 0 0 1 -1 1z"/><path d="m90.828 132.052a1 1 0 0 1 -1-1v-.759a9.242 9.242 0 0 1 8.992-9.453h4.14a1 1 0 0 1 .582.186 11.857 11.857 0 0 0 7.009 2.309 12.026 12.026 0 0 0 7.009-2.309 1 1 0 0 1 .581-.186h4.141a9.242 9.242 0 0 1 8.993 9.453v.748a1 1 0 0 1 -2 0v-.748a7.242 7.242 0 0 0 -6.993-7.453h-3.826a13.975 13.975 0 0 1 -7.905 2.495 13.775 13.775 0 0 1 -7.905-2.495h-3.826a7.241 7.241 0 0 0 -6.992 7.453v.759a1 1 0 0 1 -1 1z"/></svg>