<svg id="Layer_1" height="512" viewBox="0 0 150 150" width="512" xmlns="http://www.w3.org/2000/svg" data-name="Layer 1"><path d="m133.1 132.758h-116.2a6.909 6.909 0 0 1 -6.9-6.9v-80.9a6.909 6.909 0 0 1 6.9-6.9h50.32a1 1 0 0 1 0 2h-50.32a4.906 4.906 0 0 0 -4.9 4.9v80.9a4.906 4.906 0 0 0 4.9 4.9h116.2a4.906 4.906 0 0 0 4.9-4.9v-80.9a4.906 4.906 0 0 0 -4.9-4.9h-50.32a1 1 0 0 1 0-2h50.32a6.909 6.909 0 0 1 6.9 6.9v80.9a6.909 6.909 0 0 1 -6.9 6.9z"/><path d="m132.705 126.458h-115.405a1 1 0 0 1 -1-1v-68.3a1 1 0 0 1 1-1h115.41a1 1 0 0 1 1 1v68.3a1 1 0 0 1 -1.005 1zm-114.41-2h113.41v-66.3h-113.405z"/><path d="m82.784 47.549a1 1 0 0 1 -1-1v-20.522a6.784 6.784 0 1 0 -13.568 0v20.522a1 1 0 0 1 -2 0v-20.522a8.784 8.784 0 0 1 17.568 0v20.522a1 1 0 0 1 -1 1z"/><path d="m87.417 52.327h-24.834a1 1 0 0 1 -1-1v-4.779a1 1 0 0 1 1-1h24.834a1 1 0 0 1 1 1v4.779a1 1 0 0 1 -1 1zm-23.834-2h22.834v-2.779h-22.834z"/><path d="m59.96 101.229h-35.193a1 1 0 0 1 -1-1v-.665a12.336 12.336 0 0 1 12.321-12.322 1 1 0 0 1 .637.229 8.6 8.6 0 0 0 5.624 1.881 8.621 8.621 0 0 0 5.651-1.881 1 1 0 0 1 .637-.229 12.336 12.336 0 0 1 12.323 12.322v.665a1 1 0 0 1 -1 1zm-34.189-2h33.183a10.335 10.335 0 0 0 -9.975-9.981 10.612 10.612 0 0 1 -6.6 2.1 10.653 10.653 0 0 1 -6.635-2.1 10.335 10.335 0 0 0 -9.973 9.981z"/><path d="m42.358 87.483c-5.72 0-10.2-6.144-10.2-13.987a10.524 10.524 0 0 1 10.2-10.033 10.524 10.524 0 0 1 10.204 10.037c0 7.839-4.482 13.983-10.204 13.983zm0-22.02a8.443 8.443 0 0 0 -8.2 8.033c0 6.61 3.68 11.987 8.2 11.987s8.2-5.377 8.2-11.987a8.443 8.443 0 0 0 -8.2-8.033z"/><path d="m125.233 69.63h-56.666a1 1 0 0 1 0-2h56.666a1 1 0 0 1 0 2z"/><path d="m125.233 79.534h-56.666a1 1 0 0 1 0-2h56.666a1 1 0 0 1 0 2z"/><path d="m125.233 89.438h-56.666a1 1 0 0 1 0-2h56.666a1 1 0 0 1 0 2z"/><path d="m125.233 99.343h-56.666a1 1 0 0 1 0-2h56.666a1 1 0 0 1 0 2z"/><path d="m125.233 109.247h-100.466a1 1 0 0 1 0-2h100.466a1 1 0 0 1 0 2z"/><path d="m125.233 119.152h-100.466a1 1 0 0 1 0-2h100.466a1 1 0 0 1 0 2z"/><path d="m75 30.117a3.906 3.906 0 1 1 3.906-3.906 3.91 3.91 0 0 1 -3.906 3.906zm0-5.812a1.906 1.906 0 1 0 1.906 1.906 1.908 1.908 0 0 0 -1.906-1.906z"/></svg>