<svg id="Layer_1" height="512" viewBox="0 0 150 150" width="512" xmlns="http://www.w3.org/2000/svg" data-name="Layer 1"><path d="m91.805 140h-62.467a1 1 0 0 1 -.837-1.547 41.743 41.743 0 0 0 6.755-23.253c.851-8.583-1.557-16.7-7.574-25.652-7.282-10.837-10.803-23.448-9.913-35.523 1.3-17.623 10.741-31.873 25.9-39.1l.43.9-.43-.9a52.438 52.438 0 0 1 17.774-4.625c20.012-1.851 36.932 4.761 47.634 18.619 8.768 11.013 12.451 20.953 11.25 30.377a17.105 17.105 0 0 0 2.989 11.82c5.8 8.446 8.84 13.946 9.037 16.347a3.812 3.812 0 0 1 -1.029 2.957c-1.833 1.988-5.693 2.555-7.885 2.716a14.184 14.184 0 0 1 1.362 4.787c0 1.5-1.294 2.458-2.54 3.039a3.915 3.915 0 0 1 .668 1.26 3.419 3.419 0 0 1 -1.055 3.836 6.511 6.511 0 0 0 -1.5 1.63 1.238 1.238 0 0 0 0 1.341c1.145 1.788 2.19 5.309.665 11.932a6.462 6.462 0 0 1 -3.2 4.241c-6 3.5-18.474.578-22.208-.415l-2.845 14.413a1 1 0 0 1 -.981.8zm-60.664-2h59.842l2.892-14.658a1 1 0 0 1 1.266-.765c.154.046 15.483 4.522 21.689.9a4.473 4.473 0 0 0 2.258-2.961c1.441-6.26.368-9.206-.4-10.4a3.239 3.239 0 0 1 .009-3.514 8.491 8.491 0 0 1 1.965-2.128 1.48 1.48 0 0 0 .361-1.636 1.461 1.461 0 0 0 -1.226-1.11 1 1 0 0 1 -.17-1.979c1.3-.27 3.173-1.072 3.173-1.819 0-1.431-1.3-4.289-1.8-5.269a1 1 0 0 1 .891-1.454c1.668 0 6.351-.389 7.96-2.136a1.784 1.784 0 0 0 .5-1.437c-.077-.929-1.076-4.287-8.692-15.379a19.11 19.11 0 0 1 -3.324-13.205c1.129-8.86-2.417-18.31-10.839-28.89-10.269-13.312-26.554-19.653-45.87-17.866a50.488 50.488 0 0 0 -17.095 4.441c-14.495 6.905-23.522 20.55-24.768 37.438-.856 11.627 2.545 23.792 9.579 34.255 6.29 9.357 8.8 17.894 7.909 26.867a43.681 43.681 0 0 1 -6.11 22.705z"/><path d="m114.377 59.54a1.1 1.1 0 0 1 -.127-.008 1 1 0 0 1 -.866-1.118c.859-6.753-1.685-14.11-7.78-22.49a1 1 0 0 1 1.617-1.177c6.409 8.813 9.074 16.637 8.147 23.919a1 1 0 0 1 -.991.874z"/><path d="m101.5 30.335a1 1 0 0 1 -.721-.308 40.488 40.488 0 0 0 -13.59-9.3 1 1 0 0 1 .777-1.843 42.459 42.459 0 0 1 14.256 9.756 1 1 0 0 1 -.722 1.692z"/><path d="m71.05 92.943h-6.109a1 1 0 0 1 -.985-.824l-1.156-6.482a24.343 24.343 0 0 1 -8.186-3.39l-5.4 3.766a1 1 0 0 1 -1.279-.113l-4.321-4.321a1 1 0 0 1 -.114-1.279l3.765-5.4a24.356 24.356 0 0 1 -3.39-8.186l-6.475-1.155a1 1 0 0 1 -.824-.984v-6.109a1 1 0 0 1 .824-.985l6.481-1.155a24.353 24.353 0 0 1 3.39-8.187l-3.771-5.399a1 1 0 0 1 .113-1.279l4.321-4.32a1 1 0 0 1 1.279-.113l5.4 3.765a24.363 24.363 0 0 1 8.187-3.393l1.155-6.481a1 1 0 0 1 .985-.825h6.11a1 1 0 0 1 .984.825l1.156 6.481a24.372 24.372 0 0 1 8.186 3.39l5.4-3.765a1 1 0 0 1 1.279.113l4.32 4.32a1 1 0 0 1 .114 1.279l-3.765 5.4a24.353 24.353 0 0 1 3.39 8.187l6.481 1.155a1 1 0 0 1 .824.985v6.109a1 1 0 0 1 -.824.984l-6.481 1.156a24.356 24.356 0 0 1 -3.39 8.186l3.765 5.4a1 1 0 0 1 -.114 1.278l-4.321 4.323a1 1 0 0 1 -1.279.113l-5.4-3.766a24.352 24.352 0 0 1 -8.186 3.39l-1.156 6.482a1 1 0 0 1 -.983.824zm-5.271-2h4.433l1.129-6.329a1 1 0 0 1 .8-.807 22.435 22.435 0 0 0 8.679-3.594 1 1 0 0 1 1.138 0l5.271 3.676 3.136-3.135-3.676-5.272a1 1 0 0 1 0-1.139 22.411 22.411 0 0 0 3.594-8.679 1 1 0 0 1 .807-.8l6.329-1.127v-4.437l-6.329-1.128a1 1 0 0 1 -.807-.8 22.417 22.417 0 0 0 -3.594-8.679 1 1 0 0 1 0-1.138l3.676-5.272-3.136-3.136-5.271 3.677a1 1 0 0 1 -1.138 0 22.4 22.4 0 0 0 -8.679-3.594 1 1 0 0 1 -.8-.808l-1.129-6.322h-4.433l-1.129 6.326a1 1 0 0 1 -.8.808 22.4 22.4 0 0 0 -8.679 3.594 1 1 0 0 1 -1.138 0l-5.271-3.677-3.137 3.136 3.675 5.268a1 1 0 0 1 0 1.138 22.386 22.386 0 0 0 -3.594 8.679 1 1 0 0 1 -.807.8l-6.326 1.128v4.435l6.327 1.13a1 1 0 0 1 .807.8 22.38 22.38 0 0 0 3.593 8.682 1 1 0 0 1 0 1.139l-3.677 5.272 3.137 3.135 5.271-3.676a1 1 0 0 1 1.138 0 22.435 22.435 0 0 0 8.679 3.594 1 1 0 0 1 .8.807z"/><path d="m68 77.871a16.351 16.351 0 1 1 16.346-16.351 16.369 16.369 0 0 1 -16.346 16.351zm0-30.7a14.351 14.351 0 1 0 14.346 14.349 14.366 14.366 0 0 0 -14.346-14.35z"/></svg>