<svg id="Layer_1" height="512" viewBox="0 0 150 150" width="512" xmlns="http://www.w3.org/2000/svg" data-name="Layer 1"><path d="m76.938 48.205h-5.633a1 1 0 0 1 0-2h5.633a1 1 0 0 1 0 2z"/><path d="m76.938 112.622h-5.633a1 1 0 0 1 0-2h5.633a1 1 0 0 1 0 2z"/><path d="m63.9 43.556a1 1 0 0 1 -.991-.878 5.4 5.4 0 0 0 -2.72-4 1 1 0 0 1 1.011-1.731 7.387 7.387 0 0 1 3.7 5.487 1 1 0 0 1 -.871 1.114 1.029 1.029 0 0 1 -.129.008z"/><path d="m55.638 48.205a1 1 0 0 1 -.975-.783 6.036 6.036 0 0 0 -4.529-4.433 1 1 0 0 1 .469-1.945 8.049 8.049 0 0 1 6.011 5.943 1 1 0 0 1 -.757 1.194 1.034 1.034 0 0 1 -.219.024z"/><path d="m41.352 64.376a8.461 8.461 0 0 1 -5.452-1.961 1 1 0 1 1 1.288-1.53 6.558 6.558 0 0 0 8.1.177 1 1 0 0 1 1.217 1.587 8.514 8.514 0 0 1 -5.153 1.727z"/><path d="m37.354 79.541a10.411 10.411 0 0 1 -4.831-1.182 1 1 0 0 1 .929-1.77 8.614 8.614 0 0 0 7.679.063 1 1 0 1 1 .9 1.786 10.435 10.435 0 0 1 -4.677 1.103z"/><path d="m48.918 76.947a1 1 0 0 1 -1-.962 9.073 9.073 0 0 1 1.023-4.516 9.623 9.623 0 0 1 3.275-3.6 1 1 0 1 1 1.1 1.673 7.628 7.628 0 0 0 -2.6 2.852 7.085 7.085 0 0 0 -.8 3.519 1 1 0 0 1 -.961 1.037z"/><path d="m64.709 65.4a.985.985 0 0 1 -.3-.045 10.082 10.082 0 0 1 -4.089-2.442 9.35 9.35 0 0 1 -2.456-4.16 1 1 0 1 1 1.928-.53 7.358 7.358 0 0 0 1.935 3.268 8.076 8.076 0 0 0 3.274 1.954 1 1 0 0 1 -.3 1.955z"/><path d="m47.457 58.651a1 1 0 0 1 -.154-1.987 8.267 8.267 0 0 0 3.671-1.546 7.558 7.558 0 0 0 2.337-2.881 1 1 0 1 1 1.82.83 9.551 9.551 0 0 1 -2.955 3.649 10.253 10.253 0 0 1 -4.563 1.923 1.025 1.025 0 0 1 -.156.012z"/><path d="m57.585 77.213a1 1 0 0 1 -.154-1.987 8.269 8.269 0 0 0 3.669-1.546 7.55 7.55 0 0 0 2.338-2.88 1 1 0 1 1 1.82.829 9.557 9.557 0 0 1 -2.953 3.649 10.252 10.252 0 0 1 -4.564 1.922 1.025 1.025 0 0 1 -.156.013z"/><path d="m64.936 94.209a.994.994 0 0 1 -.607-.209 9.56 9.56 0 0 1 -2.917-3.676 9.035 9.035 0 0 1 -.728-4.731 1 1 0 1 1 1.986.233 7.054 7.054 0 0 0 .568 3.684 7.549 7.549 0 0 0 2.306 2.9 1 1 0 0 1 -.608 1.794z"/><path d="m50.083 86.538c-.3 0-.6-.013-.9-.039a10.33 10.33 0 0 1 -4.7-1.591 1 1 0 1 1 1.084-1.681 8.328 8.328 0 0 0 3.789 1.28 8.544 8.544 0 0 0 3.85-.562 1 1 0 1 1 .74 1.857 10.448 10.448 0 0 1 -3.863.736z"/><path d="m56.48 102.813a1.038 1.038 0 0 1 -.123-.007 1 1 0 0 1 -.871-1.115 7.04 7.04 0 0 0 -.55-3.686 7.535 7.535 0 0 0 -2.291-2.913 1 1 0 0 1 1.224-1.582 9.558 9.558 0 0 1 2.9 3.69 9.026 9.026 0 0 1 .7 4.735 1 1 0 0 1 -.989.878z"/><path d="m38.287 93.514a10.577 10.577 0 0 1 -2.053-.2 1 1 0 1 1 .388-1.962 8.5 8.5 0 0 0 6.217-1.171 1 1 0 0 1 1.09 1.677 10.316 10.316 0 0 1 -5.642 1.656z"/><path d="m41.958 108.761a1 1 0 0 1 -.061-2 8.073 8.073 0 0 0 6.3-3.611 1 1 0 0 1 1.684 1.081 10.082 10.082 0 0 1 -7.858 4.526z"/><path d="m54.758 118.6a1 1 0 0 1 -.473-1.882 7.417 7.417 0 0 0 4.025-6.485 1 1 0 0 1 2 0 9.416 9.416 0 0 1 -5.081 8.249 1 1 0 0 1 -.471.118z"/><path d="m71.3 56.114a.993.993 0 0 1 -.561-.173 8.111 8.111 0 0 0 -7.621-.806 1 1 0 1 1 -.625-1.9 10.071 10.071 0 0 1 9.369 1.051 1 1 0 0 1 -.562 1.827z"/><path d="m66.387 105.565a12.386 12.386 0 0 1 -3.89-.694 1 1 0 0 1 .625-1.9 8.108 8.108 0 0 0 7.621-.806 1 1 0 1 1 1.123 1.654 9.545 9.545 0 0 1 -5.479 1.746z"/><path d="m62.325 122.871a10.018 10.018 0 0 1 -8.079-3.966 10.1 10.1 0 0 1 -3.915.8 9.744 9.744 0 0 1 -9.979-9.466 7.9 7.9 0 0 1 .146-1.489 9.694 9.694 0 0 1 -9.126-9.432 9.208 9.208 0 0 1 2.859-6.632 9.521 9.521 0 0 1 -5.923-8.633 9.1 9.1 0 0 1 2.858-6.59 9.3 9.3 0 0 1 -3.792-7.384 9.451 9.451 0 0 1 7.242-9.069 7.46 7.46 0 0 1 -1.486-4.438 7.973 7.973 0 0 1 7.226-7.75c0-.068 0-.137 0-.207a8.03 8.03 0 0 1 8.22-7.806 7.629 7.629 0 0 1 1.116.085 7.844 7.844 0 0 1 7.419-5.036 8.14 8.14 0 0 1 3.5.789 7.483 7.483 0 0 1 5.576-2.447c3.716 0 6.118 2.743 6.118 6.989v72.22a9.744 9.744 0 0 1 -9.98 9.462zm-7.732-6.229a1 1 0 0 1 .851.474 8 8 0 0 0 6.881 3.755 7.745 7.745 0 0 0 7.98-7.466v-72.22c0-1.5-.4-4.989-4.118-4.989a5.434 5.434 0 0 0 -4.494 2.3 1 1 0 0 1 -1.351.28 6.116 6.116 0 0 0 -3.235-.918 5.764 5.764 0 0 0 -5.733 4.4 1 1 0 0 1 -1.219.766 6.507 6.507 0 0 0 -1.583-.216 6.031 6.031 0 0 0 -6.22 5.806 5.521 5.521 0 0 0 .108.985 1 1 0 0 1 -.225.827.961.961 0 0 1 -.783.349c-.038 0-.134-.009-.172-.014a6.018 6.018 0 0 0 -6.15 5.81 5.64 5.64 0 0 0 2.132 4.337 1 1 0 0 1 -.56 1.77 7.616 7.616 0 0 0 -7.328 7.4 7.318 7.318 0 0 0 3.954 6.406 1 1 0 0 1 .1 1.686 7.252 7.252 0 0 0 -3.123 5.882 7.543 7.543 0 0 0 6.224 7.27 1 1 0 0 1 .332 1.822 7.348 7.348 0 0 0 -3.492 6.173 7.744 7.744 0 0 0 7.98 7.466.876.876 0 0 0 .116-.013c.092-.012.184-.023.277-.028a1 1 0 0 1 1 1.311 6.922 6.922 0 0 0 -.392 2.185 7.744 7.744 0 0 0 7.979 7.466 8.28 8.28 0 0 0 3.806-.949 1 1 0 0 1 .458-.113z"/><path d="m84.339 43.556a1.043 1.043 0 0 1 -.123-.008 1 1 0 0 1 -.87-1.114 7.379 7.379 0 0 1 3.7-5.487 1 1 0 0 1 1.006 1.729 5.4 5.4 0 0 0 -2.72 4 1 1 0 0 1 -.993.88z"/><path d="m92.606 48.205a1.02 1.02 0 0 1 -.219-.024 1 1 0 0 1 -.759-1.194 8.048 8.048 0 0 1 6.013-5.943 1 1 0 0 1 .469 1.945 6.032 6.032 0 0 0 -4.529 4.433 1 1 0 0 1 -.975.783z"/><path d="m106.892 64.376a8.514 8.514 0 0 1 -5.157-1.727 1 1 0 1 1 1.216-1.587 6.559 6.559 0 0 0 8.1-.177 1 1 0 1 1 1.287 1.53 8.461 8.461 0 0 1 -5.446 1.961z"/><path d="m110.89 79.541a10.442 10.442 0 0 1 -4.678-1.1 1 1 0 0 1 .9-1.786 8.618 8.618 0 0 0 7.679-.063 1 1 0 1 1 .93 1.77 10.423 10.423 0 0 1 -4.831 1.179z"/><path d="m99.325 76.947h-.039a1 1 0 0 1 -.961-1.037 7.084 7.084 0 0 0 -.8-3.519 7.631 7.631 0 0 0 -2.6-2.852 1 1 0 0 1 1.1-1.674 9.644 9.644 0 0 1 3.276 3.6 9.083 9.083 0 0 1 1.022 4.516 1 1 0 0 1 -.998.966z"/><path d="m83.534 65.4a1 1 0 0 1 -.3-1.955 8.073 8.073 0 0 0 3.275-1.954 7.345 7.345 0 0 0 1.932-3.267 1 1 0 1 1 1.93.528 9.358 9.358 0 0 1 -2.456 4.162 10.091 10.091 0 0 1 -4.089 2.441.981.981 0 0 1 -.292.045z"/><path d="m100.785 58.651a1.044 1.044 0 0 1 -.156-.012 10.253 10.253 0 0 1 -4.563-1.924 9.545 9.545 0 0 1 -2.954-3.649 1 1 0 0 1 1.821-.829 7.543 7.543 0 0 0 2.336 2.881 8.264 8.264 0 0 0 3.671 1.546 1 1 0 0 1 -.155 1.987z"/><path d="m90.658 77.213a1.044 1.044 0 0 1 -.158-.013 10.253 10.253 0 0 1 -4.563-1.924 9.545 9.545 0 0 1 -2.954-3.649 1 1 0 0 1 1.82-.83 7.549 7.549 0 0 0 2.337 2.882 8.264 8.264 0 0 0 3.671 1.546 1 1 0 0 1 -.155 1.987z"/><path d="m83.308 94.209a1 1 0 0 1 -.61-1.794 7.536 7.536 0 0 0 2.302-2.902 7.032 7.032 0 0 0 .569-3.684 1 1 0 0 1 .876-1.11.992.992 0 0 1 1.111.877 9.037 9.037 0 0 1 -.73 4.731 9.538 9.538 0 0 1 -2.911 3.673.994.994 0 0 1 -.607.209z"/><path d="m98.158 86.538a10.451 10.451 0 0 1 -3.858-.738 1 1 0 1 1 .742-1.857 8.505 8.505 0 0 0 3.849.562 8.332 8.332 0 0 0 3.789-1.28 1 1 0 1 1 1.084 1.681 10.338 10.338 0 0 1 -4.7 1.591c-.305.028-.606.041-.906.041z"/><path d="m91.764 102.813a1 1 0 0 1 -.991-.877 9.015 9.015 0 0 1 .7-4.736 9.55 9.55 0 0 1 2.9-3.69 1 1 0 0 1 1.227 1.582 7.558 7.558 0 0 0 -2.291 2.913 7.033 7.033 0 0 0 -.55 3.685 1 1 0 0 1 -.87 1.116 1.014 1.014 0 0 1 -.125.007z"/><path d="m109.956 93.514a10.308 10.308 0 0 1 -5.642-1.657 1 1 0 1 1 1.091-1.675 8.507 8.507 0 0 0 6.216 1.17 1 1 0 0 1 .389 1.962 10.587 10.587 0 0 1 -2.054.2z"/><path d="m106.284 108.761h-.063a10.084 10.084 0 0 1 -7.858-4.526 1 1 0 0 1 1.684-1.081 8.073 8.073 0 0 0 6.3 3.611 1 1 0 0 1 -.062 2z"/><path d="m93.485 118.6a1 1 0 0 1 -.471-.118 9.414 9.414 0 0 1 -5.081-8.249 1 1 0 0 1 2 0 7.418 7.418 0 0 0 4.024 6.485 1 1 0 0 1 -.472 1.882z"/><path d="m76.939 56.114a1 1 0 0 1 -.563-1.827 10.079 10.079 0 0 1 9.37-1.051 1 1 0 1 1 -.625 1.9 8.114 8.114 0 0 0 -7.622.806.992.992 0 0 1 -.56.172z"/><path d="m81.857 105.565a9.551 9.551 0 0 1 -5.481-1.745 1 1 0 1 1 1.123-1.654 8.116 8.116 0 0 0 7.622.806 1 1 0 1 1 .625 1.9 12.379 12.379 0 0 1 -3.889.693z"/><path d="m85.917 122.871a9.743 9.743 0 0 1 -9.979-9.466v-72.22c0-4.246 2.4-6.989 6.119-6.989a7.485 7.485 0 0 1 5.577 2.447 8.137 8.137 0 0 1 3.5-.789 7.844 7.844 0 0 1 7.418 5.035 7.553 7.553 0 0 1 1.116-.084 8.031 8.031 0 0 1 8.221 7.806v.207a7.973 7.973 0 0 1 7.224 7.75 7.458 7.458 0 0 1 -1.486 4.438 9.45 9.45 0 0 1 7.243 9.069 9.3 9.3 0 0 1 -3.792 7.384 9.1 9.1 0 0 1 2.859 6.59 9.382 9.382 0 0 1 -5.917 8.639 9.207 9.207 0 0 1 2.852 6.626 9.693 9.693 0 0 1 -9.126 9.432 7.823 7.823 0 0 1 .147 1.489 9.745 9.745 0 0 1 -9.98 9.466 10.1 10.1 0 0 1 -3.915-.8 10.018 10.018 0 0 1 -8.081 3.97zm-3.86-86.671c-3.718 0-4.119 3.489-4.119 4.989v72.22a7.744 7.744 0 0 0 7.979 7.466 8 8 0 0 0 6.882-3.755 1 1 0 0 1 1.308-.364 8.273 8.273 0 0 0 3.805.949 7.744 7.744 0 0 0 7.98-7.466 6.9 6.9 0 0 0 -.393-2.185 1 1 0 0 1 .155-.919.989.989 0 0 1 .844-.392c.094 0 .186.016.278.028a.876.876 0 0 0 .116.013 7.744 7.744 0 0 0 7.979-7.466 7.344 7.344 0 0 0 -3.493-6.173 1 1 0 0 1 .332-1.822 7.545 7.545 0 0 0 6.226-7.27 7.255 7.255 0 0 0 -3.123-5.882 1 1 0 0 1 .1-1.686 7.317 7.317 0 0 0 3.954-6.406 7.615 7.615 0 0 0 -7.328-7.4 1 1 0 0 1 -.559-1.77 5.641 5.641 0 0 0 2.13-4.337 6.031 6.031 0 0 0 -6.22-5.807c.014 0-.046.011-.125.012a1 1 0 0 1 -.984-1.18 5.535 5.535 0 0 0 .109-.982 6.032 6.032 0 0 0 -6.221-5.806 6.533 6.533 0 0 0 -1.584.216 1 1 0 0 1 -1.219-.766 5.761 5.761 0 0 0 -5.731-4.4 6.111 6.111 0 0 0 -3.235.918 1 1 0 0 1 -1.351-.28 5.435 5.435 0 0 0 -4.492-2.297z"/><path d="m13.328 75h-.067a1 1 0 0 1 -.932-1.064 62.051 62.051 0 0 1 61.792-57.791 1 1 0 0 1 0 2 60.046 60.046 0 0 0 -59.8 55.919 1 1 0 0 1 -.993.936z"/><path d="m66.1 25.756a1 1 0 0 1 -.664-1.747l7.579-6.737-8.387-5.42a1 1 0 0 1 1.086-1.68l9.49 6.133a1 1 0 0 1 .122 1.588l-8.559 7.607a1 1 0 0 1 -.667.256z"/><path d="m74.263 139.988a62.081 62.081 0 0 1 -53.773-30.951 1 1 0 0 1 1.733-1 60.042 60.042 0 0 0 78.324 23.826 1 1 0 1 1 .883 1.794 61.355 61.355 0 0 1 -27.167 6.331z"/><path d="m20.52 120.353h-.051a1 1 0 0 1 -.949-1.049l.566-11.287a1 1 0 0 1 1.315-.9l10.872 3.609a1 1 0 0 1 -.631 1.9l-9.624-3.2-.5 9.973a1 1 0 0 1 -.998.954z"/><path d="m126.886 109.537a1 1 0 0 1 -.865-1.5 60.046 60.046 0 0 0 -18.529-79.744 1 1 0 1 1 1.112-1.662 62.05 62.05 0 0 1 19.149 82.406 1 1 0 0 1 -.867.5z"/><path d="m126.615 110.008a1 1 0 0 1 -.979-.8l-2.311-11.22a1 1 0 0 1 1.959-.4l2.045 9.934 8.888-4.554a1 1 0 0 1 .912 1.781l-10.058 5.151a1 1 0 0 1 -.456.108z"/></svg>