<svg id="Layer_1" height="512" viewBox="0 0 150 150" width="512" xmlns="http://www.w3.org/2000/svg" data-name="Layer 1"><path d="m101.292 69.7h-43.464a1 1 0 0 1 -1-1v-15.563a10.033 10.033 0 0 1 10.021-10.021h4.961a1 1 0 0 1 .637.229 11.831 11.831 0 0 0 14.226 0 1 1 0 0 1 .637-.229h4.961a10.032 10.032 0 0 1 10.021 10.021v15.563a1 1 0 0 1 -1 1zm-42.464-2h41.464v-14.563a8.03 8.03 0 0 0 -8.021-8.021h-4.61a13.894 13.894 0 0 1 -16.2 0h-4.61a8.031 8.031 0 0 0 -8.021 8.021z"/><path d="m79.565 43.16c-7.863 0-14.023-8.511-14.023-19.378 0-6.5 6-13.782 14.023-13.782s14.023 7.277 14.023 13.782c0 10.867-6.16 19.378-14.023 19.378zm0-31.16a12.379 12.379 0 0 0 -12.023 11.782c0 9.583 5.394 17.378 12.023 17.378s12.023-7.795 12.023-17.378a12.378 12.378 0 0 0 -12.023-11.782z"/><path d="m89.6 25.067c-4.651 0-9.143-1.9-11.55-4.989-2.854 2.089-7.436 4.983-11.8 2.555a1 1 0 1 1 .974-1.747c3.393 1.891 7.177-.571 10.455-3.028a1 1 0 0 1 1.456.284c2.229 3.692 7.929 5.7 13.255 4.659a1 1 0 1 1 .382 1.963 16.628 16.628 0 0 1 -3.172.303z"/><path d="m65.363 69.7a1 1 0 0 1 -1-1v-14.913a1 1 0 0 1 2 0v14.913a1 1 0 0 1 -1 1z"/><path d="m93.738 69.7a1 1 0 0 1 -1-1v-14.913a1 1 0 0 1 2 0v14.913a1 1 0 0 1 -1 1z"/><path d="m54.111 132.136a1 1 0 0 1 -1-.94l-.559-9.3a1 1 0 0 1 2-.12l.559 9.3a1 1 0 0 1 -.938 1.058z"/><path d="m107.969 84.626h-65.939a3.976 3.976 0 0 1 -3.838-2.951l-2.392-8.987a3.971 3.971 0 0 1 3.842-4.988h70.716a3.972 3.972 0 0 1 3.838 4.991l-2.389 8.987a3.974 3.974 0 0 1 -3.838 2.948zm-68.327-14.926a1.971 1.971 0 0 0 -1.905 2.478l2.388 8.986a1.973 1.973 0 0 0 1.905 1.465h65.939a1.973 1.973 0 0 0 1.906-1.465l2.388-8.986a1.971 1.971 0 0 0 -1.905-2.478z"/><path d="m97.634 140h-45.269a4.846 4.846 0 0 1 -4.831-4.55l-3.11-51.764a1 1 0 0 1 1-1.06h59.154a1 1 0 0 1 1 1.06l-3.109 51.764a4.847 4.847 0 0 1 -4.835 4.55zm-51.15-55.374 3.046 50.7a2.844 2.844 0 0 0 2.835 2.674h45.269a2.845 2.845 0 0 0 2.835-2.67l3.045-50.7z"/><path d="m53.287 118.424a1 1 0 0 1 -1-.942l-1.439-24.853a1 1 0 1 1 2-.117l1.442 24.853a1 1 0 0 1 -.941 1.057z"/><path d="m44.438 65.956a1 1 0 0 1 -1-.955l-.938-20.841a1 1 0 0 1 .621-.97l7.64-3.12a1 1 0 0 1 .756 1.852l-6.987 2.853.908 20.136a1 1 0 0 1 -.954 1.044z"/><path d="m53.933 43.905a4 4 0 0 1 -1.552-7.689l6.579-2.77a4 4 0 0 1 3.1 7.373l-6.58 2.77a4 4 0 0 1 -1.547.316zm-1.164-6.768.388.922a2 2 0 1 0 1.552 3.687l6.579-2.771a2 2 0 1 0 -1.552-3.686l-6.579 2.77z"/><path d="m39.108 69.746a1 1 0 0 1 -.974-.777 2.768 2.768 0 0 1 -.065-.624c0-2.461 2.846-4.389 6.48-4.389s6.48 1.928 6.48 4.389a3.022 3.022 0 0 1 -.046.53 1 1 0 0 1 -1.968-.359.94.94 0 0 0 .014-.171c0-1.13-1.84-2.389-4.48-2.389s-4.48 1.259-4.48 2.389a.823.823 0 0 0 .015.178 1 1 0 0 1 -.752 1.2 1.012 1.012 0 0 1 -.224.023z"/></svg>