<svg id="Layer_1" height="512" viewBox="0 0 150 150" width="512" xmlns="http://www.w3.org/2000/svg" data-name="Layer 1"><path d="m53.677 86.7h-36.432a1 1 0 0 1 -.838-1.547 23.993 23.993 0 0 0 3.875-13.338c.486-4.944-.9-9.593-4.352-14.73a33.539 33.539 0 0 1 -5.849-20.978c.773-10.435 6.366-18.87 15.345-23.143a30.977 30.977 0 0 1 10.505-2.743c11.824-1.095 21.817 2.82 28.152 11.021 5.185 6.509 7.362 12.41 6.645 18.026a9.5 9.5 0 0 0 1.676 6.6c5.16 7.529 5.293 9.2 5.337 9.749a2.622 2.622 0 0 1 -.706 2.035c-1.007 1.093-2.935 1.507-4.3 1.662a7.335 7.335 0 0 1 .61 2.428 2.284 2.284 0 0 1 -1.3 1.937 2.734 2.734 0 0 1 .184.44 2.41 2.41 0 0 1 -.757 2.706 3.46 3.46 0 0 0 -.773.841.3.3 0 0 0 0 .337c.713 1.1 1.37 3.265.444 7.277a4.163 4.163 0 0 1 -2.061 2.738c-3.423 2-10.214.573-12.839-.09l-1.585 7.972a1 1 0 0 1 -.981.8zm-34.66-2h33.839l1.625-8.212a1 1 0 0 1 .464-.661 1 1 0 0 1 .8-.1c2.452.727 9.447 2.244 12.321.566a2.185 2.185 0 0 0 1.119-1.459c.84-3.638.156-5.231-.177-5.747a2.3 2.3 0 0 1 .014-2.514 5.441 5.441 0 0 1 1.23-1.333c.129-.1.126-.33.07-.5s-.18-.349-.328-.353a1 1 0 0 1 -.174-1.979 3.038 3.038 0 0 0 1.532-.71 9.866 9.866 0 0 0 -1.017-2.827 1 1 0 0 1 .889-1.456c1.38 0 3.639-.348 4.339-1.111a.621.621 0 0 0 .183-.517c-.031-.4-.485-2.2-4.99-8.777a11.487 11.487 0 0 1 -2.013-7.987c.644-5.052-1.395-10.461-6.234-16.538-5.909-7.659-15.286-11.296-26.393-10.272a29 29 0 0 0 -9.829 2.557c-8.314 3.956-13.493 11.787-14.212 21.485a31.544 31.544 0 0 0 5.515 19.715c3.728 5.545 5.217 10.611 4.687 15.945a25.9 25.9 0 0 1 -3.26 12.785z"/><path d="m15.77 34.652a1.028 1.028 0 0 1 -.182-.017 1 1 0 0 1 -.8-1.164 22.5 22.5 0 0 1 8.512-14.19 1 1 0 1 1 1.2 1.6 20.53 20.53 0 0 0 -7.743 12.951 1 1 0 0 1 -.987.82z"/><path d="m29.623 17.986a1 1 0 0 1 -.34-1.941 27.957 27.957 0 0 1 5.99-1.382 1 1 0 1 1 .249 1.984 26.022 26.022 0 0 0 -5.559 1.279.987.987 0 0 1 -.34.06z"/><path d="m132.755 139.958h-36.432a1 1 0 0 1 -.981-.805l-1.577-7.967c-2.624.662-9.415 2.087-12.838.089a4.166 4.166 0 0 1 -2.062-2.738c-.926-4.01-.269-6.172.446-7.28a.3.3 0 0 0 0-.327 3.455 3.455 0 0 0 -.78-.851 2.409 2.409 0 0 1 -.754-2.7 2.828 2.828 0 0 1 .184-.44 2.285 2.285 0 0 1 -1.3-1.938 7.335 7.335 0 0 1 .61-2.427c-1.366-.156-3.294-.569-4.3-1.663a2.615 2.615 0 0 1 -.706-2.038c.043-.546.177-2.218 5.334-9.742a9.5 9.5 0 0 0 1.678-6.6c-.717-5.618 1.46-11.518 6.654-18.039 6.325-8.189 16.322-12.1 28.142-11.01a31.023 31.023 0 0 1 10.508 2.744c8.976 4.272 14.57 12.707 15.343 23.142a33.537 33.537 0 0 1 -5.849 20.978c-3.454 5.138-4.838 9.787-4.356 14.631a24.129 24.129 0 0 0 3.879 13.438 1 1 0 0 1 -.838 1.546zm-35.611-2h33.839a26.093 26.093 0 0 1 -3.264-12.884c-.526-5.234.963-10.3 4.691-15.847a31.543 31.543 0 0 0 5.515-19.716c-.719-9.7-5.9-17.527-14.21-21.483a29.015 29.015 0 0 0 -9.832-2.557c-11.114-1.027-20.483 2.613-26.383 10.252-4.849 6.088-6.888 11.5-6.244 16.551a11.491 11.491 0 0 1 -2.015 7.989c-4.5 6.57-4.957 8.374-4.988 8.77a.625.625 0 0 0 .184.522c.772.838 3.256 1.11 4.337 1.11a1 1 0 0 1 .89 1.455 9.391 9.391 0 0 0 -1.008 2.88 3.55 3.55 0 0 0 1.522.658 1 1 0 0 1 -.172 1.979c-.149 0-.274.187-.329.354s-.059.406.067.5a5.471 5.471 0 0 1 1.237 1.342 2.3 2.3 0 0 1 .012 2.5c-.335.52-1.019 2.114-.179 5.75a2.185 2.185 0 0 0 1.12 1.46c2.879 1.678 9.869.161 12.32-.565a1 1 0 0 1 1.265.764z"/><path d="m134.23 87.909a1 1 0 0 1 -.983-.819 20.529 20.529 0 0 0 -7.747-12.95 1 1 0 0 1 1.2-1.6 22.5 22.5 0 0 1 8.512 14.19 1 1 0 0 1 -.8 1.164.942.942 0 0 1 -.182.015z"/><path d="m120.377 71.244a.989.989 0 0 1 -.34-.061 26.034 26.034 0 0 0 -5.559-1.278 1 1 0 0 1 .249-1.985 27.929 27.929 0 0 1 5.989 1.383 1 1 0 0 1 -.339 1.941z"/><path d="m65.405 126.048a1.037 1.037 0 0 1 -.191-.018 52.212 52.212 0 0 1 -38.977-33.2 1 1 0 1 1 1.879-.685 50.2 50.2 0 0 0 37.477 31.92 1 1 0 0 1 -.188 1.982z"/><path d="m122.824 58.609a1 1 0 0 1 -.939-.658 49.887 49.887 0 0 0 -34.85-31.339 1 1 0 0 1 .485-1.941 51.885 51.885 0 0 1 36.243 32.594 1 1 0 0 1 -.939 1.344z"/><path d="m122.824 58.609a.985.985 0 0 1 -.31-.05l-8.542-2.784a1 1 0 0 1 .621-1.9l7.59 2.475 2.474-7.591a1 1 0 0 1 1.9.62l-2.784 8.541a1 1 0 0 1 -.949.689z"/><path d="m24.392 102.03a1 1 0 0 1 -.95-1.31l2.784-8.541a1 1 0 0 1 1.261-.641l8.541 2.784a1 1 0 1 1 -.62 1.9l-7.591-2.474-2.474 7.591a1 1 0 0 1 -.951.691z"/><path d="m30.1 51.977h-4.2a1 1 0 0 1 -1-1v-13.318a1 1 0 0 1 1-1h4.2a1 1 0 0 1 1 1v13.318a1 1 0 0 1 -1 1zm-3.2-2h2.2v-11.318h-2.2z"/><path d="m39.046 51.977h-4.2a1 1 0 0 1 -1-1v-21.767a1 1 0 0 1 1-1h4.2a1 1 0 0 1 1 1v21.767a1 1 0 0 1 -1 1zm-3.2-2h2.2v-19.767h-2.2z"/><path d="m47.99 51.977h-4.2a1 1 0 0 1 -1-1v-17.077a1 1 0 0 1 1-1h4.2a1 1 0 0 1 1 1v17.077a1 1 0 0 1 -1 1zm-3.2-2h2.2v-15.077h-2.2z"/><path d="m56.934 51.977h-4.2a1 1 0 0 1 -1-1v-21.767a1 1 0 0 1 1-1h4.2a1 1 0 0 1 1 1v21.767a1 1 0 0 1 -1 1zm-3.2-2h2.2v-19.767h-2.2z"/><path d="m59.5 51.977h-36.156a1 1 0 0 1 0-2h36.156a1 1 0 0 1 0 2z"/><path d="m109.44 112.454a17.663 17.663 0 0 1 -2.489-35.15 1 1 0 0 1 1.139 1.007l-.28 16.14a1.324 1.324 0 0 0 .091.477.822.822 0 0 1 .087.179c.01.018.02.036.029.056l.008.012c.016.017.031.035.046.053s.106.12.129.15l.071.072 11.45 12.31a1 1 0 0 1 -.158 1.5 17.55 17.55 0 0 1 -10.123 3.194zm-3.371-32.962a15.664 15.664 0 0 0 3.371 30.962 15.548 15.548 0 0 0 8.008-2.2l-10.64-11.438a1.942 1.942 0 0 1 -.134-.144c-.043-.046-.083-.092-.121-.138a1.033 1.033 0 0 1 -.067-.079 2.21 2.21 0 0 1 -.17-.24c-.015-.024-.028-.049-.041-.074a1.686 1.686 0 0 1 -.111-.2 1.889 1.889 0 0 1 -.141-.319 3.249 3.249 0 0 1 -.214-1.183z"/><path d="m111.39 91.284a1 1 0 0 1 -1-1.016l.19-12.01a1 1 0 0 1 .345-.739.988.988 0 0 1 .779-.237 17.57 17.57 0 0 1 10.796 5.618 1 1 0 0 1 -.2 1.512l-10.369 6.71a1 1 0 0 1 -.541.162zm1.172-11.838-.142 8.981 7.768-5.027a15.581 15.581 0 0 0 -7.626-3.954z"/><path d="m117.7 101.454a1 1 0 0 1 -.886-1.461l6.719-12.94a1 1 0 1 1 1.776.922l-6.72 12.94a1 1 0 0 1 -.889.539z"/><path d="m120.359 104.294a1 1 0 0 1 -.887-1.461l5.58-10.75a1 1 0 0 1 1.776.922l-5.58 10.75a1 1 0 0 1 -.889.539z"/><path d="m115.2 98.564a1 1 0 0 1 -.886-1.461l3.44-6.62a1 1 0 0 1 1.775.922l-3.44 6.62a1 1 0 0 1 -.889.539z"/><path d="m122.29 106.394a1 1 0 0 1 -.732-.319l-9.76-10.5a1 1 0 0 1 .19-1.521l11.78-7.61a1 1 0 0 1 1.435.39 17.65 17.65 0 0 1 -2.143 19.2 1 1 0 0 1 -.741.361zm-8.215-11.307 8.143 8.76a15.652 15.652 0 0 0 1.667-15.1z"/></svg>