<svg id="Layer_1" height="512" viewBox="0 0 150 150" width="512" xmlns="http://www.w3.org/2000/svg" data-name="Layer 1"><path d="m30.964 31.964h-19.964a1 1 0 0 1 -1-1v-19.964a1 1 0 0 1 1-1h19.964a1 1 0 0 1 1 1v19.964a1 1 0 0 1 -1 1zm-18.964-2h17.964v-17.964h-17.964z"/><path d="m30.964 140h-19.964a1 1 0 0 1 -1-1v-19.965a1 1 0 0 1 1-1h19.964a1 1 0 0 1 1 1v19.965a1 1 0 0 1 -1 1zm-18.964-2h17.964v-17.965h-17.964z"/><path d="m139 31.964h-19.964a1 1 0 0 1 -1-1v-19.964a1 1 0 0 1 1-1h19.964a1 1 0 0 1 1 1v19.964a1 1 0 0 1 -1 1zm-18.964-2h17.964v-17.964h-17.964z"/><path d="m139 140h-19.964a1 1 0 0 1 -1-1v-19.965a1 1 0 0 1 1-1h19.964a1 1 0 0 1 1 1v19.965a1 1 0 0 1 -1 1zm-18.964-2h17.964v-17.965h-17.964z"/><path d="m119.04 21.706h-3.5a1 1 0 0 1 0-2h3.5a1 1 0 0 1 0 2z"/><path d="m108.169 21.706h-7.369a1 1 0 0 1 0-2h7.371a1 1 0 0 1 0 2zm-14.742 0h-7.371a1 1 0 0 1 0-2h7.371a1 1 0 0 1 0 2zm-14.741 0h-7.372a1 1 0 0 1 0-2h7.372a1 1 0 0 1 0 2zm-14.743 0h-7.37a1 1 0 0 1 0-2h7.37a1 1 0 0 1 0 2zm-14.741 0h-7.371a1 1 0 0 1 0-2h7.369a1 1 0 0 1 0 2z"/><path d="m34.46 21.706h-3.5a1 1 0 0 1 0-2h3.5a1 1 0 0 1 0 2z"/><path d="m119.04 130.295h-3.5a1 1 0 1 1 0-2h3.5a1 1 0 0 1 0 2z"/><path d="m108.169 130.295h-7.369a1 1 0 0 1 0-2h7.371a1 1 0 1 1 0 2zm-14.742 0h-7.371a1 1 0 0 1 0-2h7.371a1 1 0 0 1 0 2zm-14.741 0h-7.372a1 1 0 0 1 0-2h7.372a1 1 0 0 1 0 2zm-14.743 0h-7.37a1 1 0 0 1 0-2h7.37a1 1 0 1 1 0 2zm-14.741 0h-7.371a1 1 0 1 1 0-2h7.369a1 1 0 0 1 0 2z"/><path d="m34.46 130.295h-3.5a1 1 0 0 1 0-2h3.5a1 1 0 1 1 0 2z"/><path d="m20.98 120.036a1 1 0 0 1 -1-1v-3.5a1 1 0 0 1 2 0v3.5a1 1 0 0 1 -1 1z"/><path d="m20.98 109.166a1 1 0 0 1 -1-1v-7.366a1 1 0 0 1 2 0v7.371a1 1 0 0 1 -1 .995zm0-14.741a1 1 0 0 1 -1-1v-7.369a1 1 0 0 1 2 0v7.369a1 1 0 0 1 -1 1zm0-14.739a1 1 0 0 1 -1-1v-7.371a1 1 0 0 1 2 0v7.371a1 1 0 0 1 -1 1zm0-14.741a1 1 0 0 1 -1-1v-7.369a1 1 0 0 1 2 0v7.369a1 1 0 0 1 -1 1zm0-14.739a1 1 0 0 1 -1-1v-7.371a1 1 0 0 1 2 0v7.371a1 1 0 0 1 -1 1z"/><path d="m20.98 35.465a1 1 0 0 1 -1-1v-3.5a1 1 0 0 1 2 0v3.5a1 1 0 0 1 -1 1z"/><path d="m129.56 120.036a1 1 0 0 1 -1-1v-3.5a1 1 0 0 1 2 0v3.5a1 1 0 0 1 -1 1z"/><path d="m129.56 109.166a1 1 0 0 1 -1-1v-7.366a1 1 0 0 1 2 0v7.371a1 1 0 0 1 -1 .995zm0-14.741a1 1 0 0 1 -1-1v-7.369a1 1 0 1 1 2 0v7.369a1 1 0 0 1 -1 1zm0-14.739a1 1 0 0 1 -1-1v-7.371a1 1 0 0 1 2 0v7.371a1 1 0 0 1 -1 1zm0-14.741a1 1 0 0 1 -1-1v-7.369a1 1 0 1 1 2 0v7.369a1 1 0 0 1 -1 1zm0-14.739a1 1 0 0 1 -1-1v-7.371a1 1 0 0 1 2 0v7.371a1 1 0 0 1 -1 1z"/><path d="m129.56 35.465a1 1 0 0 1 -1-1v-3.5a1 1 0 0 1 2 0v3.5a1 1 0 0 1 -1 1z"/><path d="m42.877 108.118a1 1 0 0 1 -.707-1.707l64.24-64.24a1 1 0 0 1 1.414 1.414l-64.24 64.24a.993.993 0 0 1 -.707.293z"/><path d="m111.7 48.462a1 1 0 0 1 -.707-.293l-9.162-9.169a1 1 0 0 1 .456-1.675l12.367-3.2a1 1 0 0 1 1.219 1.219l-3.2 12.367a1 1 0 0 1 -.706.714.973.973 0 0 1 -.267.037zm-7.223-9.636 6.693 6.693 2.337-9.03z"/><path d="m35.1 115.9a1 1 0 0 1 -.969-1.25l3.2-12.367a1 1 0 0 1 1.669-.453l9.169 9.17a1 1 0 0 1 -.456 1.675l-12.367 3.2a1.019 1.019 0 0 1 -.246.025zm3.73-11.423-2.337 9.03 9.03-2.337z"/><path d="m107.123 108.118a.993.993 0 0 1 -.707-.293l-64.24-64.24a1 1 0 0 1 1.414-1.414l64.24 64.24a1 1 0 0 1 -.707 1.707z"/><path d="m38.3 48.462a.973.973 0 0 1 -.262-.035 1 1 0 0 1 -.706-.714l-3.2-12.367a1 1 0 0 1 1.219-1.219l12.367 3.2a1 1 0 0 1 .451 1.673l-9.169 9.169a1 1 0 0 1 -.7.293zm-1.811-11.973 2.337 9.03 6.693-6.693z"/><path d="m114.9 115.9a1.019 1.019 0 0 1 -.25-.031l-12.367-3.2a1 1 0 0 1 -.456-1.675l9.173-9.164a1 1 0 0 1 1.675.457l3.2 12.367a1 1 0 0 1 -.969 1.25zm-10.423-4.73 9.03 2.337-2.337-9.03z"/></svg>