<svg id="Layer_1" height="512" viewBox="0 0 150 150" width="512" xmlns="http://www.w3.org/2000/svg" data-name="Layer 1"><path d="m13.329 75h-.067a1 1 0 0 1 -.932-1.064 62.049 62.049 0 0 1 61.792-57.791 1 1 0 0 1 0 2 60.044 60.044 0 0 0 -59.8 55.918 1 1 0 0 1 -.993.937z"/><path d="m66.1 25.756a1 1 0 0 1 -.665-1.747l7.58-6.738-8.387-5.42a1 1 0 1 1 1.086-1.679l9.491 6.133a1 1 0 0 1 .121 1.587l-8.559 7.608a1 1 0 0 1 -.667.256z"/><path d="m74.263 139.988a62.08 62.08 0 0 1 -53.773-30.951 1 1 0 0 1 1.733-1 60.045 60.045 0 0 0 78.324 23.826 1 1 0 0 1 .884 1.794 61.362 61.362 0 0 1 -27.168 6.331z"/><path d="m20.519 120.353h-.051a1 1 0 0 1 -.948-1.048l.566-11.286a1 1 0 0 1 1.313-.9l10.873 3.609a1 1 0 1 1 -.63 1.9l-9.625-3.195-.5 9.973a1 1 0 0 1 -.998.947z"/><path d="m126.886 109.537a1 1 0 0 1 -.865-1.5 60.044 60.044 0 0 0 -18.529-79.744 1 1 0 1 1 1.113-1.662 62.048 62.048 0 0 1 19.148 82.406 1 1 0 0 1 -.867.5z"/><path d="m126.615 110.008a1 1 0 0 1 -.979-.8l-2.311-11.22a1 1 0 0 1 1.959-.4l2.046 9.933 8.886-4.553a1 1 0 1 1 .912 1.781l-10.057 5.151a.99.99 0 0 1 -.456.108z"/><path d="m64.544 91.2h-5.983a1 1 0 0 1 -.985-.825l-1.129-6.334a23.851 23.851 0 0 1 -8-3.312l-5.276 3.68a1 1 0 0 1 -1.279-.114l-4.231-4.231a1 1 0 0 1 -.114-1.279l3.68-5.276a23.851 23.851 0 0 1 -3.312-8l-6.334-1.129a1 1 0 0 1 -.825-.985v-5.985a1 1 0 0 1 .825-.984l6.335-1.126a23.864 23.864 0 0 1 3.312-8l-3.68-5.276a1 1 0 0 1 .114-1.279l4.231-4.231a1 1 0 0 1 1.279-.113l5.276 3.68a23.873 23.873 0 0 1 8-3.313l1.129-6.333a1 1 0 0 1 .985-.825h5.983a1 1 0 0 1 .984.825l1.129 6.333a23.878 23.878 0 0 1 8 3.313l5.276-3.68a1 1 0 0 1 1.279.113l4.231 4.231a1 1 0 0 1 .113 1.279l-3.68 5.276a23.905 23.905 0 0 1 3.312 8l6.334 1.129a1 1 0 0 1 .824.984v5.983a1 1 0 0 1 -.824.985l-6.334 1.129a23.892 23.892 0 0 1 -3.312 8l3.679 5.276a1 1 0 0 1 -.113 1.279l-4.231 4.231a1 1 0 0 1 -1.279.114l-5.276-3.68a23.847 23.847 0 0 1 -8 3.312l-1.129 6.334a1 1 0 0 1 -.984.824zm-5.146-2h4.309l1.1-6.181a1 1 0 0 1 .8-.808 21.923 21.923 0 0 0 8.493-3.519 1 1 0 0 1 1.139 0l5.148 3.591 3.047-3.046-3.591-5.149a1 1 0 0 1 0-1.138 21.921 21.921 0 0 0 3.516-8.492 1 1 0 0 1 .809-.8l6.18-1.1v-4.311l-6.18-1.1a1 1 0 0 1 -.809-.8 21.921 21.921 0 0 0 -3.516-8.492 1 1 0 0 1 0-1.139l3.591-5.148-3.044-3.051-5.148 3.591a1 1 0 0 1 -1.139 0 21.939 21.939 0 0 0 -8.492-3.508 1 1 0 0 1 -.8-.808l-1.1-6.181h-4.311l-1.1 6.181a1 1 0 0 1 -.8.808 21.939 21.939 0 0 0 -8.5 3.512 1 1 0 0 1 -1.139 0l-5.149-3.591-3.046 3.047 3.591 5.148a1 1 0 0 1 0 1.139 21.938 21.938 0 0 0 -3.517 8.492 1 1 0 0 1 -.808.8l-6.181 1.1v4.309l6.181 1.1a1 1 0 0 1 .808.8 21.938 21.938 0 0 0 3.517 8.492 1 1 0 0 1 0 1.138l-3.589 5.154 3.046 3.046 5.149-3.591a1 1 0 0 1 1.139 0 21.923 21.923 0 0 0 8.492 3.516 1 1 0 0 1 .8.808z"/><path d="m61.552 76.436a16.034 16.034 0 1 1 16.034-16.036 16.052 16.052 0 0 1 -16.034 16.036zm0-30.068a14.034 14.034 0 1 0 14.034 14.032 14.05 14.05 0 0 0 -14.034-14.032z"/><path d="m103.754 120.416a1 1 0 0 1 -.859-.488l-2.143-3.595a16.6 16.6 0 0 1 -5.606-.177l-2.366 3.451a1 1 0 0 1 -1.236.346l-3.726-1.684a1 1 0 0 1 -.557-1.156l1.026-4.055a16.67 16.67 0 0 1 -3.839-4.091l-4.112.768a1 1 0 0 1 -1.12-.63l-1.444-3.825a1 1 0 0 1 .424-1.212l3.595-2.142a16.61 16.61 0 0 1 .176-5.608l-3.451-2.364a1 1 0 0 1 -.346-1.237l1.684-3.725a1 1 0 0 1 1.156-.558l4.056 1.026a16.633 16.633 0 0 1 4.091-3.839l-.768-4.112a1 1 0 0 1 .629-1.119l3.825-1.445a1 1 0 0 1 1.212.424l2.145 3.594a16.63 16.63 0 0 1 5.607.178l2.365-3.452a1 1 0 0 1 1.236-.345l3.726 1.683a1 1 0 0 1 .558 1.157l-1.027 4.055a16.615 16.615 0 0 1 3.835 4.091l4.113-.768a1 1 0 0 1 1.119.629l1.444 3.825a1 1 0 0 1 -.424 1.212l-3.594 2.143a16.63 16.63 0 0 1 -.177 5.607l3.451 2.365a1 1 0 0 1 .346 1.237l-1.683 3.725a1 1 0 0 1 -1.157.558l-4.056-1.027a16.61 16.61 0 0 1 -4.09 3.839l.768 4.113a1 1 0 0 1 -.63 1.119l-3.825 1.444a.988.988 0 0 1 -.351.065zm-2.489-6.177a1 1 0 0 1 .859.488l2.06 3.457 2.258-.852-.739-3.956a1 1 0 0 1 .466-1.04 14.662 14.662 0 0 0 4.483-4.206 1 1 0 0 1 1.067-.4l3.9.988.994-2.2-3.319-2.274a1 1 0 0 1 -.406-1.064 14.67 14.67 0 0 0 .194-6.145 1 1 0 0 1 .472-1.035l3.457-2.061-.852-2.257-3.956.738a1 1 0 0 1 -1.04-.465 14.65 14.65 0 0 0 -4.206-4.483 1 1 0 0 1 -.4-1.067l.987-3.9-2.2-.993-2.275 3.319a1 1 0 0 1 -1.064.406 14.666 14.666 0 0 0 -6.144-.2 1 1 0 0 1 -1.036-.472l-2.061-3.457-2.258.853.739 3.955a1 1 0 0 1 -.465 1.04 14.656 14.656 0 0 0 -4.48 4.211 1 1 0 0 1 -1.067.4l-3.9-.987-.993 2.2 3.319 2.275a1 1 0 0 1 .406 1.064 14.653 14.653 0 0 0 -.194 6.145 1 1 0 0 1 -.471 1.036l-3.457 2.06.853 2.258 3.955-.739a.989.989 0 0 1 1.039.466 14.668 14.668 0 0 0 4.208 4.483 1 1 0 0 1 .4 1.067l-.987 3.9 2.2.994 2.275-3.319a1 1 0 0 1 1.064-.406 14.649 14.649 0 0 0 6.144.194 1.08 1.08 0 0 1 .171-.019z"/><path d="m98.487 110.921a11.273 11.273 0 1 1 3.97-.727 11.29 11.29 0 0 1 -3.97.727zm-.022-20.545a9.273 9.273 0 1 0 8.684 6 9.224 9.224 0 0 0 -8.684-6z"/></svg>