<svg id="Layer_1" height="512" viewBox="0 0 150 150" width="512" xmlns="http://www.w3.org/2000/svg" data-name="Layer 1"><path d="m86.964 127.976h-23.926a.993.993 0 0 1 -.369-.071 33.424 33.424 0 0 1 .094-62.166v-28.4a1 1 0 0 1 1-1h22.475a1 1 0 0 1 1 1v28.4a33.423 33.423 0 0 1 .095 62.166 1 1 0 0 1 -.369.071zm-23.733-2h23.539a31.423 31.423 0 0 0 -.879-58.61 1 1 0 0 1 -.653-.938v-28.091h-20.475v28.091a1 1 0 0 1 -.653.938 31.424 31.424 0 0 0 -.879 58.61z"/><path d="m86.227 38.34h-22.455a4.421 4.421 0 1 1 0-8.842h22.455a4.421 4.421 0 1 1 0 8.842zm-22.455-6.84a2.421 2.421 0 1 0 0 4.842h22.455a2.421 2.421 0 1 0 0-4.842z"/><path d="m86.138 123.808h-22.275a1.011 1.011 0 0 1 -.395-.081 29.215 29.215 0 0 1 -17.72-26.879c0-.142 0-.284.011-.426a1 1 0 0 1 .29-.631c.007-.008.119-.118.125-.125 2.176-2.075 5.443-2.825 9.977-2.3.633.074 1.269.163 1.9.252 2.589.362 5.037.7 7.367.084a19.562 19.562 0 0 0 3.733-1.6c2.049-1.049 4.166-2.133 6.61-2.015a13.485 13.485 0 0 1 4.739 1.418l.643.281a35.7 35.7 0 0 0 13.892 2.845h.115l.668-.007a13.24 13.24 0 0 1 4.48.459 13.776 13.776 0 0 1 1.76.783c.183.092.366.184.549.273.342.167.672.317 1.019.458a1 1 0 0 1 .622.95 28.923 28.923 0 0 1 -17.713 26.18 1 1 0 0 1 -.397.081zm-22.068-2h21.861a26.923 26.923 0 0 0 16.29-23.638c-.163-.074-.325-.151-.49-.231-.19-.092-.383-.189-.575-.287a12.279 12.279 0 0 0 -1.5-.675 11.55 11.55 0 0 0 -3.813-.354l-.687.008h-.121a37.748 37.748 0 0 1 -14.682-3.006l-.662-.29a11.832 11.832 0 0 0 -4.024-1.249c-1.916-.09-3.7.825-5.6 1.8a21.215 21.215 0 0 1 -4.128 1.755c-2.723.724-5.487.338-8.16-.036-.621-.086-1.242-.173-1.86-.245-3.765-.441-6.444.077-8.171 1.58a27.216 27.216 0 0 0 16.322 24.868z"/><path d="m64.876 118.663a3.046 3.046 0 1 1 3.046-3.045 3.049 3.049 0 0 1 -3.046 3.045zm0-4.091a1.046 1.046 0 1 0 1.046 1.046 1.046 1.046 0 0 0 -1.046-1.046z"/><path d="m75 108.868a3.046 3.046 0 1 1 3.045-3.046 3.049 3.049 0 0 1 -3.045 3.046zm0-4.091a1.046 1.046 0 1 0 1.045 1.045 1.047 1.047 0 0 0 -1.045-1.045z"/><path d="m87.384 116.618a3.046 3.046 0 1 1 3.046-3.046 3.049 3.049 0 0 1 -3.046 3.046zm0-4.092a1.046 1.046 0 1 0 1.046 1.046 1.046 1.046 0 0 0 -1.046-1.046z"/><path d="m89.43 104.777a3.046 3.046 0 1 1 3.046-3.046 3.05 3.05 0 0 1 -3.046 3.046zm0-4.092a1.046 1.046 0 1 0 1.046 1.046 1.047 1.047 0 0 0 -1.046-1.046z"/><path d="m58.936 106.822a3.046 3.046 0 1 1 3.046-3.045 3.049 3.049 0 0 1 -3.046 3.045zm0-4.091a1.046 1.046 0 1 0 1.046 1.046 1.047 1.047 0 0 0 -1.046-1.046z"/><path d="m13.329 75h-.068a1 1 0 0 1 -.931-1.064 62.05 62.05 0 0 1 61.792-57.791 1 1 0 0 1 0 2 60.045 60.045 0 0 0 -59.8 55.919 1 1 0 0 1 -.993.936z"/><path d="m66.1 25.756a1 1 0 0 1 -.664-1.747l7.579-6.737-8.387-5.42a1 1 0 0 1 1.086-1.68l9.491 6.133a1 1 0 0 1 .122 1.588l-8.56 7.607a1 1 0 0 1 -.667.256z"/><path d="m74.263 139.988a62.077 62.077 0 0 1 -53.772-30.95 1 1 0 1 1 1.732-1 60.044 60.044 0 0 0 78.325 23.825 1 1 0 1 1 .882 1.794 61.355 61.355 0 0 1 -27.167 6.331z"/><path d="m20.519 120.353h-.051a1 1 0 0 1 -.949-1.049l.567-11.285a1 1 0 0 1 1.314-.9l10.873 3.609a1 1 0 0 1 -.631 1.9l-9.624-3.2-.5 9.973a1 1 0 0 1 -.999.952z"/><path d="m126.886 109.538a1 1 0 0 1 -.865-1.5 60.044 60.044 0 0 0 -18.528-79.744 1 1 0 1 1 1.111-1.663 62.052 62.052 0 0 1 19.15 82.407 1 1 0 0 1 -.868.5z"/><path d="m126.616 110.008a1 1 0 0 1 -.98-.8l-2.31-11.221a1 1 0 1 1 1.959-.4l2.045 9.933 8.886-4.554a1 1 0 0 1 .913 1.781l-10.057 5.153a1.008 1.008 0 0 1 -.456.108z"/></svg>