<svg id="Layer_1" height="512" viewBox="0 0 150 150" width="512" xmlns="http://www.w3.org/2000/svg" data-name="Layer 1"><path d="m107.411 94.328a28.157 28.157 0 0 1 -28.125-28.128v-15.949a1 1 0 0 1 1-1h54.25a1 1 0 0 1 1 1v15.949a28.158 28.158 0 0 1 -28.125 28.128zm-26.125-43.077v14.949a26.125 26.125 0 0 0 52.25 0v-14.949z"/><path d="m133.973 51.251h-53.125a5.125 5.125 0 0 1 0-10.25h53.125a5.125 5.125 0 0 1 0 10.25zm-53.125-8.251a3.125 3.125 0 0 0 0 6.25h53.125a3.125 3.125 0 0 0 0-6.25z"/><path d="m94.463 43h-7.049a1 1 0 0 1 -1-1v-27.475a4.525 4.525 0 0 1 9.049 0v27.475a1 1 0 0 1 -1 1zm-6.049-2h5.049v-26.475a2.525 2.525 0 0 0 -5.049 0z"/><path d="m127.407 43h-7.049a1 1 0 0 1 -1-1v-27.475a4.525 4.525 0 0 1 9.049 0v27.475a1 1 0 0 1 -1 1zm-6.049-2h5.049v-26.475a2.525 2.525 0 0 0 -5.049 0z"/><path d="m107.411 78.6a7.738 7.738 0 1 1 7.737-7.738 7.746 7.746 0 0 1 -7.737 7.738zm0-13.475a5.738 5.738 0 1 0 5.737 5.737 5.744 5.744 0 0 0 -5.737-5.742z"/><path d="m112.17 76.623a1 1 0 0 1 -.707-.293l-9.519-9.53a1 1 0 1 1 1.414-1.413l9.519 9.529a1 1 0 0 1 -.707 1.707z"/><path d="m107.411 101.752a7.218 7.218 0 0 1 -7.21-7.21v-1.932a1 1 0 1 1 2 0v1.932a5.21 5.21 0 1 0 10.42 0v-1.932a1 1 0 0 1 2 0v1.932a7.218 7.218 0 0 1 -7.21 7.21z"/><path d="m125.575 79.813a1 1 0 0 1 -.82-1.571 20.973 20.973 0 0 0 3.781-12.042v-4.72a1 1 0 1 1 2 0v4.72a22.956 22.956 0 0 1 -4.14 13.18 1 1 0 0 1 -.821.433z"/><path d="m122.317 140h-78a8.228 8.228 0 0 1 -8.219-8.219v-94.4a1 1 0 0 1 2 0v94.4a6.226 6.226 0 0 0 6.219 6.219h78a6.226 6.226 0 0 0 6.219-6.219v-12.466a6.226 6.226 0 0 0 -6.219-6.219h-7.688a8.227 8.227 0 0 1 -8.218-8.219v-4.125a1 1 0 0 1 2 0v4.125a6.225 6.225 0 0 0 6.218 6.219h7.688a8.228 8.228 0 0 1 8.219 8.219v12.467a8.228 8.228 0 0 1 -8.219 8.218z"/><path d="m34.769 38.476a23.743 23.743 0 0 1 -17.588-7.144c-4.931-5.187-7.068-12.42-6.018-20.366a1 1 0 0 1 .912-.866c7.992-.65 15.105 1.856 20.035 7.042s7.068 12.421 6.018 20.368a1 1 0 0 1 -.911.866q-1.237.101-2.448.1zm-21.719-26.437c-.725 7.014 1.241 13.35 5.58 17.916s10.57 6.854 17.612 6.482c.725-7.014-1.242-13.351-5.581-17.917s-10.561-6.848-17.611-6.481z"/><path d="m37.137 38.379a1 1 0 0 1 -.736-.323l-15.248-16.577a1 1 0 0 1 1.472-1.354l15.248 16.575a1 1 0 0 1 -.736 1.676z"/><path d="m27.782 28.231a1 1 0 0 1 -.994-.894l-.488-4.524a1 1 0 1 1 1.988-.213l.485 4.524a1 1 0 0 1 -.888 1.1.973.973 0 0 1 -.103.007z"/><path d="m31.727 32.48a1 1 0 0 1 -.993-.893l-.484-4.525a1 1 0 0 1 1.989-.212l.483 4.524a1 1 0 0 1 -.888 1.1c-.034.004-.072.006-.107.006z"/><path d="m21.888 26.208a1 1 0 0 1 -.038-2l3.913-.151a1 1 0 0 1 .078 2l-3.913.151z"/><path d="m24.893 30.091a1 1 0 0 1 -.038-2l3.913-.153a1 1 0 1 1 .078 2l-3.913.153z"/><path d="m28.306 33.74a1 1 0 0 1 -.038-2l3.913-.153a1 1 0 1 1 .078 2l-3.913.153z"/><path d="m40.241 55.529q-1.445 0-2.922-.119a1 1 0 0 1 -.911-.866c-1.252-9.477 1.3-18.1 7.17-24.282s14.365-9.162 23.886-8.391a1 1 0 0 1 .911.865c1.252 9.477-1.3 18.1-7.171 24.282-5.267 5.542-12.631 8.511-20.963 8.511zm-1.949-2.056c8.593.492 16.178-2.273 21.463-7.832s7.662-13.288 6.736-21.833c-8.594-.49-16.179 2.273-21.463 7.832s-7.662 13.287-6.736 21.833z"/><path d="m37.4 55.413a1 1 0 0 1 -.737-1.677l18.3-19.9a1 1 0 0 1 1.473 1.353l-18.3 19.9a1 1 0 0 1 -.736.324z"/><path d="m48.627 43.233a.973.973 0 0 1 -.107-.006 1 1 0 0 1 -.888-1.1l.581-5.43a1 1 0 1 1 1.989.213l-.581 5.43a1 1 0 0 1 -.994.893z"/><path d="m43.892 48.333a.973.973 0 0 1 -.107-.006 1 1 0 0 1 -.888-1.1l.58-5.43a1 1 0 1 1 1.988.213l-.58 5.43a1 1 0 0 1 -.993.893z"/><path d="m55.7 40.805h-.04l-4.7-.183a1 1 0 0 1 -.96-1.039.987.987 0 0 1 1.038-.96l4.7.183a1 1 0 0 1 -.038 2z"/><path d="m52.094 45.465h-.04l-4.7-.183a1 1 0 0 1 -.96-1.038.988.988 0 0 1 1.038-.96l4.7.183a1 1 0 0 1 -.038 2z"/><path d="m48.017 49.989h-.04l-4.7-.183a1 1 0 0 1 .078-2l4.7.183a1 1 0 0 1 -.038 2z"/></svg>