<svg id="Layer_1" height="512" viewBox="0 0 150 150" width="512" xmlns="http://www.w3.org/2000/svg" data-name="Layer 1"><path d="m105.237 77.918a7.461 7.461 0 0 1 -1.157-.091l-4.366-.689a1 1 0 1 1 .31-1.975l4.368.688c2.344.369 4.576-.79 4.979-2.587l3.329-15.226a2.6 2.6 0 0 0 -.439-2.038 4.46 4.46 0 0 0 -3.018-1.753l-3.679-.581a1 1 0 0 1 .313-1.975l3.679.581a6.451 6.451 0 0 1 4.354 2.6 4.593 4.593 0 0 1 .748 3.592l-3.335 15.236c-.557 2.483-3.164 4.218-6.086 4.218z"/><path d="m111.645 73.663a8.059 8.059 0 0 1 -1.26-.1 1 1 0 0 1 -.821-1.2l2.936-13.416a1 1 0 0 1 1.132-.774 6.965 6.965 0 0 1 4.71 2.8 4.883 4.883 0 0 1 .786 3.829l-.95 4.341c-.578 2.662-3.378 4.52-6.533 4.52zm2.592-13.3-2.472 11.3c2.188-.032 4.084-1.226 4.461-2.946l.95-4.34a2.9 2.9 0 0 0 -.485-2.274 4.675 4.675 0 0 0 -2.454-1.737z"/><path d="m44.758 77.918c-2.922 0-5.529-1.734-6.085-4.216l-3.335-15.236a4.594 4.594 0 0 1 .747-3.6 6.453 6.453 0 0 1 4.354-2.6l3.679-.581a1 1 0 0 1 .313 1.975l-3.679.581a4.46 4.46 0 0 0 -3.018 1.759 2.606 2.606 0 0 0 -.442 2.04l3.333 15.228c.4 1.791 2.644 2.95 4.978 2.582l4.368-.688a1 1 0 1 1 .31 1.975l-4.367.689a7.448 7.448 0 0 1 -1.156.092z"/><path d="m38.351 73.663c-3.155 0-5.953-1.857-6.535-4.517l-.95-4.341a4.89 4.89 0 0 1 .787-3.83 6.967 6.967 0 0 1 4.708-2.8 1 1 0 0 1 1.133.774l2.937 13.415a1 1 0 0 1 -.821 1.2 8.047 8.047 0 0 1 -1.259.099zm-5.532-9.285.951 4.34c.376 1.719 2.272 2.914 4.46 2.946l-2.472-11.3a4.667 4.667 0 0 0 -2.453 1.736 2.891 2.891 0 0 0 -.486 2.274z"/><path d="m110.538 54.658a1 1 0 0 1 -1-1v-9.564c0-18.3-14.852-32.1-34.548-32.1s-34.533 13.8-34.533 32.1v9.457a1 1 0 0 1 -2 0v-9.457c0-19.438 15.706-34.094 36.533-34.094s36.548 14.658 36.548 34.1v9.564a1 1 0 0 1 -1 .994z"/><path d="m94 84.634h-14.255a1 1 0 0 1 0-2h14.255a10.078 10.078 0 0 0 9.014-5.644 1 1 0 0 1 1.8.874 12.089 12.089 0 0 1 -10.814 6.77z"/><path d="m76.579 87.8a4.167 4.167 0 1 1 4.166-4.167 4.172 4.172 0 0 1 -4.166 4.167zm0-6.333a2.167 2.167 0 1 0 2.166 2.166 2.168 2.168 0 0 0 -2.166-2.165z"/><path d="m75 94.874c-17.807 0-31.755-19.5-31.755-44.4 0-14.722 13.58-31.187 31.755-31.187s31.754 16.465 31.754 31.187c-.002 24.897-13.954 44.4-31.754 44.4zm0-73.589c-17.03 0-29.755 15.41-29.755 29.187 0 23.777 13.07 42.4 29.755 42.4s29.754-18.625 29.754-42.4c-.002-13.772-12.727-29.187-29.754-29.187z"/><path d="m98.663 52.149c-11.1 0-21.767-4.72-26.948-12.333-6.369 4.748-17.359 12.395-27.483 6.752a1 1 0 0 1 .973-1.747c9.47 5.274 20.332-2.873 26.171-7.25a1 1 0 0 1 1.456.284c5.546 9.186 19.618 14.19 32.729 11.636a1 1 0 0 1 .382 1.963 38.178 38.178 0 0 1 -7.28.695z"/><path d="m127.191 139.991h-104.382a1 1 0 0 1 -1-1v-18.351c0-13.825 10.321-25.073 23.007-25.073h1.937a13.634 13.634 0 0 0 12.334-7.6 1 1 0 1 1 1.793.885 15.62 15.62 0 0 1 -14.127 8.711h-1.937c-11.584 0-21.007 10.351-21.007 23.073v17.351h102.382v-17.347c0-12.722-9.423-23.073-21.007-23.073h-1.937a15.62 15.62 0 0 1 -14.127-8.711 1 1 0 1 1 1.793-.885 13.634 13.634 0 0 0 12.334 7.6h1.937c12.686 0 23.007 11.248 23.007 25.073v18.351a1 1 0 0 1 -1 .996z"/><path d="m42.248 140a1 1 0 0 1 -1-1v-18.113a1 1 0 0 1 2 0v18.113a1 1 0 0 1 -1 1z"/><path d="m107.747 140a1 1 0 0 1 -1-1v-18.113a1 1 0 0 1 2 0v18.113a1 1 0 0 1 -1 1z"/><path d="m64.352 113.592a1 1 0 0 1 -.77-.361l-13.75-16.525a1 1 0 1 1 1.537-1.279l13.173 15.831 8.647-5.812-17.518-11.436a1 1 0 0 1 1.094-1.675l18.782 12.265a1 1 0 0 1 .011 1.668l-10.65 7.158a1 1 0 0 1 -.556.166z"/><path d="m85.648 113.592a1 1 0 0 1 -.556-.17l-10.65-7.158a1 1 0 0 1 .011-1.668l18.782-12.261a1 1 0 0 1 1.094 1.675l-17.518 11.436 8.647 5.812 13.173-15.831a1 1 0 1 1 1.537 1.279l-13.75 16.525a1 1 0 0 1 -.77.361z"/></svg>