<svg id="Layer_1" height="512" viewBox="0 0 150 150" width="512" xmlns="http://www.w3.org/2000/svg" data-name="Layer 1"><path d="m139 139.81h-128a1 1 0 0 1 -1-1v-78.234a1 1 0 1 1 2 0v77.234h126v-77.234a1 1 0 1 1 2 0v78.234a1 1 0 0 1 -1 1z"/><path d="m75 110.96a.992.992 0 0 1 -.61-.208l-64-49.381a1 1 0 0 1 0-1.583l17.88-13.8a1 1 0 1 1 1.222 1.583l-16.855 13.009 62.363 48.12 62.363-48.12-16.854-13.009a1 1 0 1 1 1.223-1.583l17.879 13.8a1 1 0 0 1 0 1.583l-64 49.381a.992.992 0 0 1 -.611.208z"/><path d="m90.19 23.91a1 1 0 0 1 -.611-.209l-14.579-11.248-14.579 11.247a1 1 0 0 1 -1.221-1.582l15.189-11.718a1 1 0 0 1 1.222 0l15.189 11.718a1 1 0 0 1 -.612 1.792z"/><path d="m139 139.81h-128a1 1 0 0 1 -.521-1.853l56.576-34.58a1 1 0 1 1 1.043 1.706l-53.544 32.727h120.888l-53.542-32.727a1 1 0 1 1 1.043-1.706l56.576 34.58a1 1 0 0 1 -.519 1.853z"/><path d="m62.565 132.429h-3.306a1 1 0 1 1 0-2h3.306a1 1 0 0 1 0 2z"/><path d="m71.955 132.429h-3.3a1 1 0 0 1 0-2h3.3a1 1 0 1 1 0 2z"/><path d="m81.347 132.429h-3.306a1 1 0 0 1 0-2h3.306a1 1 0 1 1 0 2z"/><path d="m90.737 132.429h-3.3a1 1 0 0 1 0-2h3.3a1 1 0 0 1 0 2z"/><path d="m17 122.483a1 1 0 0 1 -1-1v-8.776a1 1 0 0 1 2 0v8.776a1 1 0 0 1 -1 1z"/><path d="m17 105.23a1 1 0 0 1 -1-1v-31.16a1 1 0 0 1 2 0v31.16a1 1 0 0 1 -1 1z"/><path d="m121.12 75.38a1 1 0 0 1 -1-1v-33.845a1 1 0 0 1 2 0v33.845a1 1 0 0 1 -1 1z"/><path d="m28.88 75.38a1 1 0 0 1 -1-1v-51.465a1 1 0 0 1 1-1h74.62a1 1 0 0 1 0 2h-73.62v50.465a1 1 0 0 1 -1 1z"/><path d="m121.12 41.535h-17.62a1 1 0 0 1 -1-1v-17.62a1 1 0 0 1 1.707-.707l17.62 17.62a1 1 0 0 1 -.707 1.707zm-16.62-2h14.206l-14.206-14.206z"/><path d="m83.5 33.123h-42.25a1 1 0 0 1 0-2h42.25a1 1 0 1 1 0 2z"/><path d="m83.5 46.29h-42.25a1 1 0 0 1 0-2h42.25a1 1 0 0 1 0 2z"/><path d="m108.75 59.457h-67.5a1 1 0 0 1 0-2h67.5a1 1 0 0 1 0 2z"/><path d="m108.75 72.623h-67.5a1 1 0 0 1 0-2h67.5a1 1 0 0 1 0 2z"/><path d="m107.626 85.79h-65.252a1 1 0 0 1 0-2h65.252a1 1 0 0 1 0 2z"/></svg>