<svg id="Layer_1" height="512" viewBox="0 0 150 150" width="512" xmlns="http://www.w3.org/2000/svg" data-name="Layer 1"><path d="m108.845 89.108h-97.93a1 1 0 0 1 -1-1v-77.108a1 1 0 0 1 1-1h106a1 1 0 0 1 1 1v38.32a1 1 0 0 1 -2 0v-37.32h-104v75.11h96.93a1 1 0 0 1 0 2z"/><path d="m99.078 83.347h-82.4a1 1 0 0 1 -1-1v-65.579a1 1 0 0 1 1-1h94.48a1 1 0 0 1 1 1v38.159a1 1 0 0 1 -2 0v-37.159h-92.483v63.579h81.4a1 1 0 0 1 0 2z"/><path d="m127.083 140a6.816 6.816 0 0 1 -6.817-6.825l.023-20.495a1 1 0 0 1 1-1 1 1 0 0 1 1 1l-.023 20.5a4.817 4.817 0 1 0 9.633.006v-47.332a1 1 0 1 1 2 0v47.331a6.824 6.824 0 0 1 -6.816 6.815z"/><path d="m121.253 76.222c-6.614 0-12.281-8.83-12.281-16.059a12.289 12.289 0 1 1 24.561 0c0 7.229-5.667 16.059-12.28 16.059zm0-26.8a10.532 10.532 0 0 0 -10.281 10.743c0 6.2 4.84 14.059 10.281 14.059s10.28-7.862 10.28-14.059a10.531 10.531 0 0 0 -10.28-10.745z"/><path d="m131.542 62.479c-6.441 0-10.866-4.551-12.62-6.737-4.078 5.015-8.523 4.563-9.047 4.491l-.072-.013a1 1 0 0 1 .169-1.986 1.166 1.166 0 0 1 .2.021c.358.042 4.363.4 7.932-4.757a1.045 1.045 0 0 1 .838-.43 1 1 0 0 1 .825.457c.048.075 4.96 7.492 12.627 6.923a1 1 0 1 1 .145 1.995c-.339.025-.67.036-.997.036z"/><path d="m115.425 140a6.811 6.811 0 0 1 -6.814-6.813v-41.708a6.794 6.794 0 0 0 -4.653-6.454l-15.617-5.2a4.158 4.158 0 0 1 -2.111-1.6l-7.258-10.993a4.118 4.118 0 0 1 1.806-6.092 4.185 4.185 0 0 1 5.07 1.582l6.411 9.732 11.307 3.518h10.823a1 1 0 0 1 .579.184 10.608 10.608 0 0 0 12.573 0 .993.993 0 0 1 .579-.185h3.741a8.448 8.448 0 0 1 8.224 8.638v17.763a7.329 7.329 0 0 1 -7.159 7.373 1 1 0 1 1 -.055-2 5.4 5.4 0 0 0 5.214-5.374v-17.761a6.448 6.448 0 0 0 -6.224-6.638h-3.428a12.771 12.771 0 0 1 -14.357 0h-10.662a1 1 0 0 1 -.3-.045l-11.791-3.669a1 1 0 0 1 -.538-.405l-6.6-10.021a2.2 2.2 0 0 0 -2.619-.853 2.117 2.117 0 0 0 -.93 3.142l7.264 10.994a2.126 2.126 0 0 0 1.083.816l15.611 5.2a8.789 8.789 0 0 1 6.022 8.351v41.709a4.836 4.836 0 0 0 1.984 3.9 4.922 4.922 0 0 0 4.459.655 4.763 4.763 0 0 0 3.185-4.541l-.02-20.513a1 1 0 0 1 1-1 1 1 0 0 1 1 1l.02 20.494a6.7 6.7 0 0 1 -4.57 6.465 7.307 7.307 0 0 1 -2.249.349z"/><path d="m47.082 43.6h-24.334a1 1 0 0 1 -1-1v-19.669a1 1 0 0 1 1-1h24.334a1 1 0 0 1 1 1v19.669a1 1 0 0 1 -1 1zm-23.334-2h22.334v-17.669h-22.334z"/><path d="m103.04 28.5h-47.5a1 1 0 0 1 0-2h47.5a1 1 0 0 1 0 2z"/><path d="m103.04 37.32h-47.5a1 1 0 0 1 0-2h47.5a1 1 0 0 1 0 2z"/><path d="m103.04 46.145h-47.5a1 1 0 0 1 0-2h47.5a1 1 0 0 1 0 2z"/><path d="m103.04 54.97h-78.25a1 1 0 1 1 0-2h78.25a1 1 0 0 1 0 2z"/><path d="m70.745 63.8h-45.945a1 1 0 0 1 0-2h45.95a1 1 0 0 1 0 2z"/><path d="m70.745 72.617h-45.945a1 1 0 0 1 0-2h45.95a1 1 0 0 1 0 2z"/><path d="m55.776 139.9h-33.712a3.453 3.453 0 0 1 -3.449-3.449v-6.92a9.025 9.025 0 0 1 9.014-9.014h4.407a1 1 0 0 1 .637.229 9.534 9.534 0 0 0 6.227 2.084 9.564 9.564 0 0 0 6.264-2.086 1 1 0 0 1 .637-.229h4.406a9.025 9.025 0 0 1 9.015 9.014v6.92a3.453 3.453 0 0 1 -3.446 3.451zm-28.147-17.385a7.023 7.023 0 0 0 -7.014 7.014v6.92a1.451 1.451 0 0 0 1.449 1.449h33.712a1.451 1.451 0 0 0 1.45-1.449v-6.92a7.023 7.023 0 0 0 -7.015-7.014h-4.057a11.549 11.549 0 0 1 -7.214 2.315 11.587 11.587 0 0 1 -7.253-2.315z"/><path d="m38.916 120.347c-6.947 0-12.389-7.5-12.389-17.071 0-5.749 5.3-12.179 12.389-12.179s12.389 6.43 12.389 12.179c0 9.573-5.442 17.071-12.389 17.071zm0-27.25a10.7 10.7 0 0 0 -10.389 10.179c0 8.311 4.66 15.071 10.389 15.071s10.389-6.76 10.389-15.071a10.7 10.7 0 0 0 -10.389-10.176z"/><path d="m29.441 103.973a16.583 16.583 0 0 1 -2.021-.123 1 1 0 0 1 .244-1.985c4.783.59 9.673-1.323 11.622-4.546a1 1 0 0 1 1.455-.283c2.021 1.514 5.778 4.33 9.031 3.253a1 1 0 1 1 .629 1.9c-3.775 1.251-7.6-1.164-10.026-2.932-2.292 2.924-6.475 4.716-10.934 4.716z"/><path d="m51.532 139.9a1 1 0 0 1 -1-1v-8.791a1 1 0 0 1 2 0v8.791a1 1 0 0 1 -1 1z"/><path d="m26.326 139.9a1 1 0 0 1 -1-1v-8.791a1 1 0 0 1 2 0v8.791a1 1 0 0 1 -1 1z"/><path d="m98.562 139.9h-33.711a3.453 3.453 0 0 1 -3.45-3.449v-6.92a9.025 9.025 0 0 1 9.014-9.014h4.407a1 1 0 0 1 .637.229 10.4 10.4 0 0 0 12.494 0 1 1 0 0 1 .637-.229h4.41a9.025 9.025 0 0 1 9.014 9.014v6.92a3.453 3.453 0 0 1 -3.452 3.449zm-28.147-17.385a7.023 7.023 0 0 0 -7.014 7.014v6.92a1.451 1.451 0 0 0 1.45 1.449h33.711a1.451 1.451 0 0 0 1.449-1.449v-6.92a7.023 7.023 0 0 0 -7.011-7.014h-4.061a12.457 12.457 0 0 1 -14.466 0z"/><path d="m81.7 120.347c-6.946 0-12.388-7.5-12.388-17.071 0-5.749 5.3-12.179 12.388-12.179s12.389 6.43 12.389 12.179c.001 9.573-5.441 17.071-12.389 17.071zm0-27.25a10.7 10.7 0 0 0 -10.388 10.179c0 8.311 4.661 15.071 10.388 15.071s10.389-6.76 10.389-15.071a10.7 10.7 0 0 0 -10.389-10.176z"/><path d="m72.228 103.973a16.611 16.611 0 0 1 -2.022-.123 1 1 0 0 1 .244-1.985c4.786.592 9.673-1.323 11.622-4.546a1 1 0 0 1 1.455-.283c2.021 1.514 5.779 4.328 9.031 3.253a1 1 0 0 1 .629 1.9c-3.771 1.251-7.6-1.164-10.026-2.932-2.292 2.924-6.479 4.716-10.933 4.716z"/><path d="m94.317 139.9a1 1 0 0 1 -1-1v-8.791a1 1 0 0 1 2 0v8.791a1 1 0 0 1 -1 1z"/><path d="m69.111 139.9a1 1 0 0 1 -1-1v-8.791a1 1 0 0 1 2 0v8.791a1 1 0 0 1 -1 1z"/></svg>