<?xml version="1.0" encoding="UTF-8"?>
<svg xmlns="http://www.w3.org/2000/svg" id="Layer_1" data-name="Layer 1" viewBox="0 0 150 150" width="512" height="512"><path d="M36.275,31.969H17.385a7.337,7.337,0,0,1,0-14.673H36.444a1,1,0,0,1,0,2H17.385a5.337,5.337,0,0,0,0,10.673h18.89a1,1,0,0,1,0,2Z"/><path d="M36.275,44.642H19.3a7.337,7.337,0,1,1,0-14.673H36.275a1,1,0,0,1,0,2H19.3a5.337,5.337,0,1,0,0,10.673H36.275a1,1,0,0,1,0,2Z"/><path d="M39.84,57.315H21.211a7.337,7.337,0,1,1,0-14.673H36.275a1,1,0,0,1,0,2H21.211a5.337,5.337,0,1,0,0,10.673H39.84a1,1,0,0,1,0,2Z"/><path d="M65.1,69.988H23.123a7.336,7.336,0,0,1,0-14.672H39.84a1,1,0,0,1,0,2H23.123a5.336,5.336,0,0,0,0,10.672H65C70.079,68,83.6,66.85,85.646,61.2v-43.1l-5.3.022a.939.939,0,0,1-.413-.087l-8.892-3.982A25.009,25.009,0,0,0,60.55,12H41.82a4.419,4.419,0,0,0-4.364,4.408V35.229a4.716,4.716,0,0,0,9.432,0V19.435a1,1,0,1,1,2,0V35.229a6.716,6.716,0,0,1-13.432,0V16.407A6.426,6.426,0,0,1,41.811,10H60.542a26.986,26.986,0,0,1,11.319,2.22l8.694,3.893,6.086-.025a1.034,1.034,0,0,1,.71.292,1,1,0,0,1,.3.708V61.363a1.012,1.012,0,0,1-.049.308C84.967,69.792,66.81,69.988,65.1,69.988Z"/><path d="M86.646,68.227a1,1,0,0,1-1-1V12.474a1,1,0,0,1,1-1l34.907-.007a1,1,0,0,1,1,1V67.22a1,1,0,0,1-1,1Zm1-54.753V66.227l32.907-.007V13.467Z"/><path d="M97.9,62.438a3.913,3.913,0,1,1,3.912-3.912A3.916,3.916,0,0,1,97.9,62.438Zm0-5.825a1.913,1.913,0,1,0,1.912,1.913A1.915,1.915,0,0,0,97.9,56.613Z"/><path d="M110.3,62.438a3.913,3.913,0,1,1,3.912-3.912A3.917,3.917,0,0,1,110.3,62.438Zm0-5.825a1.913,1.913,0,1,0,1.912,1.913A1.915,1.915,0,0,0,110.3,56.613Z"/><path d="M65.2,64.81H42.927a1,1,0,1,1,0-2H65.2a1,1,0,0,1,0,2Z"/><path d="M116.847,43.126a1,1,0,0,1-1-1V22.519a1,1,0,1,1,2,0V42.126A1,1,0,0,1,116.847,43.126Z"/><path d="M66.667,107.777H50.656a6.371,6.371,0,1,1,0-12.742H66.811a1,1,0,0,1,0,2H50.656a4.371,4.371,0,1,0,0,8.742H66.667a1,1,0,0,1,0,2Z"/><path d="M66.667,118.518H52.277a6.371,6.371,0,1,1,0-12.741h14.39a1,1,0,0,1,0,2H52.277a4.371,4.371,0,1,0,0,8.741h14.39a1,1,0,0,1,0,2Z"/><path d="M69.69,129.26H53.9a6.371,6.371,0,0,1,0-12.742H66.667a1,1,0,0,1,0,2H53.9a4.371,4.371,0,1,0,0,8.742H69.69a1,1,0,0,1,0,2Z"/><path d="M91.1,140H55.52a6.371,6.371,0,0,1,0-12.742H69.69a1,1,0,0,1,0,2H55.52a4.371,4.371,0,1,0,0,8.742H91.014c4.3.05,15.615-.944,17.35-5.63V96.014l-4.339.018a.846.846,0,0,1-.413-.087L96.076,92.57a20.975,20.975,0,0,0-8.831-1.849l-15.87.129a3.593,3.593,0,0,0-3.554,3.583v15.955a3.845,3.845,0,0,0,7.69,0V97a1,1,0,0,1,2,0v13.387a5.845,5.845,0,0,1-11.69,0V94.433a5.6,5.6,0,0,1,5.538-5.583l15.869-.129a23.356,23.356,0,0,1,9.665,2.024l7.34,3.286,5.127-.021h0a1,1,0,0,1,1,1v37.53a1.012,1.012,0,0,1-.049.308C108.051,139.835,92.552,140,91.1,140Z"/><path d="M109.364,138.51a1,1,0,0,1-1-1V91.1a1,1,0,0,1,1-1l29.587-.006a1,1,0,0,1,1,1v46.411a1,1,0,0,1-1,1Zm1-46.41v44.41l27.587,0V92.094Z"/><path d="M118.9,133.6a3.469,3.469,0,1,1,3.468-3.469A3.473,3.473,0,0,1,118.9,133.6Zm0-4.937a1.469,1.469,0,1,0,1.468,1.468A1.47,1.47,0,0,0,118.9,128.666Z"/><path d="M129.414,133.6a3.469,3.469,0,1,1,3.469-3.469A3.472,3.472,0,0,1,129.414,133.6Zm0-4.937a1.469,1.469,0,1,0,1.469,1.468A1.47,1.47,0,0,0,129.414,128.666Z"/><path d="M91.181,135.614H72.306a1,1,0,0,1,0-2H91.181a1,1,0,1,1,0,2Z"/><path d="M134.963,117.234a1,1,0,0,1-1-1V99.614a1,1,0,0,1,2,0v16.62A1,1,0,0,1,134.963,117.234Z"/></svg>
