<svg id="Layer_1" height="512" viewBox="0 0 150 150" width="512" xmlns="http://www.w3.org/2000/svg" data-name="Layer 1"><path d="m109.515 140.474h-88.833a1 1 0 0 1 -1-1.084l8.492-100.654a1 1 0 0 1 1-.916h71.856a1 1 0 0 1 1 .916l8.489 100.654a1 1 0 0 1 -1 1.084zm-87.745-2h86.657l-8.321-98.654h-70.016z"/><path d="m109.515 140.474a1 1 0 0 1 -1-.916l-8.486-100.658a1 1 0 0 1 1-1.084h19.8a1 1 0 0 1 1 .916l8.489 100.654a1 1 0 0 1 -1.6.882l-10.482-7.915-8.021 7.832a1 1 0 0 1 -.7.289zm8.636-10.433a1 1 0 0 1 .6.2l9.381 7.083-8.222-97.504h-17.8l8.219 97.457 7.119-6.951a1 1 0 0 1 .703-.285z"/><path d="m129.318 140.474h-19.8a1 1 0 1 1 0-2h19.8a1 1 0 1 1 0 2z"/><path d="m107.007 39.82h-38.507a1 1 0 0 1 -1-1v-9.041a20.254 20.254 0 0 1 40.507 0v9.041a1 1 0 0 1 -1 1zm-37.507-2h36.507v-8.041a18.254 18.254 0 0 0 -36.507 0z"/><path d="m84.352 52.262a1 1 0 0 1 -1-1v-21.483a18.254 18.254 0 0 0 -36.507 0v21.483a1 1 0 0 1 -2 0v-21.483a20.254 20.254 0 0 1 40.507 0v21.483a1 1 0 0 1 -1 1z"/><path d="m84.352 59.648a4.693 4.693 0 1 1 4.692-4.693 4.7 4.7 0 0 1 -4.692 4.693zm0-7.386a2.693 2.693 0 1 0 2.692 2.693 2.7 2.7 0 0 0 -2.692-2.693z"/><path d="m45.845 59.648a4.693 4.693 0 1 1 4.693-4.693 4.7 4.7 0 0 1 -4.693 4.693zm0-7.386a2.693 2.693 0 1 0 2.693 2.693 2.7 2.7 0 0 0 -2.693-2.693z"/><path d="m71.666 135.474h-34.666a1 1 0 0 1 0-2h34.666a1 1 0 0 1 0 2z"/><path d="m26.122 135.474a.806.806 0 0 1 -.085 0 1 1 0 0 1 -.913-1.08l1.2-14.238a1 1 0 0 1 1.993.168l-1.2 14.238a1 1 0 0 1 -.995.912z"/><path d="m27.871 114.736c-.028 0-.057 0-.085 0a1 1 0 0 1 -.912-1.081l2.206-26.169a1 1 0 1 1 1.993.168l-2.206 26.166a1 1 0 0 1 -.996.916z"/><path d="m65.134 119.016a27.363 27.363 0 1 1 27.366-27.363 27.394 27.394 0 0 1 -27.366 27.363zm0-52.726a25.363 25.363 0 1 0 25.366 25.363 25.392 25.392 0 0 0 -25.366-25.363z"/><path d="m65.134 112.317a20.664 20.664 0 1 1 20.666-20.664 20.688 20.688 0 0 1 -20.666 20.664zm0-39.328a18.664 18.664 0 1 0 18.666 18.664 18.685 18.685 0 0 0 -18.666-18.664z"/><path d="m65.134 105.618a13.965 13.965 0 1 1 13.966-13.965 13.981 13.981 0 0 1 -13.966 13.965zm0-25.93a11.965 11.965 0 1 0 11.966 11.965 11.978 11.978 0 0 0 -11.966-11.965z"/><path d="m65.1 68.51a1 1 0 0 1 -1-1v-4.44a1 1 0 0 1 2 0v4.44a1 1 0 0 1 -1 1z"/><path d="m65.1 121.236a1 1 0 0 1 -1-1v-4.436a1 1 0 0 1 2 0v4.44a1 1 0 0 1 -1 .996z"/><path d="m93.682 92.653h-4.441a1 1 0 0 1 0-2h4.441a1 1 0 0 1 0 2z"/><path d="m40.955 92.653h-4.44a1 1 0 0 1 0-2h4.44a1 1 0 0 1 0 2z"/></svg>