<svg id="Layer_1" height="512" viewBox="0 0 150 150" width="512" xmlns="http://www.w3.org/2000/svg" data-name="Layer 1"><path d="m104.142 59.47h-60.285a1 1 0 0 1 -1-1v-47.47a1 1 0 0 1 1-1h17.357a1 1 0 0 1 .861.49l4.225 7.121h37.845a1 1 0 0 1 1 1v39.859a1 1 0 0 1 -1.003 1zm-59.285-2h58.285v-37.859h-37.415a1 1 0 0 1 -.86-.49l-4.222-7.121h-15.788z"/><path d="m104.142 27.445h-60.285a1 1 0 0 1 0-2h60.285a1 1 0 0 1 0 2z"/><path d="m99.946 56.019h-15.546a1 1 0 0 1 -1-1v-10.882a1 1 0 0 1 1-1h15.546a1 1 0 0 1 1 1v10.882a1 1 0 0 1 -1 1zm-14.543-2h13.543v-8.882h-13.546z"/><path d="m96.46 48.679h-8.571a1 1 0 1 1 0-2h8.571a1 1 0 1 1 0 2z"/><path d="m96.46 52.477h-8.571a1 1 0 0 1 0-2h8.571a1 1 0 0 1 0 2z"/><path d="m48.437 54.832a1 1 0 0 1 -1-1v-4.983a1 1 0 0 1 2 0v4.983a1 1 0 0 1 -1 1z"/><path d="m48.437 45.571a1 1 0 0 1 -1-1v-10.449a1 1 0 0 1 2 0v10.449a1 1 0 0 1 -1 1z"/><path d="m124.23 119.471a1 1 0 0 1 -.878-1.478l12.23-22.46a18.241 18.241 0 0 0 1.546-14.616l-15.9-53.166a5.71 5.71 0 0 0 -5.461-4.006 5.432 5.432 0 0 0 -1.1.109 5.7 5.7 0 0 0 -3.842 2.727 5.8 5.8 0 0 0 -.48 4.765c4.439 13.246 6.383 32.029 4.741 45.737l.312 2.271a1.051 1.051 0 0 1 .009.137 1.009 1.009 0 0 1 -1 1.01.992.992 0 0 1 -1-.928l-.322-2.346a1 1 0 0 1 0-.257c1.612-13.24-.338-32.16-4.636-44.988a7.8 7.8 0 0 1 .647-6.407 7.693 7.693 0 0 1 5.18-3.682 7.4 7.4 0 0 1 1.492-.148 7.709 7.709 0 0 1 7.373 5.418l15.895 53.161a20.224 20.224 0 0 1 -1.711 16.184l-12.219 22.441a1 1 0 0 1 -.876.522z"/><path d="m83.781 119.466a.985.985 0 0 1 -.3-.045 1 1 0 0 1 -.66-1.25l4-12.974a12.208 12.208 0 0 1 3-5.143 12.334 12.334 0 0 1 4.579-2.954l5.8-20.052a7.762 7.762 0 0 1 14.834-.273 7.557 7.557 0 0 1 .381 2.7v.075a7.518 7.518 0 0 1 -.3 1.811l-4.153 14.366a1 1 0 1 1 -1.92-.556l4.158-14.366a5.525 5.525 0 0 0 .215-1.272c0-.032 0-.063 0-.092a5.542 5.542 0 0 0 -.28-2.041 5.763 5.763 0 0 0 -11.013.2l-5.946 20.556a1 1 0 0 1 -.658.676 10.273 10.273 0 0 0 -6.776 6.938l-4.006 12.991a1 1 0 0 1 -.955.705z"/><path d="m127.65 140h-47.74a1 1 0 0 1 -1-1v-20.539a1 1 0 0 1 1-1l47.75.01a1 1 0 0 1 1 1l-.01 20.529a1 1 0 0 1 -1 1zm-46.74-2h45.74l.009-18.529-45.749-.01z"/><path d="m87.205 131.593a3.613 3.613 0 1 1 3.613-3.613 3.618 3.618 0 0 1 -3.613 3.613zm0-5.226a1.613 1.613 0 1 0 1.613 1.613 1.615 1.615 0 0 0 -1.613-1.613z"/><path d="m25.77 119.471a1 1 0 0 1 -.88-.522l-12.23-22.46a20.224 20.224 0 0 1 -1.694-16.184l15.885-53.127a7.713 7.713 0 0 1 7.378-5.433 7.41 7.41 0 0 1 1.5.15 7.685 7.685 0 0 1 5.171 3.68 7.8 7.8 0 0 1 .646 6.408c-4.297 12.827-6.246 31.747-4.635 44.987a1 1 0 0 1 0 .257l-.327 2.384a1.009 1.009 0 0 1 -.993.89.992.992 0 0 1 -1-.99 1.377 1.377 0 0 1 .009-.157l.312-2.271c-1.642-13.708.3-32.491 4.74-45.736a5.793 5.793 0 0 0 -.479-4.766 5.691 5.691 0 0 0 -3.833-2.725 5.44 5.44 0 0 0 -1.109-.111 5.717 5.717 0 0 0 -5.467 4.021l-15.887 53.134a18.243 18.243 0 0 0 1.529 14.617l12.241 22.479a1 1 0 0 1 -.877 1.478z"/><path d="m66.218 119.466a1 1 0 0 1 -.955-.7l-4-12.974a10.273 10.273 0 0 0 -6.781-6.955 1 1 0 0 1 -.658-.676l-5.942-20.561a5.763 5.763 0 0 0 -11.013-.2 5.579 5.579 0 0 0 -.28 2.043.868.868 0 0 1 0 .1 5.551 5.551 0 0 0 .215 1.262l4.4 15.225a1 1 0 1 1 -1.921.555l-4.4-15.224a7.518 7.518 0 0 1 -.3-1.811c0-.028 0-.056 0-.084a7.573 7.573 0 0 1 .381-2.693 7.763 7.763 0 0 1 14.834.275l5.802 20.052a12.269 12.269 0 0 1 7.579 8.114l4 12.957a1 1 0 0 1 -.66 1.25.985.985 0 0 1 -.301.045z"/><path d="m70.089 140h-47.74a1 1 0 0 1 -1-1l-.01-20.529a1 1 0 0 1 1-1l47.75-.01a1 1 0 0 1 1 1v20.539a1 1 0 0 1 -1 1zm-46.74-2h45.74v-18.539l-45.749.01z"/><path d="m62.794 131.593a3.613 3.613 0 1 1 3.614-3.613 3.617 3.617 0 0 1 -3.614 3.613zm0-5.226a1.613 1.613 0 1 0 1.614 1.613 1.615 1.615 0 0 0 -1.614-1.613z"/></svg>