<svg id="Layer_1" height="512" viewBox="0 0 150 150" width="512" xmlns="http://www.w3.org/2000/svg" data-name="Layer 1"><path d="m58.47 106.929a48.47 48.47 0 1 1 34.274-82.744 48.471 48.471 0 0 1 -34.274 82.744zm0-94.919a46.449 46.449 0 1 0 32.86 13.59 46.33 46.33 0 0 0 -32.86-13.59z"/><path d="m58.47 98.746a40.288 40.288 0 1 1 28.5-11.787 40.182 40.182 0 0 1 -28.5 11.787zm0-78.576a38.289 38.289 0 1 0 27.087 11.2 38.189 38.189 0 0 0 -27.087-11.2z"/><path d="m87.777 109.371a1 1 0 0 1 -.707-.293l-7.648-7.648a1 1 0 0 1 1.414-1.414l6.941 6.941 19.191-19.191-6.941-6.941a1 1 0 0 1 1.414-1.414l7.648 7.648a1 1 0 0 1 0 1.414l-20.605 20.605a1 1 0 0 1 -.707.293z"/><path d="m126.855 139.989c-.141 0-.281 0-.422-.007a13.033 13.033 0 0 1 -9.456-4.44l-26.483-29.975a1 1 0 0 1 .043-1.369l13.672-13.673a1 1 0 0 1 1.369-.042l29.975 26.482a13.161 13.161 0 0 1 -8.7 23.024zm-34.239-35.042 25.86 29.27a11.16 11.16 0 1 0 15.753-15.753l-29.271-25.864z"/><path d="m49.454 75.856a1 1 0 0 1 -.707-.293l-10.607-10.607a1 1 0 0 1 0-1.414l4.243-4.242a1 1 0 0 1 1.414 0l5.658 5.658 23.689-23.6a1 1 0 0 1 1.413 0l4.243 4.242a1 1 0 0 1 0 1.415l-28.64 28.549a1 1 0 0 1 -.706.292zm-9.193-11.607 9.194 9.194 27.222-27.143-2.828-2.828-23.689 23.607a1 1 0 0 1 -1.413 0l-5.657-5.658z"/></svg>