<svg id="Layer_1" height="512" viewBox="0 0 150 150" width="512" xmlns="http://www.w3.org/2000/svg" data-name="Layer 1"><path d="m138.7 133.315h-127.4a1 1 0 0 1 -.876-1.482l30.787-55.952a1 1 0 0 1 .847-.518.966.966 0 0 1 .875.467l13.994 22.243 22.48-35.732a.966.966 0 0 1 .876-.466 1 1 0 0 1 .847.517l16.329 29.671 10.213-16.233a.977.977 0 0 1 .88-.467 1 1 0 0 1 .847.525l30.178 55.952a1 1 0 0 1 -.88 1.475zm-125.7-2h124.021l-28.569-52.969-10.2 16.219a.969.969 0 0 1 -.876.467 1 1 0 0 1 -.846-.518l-16.33-29.671-22.426 35.641a1.04 1.04 0 0 1 -1.693 0l-13.936-22.151z"/><path d="m54.638 104.589a1 1 0 0 1 -.845-1.533l25.614-40.715a1 1 0 0 1 1.693 1.066l-25.615 40.715a1 1 0 0 1 -.847.467z"/><path d="m80.254 63.874a1 1 0 0 1 -1-1v-45.047a1 1 0 1 1 2 0v45.047a1 1 0 0 1 -1 1z"/><path d="m94.367 99.855a1 1 0 0 1 -.845-1.533l14.15-22.492a1 1 0 0 1 1.692 1.066l-14.15 22.492a1 1 0 0 1 -.847.467z"/><path d="m86.708 45.049a20.961 20.961 0 0 1 -6.774-1.119 1 1 0 0 1 -.68-.948v-22.7a1 1 0 0 1 1.319-.947c5.981 2.015 10.852.658 16.009-.779 5.22-1.453 10.619-2.957 17.184-.747a1 1 0 0 1 .681.948v22.7a1 1 0 0 1 -1.319.948c-5.983-2.015-10.853-.659-16.01.778a38.281 38.281 0 0 1 -10.41 1.866zm-5.454-2.8c5.672 1.693 10.367.387 15.328-.995 4.866-1.356 9.889-2.754 15.865-1.146v-20.625c-5.673-1.693-10.369-.386-15.328 1-4.867 1.356-9.888 2.753-15.865 1.147z"/><path d="m109.447 34.66a1 1 0 0 1 -1-1v-11.787a1 1 0 1 1 2 0v11.787a1 1 0 0 1 -1 1z"/><path d="m86.711 41.049a17.16 17.16 0 0 1 -2.61-.2 1 1 0 1 1 .305-1.976 17.03 17.03 0 0 0 5.921-.193 1 1 0 1 1 .365 1.967 21.81 21.81 0 0 1 -3.981.402z"/><path d="m23.517 119.41a1 1 0 0 1 -.875-1.482l4.31-7.834a1 1 0 0 1 1.752.964l-4.31 7.834a1 1 0 0 1 -.877.518z"/><path d="m30.486 106.743a.985.985 0 0 1 -.481-.124 1 1 0 0 1 -.394-1.358l6.511-11.833a1 1 0 1 1 1.752.964l-6.511 11.833a1 1 0 0 1 -.877.518z"/><path d="m119.1 105.41a1 1 0 0 1 -.881-.526l-8.45-15.666a1 1 0 1 1 1.76-.949l8.451 15.666a1 1 0 0 1 -.88 1.475z"/><path d="m127.373 120.743a1 1 0 0 1 -.882-.525l-4.315-8a1 1 0 0 1 1.761-.949l4.315 8a1 1 0 0 1 -.879 1.474z"/></svg>