<svg id="Layer_1" height="512" viewBox="0 0 150 150" width="512" xmlns="http://www.w3.org/2000/svg" data-name="Layer 1"><path d="m92.71 111.155h-35.438a1 1 0 0 1 -.985-.83c-1.369-7.913-4.835-11.95-10.084-18.06-.7-.811-1.425-1.658-2.182-2.554a40.566 40.566 0 1 1 61.749.258c-.619.719-1.217 1.406-1.794 2.069-5.566 6.394-8.926 10.254-10.276 18.283a1 1 0 0 1 -.99.834zm-34.606-2h33.771c1.542-8.034 5.179-12.212 10.592-18.43.575-.661 1.171-1.345 1.787-2.061a38.575 38.575 0 1 0 -58.707-.245c.755.893 1.479 1.736 2.172 2.543 5.281 6.15 8.834 10.283 10.381 18.193z"/><path d="m77.515 140h-5.021a10.683 10.683 0 0 1 -10.634-9.06 1 1 0 1 1 1.976-.307 8.8 8.8 0 0 0 8.658 7.367h5.021a8.675 8.675 0 0 0 8.629-7.367 1 1 0 0 1 1.977.307 10.666 10.666 0 0 1 -10.606 9.06z"/><path d="m92.838 118.026h-35.676a4.439 4.439 0 1 1 0-8.878h35.676a4.439 4.439 0 0 1 0 8.878zm-35.676-6.878a2.439 2.439 0 1 0 0 4.878h35.676a2.439 2.439 0 0 0 0-4.878z"/><path d="m92.838 124.9h-35.676a4.439 4.439 0 1 1 0-8.877h35.676a4.439 4.439 0 1 1 0 8.877zm-35.676-6.877a2.439 2.439 0 1 0 0 4.877h35.676a2.439 2.439 0 1 0 0-4.877z"/><path d="m92.838 131.781h-35.676a4.439 4.439 0 1 1 0-8.878h35.676a4.439 4.439 0 1 1 0 8.878zm-35.676-6.881a2.439 2.439 0 1 0 0 4.878h35.676a2.439 2.439 0 1 0 0-4.878z"/><path d="m77.292 41.949h-4.587a1 1 0 0 1 0-2h4.587a1 1 0 0 1 0 2z"/><path d="m77.292 81.3h-4.587a1 1 0 0 1 0-2h4.587a1 1 0 0 1 0 2z"/><path d="m63.133 41.949a1 1 0 0 1 -.974-.782 3.3 3.3 0 0 0 -2.479-2.416 1 1 0 0 1 .469-1.944 5.31 5.31 0 0 1 3.961 3.924 1 1 0 0 1 -.758 1.194 1.02 1.02 0 0 1 -.219.024z"/><path d="m54.406 51.828a5.556 5.556 0 0 1 -3.578-1.289 1 1 0 1 1 1.287-1.531 3.552 3.552 0 0 0 2.291.82 1 1 0 1 1 0 2z"/><path d="m51.963 61.091a6.759 6.759 0 0 1 -3.131-.766 1 1 0 1 1 .929-1.77 4.867 4.867 0 0 0 3.256.421 1 1 0 0 1 .44 1.951 6.84 6.84 0 0 1 -1.494.164z"/><path d="m61.421 58.51a1 1 0 0 1 -1-.962 5.924 5.924 0 0 1 .669-2.953 6.286 6.286 0 0 1 2.132-2.347 1 1 0 1 1 1.1 1.673 4.268 4.268 0 0 0 -1.453 1.6 3.87 3.87 0 0 0 -.446 1.955 1 1 0 0 1 -.961 1.038z"/><path d="m63.611 68.3q-.291 0-.581-.024a6.713 6.713 0 0 1 -3.05-1.033 1 1 0 1 1 1.084-1.681 4.7 4.7 0 0 0 2.137.721 4.825 4.825 0 0 0 2.174-.317 1 1 0 0 1 .742 1.857 6.786 6.786 0 0 1 -2.506.477z"/><path d="m52.535 69.628a6.865 6.865 0 0 1 -1.335-.128 1 1 0 0 1 .388-1.962 4.85 4.85 0 0 0 2.315-.107 1 1 0 1 1 .574 1.916 6.777 6.777 0 0 1 -1.942.281z"/><path d="m54.777 78.942a1 1 0 0 1 -.063-2 4.647 4.647 0 0 0 2.5-.908 1 1 0 1 1 1.2 1.6 6.644 6.644 0 0 1 -3.569 1.3z"/><path d="m62.6 84.954a1 1 0 0 1 -.472-1.882 4.3 4.3 0 0 0 1.966-2.149 1 1 0 0 1 1.854.753 6.312 6.312 0 0 1 -2.877 3.159.989.989 0 0 1 -.471.119z"/><path d="m72.7 46.781a.993.993 0 0 1 -.561-.173 4.6 4.6 0 0 0 -4.315-.445 1 1 0 1 1 -.625-1.9 6.62 6.62 0 0 1 6.063.69 1 1 0 0 1 -.562 1.827z"/><path d="m69.667 76.985a7.681 7.681 0 0 1 -2.465-.439 1 1 0 1 1 .627-1.9 4.594 4.594 0 0 0 4.314-.444 1 1 0 1 1 1.123 1.654 6.3 6.3 0 0 1 -3.599 1.129z"/><path d="m67.219 87.562a6.515 6.515 0 0 1 -5.062-2.345 6.522 6.522 0 0 1 -2.266.408 6.342 6.342 0 0 1 -6.485-6.172 5.009 5.009 0 0 1 .033-.568 6.288 6.288 0 0 1 -5.519-6.1 5.987 5.987 0 0 1 1.485-3.931 6.171 6.171 0 0 1 -3.356-5.394 5.914 5.914 0 0 1 1.559-3.992 6.036 6.036 0 0 1 -2.13-4.545 6.12 6.12 0 0 1 4.2-5.759 4.913 4.913 0 0 1 -.678-2.495 5.24 5.24 0 0 1 4.411-5.069 5.291 5.291 0 0 1 5.838-4.929 5.2 5.2 0 0 1 4.782-3.044 5.373 5.373 0 0 1 2.048.405 4.972 4.972 0 0 1 3.5-1.417c2.506 0 4.127 1.829 4.127 4.659v44.116a6.342 6.342 0 0 1 -6.487 6.172zm-4.719-4.584a1 1 0 0 1 .851.474 4.5 4.5 0 0 0 3.873 2.11 4.343 4.343 0 0 0 4.486-4.172v-44.118c0-.993-.277-2.659-2.127-2.659a2.933 2.933 0 0 0 -2.426 1.235 1 1 0 0 1 -1.351.28 3.342 3.342 0 0 0 -1.77-.5 3.13 3.13 0 0 0 -3.121 2.38 1 1 0 0 1 -1.219.766 3.583 3.583 0 0 0 -.874-.121 3.3 3.3 0 0 0 -3.411 3.159 2.917 2.917 0 0 0 .06.531 1 1 0 0 1 -1.021 1.178c-.033 0-.1-.008-.135-.013a3.28 3.28 0 0 0 -3.315 3.161 3.024 3.024 0 0 0 1.16 2.35 1 1 0 0 1 -.56 1.769 4.266 4.266 0 0 0 -4.117 4.132 4.086 4.086 0 0 0 2.215 3.573 1 1 0 0 1 .1 1.686 4.046 4.046 0 0 0 -1.746 3.278 4.223 4.223 0 0 0 3.493 4.06 1 1 0 0 1 .333 1.822 4.1 4.1 0 0 0 -1.955 3.443 4.343 4.343 0 0 0 4.486 4.172 1.838 1.838 0 0 1 .222-.025 1.019 1.019 0 0 1 .843.393 1 1 0 0 1 .155.917 3.868 3.868 0 0 0 -.22 1.214 4.342 4.342 0 0 0 4.485 4.172 4.668 4.668 0 0 0 2.148-.537 1.007 1.007 0 0 1 .458-.11z"/><path d="m86.864 41.949a1.027 1.027 0 0 1 -.219-.024 1 1 0 0 1 -.758-1.194 5.308 5.308 0 0 1 3.961-3.924 1 1 0 0 1 .469 1.944 3.3 3.3 0 0 0 -2.479 2.416 1 1 0 0 1 -.974.782z"/><path d="m95.59 51.828a1 1 0 0 1 0-2 3.555 3.555 0 0 0 2.292-.82 1 1 0 1 1 1.287 1.531 5.557 5.557 0 0 1 -3.579 1.289z"/><path d="m98.034 61.091a6.824 6.824 0 0 1 -1.493-.164 1 1 0 0 1 .439-1.951 4.861 4.861 0 0 0 3.256-.421 1 1 0 1 1 .93 1.77 6.766 6.766 0 0 1 -3.132.766z"/><path d="m88.576 58.51h-.039a1 1 0 0 1 -.961-1.038 3.877 3.877 0 0 0 -.446-1.955 4.271 4.271 0 0 0 -1.454-1.6 1 1 0 1 1 1.1-1.673 6.284 6.284 0 0 1 2.13 2.356 5.945 5.945 0 0 1 .668 2.953 1 1 0 0 1 -.998.957z"/><path d="m86.386 68.3a6.786 6.786 0 0 1 -2.506-.477 1 1 0 0 1 .743-1.857 4.777 4.777 0 0 0 4.31-.4 1 1 0 1 1 1.084 1.681 6.7 6.7 0 0 1 -3.05 1.032q-.289.021-.581.021z"/><path d="m97.462 69.628a6.782 6.782 0 0 1 -1.946-.283 1 1 0 0 1 .572-1.916 4.867 4.867 0 0 0 2.315.107 1 1 0 1 1 .39 1.962 6.865 6.865 0 0 1 -1.331.13z"/><path d="m95.22 78.942h-.064a6.644 6.644 0 0 1 -3.569-1.3 1 1 0 1 1 1.2-1.6 4.647 4.647 0 0 0 2.5.908 1 1 0 0 1 -.063 2z"/><path d="m87.4 84.954a.992.992 0 0 1 -.471-.119 6.3 6.3 0 0 1 -2.877-3.159 1 1 0 0 1 1.854-.752 4.291 4.291 0 0 0 1.967 2.148 1 1 0 0 1 -.473 1.882z"/><path d="m77.293 46.781a1 1 0 0 1 -.562-1.827 6.624 6.624 0 0 1 6.063-.69 1 1 0 1 1 -.625 1.9 4.6 4.6 0 0 0 -4.315.445.993.993 0 0 1 -.561.172z"/><path d="m80.331 76.985a6.294 6.294 0 0 1 -3.6-1.129 1 1 0 1 1 1.123-1.656 4.593 4.593 0 0 0 4.315.444 1 1 0 1 1 .625 1.9 7.666 7.666 0 0 1 -2.463.441z"/><path d="m82.778 87.562a6.342 6.342 0 0 1 -6.486-6.172v-44.118c0-2.83 1.621-4.659 4.127-4.659a4.972 4.972 0 0 1 3.5 1.417 5.373 5.373 0 0 1 2.048-.405 5.206 5.206 0 0 1 4.783 3.044 5.288 5.288 0 0 1 5.836 4.931 5.24 5.24 0 0 1 4.414 5.069 4.913 4.913 0 0 1 -.686 2.492 6.122 6.122 0 0 1 4.2 5.759 6.033 6.033 0 0 1 -2.13 4.545 5.918 5.918 0 0 1 1.559 3.992 6.17 6.17 0 0 1 -3.357 5.394 5.979 5.979 0 0 1 1.486 3.931 6.288 6.288 0 0 1 -5.519 6.1 4.788 4.788 0 0 1 .033.568 6.342 6.342 0 0 1 -6.485 6.172 6.522 6.522 0 0 1 -2.266-.408 6.515 6.515 0 0 1 -5.057 2.348zm-2.359-52.949c-1.85 0-2.127 1.666-2.127 2.659v44.118a4.343 4.343 0 0 0 4.486 4.172 4.5 4.5 0 0 0 3.873-2.11 1 1 0 0 1 1.307-.364 4.671 4.671 0 0 0 2.148.537 4.342 4.342 0 0 0 4.485-4.172 3.868 3.868 0 0 0 -.22-1.214 1 1 0 0 1 .155-.917 1.028 1.028 0 0 1 .843-.393c.069 0 .136.011.2.02h.009a4.339 4.339 0 0 0 4.5-4.167 4.1 4.1 0 0 0 -1.954-3.444 1 1 0 0 1 .332-1.821 4.223 4.223 0 0 0 3.493-4.06 4.044 4.044 0 0 0 -1.747-3.278 1 1 0 0 1 .1-1.686 4.086 4.086 0 0 0 2.215-3.573 4.266 4.266 0 0 0 -4.117-4.132 1 1 0 0 1 -.559-1.77 3.021 3.021 0 0 0 1.159-2.349 3.3 3.3 0 0 0 -3.411-3.158 1.041 1.041 0 0 1 -.812-.341 1 1 0 0 1 -.248-.83 2.917 2.917 0 0 0 .06-.531 3.3 3.3 0 0 0 -3.412-3.159 3.576 3.576 0 0 0 -.873.121 1 1 0 0 1 -1.219-.765 3.132 3.132 0 0 0 -3.121-2.381 3.342 3.342 0 0 0 -1.77.5 1 1 0 0 1 -1.351-.28 2.933 2.933 0 0 0 -2.424-1.232z"/><path d="m75 17.8a1 1 0 0 1 -1-1v-5.8a1 1 0 0 1 2 0v5.8a1 1 0 0 1 -1 1z"/><path d="m56.07 21.8a1 1 0 0 1 -.914-.593l-2.349-5.277a1 1 0 1 1 1.826-.814l2.349 5.274a1 1 0 0 1 -.912 1.41z"/><path d="m40.673 33.409a1 1 0 0 1 -.673-.257l-4.552-4.1a1 1 0 1 1 1.338-1.486l4.552 4.1a1 1 0 0 1 -.669 1.743z"/><path d="m31.259 50.105a1 1 0 0 1 -.308-.049l-6.017-1.956a1 1 0 0 1 .617-1.9l6.017 1.955a1 1 0 0 1 -.309 1.951z"/><path d="m22.968 69.786a1 1 0 0 1 -.1-1.994l5.977-.629a1.01 1.01 0 0 1 1.1.89 1 1 0 0 1 -.89 1.1l-5.977.629c-.039.002-.078.004-.11.004z"/><path d="m29.693 90.476a1 1 0 0 1 -.5-1.866l5.737-3.31a1 1 0 0 1 1 1.732l-5.738 3.313a.992.992 0 0 1 -.499.131z"/><path d="m93.93 21.8a1 1 0 0 1 -.912-1.407l2.349-5.274a1 1 0 1 1 1.826.814l-2.349 5.267a1 1 0 0 1 -.914.6z"/><path d="m109.327 33.409a1 1 0 0 1 -.669-1.743l4.552-4.1a1 1 0 1 1 1.338 1.486l-4.548 4.1a1 1 0 0 1 -.673.257z"/><path d="m118.741 50.105a1 1 0 0 1 -.309-1.951l6.017-1.955a1 1 0 0 1 .617 1.9l-6.017 1.954a1 1 0 0 1 -.308.052z"/><path d="m127.032 69.786c-.035 0-.071 0-.106 0l-5.977-.629a1 1 0 0 1 -.89-1.1 1.008 1.008 0 0 1 1.1-.89l5.977.629a1 1 0 0 1 -.1 1.994z"/><path d="m120.307 90.476a.992.992 0 0 1 -.5-.134l-5.738-3.313a1 1 0 0 1 1-1.732l5.738 3.313a1 1 0 0 1 -.5 1.866z"/><path d="m58.814 100.22a1 1 0 0 1 -.883-.528c-2.049-3.831-4.773-7-7.929-10.676-.7-.81-1.414-1.647-2.163-2.532a1 1 0 0 1 1.528-1.292c.745.881 1.46 1.714 2.146 2.512 3.238 3.771 6.029 7.02 8.182 11.045a1 1 0 0 1 -.881 1.471z"/></svg>