<svg id="Layer_1" height="512" viewBox="0 0 150 150" width="512" xmlns="http://www.w3.org/2000/svg" data-name="Layer 1"><path d="m128.75 140h-107.5a1 1 0 0 1 -1-1v-128a1 1 0 0 1 1-1h107.5a1 1 0 0 1 1 1v128a1 1 0 0 1 -1 1zm-106.5-2h105.5v-126h-105.5z"/><path d="m48.953 44.725a1 1 0 0 1 -.466-.115l-4.536-2.385-4.538 2.385a1 1 0 0 1 -1.45-1.054l.867-5.056-3.671-3.578a1 1 0 0 1 .555-1.706l5.071-.737 2.27-4.6a1 1 0 0 1 .9-.557 1 1 0 0 1 .9.558l2.268 4.595 5.071.737a1 1 0 0 1 .555 1.706l-3.678 3.582.867 5.052a1 1 0 0 1 -.985 1.169zm-10.946-9.817 2.6 2.53a1.006 1.006 0 0 1 .287.886l-.618 3.576 3.21-1.687a1 1 0 0 1 .931 0l3.208 1.687-.613-3.572a1 1 0 0 1 .287-.886l2.6-2.53-3.586-.521a1 1 0 0 1 -.753-.547l-1.6-3.251-1.614 3.247a1 1 0 0 1 -.753.547z"/><path d="m43.951 52.18a15.013 15.013 0 1 1 15.013-15.013 15.031 15.031 0 0 1 -15.013 15.013zm0-28.026a13.013 13.013 0 1 0 13.013 13.013 13.028 13.028 0 0 0 -13.013-13.013z"/><path d="m120.062 29.33h-55.5a1 1 0 0 1 0-2h55.5a1 1 0 0 1 0 2z"/><path d="m120.062 38.167h-55.5a1 1 0 0 1 0-2h55.5a1 1 0 0 1 0 2z"/><path d="m103.729 47h-39.167a1 1 0 0 1 0-2h39.167a1 1 0 0 1 0 2z"/><path d="m38.948 82.558a1 1 0 0 1 -.985-1.169l.867-5.052-3.671-3.577a1 1 0 0 1 .555-1.706l5.071-.737 2.27-4.6a1 1 0 0 1 .9-.557 1 1 0 0 1 .9.558l2.268 4.6 5.071.737a1 1 0 0 1 .555 1.706l-3.671 3.577.867 5.052a1 1 0 0 1 -1.451 1.054l-4.536-2.385-4.538 2.385a.994.994 0 0 1 -.472.114zm-.941-9.816 2.6 2.53a1 1 0 0 1 .287.885l-.614 3.573 3.21-1.687a1 1 0 0 1 .931 0l3.208 1.687-.613-3.573a1 1 0 0 1 .287-.885l2.6-2.53-3.586-.521a1 1 0 0 1 -.753-.548l-1.6-3.251-1.605 3.252a1 1 0 0 1 -.753.547z"/><path d="m43.951 90.013a15.013 15.013 0 1 1 15.013-15.013 15.031 15.031 0 0 1 -15.013 15.013zm0-28.026a13.013 13.013 0 1 0 13.013 13.013 13.028 13.028 0 0 0 -13.013-13.013z"/><path d="m120.062 67.163h-55.5a1 1 0 0 1 0-2h55.5a1 1 0 0 1 0 2z"/><path d="m120.062 76h-55.5a1 1 0 0 1 0-2h55.5a1 1 0 1 1 0 2z"/><path d="m103.729 84.837h-39.167a1 1 0 0 1 0-2h39.167a1 1 0 0 1 0 2z"/><path d="m48.953 120.391a1 1 0 0 1 -.465-.115l-4.537-2.384-4.538 2.384a1 1 0 0 1 -1.45-1.054l.867-5.052-3.671-3.577a1 1 0 0 1 .555-1.706l5.071-.737 2.27-4.6a1 1 0 0 1 .9-.557 1 1 0 0 1 .9.557l2.268 4.6 5.071.737a1 1 0 0 1 .555 1.706l-3.671 3.577.867 5.052a1 1 0 0 1 -.985 1.169zm-10.946-9.816 2.6 2.53a1 1 0 0 1 .287.885l-.614 3.573 3.21-1.687a1 1 0 0 1 .93 0l3.209 1.687-.613-3.573a1 1 0 0 1 .287-.885l2.6-2.53-3.586-.521a1 1 0 0 1 -.753-.548l-1.6-3.25-1.605 3.251a1 1 0 0 1 -.753.547z"/><path d="m43.951 127.847a15.014 15.014 0 1 1 15.013-15.014 15.031 15.031 0 0 1 -15.013 15.014zm0-28.027a13.014 13.014 0 1 0 13.013 13.013 13.028 13.028 0 0 0 -13.013-13.013z"/><path d="m120.062 105h-55.5a1 1 0 0 1 0-2h55.5a1 1 0 0 1 0 2z"/><path d="m120.062 113.833h-55.5a1 1 0 1 1 0-2h55.5a1 1 0 0 1 0 2z"/><path d="m103.729 122.67h-39.167a1 1 0 0 1 0-2h39.167a1 1 0 0 1 0 2z"/></svg>