<svg id="Layer_1" height="512" viewBox="0 0 150 150" width="512" xmlns="http://www.w3.org/2000/svg" data-name="Layer 1"><path d="m130.439 140h-110.878a7.965 7.965 0 0 1 -7.956-7.955v-90.117a1 1 0 0 1 1-1h124.795a1 1 0 0 1 1 1v90.117a7.965 7.965 0 0 1 -7.961 7.955zm-116.834-97.072v89.117a5.963 5.963 0 0 0 5.956 5.955h110.878a5.963 5.963 0 0 0 5.956-5.955v-89.117z"/><path d="m137.4 42.929h-124.8a1 1 0 0 1 -1-1v-16.141a7.964 7.964 0 0 1 7.955-7.956h9.954a1 1 0 0 1 1 1v6.833h6.365v-6.833a1 1 0 0 1 1-1h19.171a1 1 0 0 1 1 1v6.833h6.366v-6.833a1 1 0 0 1 1-1h19.178a1 1 0 0 1 1 1v6.833h6.366v-6.833a1 1 0 0 1 1-1h19.168a1 1 0 0 1 1 1v6.833h6.365v-6.833a1 1 0 0 1 1-1h9.954a7.964 7.964 0 0 1 7.955 7.956v16.141a1 1 0 0 1 -.997 1zm-123.794-2h122.794v-15.141a5.962 5.962 0 0 0 -5.955-5.956h-8.954v6.833a1 1 0 0 1 -1 1h-8.365a1 1 0 0 1 -1-1v-6.833h-17.171v6.833a1 1 0 0 1 -1 1h-8.366a1 1 0 0 1 -1-1v-6.833h-17.178v6.833a1 1 0 0 1 -1 1h-8.366a1 1 0 0 1 -1-1v-6.833h-17.168v6.833a1 1 0 0 1 -1 1h-8.365a1 1 0 0 1 -1-1v-6.833h-8.954a5.962 5.962 0 0 0 -5.958 5.956z"/><path d="m37.877 27.665h-8.365a1 1 0 0 1 -1-1v-15.665a1 1 0 0 1 1-1h8.365a1 1 0 0 1 1 1v15.665a1 1 0 0 1 -1 1zm-7.365-2h6.365v-13.665h-6.365z"/><path d="m65.411 27.665h-8.366a1 1 0 0 1 -1-1v-15.665a1 1 0 0 1 1-1h8.366a1 1 0 0 1 1 1v15.665a1 1 0 0 1 -1 1zm-7.366-2h6.366v-13.665h-6.366z"/><path d="m92.955 27.665h-8.366a1 1 0 0 1 -1-1v-15.665a1 1 0 0 1 1-1h8.366a1 1 0 0 1 1 1v15.665a1 1 0 0 1 -1 1zm-7.366-2h6.366v-13.665h-6.366z"/><path d="m120.488 27.665h-8.365a1 1 0 0 1 -1-1v-15.665a1 1 0 0 1 1-1h8.365a1 1 0 0 1 1 1v15.665a1 1 0 0 1 -1 1zm-7.365-2h6.365v-13.665h-6.365z"/><path d="m38.939 71.891h-14.718a1 1 0 0 1 -1-1v-14.718a1 1 0 0 1 1-1h14.718a1 1 0 0 1 1 1v14.718a1 1 0 0 1 -1 1zm-13.718-2h12.718v-12.718h-12.718z"/><path d="m67.886 71.891h-14.718a1 1 0 0 1 -1-1v-14.718a1 1 0 0 1 1-1h14.718a1 1 0 0 1 1 1v14.718a1 1 0 0 1 -1 1zm-13.718-2h12.718v-12.718h-12.718z"/><path d="m96.832 71.891h-14.718a1 1 0 0 1 -1-1v-14.718a1 1 0 0 1 1-1h14.718a1 1 0 0 1 1 1v14.718a1 1 0 0 1 -1 1zm-13.718-2h12.718v-12.718h-12.718z"/><path d="m125.779 71.891h-14.718a1 1 0 0 1 -1-1v-14.718a1 1 0 0 1 1-1h14.718a1 1 0 0 1 1 1v14.718a1 1 0 0 1 -1 1zm-13.718-2h12.718v-12.718h-12.718z"/><path d="m38.939 98.612h-14.718a1 1 0 0 1 -1-1v-14.719a1 1 0 0 1 1-1h14.718a1 1 0 0 1 1 1v14.719a1 1 0 0 1 -1 1zm-13.718-2h12.718v-12.719h-12.718z"/><path d="m67.886 98.612h-14.718a1 1 0 0 1 -1-1v-14.719a1 1 0 0 1 1-1h14.718a1 1 0 0 1 1 1v14.719a1 1 0 0 1 -1 1zm-13.718-2h12.718v-12.719h-12.718z"/><path d="m96.832 98.612h-14.718a1 1 0 0 1 -1-1v-14.719a1 1 0 0 1 1-1h14.718a1 1 0 0 1 1 1v14.719a1 1 0 0 1 -1 1zm-13.718-2h12.718v-12.719h-12.718z"/><path d="m125.779 98.612h-14.718a1 1 0 0 1 -1-1v-14.719a1 1 0 0 1 1-1h14.718a1 1 0 0 1 1 1v14.719a1 1 0 0 1 -1 1zm-13.718-2h12.718v-12.719h-12.718z"/><path d="m38.939 125.756h-14.718a1 1 0 0 1 -1-1v-14.719a1 1 0 0 1 1-1h14.718a1 1 0 0 1 1 1v14.719a1 1 0 0 1 -1 1zm-13.718-2h12.718v-12.719h-12.718z"/><path d="m67.886 125.756h-14.718a1 1 0 0 1 -1-1v-14.719a1 1 0 0 1 1-1h14.718a1 1 0 0 1 1 1v14.719a1 1 0 0 1 -1 1zm-13.718-2h12.718v-12.719h-12.718z"/><path d="m96.832 125.756h-14.718a1 1 0 0 1 -1-1v-14.719a1 1 0 0 1 1-1h14.718a1 1 0 0 1 1 1v14.719a1 1 0 0 1 -1 1zm-13.718-2h12.718v-12.719h-12.718z"/><path d="m125.779 125.756h-14.718a1 1 0 0 1 -1-1v-14.719a1 1 0 0 1 1-1h14.718a1 1 0 0 1 1 1v14.719a1 1 0 0 1 -1 1zm-13.718-2h12.718v-12.719h-12.718z"/></svg>