<svg id="Layer_1" height="512" viewBox="0 0 150 150" width="512" xmlns="http://www.w3.org/2000/svg" data-name="Layer 1"><path d="m62.486 70.041h-.061a4.543 4.543 0 0 1 -1.909-8.522 1 1 0 0 1 .959 1.755 2.542 2.542 0 0 0 1.069 4.77 1 1 0 0 1 -.058 2z"/><path d="m87.332 70.036a1 1 0 0 1 -.057-2 2.541 2.541 0 0 0 1.3-4.632 1 1 0 0 1 1.143-1.642 4.542 4.542 0 0 1 -2.323 8.271z"/><path d="m98.8 103.507h-47.824a1 1 0 0 1 -1-1v-4.939a12.711 12.711 0 0 1 1.941-6.916c3.072-4.764 11.776-6.519 15.291-7.043l1.113-4.293a1 1 0 0 1 1.935.5l-1.28 4.939a1 1 0 0 1 -.837.74c-5.3.7-12.293 2.753-14.541 6.239a10.716 10.716 0 0 0 -1.622 5.832v3.939h45.824v-3.937a10.716 10.716 0 0 0 -1.622-5.832c-2.292-3.555-9.009-5.553-14.531-6.238a1 1 0 0 1 -.846-.746l-1.255-4.93a1 1 0 1 1 1.939-.493l1.09 4.271c3.507.5 12.159 2.2 15.287 7.048a12.711 12.711 0 0 1 1.938 6.92v4.939a1 1 0 0 1 -1 1z"/><path d="m74.907 82.166c-7.764 0-13.566-7.953-13.566-15.064v-1.029a1 1 0 0 1 2 0v1.027c0 6.167 4.946 13.064 11.566 13.064s11.574-6.9 11.574-13.064v-1.027a1 1 0 1 1 2 0v1.027c0 7.113-5.805 15.066-13.574 15.066z"/><path d="m62.341 67.074h-.312a1 1 0 0 1 -.945-.681c-2.828-8.408-2.307-15.277 1.467-19.341a18.574 18.574 0 0 1 5.677-4.246c2.222-2.1 6.4-2.2 8.727-2.058a14.307 14.307 0 0 1 9.287 4.417c3.487 3.551 5.021 8.928 4.317 15.142a15.835 15.835 0 0 1 -1.927 6.234 1.134 1.134 0 0 1 -.889.534h-.266a1 1 0 0 1 -1-.945c-.141-2.56-.23-3.448-1.148-5.1a2.765 2.765 0 0 0 -2.459-1.7 26.553 26.553 0 0 1 -13.6-2.485 2.185 2.185 0 0 0 -2.636.485 15.468 15.468 0 0 0 -3.293 8.732 1 1 0 0 1 -1 1.012zm20.711-9.754a4.692 4.692 0 0 1 4.031 2.734 9.555 9.555 0 0 1 1.022 2.546 17.459 17.459 0 0 0 .466-2.514c.635-5.6-.7-10.4-3.756-13.516a12.316 12.316 0 0 0 -7.978-3.822c-1.642-.1-5.633-.136-7.32 1.6a1 1 0 0 1 -.315.219 16.386 16.386 0 0 0 -5.185 3.853c-3.376 3.634-3.057 9.307-2.049 13.756a17.5 17.5 0 0 1 3.113-6.1 4.152 4.152 0 0 1 5.053-1.028 24.5 24.5 0 0 0 12.566 2.287c.116-.01.235-.015.352-.015z"/><path d="m58.548 103.507a1 1 0 0 1 -1-1v-9.04a1 1 0 1 1 2 0v9.04a1 1 0 0 1 -1 1z"/><path d="m91.231 103.507a1 1 0 0 1 -1-1v-9.04a1 1 0 1 1 2 0v9.04a1 1 0 0 1 -1 1z"/><path d="m75 118.776a43.776 43.776 0 1 1 43.776-43.776 43.826 43.826 0 0 1 -43.776 43.776zm0-85.552a41.776 41.776 0 1 0 41.776 41.776 41.823 41.823 0 0 0 -41.776-41.776z"/><path d="m74.89 91.645c-5.188 0-9.719-2.467-11.275-6.139a1 1 0 0 1 1.842-.78c1.227 2.9 5.106 4.919 9.433 4.919s8.222-2.03 9.44-4.938a1 1 0 0 1 1.845.773c-1.546 3.687-6.081 6.165-11.285 6.165z"/><path d="m75 33.224a1 1 0 0 1 -1-1v-12.009a1 1 0 0 1 2 0v12.009a1 1 0 0 1 -1 1z"/><path d="m75 21.219a5.61 5.61 0 1 1 5.609-5.61 5.615 5.615 0 0 1 -5.609 5.61zm0-9.219a3.61 3.61 0 1 0 3.609 3.609 3.613 3.613 0 0 0 -3.609-3.609z"/><path d="m49.858 41.394a1 1 0 0 1 -.81-.413l-7.059-9.715a1 1 0 1 1 1.618-1.176l7.059 9.716a1 1 0 0 1 -.808 1.588z"/><path d="m40.1 32.559a5.606 5.606 0 1 1 3.29-1.069 5.606 5.606 0 0 1 -3.29 1.069zm-.012-9.215a3.585 3.585 0 0 0 -2.116.688 3.612 3.612 0 1 0 2.116-.688z"/><path d="m34.317 62.782a1.012 1.012 0 0 1 -.309-.049l-11.421-3.711a1 1 0 1 1 .619-1.9l11.42 3.711a1 1 0 0 1 -.309 1.951z"/><path d="m18.512 62.257a5.61 5.61 0 0 1 -5.331-7.343 5.61 5.61 0 1 1 5.331 7.343zm0-9.221a3.618 3.618 0 0 0 -3.429 2.5 3.6 3.6 0 1 0 3.429-2.5z"/><path d="m22.9 92.93a1 1 0 0 1 -.309-1.951l11.421-3.711a1 1 0 1 1 .618 1.9l-11.42 3.711a1.013 1.013 0 0 1 -.31.051z"/><path d="m18.51 98.965a5.62 5.62 0 0 1 -5.329-3.879 5.6 5.6 0 1 1 5.329 3.879zm-3.427-4.5a3.61 3.61 0 1 0 2.317-4.545 3.591 3.591 0 0 0 -2.318 4.548z"/><path d="m42.8 120.322a1 1 0 0 1 -.808-1.588l7.059-9.715a1 1 0 0 1 1.618 1.176l-7.059 9.715a1 1 0 0 1 -.81.412z"/><path d="m40.084 128.655a5.58 5.58 0 0 1 -3.29-1.069 5.616 5.616 0 1 1 3.29 1.069zm-2.114-2.687a3.609 3.609 0 1 0 -.8-5.041 3.611 3.611 0 0 0 .8 5.041z"/><path d="m75 130.785a1 1 0 0 1 -1-1v-12.009a1 1 0 0 1 2 0v12.009a1 1 0 0 1 -1 1z"/><path d="m75 140a5.609 5.609 0 1 1 5.609-5.609 5.615 5.615 0 0 1 -5.609 5.609zm0-9.218a3.609 3.609 0 1 0 3.609 3.609 3.613 3.613 0 0 0 -3.609-3.609z"/><path d="m107.2 120.322a1 1 0 0 1 -.81-.412l-7.056-9.71a1 1 0 0 1 1.619-1.176l7.058 9.715a1 1 0 0 1 -.808 1.588z"/><path d="m109.921 128.659a5.613 5.613 0 1 1 3.285-1.073 5.567 5.567 0 0 1 -3.285 1.073zm-.021-9.219a3.608 3.608 0 1 0 2.925 1.487 3.589 3.589 0 0 0 -2.925-1.487z"/><path d="m127.1 92.93a1.007 1.007 0 0 1 -.309-.049l-11.417-3.711a1 1 0 1 1 .618-1.9l11.421 3.711a1 1 0 0 1 -.309 1.951z"/><path d="m131.48 98.963a5.61 5.61 0 1 1 5.339-3.877 5.621 5.621 0 0 1 -5.339 3.877zm0-9.221a3.61 3.61 0 1 0 3.437 4.726 3.609 3.609 0 0 0 -2.317-4.548 3.625 3.625 0 0 0 -1.12-.178z"/><path d="m115.683 62.782a1 1 0 0 1 -.309-1.951l11.426-3.711a1 1 0 1 1 .618 1.9l-11.421 3.711a1.012 1.012 0 0 1 -.314.051z"/><path d="m131.478 62.26a5.63 5.63 0 1 1 1.739-.278 5.6 5.6 0 0 1 -1.739.278zm.01-9.224a3.611 3.611 0 1 0 3.429 2.5 3.618 3.618 0 0 0 -3.429-2.5z"/><path d="m100.143 41.394a1 1 0 0 1 -.809-1.588l7.059-9.716a1 1 0 0 1 1.618 1.176l-7.058 9.715a1 1 0 0 1 -.81.413z"/><path d="m109.9 32.559a5.608 5.608 0 1 1 3.3-10.145 5.607 5.607 0 0 1 -3.3 10.145zm.015-9.217a3.707 3.707 0 0 0 -.573.045 3.61 3.61 0 1 0 2.686.645 3.581 3.581 0 0 0 -2.111-.69z"/></svg>