<svg id="Layer_1" height="512" viewBox="0 0 150 150" width="512" xmlns="http://www.w3.org/2000/svg" data-name="Layer 1"><path d="m78.857 89.109h-7.714a1 1 0 0 1 -.985-.824l-1.489-8.359a30.506 30.506 0 0 1 -10.569-4.377l-6.962 4.856a1 1 0 0 1 -1.28-.113l-5.458-5.456a1 1 0 0 1 -.113-1.279l4.857-6.957a30.524 30.524 0 0 1 -4.378-10.571l-8.359-1.49a1 1 0 0 1 -.824-.984v-7.721a1 1 0 0 1 .824-.984l8.359-1.49a30.511 30.511 0 0 1 4.378-10.57l-4.857-6.963a1 1 0 0 1 .113-1.279l5.456-5.455a1 1 0 0 1 1.28-.114l6.964 4.856a30.506 30.506 0 0 1 10.571-4.377l1.487-8.358a1 1 0 0 1 .985-.825h7.714a1 1 0 0 1 .985.825l1.49 8.358a30.506 30.506 0 0 1 10.568 4.377l6.962-4.856a1 1 0 0 1 1.28.114l5.455 5.455a1 1 0 0 1 .113 1.279l-4.856 6.963a30.5 30.5 0 0 1 4.377 10.57l8.359 1.49a1 1 0 0 1 .824.984v7.716a1 1 0 0 1 -.824.984l-8.359 1.49a30.511 30.511 0 0 1 -4.374 10.576l4.856 6.962a1 1 0 0 1 -.113 1.279l-5.455 5.456a1 1 0 0 1 -1.28.113l-6.965-4.861a30.506 30.506 0 0 1 -10.571 4.377l-1.49 8.359a1 1 0 0 1 -.982.824zm-6.877-2h6.04l1.463-8.209a1 1 0 0 1 .8-.808 28.574 28.574 0 0 0 11.062-4.581 1 1 0 0 1 1.138 0l6.836 4.769 4.272-4.271-4.769-6.838a1 1 0 0 1 0-1.138 28.541 28.541 0 0 0 4.58-11.061 1 1 0 0 1 .808-.8l8.208-1.463v-6.04l-8.208-1.463a1 1 0 0 1 -.808-.8 28.541 28.541 0 0 0 -4.58-11.061 1 1 0 0 1 0-1.138l4.769-6.837-4.269-4.27-6.836 4.768a1 1 0 0 1 -1.138 0 28.569 28.569 0 0 0 -11.062-4.58 1 1 0 0 1 -.8-.808l-1.466-8.205h-6.04l-1.462 8.208a1 1 0 0 1 -.8.808 28.569 28.569 0 0 0 -11.062 4.58 1 1 0 0 1 -1.138 0l-6.839-4.771-4.272 4.27 4.769 6.837a1 1 0 0 1 0 1.138 28.556 28.556 0 0 0 -4.576 11.062 1 1 0 0 1 -.808.8l-8.208 1.463v6.04l8.208 1.463a1 1 0 0 1 .808.8 28.552 28.552 0 0 0 4.58 11.066 1 1 0 0 1 0 1.139l-4.769 6.837 4.272 4.271 6.836-4.769a1 1 0 0 1 1.138 0 28.574 28.574 0 0 0 11.062 4.581 1 1 0 0 1 .8.808z"/><path d="m75 68.365a18.673 18.673 0 1 1 18.673-18.673 18.694 18.694 0 0 1 -18.673 18.673zm0-35.345a16.673 16.673 0 1 0 16.673 16.672 16.691 16.691 0 0 0 -16.673-16.672z"/><path d="m18.572 101.677a1 1 0 0 1 -1-1v-45.139a6.854 6.854 0 0 1 6.846-6.846h12.165a1 1 0 0 1 0 2h-12.165a4.852 4.852 0 0 0 -4.846 4.846v45.139a1 1 0 0 1 -1 1z"/><path d="m18.572 101.677a1 1 0 0 1 -.707-.293l-7.572-7.572a1 1 0 0 1 1.414-1.412l6.865 6.866 6.865-6.866a1 1 0 1 1 1.415 1.415l-7.573 7.572a1 1 0 0 1 -.707.29z"/><path d="m131.428 101.677a1 1 0 0 1 -1-1v-45.139a4.852 4.852 0 0 0 -4.846-4.846h-12.165a1 1 0 0 1 0-2h12.165a6.854 6.854 0 0 1 6.846 6.846v45.139a1 1 0 0 1 -1 1z"/><path d="m131.428 101.677a1 1 0 0 1 -.707-.293l-7.572-7.572a1 1 0 1 1 1.414-1.415l6.865 6.866 6.865-6.866a1 1 0 0 1 1.414 1.415l-7.572 7.572a1 1 0 0 1 -.707.293z"/><path d="m64.123 139.724h-37.6a3.736 3.736 0 0 1 -3.732-3.732v-7.719a9.949 9.949 0 0 1 9.939-9.938h4.916a1 1 0 0 1 .636.229 10.744 10.744 0 0 0 7.024 2.353 10.779 10.779 0 0 0 7.06-2.353 1 1 0 0 1 .637-.229h4.915a9.949 9.949 0 0 1 9.938 9.938v7.719a3.735 3.735 0 0 1 -3.733 3.732zm-31.4-19.389a7.948 7.948 0 0 0 -7.939 7.938v7.719a1.733 1.733 0 0 0 1.732 1.732h37.6a1.733 1.733 0 0 0 1.731-1.732v-7.719a7.947 7.947 0 0 0 -7.938-7.938h-4.557a12.765 12.765 0 0 1 -8.008 2.582 12.8 12.8 0 0 1 -8.051-2.582z"/><path d="m45.327 118.4c-7.8 0-13.9-8.438-13.9-19.209 0-6.451 5.946-13.666 13.9-13.666s13.9 7.215 13.9 13.666c.003 10.768-6.104 19.209-13.9 19.209zm0-30.875a12.257 12.257 0 0 0 -11.9 11.666c0 9.489 5.34 17.209 11.9 17.209s11.9-7.72 11.9-17.209a12.256 12.256 0 0 0 -11.9-11.669z"/><path d="m55.271 100.47c-4.607 0-9.057-1.878-11.445-4.94-2.831 2.07-7.37 4.936-11.689 2.527a1 1 0 1 1 .972-1.747c3.364 1.872 7.1-.567 10.351-3a1 1 0 0 1 1.456.284c2.206 3.656 7.85 5.637 13.123 4.612a1 1 0 0 1 .383 1.963 16.511 16.511 0 0 1 -3.151.301z"/><path d="m31.255 139.725a1 1 0 0 1 -1-1v-9.807a1 1 0 0 1 2 0v9.807a1 1 0 0 1 -1 1z"/><path d="m59.37 139.725a1 1 0 0 1 -1-1v-9.807a1 1 0 0 1 2 0v9.807a1 1 0 0 1 -1 1z"/><path d="m123.48 139.724h-37.6a3.736 3.736 0 0 1 -3.732-3.732v-7.719a9.949 9.949 0 0 1 9.939-9.938h4.913a1 1 0 0 1 .637.229 11.714 11.714 0 0 0 14.084 0 1 1 0 0 1 .636-.229h4.916a9.949 9.949 0 0 1 9.939 9.938v7.719a3.736 3.736 0 0 1 -3.732 3.732zm-31.4-19.389a7.948 7.948 0 0 0 -7.939 7.938v7.719a1.734 1.734 0 0 0 1.732 1.732h37.6a1.733 1.733 0 0 0 1.732-1.732v-7.719a7.948 7.948 0 0 0 -7.939-7.938h-4.565a13.776 13.776 0 0 1 -16.059 0z"/><path d="m104.674 118.4c-7.8 0-13.9-8.438-13.9-19.209 0-6.451 5.946-13.666 13.9-13.666s13.9 7.215 13.9 13.666c.003 10.768-6.104 19.209-13.9 19.209zm0-30.875a12.256 12.256 0 0 0 -11.9 11.666c0 9.489 5.339 17.209 11.9 17.209s11.9-7.72 11.9-17.209a12.257 12.257 0 0 0 -11.9-11.669z"/><path d="m94.729 100.47a16.516 16.516 0 0 1 -3.15-.3 1 1 0 0 1 .383-1.963c5.274 1.026 10.917-.956 13.123-4.612a1 1 0 0 1 1.456-.284c3.245 2.433 6.987 4.872 10.351 3a1 1 0 1 1 .972 1.747c-4.32 2.408-8.86-.457-11.689-2.527-2.388 3.061-6.839 4.938-11.446 4.939z"/><path d="m118.746 139.725a1 1 0 0 1 -1-1v-9.807a1 1 0 0 1 2 0v9.807a1 1 0 0 1 -1 1z"/><path d="m90.631 139.725a1 1 0 0 1 -1-1v-9.807a1 1 0 0 1 2 0v9.807a1 1 0 0 1 -1 1z"/></svg>