<svg id="Layer_1" height="512" viewBox="0 0 150 150" width="512" xmlns="http://www.w3.org/2000/svg" data-name="Layer 1"><path d="m69.579 107.465a6.265 6.265 0 0 1 -4.579-1.993 6.894 6.894 0 0 1 -1.88-4.763l-.009-50.259a1 1 0 0 1 2 0l.012 50.258a4.906 4.906 0 0 0 1.33 3.388 4.284 4.284 0 0 0 3.126 1.37h.008a4.625 4.625 0 0 0 4.449-4.776l-.036-21.573a1 1 0 0 1 1-1 1 1 0 0 1 1 1l.034 21.572a6.625 6.625 0 0 1 -6.445 6.779z"/><path d="m80.492 107.465h-.013a6.625 6.625 0 0 1 -6.445-6.779l.034-21.572a.966.966 0 0 1 1-1 1 1 0 0 1 1 1l-.034 21.572a4.626 4.626 0 0 0 4.449 4.776h.008a4.284 4.284 0 0 0 3.126-1.37 4.9 4.9 0 0 0 1.33-3.389l.012-50.257a1 1 0 0 1 1-1 1 1 0 0 1 1 1l-.012 50.257a6.9 6.9 0 0 1 -1.88 4.765 6.263 6.263 0 0 1 -4.575 1.997z"/><path d="m88.707 73.121h-2.746a1 1 0 0 1 0-2h2.746a2.154 2.154 0 0 0 2.059-2.233v-19.605a5.99 5.99 0 0 0 -5.78-6.167h-3.2a12.022 12.022 0 0 1 -13.5 0h-3.2a5.989 5.989 0 0 0 -5.779 6.167v19.605a2.153 2.153 0 0 0 2.058 2.233h2.746a1 1 0 0 1 0 2h-2.748a4.153 4.153 0 0 1 -4.058-4.233v-19.605a7.989 7.989 0 0 1 7.779-8.167h3.516a1 1 0 0 1 .58.185 9.865 9.865 0 0 0 11.717 0 1 1 0 0 1 .58-.185h3.512a7.99 7.99 0 0 1 7.78 8.167v19.605a4.154 4.154 0 0 1 -4.062 4.233z"/><path d="m85.111 30.517a1 1 0 0 1 -1-1.04 14.093 14.093 0 0 0 -1.418-5.977c-4.5 1.852-9.006 1.179-13.42-2a13.793 13.793 0 0 0 -3.265 8.09 1 1 0 0 1 -1.966.176c-2.371-9.364-.793-15.6 4.439-17.583 4.658-3.055 9.12-3.077 13.64-.069a10.689 10.689 0 0 1 4.879 6.978c.459 1.48.536 6.228-.941 10.736a1 1 0 0 1 -.948.689zm-9.711-18.636a10.646 10.646 0 0 0 -5.91 2.029 1.028 1.028 0 0 1 -.212.107c-4.1 1.49-4.639 6.239-4.165 10.577a11.3 11.3 0 0 1 3.567-5.2 1 1 0 0 1 1.177.037c4.318 3.359 8.522 3.969 12.856 1.864a1 1 0 0 1 1.309.41 16.841 16.841 0 0 1 1.15 2.572 15.3 15.3 0 0 0 -.084-4.608c-.011-.034-.021-.068-.029-.1a8.721 8.721 0 0 0 -4.046-5.794 10.055 10.055 0 0 0 -5.613-1.894z"/><path d="m75.057 41.348c-5.442 0-9.875-4.689-11.033-11.667a1 1 0 0 1 1.976-.327c1.007 6.071 4.563 9.994 9.06 9.994s8.061-3.923 9.068-9.994a1 1 0 1 1 1.972.327c-1.16 6.978-5.6 11.667-11.043 11.667z"/><path d="m95.965 140.129h-43.034a1 1 0 0 1 -1-1v-32.664a1 1 0 0 1 1-1h43.034a1 1 0 0 1 1 1v32.664a1 1 0 0 1 -1 1zm-42.034-2h41.034v-30.664h-41.034z"/><path d="m52.931 140.129h-41.931a1 1 0 0 1 -1-1v-21.414a1 1 0 0 1 1-1h41.931a1 1 0 0 1 1 1v21.414a1 1 0 0 1 -1 1zm-40.931-2h39.931v-19.414h-39.931z"/><path d="m139 140.129h-43.035a1 1 0 0 1 -1-1v-25.914a1 1 0 0 1 1-1h43.035a1 1 0 0 1 1 1v25.914a1 1 0 0 1 -1 1zm-42.035-2h41.035v-23.914h-41.035z"/><path d="m26.035 95.8a1 1 0 0 1 -.7-1.712l25.833-25.5a1 1 0 1 1 1.405 1.424l-25.833 25.5a1 1 0 0 1 -.705.288z"/><path d="m51.869 78.549a1 1 0 0 1 -1-1v-7.249h-7.25a1 1 0 0 1 0-2h8.25a1 1 0 0 1 1 1v8.25a1 1 0 0 1 -1 .999z"/><path d="m38.058 107.465a1 1 0 0 1 -.7-1.712l19.742-19.486a1 1 0 1 1 1.4 1.424l-19.74 19.486a1 1 0 0 1 -.702.288z"/><path d="m57.8 96.229a1 1 0 0 1 -1-1v-7.25h-7.25a1 1 0 1 1 0-2h8.25a1 1 0 0 1 1 1v8.25a1 1 0 0 1 -1 1z"/><path d="m123.973 95.8a1 1 0 0 1 -.7-.288l-25.834-25.5a1 1 0 0 1 1.405-1.424l25.834 25.5a1 1 0 0 1 -.7 1.712z"/><path d="m98.14 78.549a1 1 0 0 1 -1-1v-8.249a1 1 0 0 1 1-1h8.25a1 1 0 1 1 0 2h-7.25v7.25a1 1 0 0 1 -1 .999z"/><path d="m111.951 107.465a1 1 0 0 1 -.7-.288l-19.744-19.486a1 1 0 0 1 1.405-1.424l19.741 19.486a1 1 0 0 1 -.7 1.712z"/><path d="m92.209 96.229a1 1 0 0 1 -1-1v-8.25a1 1 0 0 1 1-1h8.25a1 1 0 0 1 0 2h-7.25v7.25a1 1 0 0 1 -1 1z"/><path d="m46.2 135.8h-5.915a1 1 0 0 1 0-2h5.915a1 1 0 0 1 0 2z"/><path d="m36.077 135.8h-25.077a1 1 0 0 1 0-2h25.077a1 1 0 0 1 0 2z"/></svg>