<svg id="Layer_1" height="512" viewBox="0 0 150 150" width="512" xmlns="http://www.w3.org/2000/svg" data-name="Layer 1"><path d="m42.264 62.61h-.06a7.559 7.559 0 0 1 -3.178-14.18 1 1 0 1 1 .96 1.754 5.559 5.559 0 0 0 2.337 10.43 1 1 0 0 1 -.059 2z"/><path d="m88.265 62.6a1 1 0 0 1 -.057-2 5.557 5.557 0 0 0 2.839-10.125 1 1 0 0 1 1.142-1.642 7.557 7.557 0 0 1 -3.865 13.767z"/><path d="m106.565 101.141a1 1 0 0 1 -.877-.517c-.1-.181-.209-.354-.318-.527-4.412-6.843-17.108-10.652-27.52-11.937a1 1 0 0 1 -.811-.634l-2.326-6.056a1 1 0 1 1 1.867-.717l2.112 5.5c5.894.781 22.548 3.748 28.354 12.753.146.232.275.438.394.654a1 1 0 0 1 -.875 1.482z"/><path d="m89.983 121.494h-69.029a1 1 0 0 1 -1-1v-9.151a22.666 22.666 0 0 1 3.459-12.338c5.779-8.962 23.508-12.058 28.356-12.748l2.164-5.521a1 1 0 1 1 1.862.73l-2.378 6.067a1 1 0 0 1 -.8.626c-10.477 1.382-23.21 5.241-27.523 11.93a20.674 20.674 0 0 0 -3.14 11.254v8.151h68.029a1 1 0 0 1 0 2z"/><path d="m65.261 85.057c-13.887 0-24.261-14.274-24.261-27.037v-1.9a1 1 0 0 1 2 0v1.9c0 11.819 9.521 25.037 22.264 25.037s22.28-13.218 22.28-25.037v-1.9a1 1 0 1 1 2 0v1.9c-.003 12.763-10.387 27.037-24.283 27.037z"/><path d="m89.027 57.118h-.486a1 1 0 0 1 -1-.945c-.265-4.781-.447-6.6-2.231-9.818-.8-1.442-2.557-3.825-5.373-3.573a48.3 48.3 0 0 1 -24.745-4.517 4.909 4.909 0 0 0 -5.91 1.129 29.607 29.607 0 0 0 -6.282 16.711 1 1 0 0 1 -.29.716.9.9 0 0 1 -.713.3h-.572a1 1 0 0 1 -.945-.681c-2.972-8.837-6.594-25.129 2.534-34.956a33.381 33.381 0 0 1 10.368-7.726c3.847-3.778 11.418-3.932 15.618-3.681a25.65 25.65 0 0 1 16.64 7.923c6.273 6.387 9.026 16.1 7.753 27.34-.293 2.589-1.131 7.485-3.444 11.187l-.073.118a1 1 0 0 1 -.849.473zm-8.692-16.356c2.656 0 5.082 1.656 6.725 4.622a17.039 17.039 0 0 1 2.3 7.946 30.224 30.224 0 0 0 2.042-8.212c1.2-10.634-1.35-19.767-7.192-25.715a23.656 23.656 0 0 0 -15.329-7.329c-3.15-.186-10.843-.248-14.212 3.214a.991.991 0 0 1 -.316.219 31.2 31.2 0 0 0 -9.879 7.333c-7.407 7.974-5.6 20.9-3.137 29.622a32.292 32.292 0 0 1 6.39-14.33 6.84 6.84 0 0 1 8.328-1.673 46.3 46.3 0 0 0 23.7 4.328c.198-.017.39-.025.58-.025z"/><path d="m34.975 121.49a1 1 0 0 1 -1-1v-16.736a1 1 0 0 1 2 0v16.736a1 1 0 0 1 -1 1z"/><path d="m65.229 99.53c-9.267 0-17.34-4.36-20.089-10.848a1 1 0 0 1 1.842-.78c2.4 5.669 9.905 9.628 18.247 9.628 8.368 0 15.878-3.975 18.264-9.665a1 1 0 1 1 1.844.774c-2.731 6.514-10.812 10.891-20.108 10.891z"/><path d="m109.5 140a20.544 20.544 0 1 1 20.543-20.544 20.567 20.567 0 0 1 -20.543 20.544zm0-39.087a18.544 18.544 0 1 0 18.543 18.543 18.564 18.564 0 0 0 -18.543-18.543z"/><path d="m103.526 128.055a1 1 0 0 1 -.707-.292l-4.219-4.219a1 1 0 1 1 1.414-1.414l3.513 3.512 15.465-15.409a1 1 0 1 1 1.412 1.417l-16.172 16.114a1 1 0 0 1 -.706.291z"/></svg>