<svg id="Layer_1" height="512" viewBox="0 0 150 150" width="512" xmlns="http://www.w3.org/2000/svg" data-name="Layer 1"><path d="m87.905 93.405h-25.476a1 1 0 0 1 -.986-.83c-.9-5.232-3.878-8.276-7.643-12.129-1.42-1.453-2.888-2.955-4.37-4.709a33.483 33.483 0 1 1 50.967.213c-1.32 1.533-2.6 2.87-3.839 4.163-3.774 3.94-6.755 7.053-7.666 12.458a1 1 0 0 1 -.987.834zm-24.653-2h23.826c1.17-5.508 4.364-8.842 8.035-12.675 1.221-1.274 2.483-2.592 3.769-4.085a31.491 31.491 0 1 0 -47.926-.2c1.437 1.7 2.88 3.177 4.274 4.6 3.664 3.755 6.852 7.015 8.022 12.36z"/><path d="m77.069 114.315h-4.13a9 9 0 0 1 -8.727-6.735 1 1 0 0 1 1.937-.5 7 7 0 0 0 6.79 5.234h4.13a6.967 6.967 0 0 0 6.765-5.232 1 1 0 1 1 1.937.5 8.964 8.964 0 0 1 -8.702 6.733z"/><path d="m87.905 98.381h-25.805a3.488 3.488 0 1 1 0-6.976h25.81a3.488 3.488 0 1 1 0 6.976zm-25.805-4.976a1.488 1.488 0 1 0 0 2.976h25.81a1.488 1.488 0 1 0 0-2.976z"/><path d="m87.905 103.356h-25.805a3.488 3.488 0 1 1 0-6.975h25.81a3.488 3.488 0 1 1 0 6.975zm-25.805-4.975a1.488 1.488 0 1 0 0 2.975h25.81a1.488 1.488 0 1 0 0-2.975z"/><path d="m87.905 108.333h-25.805a3.489 3.489 0 1 1 0-6.977h25.81a3.489 3.489 0 1 1 0 6.977zm-25.805-4.977a1.489 1.489 0 1 0 0 2.977h25.81a1.489 1.489 0 1 0 0-2.977z"/><path d="m75 16.761a1 1 0 0 1 -1-1v-4.761a1 1 0 0 1 2 0v4.761a1 1 0 0 1 -1 1z"/><path d="m59.458 20.043a1 1 0 0 1 -.914-.593l-1.928-4.33a1 1 0 1 1 1.826-.813l1.928 4.329a1 1 0 0 1 -.506 1.321 1.011 1.011 0 0 1 -.406.086z"/><path d="m46.817 29.577a1 1 0 0 1 -.669-.257l-3.737-3.365a1 1 0 0 1 1.338-1.487l3.737 3.365a1 1 0 0 1 -.669 1.744z"/><path d="m39.09 43.285a.979.979 0 0 1 -.309-.05l-4.939-1.6a1 1 0 1 1 .617-1.9l4.939 1.6a1 1 0 0 1 -.308 1.952z"/><path d="m32.282 59.442a1 1 0 0 1 -.1-1.995l4.908-.516a1 1 0 0 1 .21 1.989l-4.908.517c-.039.003-.075.005-.11.005z"/><path d="m37.8 76.428a1 1 0 0 1 -.5-1.866l4.711-2.72a1 1 0 0 1 1 1.732l-4.711 2.72a.992.992 0 0 1 -.5.134z"/><path d="m90.542 20.043a1.011 1.011 0 0 1 -.406-.086 1 1 0 0 1 -.506-1.321l1.928-4.329a1 1 0 1 1 1.826.813l-1.928 4.33a1 1 0 0 1 -.914.593z"/><path d="m103.183 29.577a1 1 0 0 1 -.669-1.744l3.737-3.365a1 1 0 0 1 1.338 1.487l-3.737 3.365a1 1 0 0 1 -.669.257z"/><path d="m110.91 43.285a1 1 0 0 1 -.308-1.952l4.939-1.6a1 1 0 1 1 .617 1.9l-4.939 1.6a.979.979 0 0 1 -.309.052z"/><path d="m117.718 59.442c-.035 0-.071 0-.106-.005l-4.912-.517a1 1 0 0 1 -.89-1.1 1.009 1.009 0 0 1 1.1-.89l4.908.516a1 1 0 0 1 -.1 1.995z"/><path d="m112.2 76.428a.992.992 0 0 1 -.5-.134l-4.711-2.72a1 1 0 0 1 1-1.732l4.711 2.72a1 1 0 0 1 -.5 1.866z"/><path d="m48.473 49.42a1 1 0 0 1 -.979-1.21 28.26 28.26 0 0 1 21.035-21.439 1 1 0 0 1 .461 1.946 26.25 26.25 0 0 0 -19.541 19.914 1 1 0 0 1 -.976.789z"/><path d="m96 38.01a1 1 0 0 1 -.776-.368 26.347 26.347 0 0 0 -10.324-7.694 1 1 0 0 1 .76-1.848 28.365 28.365 0 0 1 11.117 8.279 1 1 0 0 1 -.777 1.631z"/><path d="m55.824 140h-44.824a1 1 0 0 1 -1-1v-10.031a10.315 10.315 0 0 1 10.3-10.3h5.12a1 1 0 0 1 .637.229 11.225 11.225 0 0 0 7.337 2.458 11.261 11.261 0 0 0 7.374-2.458 1 1 0 0 1 .636-.229h5.117a10.315 10.315 0 0 1 10.3 10.3v10.031a1 1 0 0 1 -.997 1zm-43.824-2h42.824v-9.031a8.312 8.312 0 0 0 -8.3-8.3h-4.768a13.239 13.239 0 0 1 -8.321 2.687 13.284 13.284 0 0 1 -8.367-2.687h-4.768a8.313 8.313 0 0 0 -8.3 8.3z"/><path d="m33.407 118.288c-7.923 0-14.129-8.578-14.129-19.527 0-6.555 6.042-13.886 14.129-13.886s14.128 7.331 14.128 13.886c0 10.949-6.206 19.527-14.128 19.527zm0-31.413a12.489 12.489 0 0 0 -12.129 11.886c0 9.664 5.442 17.527 12.129 17.527s12.128-7.863 12.128-17.527a12.487 12.487 0 0 0 -12.128-11.886z"/><path d="m139 140h-44.824a1 1 0 0 1 -1-1v-10.031a10.315 10.315 0 0 1 10.3-10.3h5.124a1 1 0 0 1 .636.229 12.235 12.235 0 0 0 14.711 0 1 1 0 0 1 .637-.229h5.116a10.315 10.315 0 0 1 10.3 10.3v10.031a1 1 0 0 1 -1 1zm-43.824-2h42.824v-9.031a8.313 8.313 0 0 0 -8.3-8.3h-4.764a14.3 14.3 0 0 1 -16.688 0h-4.765a8.312 8.312 0 0 0 -8.3 8.3z"/><path d="m116.583 118.288c-7.923 0-14.129-8.578-14.129-19.527 0-6.555 6.042-13.886 14.129-13.886s14.128 7.331 14.128 13.886c0 10.949-6.206 19.527-14.128 19.527zm0-31.413a12.489 12.489 0 0 0 -12.129 11.886c0 9.664 5.442 17.527 12.129 17.527s12.128-7.863 12.128-17.527a12.488 12.488 0 0 0 -12.128-11.886z"/></svg>