<svg id="Layer_1" height="512" viewBox="0 0 150 150" width="512" xmlns="http://www.w3.org/2000/svg" data-name="Layer 1"><path d="m136.384 77.234h-122.768a3.62 3.62 0 0 1 -3.616-3.616v-5.847a3.62 3.62 0 0 1 3.616-3.616h122.768a3.62 3.62 0 0 1 3.616 3.616v5.847a3.62 3.62 0 0 1 -3.616 3.616zm-122.768-11.079a1.618 1.618 0 0 0 -1.616 1.616v5.847a1.618 1.618 0 0 0 1.616 1.616h122.768a1.618 1.618 0 0 0 1.616-1.616v-5.847a1.618 1.618 0 0 0 -1.616-1.616z"/><path d="m127.521 133.9h-105.042a6 6 0 0 1 -5.989-5.988v-51.678a1 1 0 0 1 1-1h115.02a1 1 0 0 1 1 1v51.673a6 6 0 0 1 -5.989 5.993zm-109.031-56.666v50.673a3.993 3.993 0 0 0 3.989 3.988h105.042a3.993 3.993 0 0 0 3.989-3.988v-50.673z"/><path d="m118.574 128.664h-87.148a1 1 0 0 1 -.707-.293l-8.7-8.7a1 1 0 0 1 -.293-.707v-28.795a1 1 0 0 1 .293-.707l8.7-8.7a1 1 0 0 1 .707-.293h87.148a1 1 0 0 1 .707.293l8.7 8.7a1 1 0 0 1 .293.707v28.792a1 1 0 0 1 -.293.707l-8.7 8.7a1 1 0 0 1 -.707.296zm-86.734-2h86.32l8.118-8.118v-27.963l-8.118-8.118h-86.32l-8.118 8.118v27.963z"/><path d="m31.049 140h-7.649a1 1 0 0 1 -1-1v-6.1a1 1 0 0 1 1-1h7.65a1 1 0 0 1 1 1v6.1a1 1 0 0 1 -1.001 1zm-6.65-2h5.65v-4.1h-5.649z"/><path d="m126.6 140h-7.65a1 1 0 0 1 -1-1v-6.1a1 1 0 0 1 1-1h7.65a1 1 0 0 1 1 1v6.1a1 1 0 0 1 -1 1zm-6.65-2h5.65v-4.1h-5.65z"/><path d="m67.528 60.173h-43.853a3.56 3.56 0 0 1 -3.556-3.555v-28.7a3.56 3.56 0 0 1 3.556-3.555h43.853a3.56 3.56 0 0 1 3.556 3.555v28.7a3.56 3.56 0 0 1 -3.556 3.555zm-43.853-33.806a1.558 1.558 0 0 0 -1.556 1.555v28.7a1.558 1.558 0 0 0 1.556 1.555h43.853a1.558 1.558 0 0 0 1.556-1.555v-28.7a1.558 1.558 0 0 0 -1.556-1.555z"/><path d="m70.084 53.5h-48.965a1 1 0 0 1 0-2h48.965a1 1 0 0 1 0 2z"/><path d="m53.854 66.155h-16.5a1 1 0 0 1 -.889-1.458l3.083-5.982a1 1 0 0 1 .889-.542h10.333a1 1 0 0 1 .888.542l3.084 5.985a1 1 0 0 1 -.888 1.458zm-14.863-2h13.222l-2.053-3.982h-9.117z"/><path d="m97.715 38.321a1 1 0 0 1 -.905-.575l-10.3-21.933a1 1 0 0 1 .8-1.419l18.419-1.976a1.006 1.006 0 0 1 1.011.569l5.164 11a1 1 0 0 1 -.208 1.143l-13.284 12.908a1 1 0 0 1 -.697.283zm-8.8-22.088 9.107 19.393 11.768-11.437-4.559-9.706z"/><path d="m98.436 39.855a1 1 0 0 1 -.907-.575l-11.74-25a1 1 0 0 1 1.811-.85l11.74 25a1 1 0 0 1 -.9 1.426z"/><path d="m111 25.409a1 1 0 0 1 -.905-.575l-5.164-11a1 1 0 0 1 .48-1.33l3.908-1.836a7.075 7.075 0 1 1 6.015 12.807l-3.909 1.836a1 1 0 0 1 -.425.098zm-3.834-11.517 4.315 9.187 3-1.411a5.074 5.074 0 1 0 -4.315-9.186z"/><path d="m92.572 30.89a4.535 4.535 0 0 1 -1.935-8.641 1 1 0 1 1 .849 1.811 2.535 2.535 0 0 0 -1.216 3.372 2.539 2.539 0 0 0 3.373 1.217 1 1 0 0 1 .849 1.811 4.5 4.5 0 0 1 -1.92.43z"/><path d="m116.364 62.094a1 1 0 0 1 -.908-1.417l9.665-21.04a1 1 0 0 1 1.818.835l-9.665 21.04a1 1 0 0 1 -.91.582z"/><path d="m125.321 36.045a1 1 0 0 1 -.768-.359l-10.413-12.472a1 1 0 1 1 1.535-1.282l10.413 12.468a1 1 0 0 1 -.767 1.642z"/><path d="m127.278 41.329a4.008 4.008 0 1 1 4.008-4.008 4.012 4.012 0 0 1 -4.008 4.008zm0-6.016a2.008 2.008 0 1 0 2.008 2.008 2.01 2.01 0 0 0 -2.008-2.008z"/><path d="m121.621 66.154h-11.5a1 1 0 0 1 -1-1v-.98a4.084 4.084 0 0 1 4.079-4.08h5.342a4.084 4.084 0 0 1 4.079 4.08v.98a1 1 0 0 1 -1 1zm-10.5-2h9.5a2.082 2.082 0 0 0 -2.079-2.06h-5.342a2.083 2.083 0 0 0 -2.079 2.06z"/><path d="m139 71.695h-128a1 1 0 0 1 0-2h128a1 1 0 0 1 0 2z"/></svg>