<svg id="Layer_1" height="512" viewBox="0 0 150 150" width="512" xmlns="http://www.w3.org/2000/svg" data-name="Layer 1"><path d="m39.278 61.633h-.06a7.432 7.432 0 0 1 -3.124-13.943 1 1 0 1 1 .959 1.755 5.432 5.432 0 0 0 2.284 10.192 1 1 0 0 1 -.059 2z"/><path d="m84.393 61.624a1 1 0 0 1 -.057-2 5.431 5.431 0 0 0 2.773-9.9 1 1 0 1 1 1.143-1.64 7.431 7.431 0 0 1 -3.8 13.532z"/><path d="m84.484 122.408h-70.078a1 1 0 0 1 -1-1v-9.79a24.2 24.2 0 0 1 3.694-13.187c6.18-9.577 25.019-12.858 30.259-13.6l1.674-6.471a1 1 0 1 1 1.936.5l-1.842 7.121a1 1 0 0 1 -.839.741c-11.215 1.456-24.855 5.581-29.509 12.79a22.209 22.209 0 0 0 -3.371 12.1v8.79h69.076a1 1 0 0 1 0 2z"/><path d="m94.785 91.769a.994.994 0 0 1 -.4-.086 71.787 71.787 0 0 0 -19.065-4.956 1 1 0 0 1 -.848-.747l-1.807-7.109a1 1 0 0 1 1.938-.492l1.639 6.448a73.207 73.207 0 0 1 18.948 5.027 1 1 0 0 1 -.405 1.915z"/><path d="m61.832 83.648c-13.631 0-23.816-14.01-23.816-26.535v-1.868a1 1 0 0 1 2 0v1.868c0 11.581 9.33 24.535 21.816 24.535s21.83-12.954 21.83-24.535v-1.868a1 1 0 0 1 2 0v1.868c0 12.525-10.191 26.535-23.83 26.535z"/><path d="m39.016 56.246h-.563a1 1 0 0 1 -.946-.681c-2.915-8.67-6.469-24.656 2.49-34.3a32.776 32.776 0 0 1 10.171-7.58c3.782-3.7 11.21-3.852 15.335-3.608a25.169 25.169 0 0 1 16.328 7.778c6.155 6.266 8.857 15.794 7.609 26.828-.289 2.542-1.111 7.347-3.38 10.979l-.072.116a1 1 0 0 1 -.848.47h-.481a1 1 0 0 1 -1-.945c-.26-4.685-.438-6.466-2.186-9.62-.783-1.411-2.511-3.744-5.25-3.495a47.455 47.455 0 0 1 -24.279-4.431 4.794 4.794 0 0 0 -5.772 1.1 29 29 0 0 0 -6.161 16.378 1 1 0 0 1 -1 1.012zm37.6-16.078c2.612 0 5 1.628 6.613 4.542a16.68 16.68 0 0 1 2.254 7.723 29.763 29.763 0 0 0 1.971-7.977c1.179-10.423-1.324-19.374-7.049-25.2a23.175 23.175 0 0 0 -15.02-7.182c-3.084-.182-10.625-.244-13.923 3.147a1 1 0 0 1 -.315.218 30.561 30.561 0 0 0 -9.684 7.187c-7.233 7.788-5.5 20.4-3.1 28.95a31.7 31.7 0 0 1 6.261-13.976 6.729 6.729 0 0 1 8.19-1.645 45.4 45.4 0 0 0 23.236 4.238c.189-.017.378-.025.565-.025z"/><path d="m29.407 122.4a1 1 0 0 1 -1-1v-17.912a1 1 0 0 1 2 0v17.912a1 1 0 0 1 -1 1z"/><path d="m61.8 98.894c-9.894 0-18.51-4.649-21.443-11.57a1 1 0 0 1 1.842-.78c2.582 6.094 10.642 10.35 19.6 10.35 8.985 0 17.053-4.272 19.618-10.39a1 1 0 1 1 1.844.774c-2.915 6.948-11.54 11.616-21.461 11.616z"/><path d="m109.3 140a27.3 27.3 0 0 1 -2.279-54.5 1 1 0 0 1 1.082 1.014l-.467 26.161a.964.964 0 0 0 .009.181l.019.09a1.293 1.293 0 0 0 .049.163.785.785 0 0 0 .1.2 1.213 1.213 0 0 1 .067.1l.117.123 18.317 19.121a1 1 0 0 1 -.1 1.476 27.386 27.386 0 0 1 -16.914 5.871zm-3.217-52.389a25.3 25.3 0 1 0 18.012 45.614l-17.678-18.459a2.535 2.535 0 0 1 -.233-.3 2.838 2.838 0 0 1 -.355-.682 3.261 3.261 0 0 1 -.122-.42l-.025-.121a3.239 3.239 0 0 1 -.046-.581z"/><path d="m110.945 109.717a1 1 0 0 1 -1-1.018l.4-22.23a1 1 0 0 1 .327-.722.966.966 0 0 1 .75-.257 27.347 27.347 0 0 1 19.206 10.181 1 1 0 0 1 -.233 1.46l-18.9 12.422a1.007 1.007 0 0 1 -.55.164zm1.381-22.129-.347 19.253 16.382-10.767a25.361 25.361 0 0 0 -16.035-8.486z"/><path d="m128.7 131.448a1 1 0 0 1 -.722-.309l-16.651-17.374a1 1 0 0 1 .173-1.527l20.176-13.261a1 1 0 0 1 1.421.346 27.312 27.312 0 0 1 -3.66 31.8 1 1 0 0 1 -.726.325zm-15.1-18.2 15.07 15.722a25.317 25.317 0 0 0 3.189-27.72z"/><path d="m115.586 117.765a1 1 0 0 1 -.887-1.461l4.756-9.149a1 1 0 1 1 1.775.923l-4.755 9.149a1 1 0 0 1 -.889.538z"/><path d="m119.083 121.413a1 1 0 0 1 -.887-1.461l9.44-18.169a1 1 0 0 1 1.775.922l-9.439 18.169a1 1 0 0 1 -.889.539z"/><path d="m122.567 125.05a1 1 0 0 1 -.886-1.461l11.071-21.316a1 1 0 1 1 1.775.922l-11.071 21.316a1 1 0 0 1 -.889.539z"/><path d="m126.063 128.7a.985.985 0 0 1 -.459-.113 1 1 0 0 1 -.427-1.348l9.358-18.017a1 1 0 0 1 1.776.921l-9.359 18.018a1 1 0 0 1 -.889.539z"/><path d="m40.281 37.709h-.042a1 1 0 0 1 -.958-1.039c.206-5.059 1.68-9.1 4.379-12a1 1 0 1 1 1.465 1.362c-2.365 2.547-3.659 6.154-3.846 10.723a1 1 0 0 1 -.998.954z"/><path d="m81.688 29.429a1 1 0 0 1 -.923-.618 18.95 18.95 0 0 0 -14.723-11.638 1 1 0 0 1 .25-1.985 20.632 20.632 0 0 1 11.973 6.168 20.857 20.857 0 0 1 4.347 6.69 1 1 0 0 1 -.924 1.383z"/></svg>