<svg id="Layer_1" height="512" viewBox="0 0 150 150" width="512" xmlns="http://www.w3.org/2000/svg" data-name="Layer 1"><path d="m63.178 123.821a53.178 53.178 0 1 1 53.178-53.178c0 1.742-.086 3.5-.255 5.236a1 1 0 1 1 -1.99-.194c.162-1.668.245-3.364.245-5.042a51.124 51.124 0 1 0 -41.674 50.3 1 1 0 0 1 .369 1.966 53.64 53.64 0 0 1 -9.873.912z"/><path d="m63.178 117.327a46.684 46.684 0 1 1 46.684-46.684 47.5 47.5 0 0 1 -.285 5.192 1 1 0 0 1 -1.989-.22 45.229 45.229 0 0 0 .274-4.972 44.635 44.635 0 1 0 -35.207 43.677 1 1 0 1 1 .422 1.955 46.974 46.974 0 0 1 -9.899 1.052z"/><path d="m63.178 35.546a1 1 0 0 1 -1-1v-4.261a1 1 0 1 1 2 0v4.261a1 1 0 0 1 -1 1z"/><path d="m45.13 40.382a1 1 0 0 1 -.867-.5l-2.13-3.69a1 1 0 1 1 1.732-1l2.135 3.69a1 1 0 0 1 -.866 1.5z"/><path d="m31.916 53.594a.993.993 0 0 1 -.5-.133l-3.69-2.131a1 1 0 0 1 1-1.732l3.69 2.13a1 1 0 0 1 -.5 1.866z"/><path d="m27.081 71.643h-4.261a1 1 0 1 1 0-2h4.261a1 1 0 1 1 0 2z"/><path d="m28.228 91.822a1 1 0 0 1 -.5-1.866l3.69-2.131a1 1 0 0 1 1 1.732l-3.69 2.131a1 1 0 0 1 -.5.134z"/><path d="m43 106.594a1 1 0 0 1 -.865-1.5l2.13-3.69a1 1 0 1 1 1.733 1l-2.131 3.69a1 1 0 0 1 -.867.5z"/><path d="m63.178 112a1 1 0 0 1 -1-1v-4.26a1 1 0 0 1 2 0v4.26a1 1 0 0 1 -1 1z"/><path d="m103.536 71.643h-4.261a1 1 0 0 1 0-2h4.261a1 1 0 0 1 0 2z"/><path d="m94.44 53.594a1 1 0 0 1 -.5-1.866l3.69-2.13a1 1 0 1 1 1 1.732l-3.69 2.131a.993.993 0 0 1 -.5.133z"/><path d="m81.225 40.382a1 1 0 0 1 -.865-1.5l2.131-3.69a1 1 0 1 1 1.732 1l-2.13 3.69a1 1 0 0 1 -.868.5z"/><path d="m86.28 71.647h-18.78a1 1 0 0 1 0-2h18.78a1 1 0 0 1 0 2z"/><path d="m62.109 67.46a1 1 0 0 1 -.968-.754l-7.787-30.764a1 1 0 1 1 1.939-.491l7.787 30.764a1 1 0 0 1 -.971 1.245z"/><path d="m63.178 75.967a5.324 5.324 0 1 1 5.322-5.324 5.331 5.331 0 0 1 -5.322 5.324zm0-8.648a3.324 3.324 0 1 0 3.322 3.324 3.328 3.328 0 0 0 -3.322-3.324z"/><path d="m134.509 132.535h-57.152a5.5 5.5 0 0 1 -5.49-5.49v-39.9a5.5 5.5 0 0 1 5.49-5.49h57.152a5.5 5.5 0 0 1 5.49 5.49v39.9a5.5 5.5 0 0 1 -5.49 5.49zm-57.152-48.879a3.494 3.494 0 0 0 -3.49 3.49v39.9a3.494 3.494 0 0 0 3.49 3.49h57.152a3.494 3.494 0 0 0 3.49-3.49v-39.9a3.493 3.493 0 0 0 -3.49-3.49z"/><path d="m105.886 103.05c-6.243 0-12.466-.228-18.63-.683a1 1 0 1 1 .148-1.994 253.97 253.97 0 0 0 37.07 0 1 1 0 1 1 .145 2c-6.232.449-12.492.677-18.733.677z"/><path d="m82.131 101.937c-.031 0-.061 0-.092 0-3.078-.28-6.208-.627-9.3-1.03a1 1 0 1 1 .261-1.987c3.068.4 6.172.743 9.225 1.021a1 1 0 0 1 -.09 2z"/><path d="m129.735 101.937a1 1 0 0 1 -.09-2c3.053-.278 6.157-.621 9.226-1.021a1 1 0 1 1 .258 1.983c-3.094.4-6.224.75-9.3 1.03-.029.007-.063.008-.094.008z"/><path d="m85.837 106.886h-2.221a1 1 0 0 1 -.707-.293l-1.488-1.488a1 1 0 0 1 -.293-.707v-6.898a1 1 0 0 1 1-1h5.2a1 1 0 0 1 1 1v6.9a1 1 0 0 1 -.293.707l-1.488 1.488a1 1 0 0 1 -.71.291zm-1.807-2h1.393l.9-.9v-5.486h-3.2v5.48z"/><path d="m128.25 106.886h-2.221a1 1 0 0 1 -.707-.293l-1.488-1.488a1 1 0 0 1 -.293-.707v-6.898a1 1 0 0 1 1-1h5.2a1 1 0 0 1 1 1v6.9a1 1 0 0 1 -.293.707l-1.488 1.488a1 1 0 0 1 -.71.291zm-1.807-2h1.393l.9-.9v-5.486h-3.2v5.48z"/><path d="m118.066 83.656h-24.266a1 1 0 0 1 -1-1v-3.347a4.589 4.589 0 0 1 4.584-4.584h17.1a4.589 4.589 0 0 1 4.584 4.584v3.347a1 1 0 0 1 -1.002 1zm-23.266-2h22.266v-2.347a2.587 2.587 0 0 0 -2.584-2.584h-17.1a2.587 2.587 0 0 0 -2.582 2.584z"/><path d="m76.89 127.129a1 1 0 0 1 -1-1v-4.244a1 1 0 0 1 2 0v4.244a1 1 0 0 1 -1 1z"/><path d="m76.89 119.082a1 1 0 0 1 -1-1v-11.819a1 1 0 0 1 2 0v11.819a1 1 0 0 1 -1 1z"/></svg>