<svg id="Layer_1" height="512" viewBox="0 0 150 150" width="512" xmlns="http://www.w3.org/2000/svg" data-name="Layer 1"><path d="m75 113.036a36.872 36.872 0 0 1 -36.831-36.831 1 1 0 0 1 1-1h71.662a1 1 0 0 1 1 1 36.872 36.872 0 0 1 -36.831 36.831zm-34.817-35.831a34.831 34.831 0 0 0 69.634 0z"/><path d="m136.768 77.2h-123.536a1 1 0 0 1 0-2h123.536a1 1 0 0 1 0 2z"/><path d="m81.9 138.971h-13.795a1 1 0 0 1 -.987-.841l-2.067-12.872a49.491 49.491 0 0 1 -17.711-7.329l-10.559 7.642a1 1 0 0 1 -1.293-.1l-9.752-9.753a1 1 0 0 1 -.1-1.293l7.641-10.558a49.463 49.463 0 0 1 -7.328-17.712l-12.874-2.055a1 1 0 0 1 -.843-.987v-6.913a1 1 0 0 1 1-1h123.536a1 1 0 0 1 1 1v6.91a1 1 0 0 1 -.843.987l-12.871 2.055a49.463 49.463 0 0 1 -7.328 17.712l7.641 10.558a1 1 0 0 1 -.1 1.293l-9.752 9.753a1 1 0 0 1 -1.293.1l-10.559-7.642a49.5 49.5 0 0 1 -17.711 7.329l-2.07 12.875a1 1 0 0 1 -.982.841zm-12.937-2h12.079l2.043-12.721a1 1 0 0 1 .8-.824 47.527 47.527 0 0 0 18.227-7.542 1 1 0 0 1 1.151.015l10.437 7.551 8.547-8.546-7.547-10.434a1 1 0 0 1 -.014-1.151 47.49 47.49 0 0 0 7.541-18.227 1 1 0 0 1 .826-.8l12.72-2.031v-5.061h-121.541v5.054l12.72 2.031a1 1 0 0 1 .826.8 47.49 47.49 0 0 0 7.541 18.227 1 1 0 0 1 -.014 1.151l-7.552 10.437 8.547 8.55 10.433-7.55a1 1 0 0 1 1.151-.015 47.527 47.527 0 0 0 18.227 7.542 1 1 0 0 1 .8.824z"/><path d="m40.75 77.205a1 1 0 0 1 -1-1v-20.785a4.508 4.508 0 0 0 -4.5-4.5h-11.468a1 1 0 1 1 0-2h11.466a6.51 6.51 0 0 1 6.5 6.5v20.785a1 1 0 0 1 -.998 1z"/><path d="m75 77.21a1 1 0 0 1 -1-1v-51.4a1 1 0 0 1 2 0v51.4a1 1 0 0 1 -1 1z"/><path d="m58.4 76.832a1 1 0 0 1 -1-1v-38.56a4.507 4.507 0 0 0 -4.5-4.5h-14.246a1 1 0 1 1 0-2h14.246a6.51 6.51 0 0 1 6.5 6.5v38.56a1 1 0 0 1 -1 1z"/><path d="m75 25.811a7.391 7.391 0 1 1 7.392-7.391 7.4 7.4 0 0 1 -7.392 7.391zm0-12.782a5.391 5.391 0 1 0 5.392 5.391 5.4 5.4 0 0 0 -5.392-5.391z"/><path d="m32.267 39.164a7.391 7.391 0 1 1 7.39-7.391 7.4 7.4 0 0 1 -7.39 7.391zm0-12.781a5.391 5.391 0 1 0 5.39 5.39 5.4 5.4 0 0 0 -5.39-5.39z"/><path d="m17.391 57.308a7.391 7.391 0 1 1 7.391-7.391 7.4 7.4 0 0 1 -7.391 7.391zm0-12.782a5.391 5.391 0 1 0 5.391 5.391 5.4 5.4 0 0 0 -5.391-5.391z"/><path d="m109.25 77.205a1 1 0 0 1 -1-1v-20.785a6.51 6.51 0 0 1 6.5-6.5h11.466a1 1 0 0 1 0 2h-11.464a4.508 4.508 0 0 0 -4.5 4.5v20.785a1 1 0 0 1 -1.002 1z"/><path d="m91.6 76.832a1 1 0 0 1 -1-1v-38.56a6.51 6.51 0 0 1 6.5-6.5h14.243a1 1 0 0 1 0 2h-14.243a4.507 4.507 0 0 0 -4.5 4.5v38.56a1 1 0 0 1 -1 1z"/><path d="m117.733 39.164a7.391 7.391 0 1 1 7.392-7.391 7.4 7.4 0 0 1 -7.392 7.391zm0-12.781a5.391 5.391 0 1 0 5.392 5.39 5.4 5.4 0 0 0 -5.392-5.39z"/><path d="m132.609 57.308a7.391 7.391 0 1 1 7.391-7.391 7.4 7.4 0 0 1 -7.391 7.391zm0-12.782a5.391 5.391 0 1 0 5.391 5.391 5.4 5.4 0 0 0 -5.391-5.391z"/></svg>