<svg id="Layer_1" height="512" viewBox="0 0 150 150" width="512" xmlns="http://www.w3.org/2000/svg" data-name="Layer 1"><path d="m36.159 94.005a6.231 6.231 0 0 1 -4.782-10.212l4.423-5.337a6.239 6.239 0 0 1 8.775-.813 6.24 6.24 0 0 1 .812 8.776l-4.421 5.335a6.2 6.2 0 0 1 -4.22 2.224c-.197.022-.393.027-.587.027zm4.437-15.8a4.221 4.221 0 0 0 -3.258 1.525l-4.422 5.34a4.231 4.231 0 1 0 6.509 5.407l4.422-5.336a4.231 4.231 0 0 0 -.551-5.959 4.213 4.213 0 0 0 -2.696-.974z"/><path d="m42.235 103.164a6.231 6.231 0 0 1 -4.783-10.212l11.289-13.67a6.231 6.231 0 1 1 9.589 7.959l-11.289 13.67a6.189 6.189 0 0 1 -4.221 2.226q-.294.027-.585.027zm11.309-24.135c-.132 0-.265.006-.4.019a4.2 4.2 0 0 0 -2.865 1.51l-11.287 13.67a4.231 4.231 0 1 0 6.508 5.408l11.289-13.67a4.232 4.232 0 0 0 -3.245-6.937z"/><path d="m54.738 104.489a6.227 6.227 0 0 1 -4.789-10.209l7.45-8.971a6.23 6.23 0 0 1 8.775-.812 6.239 6.239 0 0 1 .813 8.775l-7.45 8.97a6.218 6.218 0 0 1 -4.799 2.247zm7.462-19.431c-.132 0-.264.007-.4.019a4.2 4.2 0 0 0 -2.865 1.51l-7.45 8.97a4.232 4.232 0 1 0 6.515 5.408l7.448-8.965a4.238 4.238 0 0 0 -.552-5.96 4.2 4.2 0 0 0 -2.696-.982z"/><path d="m63.988 109.672a6.232 6.232 0 0 1 -4.783-10.214l3.19-3.84a6.23 6.23 0 0 1 8.775-.812 6.237 6.237 0 0 1 .812 8.773l-3.189 3.842a6.193 6.193 0 0 1 -4.219 2.224c-.196.018-.392.027-.586.027zm3.208-14.3c-.132 0-.264.007-.4.019a4.205 4.205 0 0 0 -2.865 1.51l-3.189 3.84a4.231 4.231 0 1 0 6.51 5.407l3.189-3.841a4.236 4.236 0 0 0 -.552-5.958 4.2 4.2 0 0 0 -2.689-.982z"/><path d="m79.7 109.338c-.141 0-.283 0-.425-.014a6.19 6.19 0 0 1 -4.275-2.115l-3.942-4.509a1 1 0 0 1 1.506-1.316l3.943 4.507a4.231 4.231 0 1 0 6.369-5.571l-6.612-7.56a1 1 0 1 1 1.505-1.316l6.613 7.561a6.232 6.232 0 0 1 -4.682 10.333z"/><path d="m90.068 105.206a6.217 6.217 0 0 1 -4.695-2.126l-12.667-14.48a1 1 0 0 1 1.506-1.316l12.667 14.484a4.231 4.231 0 1 0 6.369-5.571l-12.667-14.488a1 1 0 0 1 1.506-1.317l12.667 14.484a6.227 6.227 0 0 1 -4.686 10.33z"/><path d="m100.246 100.949c-.141 0-.283 0-.425-.014a6.194 6.194 0 0 1 -4.275-2.115l-14.965-17.111a1 1 0 0 1 1.506-1.317l14.965 17.108a4.231 4.231 0 1 0 6.37-5.571l-13.049-14.916a1 1 0 0 1 1.506-1.313l13.049 14.918a6.232 6.232 0 0 1 -4.682 10.334z"/><path d="m111.922 98.406c-.141 0-.283 0-.425-.014a6.19 6.19 0 0 1 -4.275-2.115l-16.849-19.264a1 1 0 0 1 1.506-1.313l16.849 19.264a4.232 4.232 0 0 0 6.37-5.572l-14.008-16.018c-.088-.1-7.857-9.155-16.035-9.935-1.716.6-12.454 4.039-19.835-1.1l-13.932 5.985a5.984 5.984 0 0 1 -6.339-9.97l11.794-10.486a14.412 14.412 0 0 1 10.172-3.489l22.909 1.162a1 1 0 0 1 .515.174l11.378 7.816 6.105-1.993a1 1 0 0 1 1.184.465l15.159 27.227a1 1 0 0 1 -.141 1.167l-7.286 7.835a6.231 6.231 0 0 1 -4.816 10.174zm-27-36.982h.077c9.091.707 17.263 10.237 17.606 10.642l12.811 14.648 6.647-7.149-14.403-25.865-5.791 1.89a1.006 1.006 0 0 1 -.877-.126l-11.552-7.94-22.627-1.148a12.425 12.425 0 0 0 -8.754 3l-11.781 10.472a3.985 3.985 0 0 0 -.082 5.88 3.981 3.981 0 0 0 4.3.759l14.455-6.212a1 1 0 0 1 1 .124c7 5.342 18.5 1.132 18.618 1.089a1 1 0 0 1 .354-.064z"/><path d="m125.808 85.238a1.005 1.005 0 0 1 -.873-.514l-19.501-35.024a1 1 0 0 1 .36-1.345l13.192-7.883a1 1 0 0 1 1.386.373l19.5 35.026a1 1 0 0 1 -.36 1.345l-13.19 7.884a1.008 1.008 0 0 1 -.514.138zm-18.155-35.666 18.528 33.278 11.473-6.856-18.527-33.279z"/><path d="m31.255 85.253a.994.994 0 0 1 -.664-.253l-5.944-5.3a1 1 0 0 1 -.2-1.242l16.12-28.281a1 1 0 0 1 1.312-.4l8.621 4.263a1 1 0 0 1 -.887 1.793l-7.778-3.846-15.253 26.762 5.339 4.757a1 1 0 0 1 -.666 1.747z"/><path d="m23.869 82.493a1 1 0 0 1 -.493-.13l-12.87-7.306a1 1 0 0 1 -.376-1.363l18.617-32.794a1 1 0 0 1 1.341-.389l13.09 6.989a1 1 0 0 1 .4 1.377l-18.839 33.111a1 1 0 0 1 -.87.505zm-11.506-8.681 11.137 6.318 17.83-31.354-11.324-6.039z"/><path d="m97.352 57.6a.994.994 0 0 1 -.565-.176l-6.772-4.652a1 1 0 1 1 1.133-1.649l6.772 4.653a1 1 0 0 1 -.568 1.824z"/><path d="m83.1 51.206h-.052l-16.437-.836a1 1 0 0 1 .1-2l16.442.834a1 1 0 0 1 -.05 2z"/><path d="m20.416 75.6a3.423 3.423 0 1 1 3.423-3.423 3.426 3.426 0 0 1 -3.423 3.423zm0-4.845a1.423 1.423 0 1 0 1.423 1.422 1.424 1.424 0 0 0 -1.423-1.419z"/><path d="m129.5 78.026a3.423 3.423 0 1 1 3.422-3.423 3.427 3.427 0 0 1 -3.422 3.423zm0-4.846a1.423 1.423 0 1 0 1.422 1.423 1.425 1.425 0 0 0 -1.422-1.423z"/></svg>