<svg id="Layer_1" height="512" viewBox="0 0 150 150" width="512" xmlns="http://www.w3.org/2000/svg" data-name="Layer 1"><path d="m96.769 70.878h-44.355a1 1 0 0 1 -1-1v-11.235a10.218 10.218 0 0 1 10.206-10.206h5.063a1 1 0 0 1 .637.229 12.095 12.095 0 0 0 14.543 0 1 1 0 0 1 .637-.229h5.063a10.218 10.218 0 0 1 10.206 10.206v11.235a1 1 0 0 1 -1 1zm-43.355-2h42.355v-10.235a8.216 8.216 0 0 0 -8.206-8.206h-4.712a14.157 14.157 0 0 1 -16.519 0h-4.712a8.215 8.215 0 0 0 -8.206 8.206z"/><path d="m60.1 70.879a1 1 0 0 1 -1-1v-8.779a1 1 0 0 1 2 0v8.784a1 1 0 0 1 -1 .995z"/><path d="m89.06 70.879a1 1 0 0 1 -1-1v-8.779a1 1 0 0 1 2 0v8.784a1 1 0 0 1 -1 .995z"/><path d="m130.5 83.181h-111a3.788 3.788 0 0 1 -3.787-3.781v-6.74a3.788 3.788 0 0 1 3.787-3.783h111a3.788 3.788 0 0 1 3.785 3.783v6.74a3.788 3.788 0 0 1 -3.785 3.781zm-111-12.3a1.786 1.786 0 0 0 -1.785 1.783v6.736a1.786 1.786 0 0 0 1.785 1.781h111a1.786 1.786 0 0 0 1.785-1.783v-6.738a1.786 1.786 0 0 0 -1.785-1.783z"/><path d="m123.827 134.824h-97.654a6.112 6.112 0 0 1 -6.1-6.105v-46.538a1 1 0 0 1 1-1h107.859a1 1 0 0 1 1 1v46.538a6.112 6.112 0 0 1 -6.105 6.105zm-101.759-51.643v45.538a4.11 4.11 0 0 0 4.1 4.105h97.654a4.11 4.11 0 0 0 4.105-4.105v-45.538z"/><path d="m27.306 67.061h-.006a1 1 0 0 1 -.995-1.005l.095-18.273a6.121 6.121 0 0 1 3.817-5.65l3.548-1.449a1 1 0 1 1 .756 1.852l-3.548 1.449a4.123 4.123 0 0 0 -2.573 3.808l-.094 18.273a1 1 0 0 1 -1 .995z"/><path d="m36.961 44.577a4.01 4.01 0 0 1 -3.686-2.45l-.047-.112a4 4 0 0 1 2.134-5.24l.388.921-.388-.921 6.827-2.875a4.008 4.008 0 0 1 5.239 2.134l.049.12a4 4 0 0 1 -2.137 5.233l-6.827 2.874a4 4 0 0 1 -1.552.316zm-.824-5.959a2 2 0 0 0 -1.066 2.619l.047.113a2 2 0 0 0 2.62 1.068l6.827-2.875a2 2 0 0 0 1.066-2.619l-.048-.119a2 2 0 0 0 -2.619-1.061z"/><path d="m21.866 70.928a1 1 0 0 1 -.974-.776 2.781 2.781 0 0 1 -.066-.632c0-2.5 2.895-4.459 6.592-4.459s6.592 1.959 6.592 4.459a2.924 2.924 0 0 1 -.047.537 1 1 0 1 1 -1.963-.357 1.138 1.138 0 0 0 .013-.178c0-1.163-1.885-2.459-4.592-2.459s-4.592 1.3-4.592 2.459a.9.9 0 0 0 .015.185 1 1 0 0 1 -.752 1.2.942.942 0 0 1 -.226.021z"/><path d="m38.007 140h-7.4a1 1 0 0 1 -1-1v-5.176a1 1 0 0 1 1-1h7.4a1 1 0 0 1 1 1v5.176a1 1 0 0 1 -1 1zm-6.4-2h5.4v-3.176h-5.4z"/><path d="m119.391 140h-7.4a1 1 0 0 1 -1-1v-5.176a1 1 0 0 1 1-1h7.4a1 1 0 0 1 1 1v5.176a1 1 0 0 1 -1 1zm-6.4-2h5.4v-3.176h-5.4z"/><path d="m63.148 36.421c-.021 0-.04 0-.061 0a4.275 4.275 0 0 1 -1.8-8.02 1 1 0 1 1 .959 1.755 2.275 2.275 0 0 0 .957 4.269 1 1 0 0 1 -.059 2z"/><path d="m86.121 36.417a1 1 0 0 1 -.057-2 2.275 2.275 0 0 0 1.16-4.146 1 1 0 0 1 1.143-1.641 4.275 4.275 0 0 1 -2.188 7.784z"/><path d="m74.632 48.486c-7.106 0-12.618-7.987-12.618-14.857v-.952a1 1 0 1 1 2 0v.952c0 5.823 4.736 12.857 10.618 12.857s10.626-7.034 10.626-12.857v-.952a1 1 0 0 1 2 0v.952c0 6.871-5.515 14.857-12.626 14.857z"/><path d="m63.014 33.678h-.288a1 1 0 0 1 -.946-.678c-2.595-7.72-2.146-13.315 1.374-17.1a17.257 17.257 0 0 1 5.26-3.939c2.079-1.957 5.958-2.042 8.117-1.914a13.305 13.305 0 0 1 8.636 4.107c3.323 3.383 4.635 7.7 4.011 13.207a14.692 14.692 0 0 1 -1.792 5.8 1.05 1.05 0 0 1 -.888.529h-.244a1 1 0 0 1 -.994-.944c-.131-2.354-.212-3.171-1.052-4.689-.34-.613-1.079-1.641-2.2-1.528a24.6 24.6 0 0 1 -12.619-2.3 1.947 1.947 0 0 0 -2.345.428 14.217 14.217 0 0 0 -3.028 8.025 1 1 0 0 1 -1 1.012zm19.151-9.17a4.418 4.418 0 0 1 3.793 2.567 9.218 9.218 0 0 1 .877 2.08 16.121 16.121 0 0 0 .356-2.026c.559-4.936-.537-8.616-3.451-11.582a11.324 11.324 0 0 0 -7.328-3.512c-3.181-.186-5.625.342-6.709 1.455a1 1 0 0 1 -.316.219 15.064 15.064 0 0 0 -4.768 3.544c-2.482 2.672-3.124 6.4-1.952 11.562a16.182 16.182 0 0 1 2.822-5.434 3.91 3.91 0 0 1 4.762-.972 22.607 22.607 0 0 0 11.578 2.115c.112-.01.224-.016.336-.016z"/><path d="m90.509 129.824h-33a1 1 0 0 1 0-2h33a1 1 0 0 1 0 2z"/><path d="m26.068 129.719a1 1 0 0 1 -1-1v-6.958a1 1 0 0 1 2 0v6.958a1 1 0 0 1 -1 1z"/><path d="m26.068 117.1a1 1 0 0 1 -1-1v-22.839a1 1 0 0 1 2 0v22.839a1 1 0 0 1 -1 1z"/><path d="m82.385 116.993a1 1 0 0 1 -.466-.115l-6.919-3.639-6.92 3.639a1 1 0 0 1 -1.452-1.054l1.323-7.707-5.6-5.457a1 1 0 0 1 .555-1.706l7.737-1.124 3.46-7.011a1.04 1.04 0 0 1 1.793 0l3.461 7.011 7.737 1.124a1 1 0 0 1 .555 1.706l-5.6 5.457 1.322 7.707a1 1 0 0 1 -.986 1.169zm-7.385-5.883a1 1 0 0 1 .465.114l5.592 2.941-1.067-6.228a1 1 0 0 1 .287-.885l4.524-4.41-6.252-.908a1 1 0 0 1 -.753-.547l-2.796-5.666-2.8 5.666a1 1 0 0 1 -.753.547l-6.252.908 4.524 4.41a1 1 0 0 1 .287.885l-1.068 6.228 5.592-2.941a1.006 1.006 0 0 1 .47-.114z"/></svg>