<svg id="Layer_1" height="512" viewBox="0 0 150 150" width="512" xmlns="http://www.w3.org/2000/svg" data-name="Layer 1"><path d="m75 119.77a44.771 44.771 0 1 1 44.771-44.77 44.821 44.821 0 0 1 -44.771 44.77zm0-87.541a42.771 42.771 0 1 0 42.771 42.771 42.819 42.819 0 0 0 -42.771-42.771z"/><path d="m53.442 97.984h-5.423a1 1 0 0 1 -1-1v-20.836a1 1 0 0 1 1-1h5.423a1 1 0 0 1 1 1v20.836a1 1 0 0 1 -1 1zm-4.423-2h3.423v-18.836h-3.423z"/><path d="m69.622 97.984h-5.422a1 1 0 0 1 -1-1v-31.753a1 1 0 0 1 1-1h5.424a1 1 0 0 1 1 1v31.753a1 1 0 0 1 -1.002 1zm-4.424-2h3.424v-29.753h-3.422z"/><path d="m85.8 97.984h-5.422a1 1 0 0 1 -1-1v-25.695a1 1 0 0 1 1-1h5.422a1 1 0 0 1 1 1v25.695a1 1 0 0 1 -1 1zm-4.424-2h3.424v-23.695h-3.422z"/><path d="m101.981 97.984h-5.423a1 1 0 0 1 -1-1v-31.753a1 1 0 0 1 1-1h5.423a1 1 0 0 1 1 1v31.753a1 1 0 0 1 -1 1zm-4.423-2h3.423v-29.753h-3.423z"/><path d="m80.263 63.626a1 1 0 0 1 -.461-.112l-11.01-5.729a1 1 0 0 1 .924-1.775l11.01 5.729a1 1 0 0 1 -.463 1.887z"/><path d="m52.945 67.64a1 1 0 0 1 -.631-1.777l11.586-9.383a1 1 0 1 1 1.26 1.554l-11.586 9.383a1 1 0 0 1 -.629.223z"/><path d="m85.305 62.966a1 1 0 0 1 -.612-1.792l11.465-8.833a1 1 0 1 1 1.221 1.584l-11.465 8.833a1 1 0 0 1 -.609.208z"/><path d="m50.73 72.289a3.852 3.852 0 1 1 3.853-3.852 3.856 3.856 0 0 1 -3.853 3.852zm0-5.7a1.852 1.852 0 1 0 1.853 1.852 1.854 1.854 0 0 0 -1.853-1.856z"/><path d="m66.771 59.348a3.852 3.852 0 1 1 3.851-3.848 3.856 3.856 0 0 1 -3.851 3.848zm0-5.7a1.852 1.852 0 1 0 1.851 1.852 1.854 1.854 0 0 0 -1.851-1.856z"/><path d="m82.95 67.426a3.852 3.852 0 1 1 3.85-3.852 3.856 3.856 0 0 1 -3.85 3.852zm0-5.7a1.852 1.852 0 1 0 1.85 1.848 1.853 1.853 0 0 0 -1.85-1.851z"/><path d="m99.129 55.392a3.852 3.852 0 1 1 3.852-3.851 3.856 3.856 0 0 1 -3.852 3.851zm0-5.7a1.852 1.852 0 1 0 1.852 1.853 1.855 1.855 0 0 0 -1.852-1.857z"/><path d="m106.847 97.984h-63.694a1 1 0 0 1 0-2h63.694a1 1 0 0 1 0 2z"/><path d="m75 32.229a1 1 0 0 1 -1-1v-10.257a1 1 0 0 1 2 0v10.257a1 1 0 0 1 -1 1z"/><path d="m75 21.972a5.986 5.986 0 1 1 5.986-5.986 5.992 5.992 0 0 1 -5.986 5.986zm0-9.972a3.986 3.986 0 1 0 3.986 3.986 3.99 3.99 0 0 0 -3.986-3.986z"/><path d="m49.273 40.589a1 1 0 0 1 -.809-.412l-6.029-8.3a1 1 0 1 1 1.617-1.177l6.029 8.3a1 1 0 0 1 -.808 1.588z"/><path d="m40.32 33.241a5.983 5.983 0 0 1 -4.85-2.466 5.992 5.992 0 1 1 4.851 2.466zm-3.232-3.641a3.986 3.986 0 1 0 .882-5.568 3.989 3.989 0 0 0 -.882 5.568z"/><path d="m33.372 62.475a1.013 1.013 0 0 1 -.309-.05l-9.754-3.17a1 1 0 1 1 .617-1.9l9.755 3.17a1 1 0 0 1 -.309 1.952z"/><path d="m18.87 62.75a5.986 5.986 0 1 1 5.7-4.137 5.964 5.964 0 0 1 -5.7 4.137zm0-9.975a4.005 4.005 0 1 0 1.236.2 3.971 3.971 0 0 0 -1.236-.2z"/><path d="m23.617 92.7a1 1 0 0 1 -.308-1.952l9.754-3.17a1 1 0 0 1 .618 1.9l-9.755 3.169a.979.979 0 0 1 -.309.053z"/><path d="m18.868 99.225a6 6 0 1 1 1.856-.3 6 6 0 0 1 -1.856.3zm0-9.975a3.986 3.986 0 1 0 1.235 7.777 3.986 3.986 0 0 0 -1.235-7.777z"/><path d="m43.242 119.709a1 1 0 0 1 -.807-1.588l6.029-8.3a1 1 0 1 1 1.617 1.179l-6.029 8.3a1 1 0 0 1 -.81.409z"/><path d="m40.305 128.727a5.984 5.984 0 1 1 4.851-2.465 5.982 5.982 0 0 1 -4.851 2.465zm.012-9.969a3.986 3.986 0 1 0 3.22 6.328 3.985 3.985 0 0 0 -3.22-6.328z"/><path d="m75 130.027a1 1 0 0 1 -1-1v-10.257a1 1 0 1 1 2 0v10.257a1 1 0 0 1 -1 1z"/><path d="m75 140a5.987 5.987 0 1 1 5.986-5.986 5.993 5.993 0 0 1 -5.986 5.986zm0-9.973a3.987 3.987 0 1 0 3.986 3.987 3.991 3.991 0 0 0 -3.986-3.987z"/><path d="m106.758 119.709a1 1 0 0 1 -.81-.412l-6.029-8.297a1 1 0 1 1 1.617-1.176l6.029 8.3a1 1 0 0 1 -.807 1.588z"/><path d="m109.7 128.727a5.985 5.985 0 1 1 4.835-9.5 5.983 5.983 0 0 1 -4.836 9.5zm-.012-9.969a3.985 3.985 0 1 0 3.229 1.641 3.964 3.964 0 0 0 -3.234-1.641z"/><path d="m126.383 92.7a.979.979 0 0 1 -.309-.05l-9.755-3.169a1 1 0 0 1 .618-1.9l9.754 3.17a1 1 0 0 1 -.308 1.952z"/><path d="m131.132 99.225a5.988 5.988 0 1 1 1.843-11.683 5.989 5.989 0 0 1 -1.843 11.683zm0-9.975a3.986 3.986 0 1 0 1.228.195 3.952 3.952 0 0 0 -1.231-.195z"/><path d="m116.628 62.475a1 1 0 0 1 -.309-1.952l9.755-3.17a1 1 0 1 1 .617 1.9l-9.754 3.17a1.013 1.013 0 0 1 -.309.052z"/><path d="m131.13 62.75a5.986 5.986 0 0 1 -1.854-11.68 5.986 5.986 0 1 1 1.854 11.68zm0-9.975a3.993 3.993 0 0 0 -1.236.2 3.953 3.953 0 1 0 1.236-.2z"/><path d="m100.727 40.589a1 1 0 0 1 -.808-1.589l6.029-8.3a1 1 0 1 1 1.617 1.175l-6.029 8.3a1 1 0 0 1 -.809.414z"/><path d="m109.68 33.241a5.984 5.984 0 0 1 -4.836-9.5 5.986 5.986 0 1 1 4.835 9.5zm-3.217-8.328a3.987 3.987 0 1 0 5.567-.881 3.99 3.99 0 0 0 -5.567.881z"/><path d="m46.046 51.32a1 1 0 0 1 -.761-1.65 39.329 39.329 0 0 1 21.527-12.87 1 1 0 1 1 .42 1.955 37.317 37.317 0 0 0 -20.425 12.214 1 1 0 0 1 -.761.351z"/></svg>