<svg id="Layer_1" height="512" viewBox="0 0 150 150" width="512" xmlns="http://www.w3.org/2000/svg" data-name="Layer 1"><path d="m55.223 87.731h-.061a6.731 6.731 0 0 1 -6.322-6.713 7.306 7.306 0 0 1 3.831-6.374 1 1 0 0 1 .959 1.756 5.3 5.3 0 0 0 -2.79 4.619 4.73 4.73 0 0 0 4.441 4.717 1 1 0 0 1 -.058 2z"/><path d="m94.763 87.731a1 1 0 0 1 -.059-2 4.73 4.73 0 0 0 4.442-4.717 5.307 5.307 0 0 0 -2.79-4.619 1 1 0 0 1 .959-1.755 7.307 7.307 0 0 1 3.831 6.374 6.731 6.731 0 0 1 -6.323 6.713z"/><path d="m94.994 82.944a.952.952 0 0 1 -.168-.014 1 1 0 0 1 -.833-1l.007-.546c.056-3.217.159-9.206-3.679-13.939a4.16 4.16 0 0 0 -5-.955 30.557 30.557 0 0 1 -4.661 1.567 21.434 21.434 0 0 1 -11.345 0 30.667 30.667 0 0 1 -4.663-1.567 4.164 4.164 0 0 0 -5 .956c-3.835 4.729-3.732 10.716-3.678 13.933l.009.554a1 1 0 0 1 -1.948.33c-4.7-14-4.121-24.294 1.736-30.6l.092-.1a22.011 22.011 0 0 1 16.056-6.826h6.131a22.016 22.016 0 0 1 16.06 6.831l.085.091c5.859 6.308 6.442 16.6 1.737 30.6a1 1 0 0 1 -.938.685zm-23.066-36.205a20.008 20.008 0 0 0 -14.6 6.2l-.082.088c-4.5 4.844-5.508 12.476-3.016 22.732a18.948 18.948 0 0 1 3.88-9.572 6.1 6.1 0 0 1 7.413-1.5 29.518 29.518 0 0 0 4.33 1.441 19.413 19.413 0 0 0 10.284 0 29.416 29.416 0 0 0 4.327-1.441 6.1 6.1 0 0 1 7.412 1.5 18.952 18.952 0 0 1 3.882 9.572c2.49-10.259 1.482-17.89-3.017-22.734l-.077-.082a20.01 20.01 0 0 0 -14.605-6.2z"/><path d="m75.01 105.514c-11.605-.2-21.018-10.027-21.018-21.916v-1.654a1 1 0 0 1 2 0v1.656c0 10.622 8.709 19.742 19.018 19.916 10.274-.176 18.983-9.296 18.983-19.916v-1.656a1 1 0 0 1 2 0v1.656c0 11.887-9.413 21.718-20.983 21.914z"/><path d="m46.448 139.973a1 1 0 0 1 -1-1v-15.926a1 1 0 0 1 2 0v15.926a1 1 0 0 1 -1 1z"/><path d="m117.367 139.977h-84.251a1 1 0 0 1 -1-1v-8.7a21.562 21.562 0 0 1 3.3-11.78c5.485-8.507 22.131-11.447 26.9-12.125l1.361-5.287a1 1 0 1 1 1.937.5l-1.528 5.938a1 1 0 0 1 -.84.742c-9.946 1.292-22.04 4.943-26.151 11.32a19.57 19.57 0 0 0 -2.979 10.694v7.7h82.251v-7.7a19.636 19.636 0 0 0 -2.977-10.694c-4.12-6.377-16.211-10.029-26.153-11.32a1 1 0 0 1 -.84-.741l-1.608-6.232a1 1 0 0 1 1.938-.5l1.44 5.582c4.768.678 21.406 3.617 26.9 12.126a21.624 21.624 0 0 1 3.3 11.779v8.7a1 1 0 0 1 -1 .998z"/><path d="m104.032 139.973a1 1 0 0 1 -1-1v-15.926a1 1 0 0 1 2 0v15.926a1 1 0 0 1 -1 1z"/><path d="m75.274 116.3h-.033c-7.347 0-14.1-2.938-17.611-7.667a1 1 0 0 1 1.6-1.193c3.145 4.231 9.279 6.86 16.007 6.86h.031c6.714 0 12.829-2.627 15.965-6.859a1 1 0 0 1 1.608 1.192c-3.502 4.727-10.234 7.667-17.567 7.667z"/><path d="m48.113 44.472a1.015 1.015 0 0 1 -.466-.114l-7.768-4.085-7.769 4.085a1 1 0 0 1 -1.451-1.058l1.484-8.651-6.286-6.126a1 1 0 0 1 .555-1.706l8.688-1.259 3.884-7.871a1.041 1.041 0 0 1 1.793 0l3.885 7.871 8.686 1.262a1 1 0 0 1 .554 1.706l-6.286 6.126 1.484 8.648a1 1 0 0 1 -.986 1.169zm-19.413-15.964 5.211 5.079a1 1 0 0 1 .287.885l-1.229 7.172 6.44-3.386a1 1 0 0 1 .932 0l6.44 3.386-1.23-7.172a1 1 0 0 1 .287-.885l5.211-5.079-7.2-1.046a1 1 0 0 1 -.753-.548l-3.221-6.525-3.221 6.525a1 1 0 0 1 -.753.548z"/><path d="m101.887 44.472a1 1 0 0 1 -.987-1.172l1.485-8.651-6.285-6.123a1 1 0 0 1 .554-1.706l8.686-1.262 3.885-7.871a1.041 1.041 0 0 1 1.793 0l3.884 7.871 8.686 1.262a1 1 0 0 1 .555 1.706l-6.286 6.126 1.484 8.651a1 1 0 0 1 -1.451 1.055l-7.769-4.085-7.768 4.085a1.015 1.015 0 0 1 -.466.114zm8.234-6.329a1 1 0 0 1 .466.115l6.44 3.386-1.227-7.172a1 1 0 0 1 .287-.885l5.211-5.079-7.2-1.046a1 1 0 0 1 -.753-.548l-3.221-6.525-3.224 6.525a1 1 0 0 1 -.753.548l-7.2 1.046 5.211 5.079a1 1 0 0 1 .287.885l-1.23 7.172 6.44-3.386a1 1 0 0 1 .466-.115z"/><path d="m84.818 42.194a1 1 0 0 1 -.465-.115l-9.353-4.917-9.353 4.917a1 1 0 0 1 -1.447-1.054l1.782-10.415-7.566-7.376a1 1 0 0 1 .555-1.705l10.456-1.52 4.673-9.474a1.04 1.04 0 0 1 1.792 0l4.677 9.474 10.456 1.52a1 1 0 0 1 .555 1.705l-7.562 7.376 1.782 10.415a1 1 0 0 1 -.986 1.169zm-9.818-7.162a1 1 0 0 1 .466.115l8.024 4.219-1.532-8.936a1 1 0 0 1 .287-.884l6.492-6.329-8.971-1.3a1 1 0 0 1 -.753-.547l-4.013-8.134-4.013 8.13a1 1 0 0 1 -.753.547l-8.971 1.3 6.492 6.329a1 1 0 0 1 .287.884l-1.532 8.94 8.024-4.219a1 1 0 0 1 .466-.115z"/><path d="m59.6 56.067a1 1 0 0 1 -.73-1.684 17.888 17.888 0 0 1 13.055-5.525 1 1 0 0 1 0 2 15.885 15.885 0 0 0 -11.6 4.892 1 1 0 0 1 -.725.317z"/><path d="m106.729 118.447a1 1 0 0 1 -.529-.152 42.692 42.692 0 0 0 -12.309-4.741 1 1 0 0 1 .468-1.944 45.737 45.737 0 0 1 12.9 4.99 1 1 0 0 1 -.532 1.847z"/></svg>