<svg id="Layer_1" height="512" viewBox="0 0 150 150" width="512" xmlns="http://www.w3.org/2000/svg" data-name="Layer 1"><path d="m101.756 88.725h-53.508a7.5 7.5 0 0 1 -7.464-8.185l5.616-60.657a11 11 0 0 1 10.961-9.883h35.282a11 11 0 0 1 10.964 9.871l5.613 60.668a7.5 7.5 0 0 1 -7.464 8.186zm-44.395-76.725a9.007 9.007 0 0 0 -8.976 8.08l-5.609 60.644a5.5 5.5 0 0 0 5.472 6h53.508a5.5 5.5 0 0 0 5.472-6l-5.611-60.657a9 9 0 0 0 -8.974-8.067z"/><path d="m106.11 105.979h-62.21a4.741 4.741 0 0 1 -4.737-4.736v-1.3a6.836 6.836 0 0 1 6.828-6.827h58.033a6.836 6.836 0 0 1 6.828 6.828v1.3a4.741 4.741 0 0 1 -4.742 4.735zm-60.124-10.863a4.833 4.833 0 0 0 -4.828 4.827v1.3a2.739 2.739 0 0 0 2.737 2.736h62.215a2.739 2.739 0 0 0 2.737-2.736v-1.3a4.834 4.834 0 0 0 -4.828-4.828z"/><path d="m76 112.226h-2a4.916 4.916 0 0 1 -4.91-4.911v-2.336a1 1 0 0 1 1-1h9.82a1 1 0 0 1 1 1v2.336a4.916 4.916 0 0 1 -4.91 4.911zm-4.906-6.247v1.336a2.914 2.914 0 0 0 2.906 2.911h2a2.914 2.914 0 0 0 2.91-2.911v-1.336z"/><path d="m72.572 123.432a1 1 0 0 1 -1-1v-11.486a1 1 0 0 1 2 0v11.486a1 1 0 0 1 -1 1z"/><path d="m77.437 123.432a1 1 0 0 1 -1-1v-11.492a1 1 0 0 1 2 0v11.492a1 1 0 0 1 -1 1z"/><path d="m58.949 134.583a1 1 0 0 1 -.635-1.773l13.624-11.152a1 1 0 0 1 .634-.226h4.865a1 1 0 0 1 .634.226l13.614 11.152a1 1 0 0 1 -1.268 1.547l-13.337-10.925h-4.15l-13.348 10.925a1 1 0 0 1 -.633.226z"/><path d="m57.445 140a3.92 3.92 0 1 1 3.919-3.919 3.923 3.923 0 0 1 -3.919 3.919zm0-5.839a1.92 1.92 0 1 0 1.919 1.92 1.922 1.922 0 0 0 -1.919-1.92z"/><path d="m92.56 140a3.92 3.92 0 1 1 3.919-3.919 3.924 3.924 0 0 1 -3.919 3.919zm0-5.839a1.92 1.92 0 1 0 1.919 1.92 1.922 1.922 0 0 0 -1.919-1.92z"/><path d="m75 137.836a3.919 3.919 0 1 1 3.92-3.919 3.923 3.923 0 0 1 -3.92 3.919zm0-5.836a1.919 1.919 0 1 0 1.92 1.919 1.921 1.921 0 0 0 -1.92-1.919z"/><path d="m75 132a1 1 0 0 1 -1-1v-8.566a1 1 0 0 1 2 0v8.566a1 1 0 0 1 -1 1z"/><path d="m40.159 101.083a1.02 1.02 0 0 1 -.135-.009 9.15 9.15 0 0 1 -6.332-3.923 9 9 0 0 1 -1.435-4.145l-1.9-17.531a1 1 0 0 1 1.989-.215l1.9 17.532a7.04 7.04 0 0 0 1.1 3.235 7.142 7.142 0 0 0 4.945 3.065 1 1 0 0 1 -.133 1.991z"/><path d="m33.355 76.368h-4.355a4.395 4.395 0 1 1 0-8.789h4.355a4.395 4.395 0 1 1 0 8.789zm-4.355-6.789a2.395 2.395 0 1 0 0 4.789h4.355a2.395 2.395 0 1 0 0-4.789z"/><path d="m109.841 101.083a1 1 0 0 1 -.133-1.991 7.142 7.142 0 0 0 4.945-3.065 7.04 7.04 0 0 0 1.1-3.235l1.9-17.532a1 1 0 1 1 1.989.215l-1.9 17.531a9 9 0 0 1 -1.435 4.145 9.15 9.15 0 0 1 -6.332 3.923 1.032 1.032 0 0 1 -.134.009z"/><path d="m121 76.368h-4.354a4.395 4.395 0 1 1 0-8.789h4.354a4.395 4.395 0 1 1 0 8.789zm-4.354-6.789a2.395 2.395 0 1 0 0 4.789h4.354a2.395 2.395 0 1 0 0-4.789z"/><path d="m79.138 95.116h-8.272a1 1 0 0 1 -1-1v-6.391a1 1 0 0 1 1-1h8.272a1 1 0 0 1 1 1v6.391a1 1 0 0 1 -1 1zm-7.272-2h6.272v-4.391h-6.272z"/><path d="m48.643 72.6c-.028 0-.055 0-.083 0a1 1 0 0 1 -.915-1.079l2.432-29.521a1 1 0 0 1 1.994.164l-2.432 29.513a1 1 0 0 1 -.996.923z"/><path d="m51.836 37.012a.892.892 0 0 1 -.1-.005 1 1 0 0 1 -.894-1.095l1.198-11.912a1 1 0 1 1 1.99.2l-1.2 11.917a1 1 0 0 1 -.994.895z"/></svg>