<svg id="Layer_1" height="512" viewBox="0 0 150 150" width="512" xmlns="http://www.w3.org/2000/svg" data-name="Layer 1"><path d="m91.805 140h-62.467a1 1 0 0 1 -.837-1.547 41.755 41.755 0 0 0 6.756-23.253c.85-8.583-1.558-16.7-7.575-25.652-7.282-10.837-10.803-23.448-9.913-35.523 1.3-17.625 10.741-31.873 25.901-39.095a52.457 52.457 0 0 1 17.773-4.63c20.017-1.85 36.933 4.765 47.635 18.622 8.767 11.013 12.45 20.954 11.25 30.377a17.108 17.108 0 0 0 2.988 11.82c5.8 8.447 8.84 13.948 9.036 16.348a3.8 3.8 0 0 1 -1.028 2.956c-1.832 1.988-5.692 2.556-7.885 2.717a14.181 14.181 0 0 1 1.363 4.786c0 1.5-1.3 2.459-2.541 3.039a3.92 3.92 0 0 1 .668 1.261 3.42 3.42 0 0 1 -1.054 3.836 6.511 6.511 0 0 0 -1.5 1.629 1.24 1.24 0 0 0 0 1.343c1.145 1.786 2.19 5.306.665 11.93a6.462 6.462 0 0 1 -3.2 4.242c-6 3.5-18.474.578-22.208-.415l-2.846 14.409a1 1 0 0 1 -.981.8zm-60.664-2h59.842l2.893-14.658a1 1 0 0 1 .464-.661 1 1 0 0 1 .8-.1c.154.046 15.482 4.522 21.689.9a4.478 4.478 0 0 0 2.258-2.962c1.441-6.261.368-9.2-.4-10.4a3.239 3.239 0 0 1 .011-3.514 8.487 8.487 0 0 1 1.964-2.128 1.48 1.48 0 0 0 .361-1.636 1.461 1.461 0 0 0 -1.225-1.11 1 1 0 0 1 -.17-1.979c1.3-.269 3.173-1.072 3.173-1.819 0-1.427-1.3-4.287-1.8-5.269a1 1 0 0 1 .89-1.454c1.669 0 6.352-.389 7.961-2.136a1.783 1.783 0 0 0 .5-1.437c-.076-.928-1.075-4.284-8.691-15.379a19.1 19.1 0 0 1 -3.324-13.205c1.128-8.859-2.417-18.31-10.839-28.89-10.272-13.314-26.562-19.65-45.871-17.869a50.487 50.487 0 0 0 -17.1 4.441c-14.491 6.906-23.518 20.551-24.764 37.438-.857 11.627 2.545 23.792 9.58 34.255 6.29 9.357 8.8 17.894 7.909 26.867a43.686 43.686 0 0 1 -6.111 22.705z"/><path d="m114.378 59.54a.917.917 0 0 1 -.128-.008 1 1 0 0 1 -.866-1.118c.86-6.752-1.685-14.109-7.78-22.49a1 1 0 0 1 1.617-1.177c6.409 8.814 9.074 16.637 8.147 23.92a1 1 0 0 1 -.99.873z"/><path d="m101.5 30.335a1 1 0 0 1 -.722-.308 40.466 40.466 0 0 0 -13.589-9.3 1 1 0 1 1 .778-1.843 42.465 42.465 0 0 1 14.255 9.756 1 1 0 0 1 -.722 1.691z"/><path d="m68.7 81.058a26.843 26.843 0 1 1 26.842-26.843 26.874 26.874 0 0 1 -26.842 26.843zm0-51.685a24.843 24.843 0 1 0 24.842 24.842 24.87 24.87 0 0 0 -24.842-24.842z"/><path d="m68.7 63.456a1 1 0 0 1 -1-1v-2.731a6.58 6.58 0 0 1 3.572-5.9 5.793 5.793 0 1 0 -8.366-5.2 1 1 0 1 1 -2 0 7.795 7.795 0 1 1 11.252 6.99 4.567 4.567 0 0 0 -2.458 4.1v2.731a1 1 0 0 1 -1 1.01z"/><path d="m68.7 67.583a1 1 0 0 1 -1-1v-.663a1 1 0 0 1 2 0v.663a1 1 0 0 1 -1 1z"/><path d="m47.958 53.237c-.031 0-.063 0-.095 0a1 1 0 0 1 -.9-1.09 21.854 21.854 0 0 1 13.045-17.947 1 1 0 0 1 .8 1.833 19.854 19.854 0 0 0 -11.854 16.3 1 1 0 0 1 -.996.904z"/><path d="m83.905 69.432a1 1 0 0 1 -.731-1.683 19.972 19.972 0 0 0 4.533-7.868 1 1 0 0 1 1.916.572 21.97 21.97 0 0 1 -4.987 8.661 1 1 0 0 1 -.731.318z"/></svg>