<svg id="Layer_1" height="512" viewBox="0 0 150 150" width="512" xmlns="http://www.w3.org/2000/svg" data-name="Layer 1"><path d="m72.536 139.5a23.511 23.511 0 0 1 -11.679-3.1l-26.287-14.319a1 1 0 1 1 .956-1.757l26.306 14.325a21.532 21.532 0 0 0 17.175 1.851l54.158-27.959a.967.967 0 0 1 .128-.055 7.08 7.08 0 0 0 4.357-8.842 7.555 7.555 0 0 0 -3.9-4.422 5.708 5.708 0 0 0 -4.573-.2c-2.745 1.1-5.645 2.389-8.714 3.758-10.758 4.8-22.948 10.24-33.417 9.156a1 1 0 1 1 .2-1.989c9.938 1.026 21.869-4.3 32.4-8.993 3.088-1.378 6-2.679 8.788-3.79a7.694 7.694 0 0 1 6.16.247 9.587 9.587 0 0 1 4.951 5.61 9.093 9.093 0 0 1 -5.528 11.329l-54.168 27.963a.923.923 0 0 1 -.152.064 23.433 23.433 0 0 1 -7.161 1.123z"/><path d="m85.213 108.211h-.092l-19.662-.218a1 1 0 0 1 .011-2h.012l19.661.218a6 6 0 1 0 .067-12h-21.579a1 1 0 0 1 -.985-.83c-1.464-8.521-10.458-11.938-27.5-10.447a1 1 0 1 1 -.175-1.992c17.747-1.555 27.4 2.134 29.479 11.269h20.76a8 8 0 0 1 0 16z"/><path d="m35.048 126.219-24.048-.011a1 1 0 0 1 -1-1v-47.371a1 1 0 0 1 1-1h24.059a1 1 0 0 1 1 1l-.011 47.382a1 1 0 0 1 -1 1zm-23.048-2.01 22.044.01.011-45.382h-22.055z"/><path d="m23.91 90.441a4.061 4.061 0 1 1 4.061-4.06 4.065 4.065 0 0 1 -4.061 4.06zm0-6.121a2.061 2.061 0 1 0 2.061 2.061 2.062 2.062 0 0 0 -2.061-2.061z"/><path d="m82.005 131.448a1 1 0 0 1 -.46-1.888l19.5-10.068a1 1 0 0 1 .918 1.778l-19.5 10.067a.994.994 0 0 1 -.458.111z"/><path d="m109.255 117.38a1 1 0 0 1 -.46-1.889l9.75-5.033a1 1 0 0 1 .918 1.777l-9.75 5.034a1.007 1.007 0 0 1 -.458.111z"/><path d="m16 110.1a1 1 0 0 1 -1-1v-13.334a1 1 0 1 1 2 0v13.334a1 1 0 0 1 -1 1z"/><path d="m16 121.21a1 1 0 0 1 -1-1v-6.277a1 1 0 1 1 2 0v6.277a1 1 0 0 1 -1 1z"/><path d="m72.373 80.6h-10.38a1 1 0 0 1 -1-1v-36.763a1 1 0 0 1 1-1h10.38a1 1 0 0 1 1 1v36.763a1 1 0 0 1 -1 1zm-9.38-2h8.38v-34.763h-8.38z"/><path d="m89.887 80.6h-10.378a1 1 0 0 1 -1-1v-53.068a1 1 0 0 1 1-1h10.378a1 1 0 0 1 1 1v53.068a1 1 0 0 1 -1 1zm-9.378-2h8.378v-51.068h-8.378z"/><path d="m107.4 80.6h-10.377a1 1 0 0 1 -1-1v-41.373a1 1 0 0 1 1-1h10.377a1 1 0 0 1 1 1v41.373a1 1 0 0 1 -1 1zm-9.38-2h8.38v-39.373h-8.38z"/><path d="m124.917 80.6h-10.379a1 1 0 0 1 -1-1v-44.778a1 1 0 0 1 1-1h10.379a1 1 0 0 1 1 1v44.778a1 1 0 0 1 -1 1zm-9.379-2h8.379v-42.778h-8.379z"/><path d="m129.316 80.6h-71.716a1 1 0 0 1 0-2h71.721a1 1 0 0 1 0 2z"/><path d="m100.349 27.506a.993.993 0 0 1 -.6-.2l-12.982-9.68a1 1 0 1 1 1.2-1.6l12.981 9.674a1 1 0 0 1 -.6 1.8z"/><path d="m106.141 28.741a1 1 0 0 1 -.278-1.961l10.037-2.9a1 1 0 1 1 .555 1.921l-10.036 2.9a.994.994 0 0 1 -.278.04z"/><path d="m69.8 27.55a1 1 0 0 1 -.619-1.786l12.29-9.664a1 1 0 0 1 1.236 1.572l-12.292 9.664a1 1 0 0 1 -.615.214z"/><path d="m119.366 28.207a4.331 4.331 0 1 1 4.331-4.33 4.336 4.336 0 0 1 -4.331 4.33zm0-6.661a2.331 2.331 0 1 0 2.331 2.331 2.334 2.334 0 0 0 -2.331-2.331z"/><path d="m84.7 19.166a4.331 4.331 0 1 1 4.331-4.331 4.336 4.336 0 0 1 -4.331 4.331zm0-6.661a2.331 2.331 0 1 0 2.331 2.33 2.332 2.332 0 0 0 -2.331-2.33z"/><path d="m67.185 32.932a4.331 4.331 0 1 1 4.331-4.33 4.335 4.335 0 0 1 -4.331 4.33zm0-6.661a2.331 2.331 0 1 0 2.331 2.329 2.333 2.333 0 0 0 -2.331-2.329z"/><path d="m102.935 32.932a4.331 4.331 0 1 1 4.33-4.33 4.335 4.335 0 0 1 -4.33 4.33zm0-6.661a2.331 2.331 0 1 0 2.33 2.331 2.334 2.334 0 0 0 -2.33-2.331z"/><path d="m62 47.55a1 1 0 0 1 -.495-1.87l6.54-3.71a1 1 0 0 1 .987 1.74l-6.539 3.71a1 1 0 0 1 -.493.13z"/><path d="m62 54.08a1 1 0 0 1 -.494-1.87l10.38-5.88a1 1 0 1 1 .985 1.74l-10.384 5.88a1 1 0 0 1 -.487.13z"/><path d="m62 60.61a1 1 0 0 1 -.494-1.87l10.38-5.88a1 1 0 1 1 .985 1.74l-10.384 5.88a.988.988 0 0 1 -.487.13z"/><path d="m62 67.14a1 1 0 0 1 -.494-1.87l10.38-5.88a1 1 0 1 1 .985 1.74l-10.384 5.88a1 1 0 0 1 -.487.13z"/><path d="m62 73.68a1 1 0 0 1 -.494-1.87l10.38-5.88a1 1 0 1 1 .985 1.74l-10.384 5.88a1 1 0 0 1 -.487.13z"/><path d="m62 80.21a1 1 0 0 1 -.494-1.87l10.38-5.88a1 1 0 1 1 .985 1.74l-10.384 5.88a.988.988 0 0 1 -.487.13z"/><path d="m97.025 44.24a1 1 0 0 1 -.5-1.87l8.84-5.01a1 1 0 1 1 .987 1.74l-8.84 5.01a1 1 0 0 1 -.487.13z"/><path d="m97.025 50.77a1 1 0 0 1 -.494-1.87l10.38-5.88a1 1 0 1 1 .985 1.74l-10.38 5.88a.982.982 0 0 1 -.491.13z"/><path d="m97.025 57.31a1 1 0 0 1 -.5-1.87l10.38-5.889a1 1 0 1 1 .987 1.739l-10.38 5.889a.986.986 0 0 1 -.487.131z"/><path d="m97.025 63.84a1 1 0 0 1 -.5-1.87l10.38-5.89a1 1 0 0 1 .987 1.74l-10.38 5.89a1 1 0 0 1 -.487.13z"/><path d="m97.025 70.37a1 1 0 0 1 -.5-1.87l10.38-5.889a1 1 0 1 1 .987 1.739l-10.38 5.89a1 1 0 0 1 -.487.13z"/><path d="m97.025 76.9a1 1 0 0 1 -.494-1.87l10.38-5.88a1 1 0 1 1 .985 1.74l-10.38 5.88a.982.982 0 0 1 -.491.13z"/><path d="m102.034 80.6a1 1 0 0 1 -.494-1.87l5.37-3.05a1 1 0 0 1 .987 1.74l-5.37 3.049a.99.99 0 0 1 -.493.131z"/></svg>