<svg id="Layer_1" height="512" viewBox="0 0 150 150" width="512" xmlns="http://www.w3.org/2000/svg" data-name="Layer 1"><path d="m75 116.856a41.856 41.856 0 1 1 41.857-41.856 41.9 41.9 0 0 1 -41.857 41.856zm0-81.712a39.856 39.856 0 1 0 39.857 39.856 39.9 39.9 0 0 0 -39.857-39.856z"/><path d="m75 35.144a1 1 0 0 1 -1-1v-11.47a1 1 0 0 1 2 0v11.47a1 1 0 0 1 -1 1z"/><path d="m75 23.678a5.4 5.4 0 1 1 5.4-5.4 5.409 5.409 0 0 1 -5.4 5.4zm0-8.805a3.4 3.4 0 1 0 3.4 3.4 3.406 3.406 0 0 0 -3.4-3.4z"/><path d="m50.987 42.947a1 1 0 0 1 -.81-.412l-6.741-9.28a1 1 0 1 1 1.618-1.175l6.746 9.279a1 1 0 0 1 -.809 1.588z"/><path d="m41.671 34.513a5.51 5.51 0 0 1 -.857-.068 5.4 5.4 0 0 1 -2.331-9.707 5.4 5.4 0 1 1 3.187 9.775zm-2.012-8.157a3.4 3.4 0 0 0 1.468 6.113 3.4 3.4 0 0 0 3.285-5.36 3.407 3.407 0 0 0 -4.753-.753z"/><path d="m36.145 63.375a1.007 1.007 0 0 1 -.309-.049l-10.909-3.544a1 1 0 1 1 .619-1.9l10.908 3.545a1 1 0 0 1 -.309 1.951z"/><path d="m21.049 62.874a5.4 5.4 0 1 1 5.142-3.733 5.373 5.373 0 0 1 -5.142 3.733zm0-8.807a3.407 3.407 0 1 0 1.055.168 3.395 3.395 0 0 0 -1.055-.168z"/><path d="m25.236 92.17a1 1 0 0 1 -.309-1.952l10.909-3.544a1 1 0 1 1 .618 1.9l-10.908 3.547a1.018 1.018 0 0 1 -.31.049z"/><path d="m21.047 97.934a5.416 5.416 0 1 1 1.675-.267 5.377 5.377 0 0 1 -1.675.267zm.01-8.809a3.4 3.4 0 0 0 -3.24 4.455 3.4 3.4 0 1 0 3.24-4.455z"/><path d="m44.244 118.333a1 1 0 0 1 -.808-1.588l6.741-9.28a1 1 0 0 1 1.619 1.176l-6.742 9.279a1 1 0 0 1 -.81.413z"/><path d="m41.652 126.292a5.374 5.374 0 0 1 -3.168-1.03 5.408 5.408 0 1 1 3.169 1.03zm-1.993-2.648a3.4 3.4 0 1 0 -1.36-2.22 3.407 3.407 0 0 0 1.36 2.22z"/><path d="m75 128.326a1 1 0 0 1 -1-1v-11.47a1 1 0 0 1 2 0v11.47a1 1 0 0 1 -1 1z"/><path d="m75 137.127a5.4 5.4 0 1 1 5.4-5.4 5.408 5.408 0 0 1 -5.4 5.4zm0-8.805a3.4 3.4 0 1 0 3.4 3.4 3.407 3.407 0 0 0 -3.4-3.4z"/><path d="m105.758 118.333a1 1 0 0 1 -.81-.413l-6.741-9.279a1 1 0 1 1 1.618-1.176l6.741 9.28a1 1 0 0 1 -.808 1.588z"/><path d="m108.35 126.292a5.4 5.4 0 1 1 3.169-1.03 5.377 5.377 0 0 1 -3.169 1.03zm-.014-8.804a3.4 3.4 0 1 0 2.007 6.156 3.4 3.4 0 0 0 -2.007-6.156z"/><path d="m124.766 92.17a1.012 1.012 0 0 1 -.309-.049l-10.909-3.545a1 1 0 1 1 .619-1.9l10.908 3.544a1 1 0 0 1 -.309 1.952z"/><path d="m128.955 97.934a5.435 5.435 0 0 1 -1.675-.267 5.4 5.4 0 1 1 6.807-3.469 5.413 5.413 0 0 1 -5.132 3.736zm-.009-8.809a3.4 3.4 0 1 0 3.239 4.455 3.406 3.406 0 0 0 -3.239-4.455z"/><path d="m113.858 63.375a1 1 0 0 1 -.31-1.951l10.909-3.545a1 1 0 0 1 .618 1.9l-10.908 3.544a1.012 1.012 0 0 1 -.309.052z"/><path d="m128.944 62.876a5.409 5.409 0 1 1 1.675-.267 5.376 5.376 0 0 1 -1.675.267zm.009-8.809a3.422 3.422 0 0 0 -1.055.168 3.4 3.4 0 1 0 4.287 2.185 3.405 3.405 0 0 0 -3.232-2.353z"/><path d="m99.015 42.947a1 1 0 0 1 -.808-1.588l6.741-9.279a1 1 0 1 1 1.618 1.175l-6.741 9.28a1 1 0 0 1 -.81.412z"/><path d="m108.332 34.513a5.422 5.422 0 1 1 .856-.068 5.632 5.632 0 0 1 -.856.068zm.018-8.807a3.505 3.505 0 0 0 -.539.042 3.4 3.4 0 1 0 2.532.608 3.377 3.377 0 0 0 -1.993-.65z"/><path d="m96.349 98.4h-42.7a6.059 6.059 0 0 1 -6.053-6.053v-28.827a6.059 6.059 0 0 1 6.053-6.053h42.7a6.059 6.059 0 0 1 6.051 6.053v28.829a6.059 6.059 0 0 1 -6.051 6.051zm-42.7-38.935a4.057 4.057 0 0 0 -4.053 4.053v28.831a4.057 4.057 0 0 0 4.05 4.051h42.7a4.057 4.057 0 0 0 4.053-4.053v-28.827a4.057 4.057 0 0 0 -4.053-4.053z"/><path d="m83.445 59.466h-16.9a1 1 0 0 1 -1-1v-3.19a3.683 3.683 0 0 1 3.683-3.676h11.539a3.682 3.682 0 0 1 3.678 3.678v3.19a1 1 0 0 1 -1 .998zm-15.9-2h14.9v-2.19a1.68 1.68 0 0 0 -1.678-1.676h-11.539a1.68 1.68 0 0 0 -1.679 1.678z"/><path d="m75 76.594c-4.977 0-9.956-.162-14.9-.487a1 1 0 1 1 .13-2 226.011 226.011 0 0 0 29.536 0 1 1 0 0 1 .131 2c-4.938.325-9.914.487-14.897.487z"/><path d="m56.005 75.8a.806.806 0 0 1 -.085 0c-2.691-.228-5.125-.47-7.443-.738a1 1 0 1 1 .231-1.987c2.3.266 4.711.506 7.38.732a1 1 0 0 1 -.083 2z"/><path d="m93.988 75.8a1 1 0 0 1 -.084-2c2.693-.228 5.111-.468 7.391-.732a1 1 0 0 1 .23 1.987c-2.3.266-4.738.508-7.452.738a.806.806 0 0 1 -.085.007z"/><path d="m58.086 79.93a1 1 0 0 1 -.381-.076c-.634-.261-2.7-1.239-2.7-2.844v-4.374a1 1 0 0 1 1-1h4.164a1 1 0 0 1 1 1v4.374c0 1.6-2.067 2.583-2.7 2.844a1 1 0 0 1 -.383.076zm-1.086-6.294v3.374a2.978 2.978 0 0 0 1.082.815 2.726 2.726 0 0 0 1.086-.851v-3.338z"/><path d="m91.907 79.93a1.014 1.014 0 0 1 -.383-.076c-.631-.262-2.69-1.24-2.69-2.844v-4.374a1 1 0 0 1 1-1h4.155a1 1 0 0 1 1 1v4.374c0 1.6-2.067 2.583-2.7 2.844a1 1 0 0 1 -.382.076zm-1.073-6.294v3.374a2.934 2.934 0 0 0 1.074.814 2.72 2.72 0 0 0 1.085-.85v-3.338z"/></svg>