<svg id="Layer_1" height="512" viewBox="0 0 150 150" width="512" xmlns="http://www.w3.org/2000/svg" data-name="Layer 1"><path d="m27.989 118.336h-11.689a1 1 0 0 1 -1-1v-41.388a1 1 0 0 1 1-1h11.689a1 1 0 0 1 1 1v41.388a1 1 0 0 1 -1 1zm-10.686-2h9.686v-39.388h-9.689z"/><path d="m47.709 118.336h-11.686a1 1 0 0 1 -1-1v-59.745a1 1 0 0 1 1-1h11.686a1 1 0 0 1 1 1v59.745a1 1 0 0 1 -1 1zm-10.686-2h9.686v-57.745h-9.686z"/><path d="m67.429 118.336h-11.686a1 1 0 0 1 -1-1v-46.578a1 1 0 0 1 1-1h11.686a1 1 0 0 1 1 1v46.578a1 1 0 0 1 -1 1zm-10.686-2h9.686v-44.578h-9.686z"/><path d="m87.149 118.336h-11.686a1 1 0 0 1 -1-1v-50.412a1 1 0 0 1 1-1h11.686a1 1 0 0 1 1 1v50.412a1 1 0 0 1 -1 1zm-10.686-2h9.686v-48.412h-9.686z"/><path d="m108.5 131.759a8.109 8.109 0 0 1 -5.7-2.306 7.8 7.8 0 0 1 -2.386-5.613l-.016-60.4a1 1 0 1 1 2 0l.016 60.4a5.815 5.815 0 0 0 1.782 4.183 6.123 6.123 0 0 0 4.3 1.738h.012a6.123 6.123 0 0 0 4.308-1.752 5.822 5.822 0 0 0 1.767-4.191l-.044-25.926a1 1 0 0 1 1-1 1 1 0 0 1 1 1l.044 25.926a7.807 7.807 0 0 1 -2.366 5.622 8.11 8.11 0 0 1 -5.706 2.325z"/><path d="m122.673 131.759h-.014a8.106 8.106 0 0 1 -5.705-2.325 7.8 7.8 0 0 1 -2.367-5.622l.044-25.926a1 1 0 0 1 1-1 1 1 0 0 1 1 1l-.044 25.927a5.822 5.822 0 0 0 1.767 4.191 6.124 6.124 0 0 0 4.308 1.752h.011a6.019 6.019 0 0 0 6.086-5.923l.015-60.4a1 1 0 0 1 1-1 1 1 0 0 1 1 1l-.015 60.4a8.02 8.02 0 0 1 -8.086 7.926z"/><path d="m133.343 90.481h-3.566a1 1 0 0 1 0-2h3.566a2.933 2.933 0 0 0 2.971-2.886v-23.563a7.719 7.719 0 0 0 -7.8-7.613h-4.267a16.028 16.028 0 0 1 -17.311 0h-4.266a7.719 7.719 0 0 0 -7.8 7.613v23.568a2.933 2.933 0 0 0 2.971 2.886h3.559a1 1 0 0 1 0 2h-3.566a4.935 4.935 0 0 1 -4.971-4.886v-23.568a9.721 9.721 0 0 1 9.8-9.613h4.561a.994.994 0 0 1 .55.165 14.04 14.04 0 0 0 15.621 0 .994.994 0 0 1 .55-.165h4.562a9.72 9.72 0 0 1 9.8 9.613v23.568a4.935 4.935 0 0 1 -4.964 4.881z"/><path d="m129.56 36.958a.962.962 0 0 1 -.184-.017 1 1 0 0 1 -.815-1.025 18.868 18.868 0 0 0 -2.162-8.468c-6.314 2.638-12.651 1.735-18.859-2.685-2.186 1.87-4.543 6.417-4.888 11.266a1 1 0 0 1 -1.965.183c-3.25-12.381-1.127-20.6 5.975-23.167 6.325-4.015 12.384-4.053 18.517-.116a14 14 0 0 1 6.628 9.151c.631 1.925.735 8.208-1.3 14.2a1 1 0 0 1 -.947.678zm-13.48-24.958a15.577 15.577 0 0 0 -8.436 2.791.986.986 0 0 1 -.209.1c-6.439 2.255-6.789 9.788-5.81 16.083 1.151-3.619 3.16-6.85 5.355-8.294a1 1 0 0 1 1.15.036c6.131 4.6 12.109 5.429 18.283 2.537a1 1 0 0 1 1.288.4 23.005 23.005 0 0 1 2.116 5.042 22.239 22.239 0 0 0 .082-8.016 1 1 0 0 1 -.03-.107 12 12 0 0 0 -5.77-7.964 14.717 14.717 0 0 0 -8.019-2.608z"/><path d="m115.6 51.457c-7.356 0-13.357-6.16-14.933-15.329a1 1 0 0 1 1.971-.339c1.427 8.3 6.515 13.668 12.962 13.668s11.544-5.365 12.972-13.668a1 1 0 1 1 1.971.339c-1.574 9.172-7.58 15.329-14.943 15.329z"/><path d="m107.229 54.419a1 1 0 0 1 -.96-1.283l1.515-5.136a1 1 0 0 1 1.918.565l-1.515 5.135a1 1 0 0 1 -.958.719z"/><path d="m123.975 54.419a1 1 0 0 1 -.958-.717l-1.517-5.141a1 1 0 0 1 1.919-.561l1.516 5.14a1 1 0 0 1 -.677 1.242.989.989 0 0 1 -.283.037z"/><path d="m115.59 140c-13.491 0-24.059-4.771-24.059-10.862 0-3.518 3.488-6.7 9.57-8.729a1 1 0 0 1 .633 1.9c-5.136 1.713-8.2 4.267-8.2 6.831 0 4.279 8.864 8.862 22.059 8.862s22.059-4.583 22.059-8.862c0-2.561-3.062-5.114-8.191-6.827a1 1 0 0 1 .634-1.9c6.074 2.029 9.557 5.209 9.557 8.724-.003 6.088-10.571 10.863-24.062 10.863z"/><path d="m92.1 118.336h-80.749a1 1 0 0 1 0-2h80.749a1 1 0 0 1 0 2z"/><path d="m59.488 58.561a1 1 0 0 1 -.6-.2l-14.62-10.9a1 1 0 0 1 1.2-1.6l14.619 10.9a1 1 0 0 1 -.6 1.8z"/><path d="m66.008 59.952a1 1 0 0 1 -.277-1.961l11.3-3.27a1 1 0 1 1 .556 1.92l-11.3 3.271a1.034 1.034 0 0 1 -.279.04z"/><path d="m25.089 58.611a1 1 0 0 1 -.618-1.786l13.84-10.88a1 1 0 1 1 1.236 1.572l-13.84 10.883a1 1 0 0 1 -.618.211z"/><path d="m80.9 59.351a4.75 4.75 0 1 1 4.75-4.75 4.756 4.756 0 0 1 -4.75 4.75zm0-7.5a2.75 2.75 0 1 0 2.75 2.75 2.752 2.752 0 0 0 -2.75-2.75z"/><path d="m41.869 49.171a4.75 4.75 0 1 1 4.75-4.75 4.756 4.756 0 0 1 -4.75 4.75zm0-7.5a2.75 2.75 0 1 0 2.75 2.75 2.752 2.752 0 0 0 -2.75-2.75z"/><path d="m22.149 64.671a4.75 4.75 0 1 1 4.75-4.75 4.756 4.756 0 0 1 -4.75 4.75zm0-7.5a2.75 2.75 0 1 0 2.75 2.75 2.752 2.752 0 0 0 -2.75-2.75z"/><path d="m62.4 64.671a4.75 4.75 0 1 1 4.75-4.75 4.756 4.756 0 0 1 -4.75 4.75zm0-7.5a2.75 2.75 0 1 0 2.75 2.75 2.752 2.752 0 0 0 -2.75-2.75z"/></svg>