<svg id="Layer_1" height="512" viewBox="0 0 150 150" width="512" xmlns="http://www.w3.org/2000/svg" data-name="Layer 1"><path d="m118.005 140h-95.595a1 1 0 0 1 -1-1v-118.872a1 1 0 0 1 1-1h9.59a1 1 0 1 1 0 2h-8.59v116.872h93.6v-8.125a1 1 0 0 1 2 0v9.125a1 1 0 0 1 -1.005 1z"/><path d="m127.59 34.114h-22.113a1 1 0 0 1 -1-1v-22.114a1 1 0 0 1 1.707-.707l22.116 22.114a1 1 0 0 1 -.707 1.707zm-21.113-2h18.7l-18.7-18.7z"/><path d="m127.59 130.872h-95.59a1 1 0 0 1 -1-1v-118.872a1 1 0 0 1 1-1h73.482a1 1 0 0 1 .707.293l22.111 22.114a1 1 0 0 1 .293.707v96.758a1 1 0 0 1 -1.003 1zm-94.595-2h93.6v-95.344l-21.532-21.528h-72.068z"/><path d="m119.592 120.041h-79.6a1 1 0 0 1 -1-1v-19.6a1 1 0 0 1 1-1h79.6a1 1 0 0 1 1 1v19.6a1 1 0 0 1 -1 1zm-78.6-2h77.6v-17.6h-77.6z"/><path d="m74.233 21.128h-32.492a1 1 0 0 1 0-2h32.492a1 1 0 0 1 0 2z"/><path d="m74.233 31.286h-32.492a1 1 0 0 1 0-2h32.492a1 1 0 0 1 0 2z"/><path d="m118.89 48.723h-78.035a1 1 0 0 1 0-2h78.035a1 1 0 0 1 0 2z"/><path d="m118.89 61.24h-78.035a1 1 0 0 1 0-2h78.035a1 1 0 0 1 0 2z"/><path d="m118.89 73.757h-78.035a1 1 0 1 1 0-2h78.035a1 1 0 0 1 0 2z"/><path d="m118.89 86.274h-78.035a1 1 0 1 1 0-2h78.035a1 1 0 0 1 0 2z"/></svg>