<svg id="Layer_1" height="512" viewBox="0 0 150 150" width="512" xmlns="http://www.w3.org/2000/svg" data-name="Layer 1"><path d="m75 103.719c-31.939 0-58.184-27.756-58.445-28.037a1 1 0 0 1 0-1.363c.261-.281 26.506-28.038 58.445-28.038s58.184 27.757 58.445 28.038a1 1 0 0 1 0 1.363c-.261.281-26.506 28.037-58.445 28.037zm-56.315-28.719c4.232 4.236 28.04 26.719 56.315 26.719s52.081-22.481 56.315-26.719c-4.234-4.238-28.041-26.719-56.315-26.719-28.293 0-52.084 22.481-56.315 26.719z"/><path d="m75 98.559a23.559 23.559 0 1 1 23.56-23.559 23.586 23.586 0 0 1 -23.56 23.559zm0-45.118a21.559 21.559 0 1 0 21.56 21.559 21.584 21.584 0 0 0 -21.56-21.559z"/><path d="m26.347 72.553a1 1 0 0 1 -.644-1.766c1.87-1.569 3.81-3.092 5.766-4.527a1 1 0 1 1 1.182 1.614c-1.921 1.408-3.825 2.9-5.662 4.445a1 1 0 0 1 -.642.234z"/><path d="m37.519 64.316a1 1 0 0 1 -.541-1.842 90.4 90.4 0 0 1 14.911-7.788 1 1 0 0 1 .748 1.854 88.333 88.333 0 0 0 -14.579 7.618 1 1 0 0 1 -.539.158z"/><path d="m56.8 75.839h-.011a1 1 0 0 1 -.989-1.01 19.272 19.272 0 0 1 .3-3.135 1 1 0 0 1 1.971.344 17.219 17.219 0 0 0 -.273 2.811 1 1 0 0 1 -.998.99z"/><path d="m58.414 68.537a.986.986 0 0 1 -.414-.089 1 1 0 0 1 -.5-1.322 19.187 19.187 0 0 1 12.11-10.55 1 1 0 0 1 .562 1.92 17.185 17.185 0 0 0 -10.849 9.452 1 1 0 0 1 -.909.589z"/><path d="m68.911 48.6a1 1 0 0 1 -1-1v-15.786l-8-7.888a1 1 0 0 1 1.4-1.424l8.3 8.182a1 1 0 0 1 .3.712v16.204a1 1 0 0 1 -1 1z"/><path d="m58.237 25.153a4.5 4.5 0 1 1 4.5-4.5 4.508 4.508 0 0 1 -4.5 4.5zm0-7.007a2.5 2.5 0 1 0 2.5 2.5 2.506 2.506 0 0 0 -2.5-2.5z"/><path d="m56.276 51.236a1 1 0 0 1 -1-1v-7.95l-9.934-7.978a1 1 0 0 1 -.374-.779v-4.191a1 1 0 0 1 2 0v3.711l9.932 7.978a1 1 0 0 1 .374.779v8.43a1 1 0 0 1 -.998 1z"/><path d="m45.965 30.335a4.5 4.5 0 1 1 4.5-4.5 4.508 4.508 0 0 1 -4.5 4.5zm0-7.007a2.5 2.5 0 1 0 2.5 2.5 2.506 2.506 0 0 0 -2.5-2.5z"/><path d="m39 58.943a1 1 0 0 1 -1-1v-14l-6.419-6.971a1 1 0 0 1 -.264-.677v-2.695a1 1 0 0 1 2 0v2.3l6.419 6.971a1 1 0 0 1 .264.677v14.395a1 1 0 0 1 -1 1z"/><path d="m32.315 34.6a4.5 4.5 0 1 1 4.5-4.5 4.508 4.508 0 0 1 -4.5 4.5zm0-7.007a2.5 2.5 0 1 0 2.5 2.5 2.506 2.506 0 0 0 -2.5-2.505z"/><path d="m27.514 66.789a1 1 0 0 1 -1-1v-16.345l-7.6-9.4h-.908a1 1 0 1 1 0-2h1.385a1 1 0 0 1 .778.372l8.121 10.046a1 1 0 0 1 .222.629v16.7a1 1 0 0 1 -.998.998z"/><path d="m14.5 43.551a4.5 4.5 0 1 1 4.5-4.5 4.508 4.508 0 0 1 -4.5 4.5zm0-7.007a2.5 2.5 0 1 0 2.5 2.5 2.506 2.506 0 0 0 -2.5-2.5z"/><path d="m81.089 48.6a1 1 0 0 1 -1-1v-16.2a1 1 0 0 1 .3-.712l8.3-8.182a1 1 0 1 1 1.4 1.424l-8 7.888v15.782a1 1 0 0 1 -1 1z"/><path d="m91.763 25.153a4.5 4.5 0 1 1 4.5-4.5 4.508 4.508 0 0 1 -4.5 4.5zm0-7.007a2.5 2.5 0 1 0 2.5 2.5 2.506 2.506 0 0 0 -2.5-2.5z"/><path d="m93.724 51.236a1 1 0 0 1 -1-1v-8.43a1 1 0 0 1 .374-.779l9.934-7.978v-3.711a1 1 0 0 1 2 0v4.191a1 1 0 0 1 -.374.779l-9.934 7.978v7.95a1 1 0 0 1 -1 1z"/><path d="m104.035 30.335a4.5 4.5 0 1 1 4.5-4.5 4.508 4.508 0 0 1 -4.5 4.5zm0-7.007a2.5 2.5 0 1 0 2.5 2.5 2.506 2.506 0 0 0 -2.5-2.5z"/><path d="m111 58.943a1 1 0 0 1 -1-1v-14.394a1 1 0 0 1 .264-.677l6.419-6.971v-2.301a1 1 0 0 1 2 0v2.693a1 1 0 0 1 -.264.677l-6.419 6.969v14a1 1 0 0 1 -1 1.004z"/><path d="m117.685 34.6a4.5 4.5 0 1 1 4.5-4.5 4.508 4.508 0 0 1 -4.5 4.5zm0-7.007a2.5 2.5 0 1 0 2.5 2.5 2.506 2.506 0 0 0 -2.5-2.505z"/><path d="m122.486 66.789a1 1 0 0 1 -1-1v-16.7a1 1 0 0 1 .222-.629l8.121-10.046a1 1 0 0 1 .778-.372h1.385a1 1 0 0 1 0 2h-.908l-7.6 9.4v16.347a1 1 0 0 1 -.998 1z"/><path d="m135.5 43.551a4.5 4.5 0 1 1 4.5-4.5 4.508 4.508 0 0 1 -4.5 4.5zm0-7.007a2.5 2.5 0 1 0 2.5 2.5 2.506 2.506 0 0 0 -2.5-2.5z"/><path d="m60.615 127.786a1 1 0 0 1 -.7-1.712l8-7.888v-15.786a1 1 0 1 1 2 0v16.2a1 1 0 0 1 -.3.712l-8.3 8.182a1 1 0 0 1 -.7.292z"/><path d="m58.237 133.854a4.5 4.5 0 1 1 4.5-4.5 4.508 4.508 0 0 1 -4.5 4.5zm0-7.007a2.5 2.5 0 1 0 2.5 2.5 2.506 2.506 0 0 0 -2.5-2.5z"/><path d="m45.968 121.662a1 1 0 0 1 -1-1v-4.191a1 1 0 0 1 .374-.779l9.934-7.978v-7.95a1 1 0 0 1 2 0v8.43a1 1 0 0 1 -.374.779l-9.934 7.978v3.711a1 1 0 0 1 -1 1z"/><path d="m45.965 128.672a4.5 4.5 0 1 1 4.5-4.5 4.508 4.508 0 0 1 -4.5 4.5zm0-7.007a2.5 2.5 0 1 0 2.5 2.5 2.506 2.506 0 0 0 -2.5-2.5z"/><path d="m32.315 117.4a1 1 0 0 1 -1-1v-2.693a1 1 0 0 1 .264-.677l6.421-6.969v-14a1 1 0 0 1 2 0v14.394a1 1 0 0 1 -.264.678l-6.419 6.97v2.3a1 1 0 0 1 -1.002.997z"/><path d="m32.315 124.412a4.5 4.5 0 1 1 4.5-4.5 4.508 4.508 0 0 1 -4.5 4.5zm0-7.007a2.5 2.5 0 1 0 2.5 2.5 2.506 2.506 0 0 0 -2.5-2.5z"/><path d="m19.393 111.956h-1.385a1 1 0 1 1 0-2h.908l7.6-9.4v-16.345a1 1 0 0 1 2 0v16.7a1 1 0 0 1 -.222.629l-8.121 10.046a1 1 0 0 1 -.78.37z"/><path d="m14.5 115.456a4.5 4.5 0 1 1 4.5-4.5 4.508 4.508 0 0 1 -4.5 4.5zm0-7.007a2.5 2.5 0 1 0 2.5 2.5 2.507 2.507 0 0 0 -2.5-2.5z"/><path d="m89.385 127.786a1 1 0 0 1 -.7-.288l-8.3-8.182a1 1 0 0 1 -.3-.712v-16.204a1 1 0 1 1 2 0v15.784l8 7.888a1 1 0 0 1 -.7 1.712z"/><path d="m91.763 133.854a4.5 4.5 0 1 1 4.5-4.5 4.508 4.508 0 0 1 -4.5 4.5zm0-7.007a2.5 2.5 0 1 0 2.5 2.5 2.506 2.506 0 0 0 -2.5-2.5z"/><path d="m104.032 121.662a1 1 0 0 1 -1-1v-3.711l-9.932-7.978a1 1 0 0 1 -.374-.779v-8.43a1 1 0 0 1 2 0v7.95l9.934 7.978a1 1 0 0 1 .374.779v4.191a1 1 0 0 1 -1.002 1z"/><path d="m104.035 128.672a4.5 4.5 0 1 1 4.5-4.5 4.508 4.508 0 0 1 -4.5 4.5zm0-7.007a2.5 2.5 0 1 0 2.5 2.5 2.506 2.506 0 0 0 -2.5-2.5z"/><path d="m117.685 117.4a1 1 0 0 1 -1-1v-2.3l-6.419-6.97a1 1 0 0 1 -.264-.678v-14.395a1 1 0 0 1 2 0v14l6.419 6.971a1 1 0 0 1 .264.677v2.695a1 1 0 0 1 -1 1z"/><path d="m117.685 124.412a4.5 4.5 0 1 1 4.5-4.5 4.508 4.508 0 0 1 -4.5 4.5zm0-7.007a2.5 2.5 0 1 0 2.5 2.5 2.506 2.506 0 0 0 -2.5-2.5z"/><path d="m131.992 111.956h-1.385a1 1 0 0 1 -.778-.372l-8.121-10.046a1 1 0 0 1 -.222-.629v-16.7a1 1 0 0 1 2 0v16.345l7.6 9.4h.908a1 1 0 0 1 0 2z"/><path d="m135.5 115.456a4.5 4.5 0 1 1 4.5-4.5 4.508 4.508 0 0 1 -4.5 4.5zm0-7.007a2.5 2.5 0 1 0 2.5 2.5 2.507 2.507 0 0 0 -2.5-2.5z"/></svg>