<svg id="Layer_1" height="512" viewBox="0 0 150 150" width="512" xmlns="http://www.w3.org/2000/svg" data-name="Layer 1"><path d="m114 34.846h-22.847a1 1 0 0 1 -1-1v-22.846a1 1 0 0 1 1.707-.707l22.846 22.846a1 1 0 0 1 -.706 1.707zm-21.846-2h19.432l-19.433-19.432z"/><path d="m114 140h-103a1 1 0 0 1 -1-1v-128a1 1 0 0 1 1-1h80.153a1 1 0 0 1 .707.293l22.846 22.846a1 1 0 0 1 .293.707v35.78a1 1 0 0 1 -2 0v-35.366l-22.26-22.26h-78.739v126h101v-39.031a1 1 0 0 1 2 0v40.031a1 1 0 0 1 -1 1z"/><path d="m55.249 23.423h-35.7a1 1 0 0 1 0-2h35.7a1 1 0 0 1 0 2z"/><path d="m55.249 32.6h-35.7a1 1 0 1 1 0-2h35.7a1 1 0 0 1 0 2z"/><path d="m38.419 68.471h-18.875a1 1 0 0 1 -1-1v-18.871a1 1 0 0 1 1-1h18.875a1 1 0 0 1 1 1v18.871a1 1 0 0 1 -1 1zm-17.875-2h16.875v-16.871h-16.875z"/><path d="m26.064 63.364a1 1 0 0 1 -.707-.293l-2.828-2.828a1 1 0 0 1 1.414-1.414l2.121 2.121 7.955-7.95a1 1 0 0 1 1.414 1.414l-8.662 8.662a.993.993 0 0 1 -.707.288z"/><path d="m105.454 51.263h-57.91a1 1 0 0 1 0-2h57.91a1 1 0 0 1 0 2z"/><path d="m105.454 59.033h-57.91a1 1 0 0 1 0-2h57.91a1 1 0 0 1 0 2z"/><path d="m93.044 66.8h-45.5a1 1 0 0 1 0-2h45.5a1 1 0 1 1 0 2z"/><path d="m38.419 98.105h-18.875a1 1 0 0 1 -1-1v-18.875a1 1 0 0 1 1-1h18.875a1 1 0 0 1 1 1v18.875a1 1 0 0 1 -1 1zm-17.875-2h16.875v-16.875h-16.875z"/><path d="m26.064 93a1 1 0 0 1 -.707-.293l-2.828-2.829a1 1 0 1 1 1.414-1.414l2.121 2.122 7.955-7.955a1 1 0 1 1 1.414 1.414l-8.662 8.662a1 1 0 0 1 -.707.293z"/><path d="m100.124 80.9h-52.58a1 1 0 0 1 0-2h52.58a1 1 0 0 1 0 2z"/><path d="m96 88.668h-48.456a1 1 0 1 1 0-2h48.456a1 1 0 1 1 0 2z"/><path d="m93.044 96.439h-45.5a1 1 0 0 1 0-2h45.5a1 1 0 1 1 0 2z"/><path d="m38.419 127.74h-18.875a1 1 0 0 1 -1-1v-18.875a1 1 0 0 1 1-1h18.875a1 1 0 0 1 1 1v18.875a1 1 0 0 1 -1 1zm-17.875-2h16.875v-16.875h-16.875z"/><path d="m83.186 110.532h-35.642a1 1 0 0 1 0-2h35.642a1 1 0 0 1 0 2z"/><path d="m81.749 118.3h-34.2a1 1 0 0 1 0-2h34.2a1 1 0 0 1 0 2z"/><path d="m63.249 126.073h-15.705a1 1 0 0 1 0-2h15.705a1 1 0 0 1 0 2z"/><path d="m25.337 121.946a1 1 0 0 1 -.707-1.707l7.288-7.288a1 1 0 1 1 1.414 1.414l-7.288 7.288a1 1 0 0 1 -.707.293z"/><path d="m32.625 121.946a.993.993 0 0 1 -.707-.293l-7.288-7.288a1 1 0 1 1 1.414-1.414l7.288 7.288a1 1 0 0 1 -.707 1.707z"/><path d="m101.705 119.548a1 1 0 0 1 -.846-1.531l31.552-50.254-11.52-7.233-31.552 50.254a1 1 0 0 1 -1.694-1.064l32.084-51.1a1 1 0 0 1 1.379-.315l13.213 8.3a1 1 0 0 1 .316 1.378l-32.084 51.1a1 1 0 0 1 -.848.465z"/><path d="m133.789 68.448a1 1 0 0 1 -.846-1.532l4.714-7.509a2.508 2.508 0 0 0 .185-2.156 4.127 4.127 0 0 0 -1.756-2.15l-5.386-3.383c-1.689-1.061-3.737-.857-4.562.456l-4.714 7.509a1 1 0 1 1 -1.694-1.063l4.714-7.509c1.412-2.248 4.7-2.733 7.32-1.087l5.386 3.383a6.125 6.125 0 0 1 2.591 3.215 4.466 4.466 0 0 1 -.39 3.849l-4.713 7.508a1 1 0 0 1 -.849.469z"/><path d="m88.4 126.073a1 1 0 0 1 -1-1.006l.094-14.821a1 1 0 0 1 .351-.755.987.987 0 0 1 .8-.227 19.9 19.9 0 0 1 13.887 8.718 1 1 0 0 1 -.384 1.464l-13.307 6.525a.993.993 0 0 1 -.441.102zm1.086-14.625-.076 12.016 10.79-5.29a17.78 17.78 0 0 0 -10.716-6.726z"/><path d="m96 113.971a1 1 0 0 1 -.846-1.532l31.186-49.671a1 1 0 1 1 1.693 1.063l-31.189 49.669a1 1 0 0 1 -.844.471z"/></svg>