<svg id="Layer_1" height="512" viewBox="0 0 150 150" width="512" xmlns="http://www.w3.org/2000/svg" data-name="Layer 1"><path d="m34.7 55.951h-.06a7.145 7.145 0 0 1 -6.712-7.126 7.762 7.762 0 0 1 4.072-6.772 1 1 0 0 1 .96 1.755 5.76 5.76 0 0 0 -3.03 5.015 5.144 5.144 0 0 0 4.831 5.13 1 1 0 0 1 -.059 2z"/><path d="m77.1 55.951a1 1 0 0 1 -.059-2 5.144 5.144 0 0 0 4.831-5.13 5.76 5.76 0 0 0 -3.03-5.015 1 1 0 1 1 .96-1.755 7.765 7.765 0 0 1 4.07 6.77 7.146 7.146 0 0 1 -6.712 7.126z"/><path d="m77.346 50.819a.968.968 0 0 1 -.168-.014 1 1 0 0 1 -.832-1l.009-.59c.06-3.459.17-9.9-3.96-14.99a4.534 4.534 0 0 0 -5.445-1.043 32.729 32.729 0 0 1 -4.986 1.675 22.892 22.892 0 0 1 -12.126 0 32.769 32.769 0 0 1 -4.986-1.675 4.531 4.531 0 0 0 -5.445 1.045c-4.129 5.091-4.019 11.528-3.959 14.987l.009.591a1 1 0 0 1 -1.948.331c-5.037-14.982-4.416-26 1.845-32.737l.094-.1a23.532 23.532 0 0 1 17.167-7.299h6.573a23.533 23.533 0 0 1 17.168 7.3l.094.1c6.26 6.738 6.881 17.752 1.844 32.735a1 1 0 0 1 -.948.684zm-8.278-20.119a6.246 6.246 0 0 1 4.879 2.271 20.468 20.468 0 0 1 4.195 10.609c2.8-11.213 1.739-19.546-3.159-24.818l-.086-.093a21.526 21.526 0 0 0 -15.709-6.669h-6.573a21.525 21.525 0 0 0 -15.708 6.668l-.091.1c-4.9 5.269-5.95 13.6-3.155 24.813a20.454 20.454 0 0 1 4.194-10.611 6.466 6.466 0 0 1 7.86-1.588 31.53 31.53 0 0 0 4.654 1.55 20.861 20.861 0 0 0 11.065 0 31.4 31.4 0 0 0 4.652-1.55 6.905 6.905 0 0 1 2.982-.682z"/><path d="m55.919 75.018c-12.4-.209-22.462-10.718-22.462-23.426v-1.773a1 1 0 0 1 2 0v1.773c0 11.427 9.37 21.239 20.462 21.426 11.057-.187 20.427-10 20.427-21.426v-1.773a1 1 0 0 1 2 0v1.773c0 12.708-10.061 23.217-22.427 23.426z"/><path d="m25.3 111.965a1 1 0 0 1 -1-1v-17.076a1 1 0 0 1 2 0v17.076a1 1 0 0 1 -1 1z"/><path d="m76.932 111.966h-65.932a1 1 0 0 1 -1-1v-9.331a23.063 23.063 0 0 1 3.52-12.583c5.9-9.135 23.806-12.265 28.849-12.977l1.472-5.719a1 1 0 0 1 1.937.5l-1.64 6.37a1 1 0 0 1 -.84.743c-10.678 1.381-23.667 5.3-28.1 12.17a21.066 21.066 0 0 0 -3.2 11.5v8.331h64.93a1 1 0 0 1 0 2z"/><path d="m79.6 80.066a1.047 1.047 0 0 1 -.264-.035 78.116 78.116 0 0 0 -10.3-2.063 1 1 0 0 1 -.839-.742l-1.73-6.68a1 1 0 0 1 1.937-.5l1.561 6.03a80.4 80.4 0 0 1 9.9 2.024 1 1 0 0 1 -.263 1.965z"/><path d="m56.2 86.579h-.035c-7.855 0-15.068-3.138-18.824-8.19a1 1 0 0 1 1.6-1.193c3.386 4.554 9.984 7.383 17.22 7.383h.039c7.221 0 13.8-2.827 17.178-7.382a1 1 0 1 1 1.606 1.191c-3.746 5.054-10.941 8.191-18.784 8.191z"/><path d="m39.4 22a1 1 0 0 1 -.729-1.684 19.1 19.1 0 0 1 13.944-5.9 1 1 0 0 1 0 2 17.1 17.1 0 0 0 -12.485 5.268 1 1 0 0 1 -.73.316z"/><path d="m46.018 52.126c-2.451 0-4.445-1.713-4.445-3.82s1.994-3.82 4.445-3.82 4.444 1.714 4.444 3.82-1.994 3.82-4.444 3.82zm0-5.64c-1.326 0-2.445.834-2.445 1.82s1.119 1.82 2.445 1.82 2.444-.833 2.444-1.82-1.119-1.82-2.444-1.82z"/><path d="m65.785 52.126c-2.45 0-4.444-1.713-4.444-3.82s1.994-3.82 4.444-3.82 4.445 1.714 4.445 3.82-1.994 3.82-4.445 3.82zm0-5.64c-1.325 0-2.444.834-2.444 1.82s1.119 1.82 2.444 1.82 2.445-.833 2.445-1.82-1.12-1.82-2.445-1.82z"/><path d="m55.9 66.451c-2.927 0-5.579-1.444-6.6-3.593a1 1 0 0 1 1.809-.858c.7 1.466 2.621 2.451 4.792 2.451s4.099-.985 4.793-2.451a1 1 0 0 1 1.807.858c-1.037 2.182-3.627 3.593-6.601 3.593z"/><path d="m96.765 122.058a25.509 25.509 0 1 1 18.041-43.542 25.5 25.5 0 0 1 -18.041 43.542zm0-49a23.5 23.5 0 1 0 16.627 6.876 23.442 23.442 0 0 0 -16.627-6.88z"/><path d="m96.765 117.291a20.734 20.734 0 1 1 14.668-6.066 20.679 20.679 0 0 1 -14.668 6.066zm0-39.468a18.734 18.734 0 1 0 13.254 5.48 18.691 18.691 0 0 0 -13.254-5.48z"/><path d="m112.251 123.348a4.155 4.155 0 0 1 -2.948-1.219l-2.721-2.722a1 1 0 1 1 1.418-1.414l2.721 2.722a2.173 2.173 0 0 0 3.068 0l7.135-7.136a2.166 2.166 0 0 0 0-3.068l-2.724-2.721a1 1 0 0 1 1.414-1.414l2.721 2.721a4.165 4.165 0 0 1 0 5.9l-7.135 7.136a4.161 4.161 0 0 1 -2.949 1.215z"/><path d="m134.032 140a5.953 5.953 0 0 1 -4.22-1.745l-15.977-16.186a1 1 0 0 1 1.424-1.405l15.972 16.181a3.968 3.968 0 0 0 5.607-5.617l-15.977-16.185a1 1 0 0 1 1.424-1.406l15.972 16.181a5.966 5.966 0 0 1 -4.225 10.182z"/></svg>