<svg id="Layer_1" height="512" viewBox="0 0 150 150" width="512" xmlns="http://www.w3.org/2000/svg" data-name="Layer 1"><path d="m131.754 112.057a1 1 0 0 1 -1-1v-76.927a4.3 4.3 0 0 0 -4.294-4.3h-102.923a4.3 4.3 0 0 0 -4.295 4.3v76.927a1 1 0 0 1 -2 0v-76.927a6.3 6.3 0 0 1 6.295-6.3h102.923a6.3 6.3 0 0 1 6.294 6.3v76.927a1 1 0 0 1 -1 1z"/><path d="m126.181 106.484h-102.365a1 1 0 0 1 -1-1v-71.076a1 1 0 0 1 1-1h102.365a1 1 0 0 1 1 1v71.076a1 1 0 0 1 -1 1zm-101.365-2h100.365v-69.076h-100.365z"/><path d="m131.665 122.165h-113.33a8.344 8.344 0 0 1 -8.335-8.335v-2.775a1 1 0 0 1 1-1h52.268a1 1 0 0 1 .9.563l1.749 3.606h18.166l1.749-3.606a1 1 0 0 1 .9-.563h52.268a1 1 0 0 1 1 1v2.775a8.344 8.344 0 0 1 -8.335 8.335zm-119.665-10.11v1.775a6.342 6.342 0 0 0 6.335 6.335h113.33a6.342 6.342 0 0 0 6.335-6.335v-1.775h-50.642l-1.749 3.6a1 1 0 0 1 -.9.564h-19.418a1 1 0 0 1 -.9-.564l-1.749-3.6z"/><path d="m116.624 88.47h-83.25a1 1 0 1 1 0-2h83.25a1 1 0 0 1 0 2z"/><path d="m116.624 97.345h-83.25a1 1 0 1 1 0-2h83.25a1 1 0 0 1 0 2z"/><path d="m74.875 80.422a.989.989 0 0 1 -.236-.028c-11.368-2.764-17.133-9.183-17.133-19.078v-16.538a1 1 0 0 1 1.227-.975c2.6.61 11.238-1.884 15.495-5.5a1 1 0 0 1 1.294 0c4.256 3.616 12.886 6.109 15.495 5.5a1 1 0 0 1 1.227.975v16.538c0 9.895-5.765 16.314-17.133 19.078a.989.989 0 0 1 -.236.028zm-15.369-34.54v15.434c0 8.909 5.028 14.5 15.369 17.076 10.341-2.579 15.369-8.167 15.369-17.076v-15.434c-3.826.028-11.143-2.326-15.369-5.536-4.227 3.21-11.56 5.563-15.369 5.536z"/><path d="m74.875 76.511a.99.99 0 0 1 -.259-.034c-9.088-2.437-13.316-7.255-13.316-15.161v-12.873a1 1 0 0 1 .841-.987 35.864 35.864 0 0 0 12.21-4.585 1 1 0 0 1 1.056 0 35.872 35.872 0 0 0 12.209 4.585 1 1 0 0 1 .842.987v12.873c0 7.906-4.233 12.724-13.32 15.161a.99.99 0 0 1 -.263.034zm-11.575-27.23v12.035c0 6.974 3.467 10.921 11.579 13.159 8.112-2.238 11.579-6.186 11.579-13.159v-12.035a38.676 38.676 0 0 1 -11.583-4.391 38.7 38.7 0 0 1 -11.575 4.391z"/><path d="m71.472 65.455a1 1 0 0 1 -.707-.293l-2.873-2.873a1 1 0 1 1 1.414-1.414l2.166 2.166 8.971-8.971a1 1 0 1 1 1.414 1.414l-9.678 9.678a1 1 0 0 1 -.707.293z"/></svg>