<svg id="Layer_1" height="512" viewBox="0 0 150 150" width="512" xmlns="http://www.w3.org/2000/svg" data-name="Layer 1"><path d="m76.87 74.967a1 1 0 0 1 -.664-.252c-.52-.462-1.033-.937-1.531-1.435a34.625 34.625 0 0 1 24.483-59.109 34.4 34.4 0 0 1 24.484 10.142c.5.5.973 1.011 1.435 1.532a1 1 0 0 1 -.041 1.371l-47.459 47.458a.994.994 0 0 1 -.707.293zm22.288-58.8a32.625 32.625 0 0 0 -23.069 55.7q.369.368.748.72l46.111-46.111c-.235-.252-.474-.5-.72-.748a32.414 32.414 0 0 0 -23.07-9.557z"/><path d="m69.434 34.062a1 1 0 0 1 -.707-.292l-6.544-6.545a7.127 7.127 0 0 1 0-10.08l5.056-5.057a7.127 7.127 0 0 1 10.08 0l6.475 6.474a1 1 0 0 1 -1.414 1.414l-6.475-6.476a5.128 5.128 0 0 0 -7.252 0l-5.053 5.059a5.128 5.128 0 0 0 0 7.252l6.544 6.544a1 1 0 0 1 -.707 1.707z"/><path d="m77.594 82.257a4.318 4.318 0 0 1 -3.054-7.373l50.707-50.707a4.319 4.319 0 1 1 6.108 6.108l-50.708 50.708a4.29 4.29 0 0 1 -3.053 1.264zm49.066-56.666-50.707 50.709a2.319 2.319 0 0 0 1.641 3.959 2.3 2.3 0 0 0 1.639-.678l50.707-50.71a2.321 2.321 0 0 0 0-3.28 2.376 2.376 0 0 0 -3.28 0z"/><path d="m105.294 64.766a9.765 9.765 0 0 1 -6.953-2.881 1 1 0 0 1 0-1.414l12.492-12.492a1 1 0 0 1 1.414 0 9.834 9.834 0 0 1 -6.953 16.787zm-4.787-3.632a7.835 7.835 0 0 0 10.993-10.99z"/><path d="m118.784 52.842a1 1 0 0 1 -.188-1.982l3.556-.686a1 1 0 0 1 .379 1.964l-3.556.686a1.045 1.045 0 0 1 -.191.018z"/><path d="m120.759 63.553a.992.992 0 0 1 -.45-.107l-3.236-1.637a1 1 0 0 1 .9-1.785l3.235 1.637a1 1 0 0 1 -.452 1.892z"/><path d="m112.916 71.4a1 1 0 0 1 -.894-.548l-1.636-3.236a1 1 0 0 1 1.785-.9l1.637 3.235a1 1 0 0 1 -.892 1.452z"/><path d="m101.52 72.981a1.045 1.045 0 0 1 -.191-.018 1 1 0 0 1 -.792-1.171l.687-3.559a1 1 0 1 1 1.963.38l-.687 3.557a1 1 0 0 1 -.98.811z"/><path d="m33.865 66.274a1 1 0 0 1 -.752-1.659l31.668-36.115a1 1 0 0 1 1.5 1.319l-31.664 36.114a1 1 0 0 1 -.752.341z"/><path d="m30.617 63.881a1 1 0 0 1 -.684-1.735l32-36.489a1 1 0 1 1 1.5 1.319l-32.064 36.564a1 1 0 0 1 -.752.341z"/><path d="m53.711 122.816a1 1 0 0 1 -.859-.486l-25.224-42.136a1 1 0 0 1 1.717-1.027l25.223 42.133a1 1 0 0 1 -.857 1.514z"/><path d="m57.723 121.74a1 1 0 0 1 -.86-.487l-25.463-42.567a1 1 0 1 1 1.717-1.027l25.463 42.568a1 1 0 0 1 -.857 1.513z"/><path d="m79.989 140h-44.629a1 1 0 0 1 -1-1v-5.894a6.58 6.58 0 0 1 6.572-6.571h33.486a6.579 6.579 0 0 1 6.571 6.571v5.894a1 1 0 0 1 -1 1zm-43.629-2h42.629v-4.894a4.576 4.576 0 0 0 -4.571-4.571h-33.486a4.576 4.576 0 0 0 -4.572 4.571z"/><path d="m27.18 80.781a9.8 9.8 0 1 1 9.8-9.8 9.808 9.808 0 0 1 -9.8 9.8zm0-17.593a7.8 7.8 0 1 0 7.8 7.8 7.805 7.805 0 0 0 -7.8-7.8z"/><path d="m27.18 76.383a5.4 5.4 0 1 1 5.4-5.4 5.405 5.405 0 0 1 -5.4 5.4zm0-8.8a3.4 3.4 0 1 0 3.4 3.4 3.4 3.4 0 0 0 -3.4-3.397z"/><path d="m65.048 128.535h-14.748a1 1 0 0 1 -1-1c0-4.3 3.756-7.8 8.373-7.8s8.373 3.5 8.373 7.8a1 1 0 0 1 -.998 1zm-13.652-2h12.557a6.508 6.508 0 0 0 -12.557 0z"/><path d="m73.677 134.986h-8.735a1 1 0 0 1 0-2h8.735a1 1 0 1 1 0 2z"/><path d="m60.942 134.986h-25.582a1 1 0 0 1 0-2h25.582a1 1 0 1 1 0 2z"/><path d="m111.5 22.88a.992.992 0 0 1 -.416-.091 28.4 28.4 0 0 0 -11.928-2.6 1 1 0 0 1 0-2 30.363 30.363 0 0 1 12.762 2.779 1 1 0 0 1 -.418 1.908z"/></svg>