<svg id="Layer_1" height="512" viewBox="0 0 150 150" width="512" xmlns="http://www.w3.org/2000/svg" data-name="Layer 1"><path d="m25.219 130.383a1 1 0 0 1 -1-1v-108.375a11.019 11.019 0 0 1 11.007-11.008h7.327a1 1 0 0 1 1 1v108.764a1 1 0 1 1 -2 0v-107.764h-6.327a9.016 9.016 0 0 0 -9.007 9.006v108.377a1 1 0 0 1 -1 1z"/><path d="m124.781 120.765h-82.228a1 1 0 0 1 -1-1v-108.765a1 1 0 0 1 1-1h82.228a1 1 0 0 1 1 1v108.765a1 1 0 0 1 -1 1zm-81.228-2h80.228v-106.765h-80.228z"/><path d="m124.781 140h-89.943a10.619 10.619 0 1 1 0-21.237h89.943a1 1 0 0 1 .749 1.662c-5.325 6.027-5.325 11.887 0 17.914a1 1 0 0 1 -.749 1.662zm-2.1-19.238h-87.843a8.619 8.619 0 1 0 0 17.237h87.845c-4.23-5.724-4.23-11.508 0-17.235z"/><path d="m124.781 27.388a1 1 0 0 1 -.707-.293l-15.39-15.39a1 1 0 1 1 1.414-1.414l15.39 15.39a1 1 0 0 1 -.707 1.707z"/><path d="m115.041 125.473h-76.4a1 1 0 1 1 0-2h76.4a1 1 0 0 1 0 2z"/><path d="m115.531 135.294h-76.893a1 1 0 0 1 0-2h76.893a1 1 0 0 1 0 2z"/><path d="m113.941 130.383h-79.013a1 1 0 0 1 0-2h79.013a1 1 0 0 1 0 2z"/><path d="m90.874 57.431a1 1 0 0 1 -.465-.115l-6.742-3.545-6.742 3.545a1 1 0 0 1 -1.451-1.054l1.288-7.508-5.455-5.316a1 1 0 0 1 .555-1.707l7.538-1.095 3.372-6.83a1 1 0 0 1 .9-.558 1 1 0 0 1 .9.558l3.371 6.83 7.538 1.095a1 1 0 0 1 .555 1.707l-5.455 5.316 1.287 7.508a1 1 0 0 1 -.986 1.169zm-7.207-5.789a1.006 1.006 0 0 1 .466.114l5.413 2.844-1.033-6.029a1 1 0 0 1 .287-.885l4.38-4.27-6.053-.879a1 1 0 0 1 -.753-.547l-2.707-5.486-2.708 5.486a1 1 0 0 1 -.753.547l-6.052.879 4.381 4.27a1 1 0 0 1 .287.885l-1.034 6.029 5.412-2.844a1 1 0 0 1 .467-.114z"/><path d="m83.667 67.59a21.563 21.563 0 1 1 21.563-21.563 21.587 21.587 0 0 1 -21.563 21.563zm0-41.125a19.563 19.563 0 1 0 19.563 19.562 19.584 19.584 0 0 0 -19.563-19.562z"/><path d="m116.031 78.1h-64.731a1 1 0 0 1 0-2h64.728a1 1 0 0 1 0 2z"/><path d="m116.031 87.848h-64.731a1 1 0 0 1 0-2h64.728a1 1 0 0 1 0 2z"/><path d="m116.031 97.6h-64.731a1 1 0 0 1 0-2h64.728a1 1 0 0 1 0 2z"/><path d="m116.031 107.348h-64.731a1 1 0 0 1 0-2h64.728a1 1 0 0 1 0 2z"/></svg>