<svg id="Layer_1" height="512" viewBox="0 0 150 150" width="512" xmlns="http://www.w3.org/2000/svg" data-name="Layer 1"><path d="m125.215 140h-95.846a5.417 5.417 0 0 1 -5.411-5.411v-119.178a5.417 5.417 0 0 1 5.411-5.411h95.846a5.416 5.416 0 0 1 5.41 5.411v119.178a5.416 5.416 0 0 1 -5.41 5.411zm-95.846-128a3.415 3.415 0 0 0 -3.411 3.411v119.178a3.415 3.415 0 0 0 3.411 3.411h95.846a3.414 3.414 0 0 0 3.41-3.411v-119.178a3.414 3.414 0 0 0 -3.41-3.411z"/><path d="m48.375 140h-19.006a5.417 5.417 0 0 1 -5.411-5.411v-119.178a5.417 5.417 0 0 1 5.411-5.411h19.006a1 1 0 0 1 1 1v128a1 1 0 0 1 -1 1zm-19.006-128a3.415 3.415 0 0 0 -3.411 3.411v119.178a3.415 3.415 0 0 0 3.411 3.411h18.006v-126z"/><path d="m31.125 27.708h-10.75a1 1 0 0 1 0-2h10.75a1 1 0 0 1 0 2z"/><path d="m35.125 31.708a5 5 0 1 1 5-5 5.006 5.006 0 0 1 -5 5zm0-8a3 3 0 1 0 3 3 3 3 0 0 0 -3-3z"/><path d="m31.125 47.025h-10.75a1 1 0 0 1 0-2h10.75a1 1 0 1 1 0 2z"/><path d="m35.125 51.025a5 5 0 1 1 5-5 5.006 5.006 0 0 1 -5 5zm0-8a3 3 0 1 0 3 3 3 3 0 0 0 -3-3z"/><path d="m31.125 66.342h-10.75a1 1 0 0 1 0-2h10.75a1 1 0 0 1 0 2z"/><path d="m35.125 70.342a5 5 0 1 1 5-5 5.006 5.006 0 0 1 -5 5zm0-8a3 3 0 1 0 3 3 3 3 0 0 0 -3-3z"/><path d="m31.125 85.659h-10.75a1 1 0 0 1 0-2h10.75a1 1 0 0 1 0 2z"/><path d="m35.125 89.659a5 5 0 1 1 5-5 5.006 5.006 0 0 1 -5 5zm0-8a3 3 0 1 0 3 3 3 3 0 0 0 -3-3z"/><path d="m31.125 104.975h-10.75a1 1 0 0 1 0-2h10.75a1 1 0 0 1 0 2z"/><path d="m35.125 108.975a5 5 0 1 1 5-5 5.006 5.006 0 0 1 -5 5zm0-8a3 3 0 1 0 3 3 3 3 0 0 0 -3-3z"/><path d="m31.125 124.292h-10.75a1 1 0 0 1 0-2h10.75a1 1 0 0 1 0 2z"/><path d="m35.125 128.292a5 5 0 1 1 5-5 5.006 5.006 0 0 1 -5 5zm0-8a3 3 0 1 0 3 3 3 3 0 0 0 -3-3z"/><path d="m89 73.346a25.409 25.409 0 1 1 25.408-25.408 25.437 25.437 0 0 1 -25.408 25.408zm0-48.817a23.409 23.409 0 1 0 23.408 23.409 23.435 23.435 0 0 0 -23.408-23.409z"/><path d="m79.938 45.6a1 1 0 0 1 -.938-.673c-1.339-3.853-1.267-7.927-.85-9.22a9.221 9.221 0 0 1 4.444-6.007c4.082-2.565 8.114-2.548 12.322.052 4.776 1.71 6.219 7.068 4.061 15.106a1.011 1.011 0 0 1 -1.061.736 1 1 0 0 1 -.9-.923 11.228 11.228 0 0 0 -2.841-6.7c-3.954 2.673-7.992 3.244-12.02 1.7a11.319 11.319 0 0 0 -1.215 4.889 1 1 0 0 1 -1 1.043zm14.268-9.88a1 1 0 0 1 .541.158 9.453 9.453 0 0 1 3.112 4.131c.338-3.5-.229-7.214-3.7-8.4a.978.978 0 0 1 -.207-.1c-3.576-2.242-6.846-2.278-10.292-.114a7.273 7.273 0 0 0 -3.576 4.816.961.961 0 0 1 -.032.108 11.148 11.148 0 0 0 -.108 3.4 13.606 13.606 0 0 1 .9-1.836 1 1 0 0 1 1.276-.4c3.871 1.774 7.634 1.263 11.5-1.57a1 1 0 0 1 .586-.193z"/><path d="m88.979 55.3c-4.812 0-8.934-4.331-10.025-10.532a1 1 0 0 1 1.971-.347c.918 5.228 4.23 8.879 8.054 8.879s7.128-3.651 8.046-8.879a1 1 0 0 1 1.975.351c-1.095 6.201-5.214 10.528-10.021 10.528z"/><path d="m72.084 66.524a1 1 0 0 1 -1-1v-1.35a8.07 8.07 0 0 1 7.856-8.252h3.552a.994.994 0 0 1 .581.187 10.044 10.044 0 0 0 5.927 1.954 10.175 10.175 0 0 0 5.93-1.954.994.994 0 0 1 .581-.187h3.551a8.071 8.071 0 0 1 7.857 8.252v1.341a1 1 0 1 1 -2 0v-1.341a6.071 6.071 0 0 0 -5.857-6.252h-3.235a12.121 12.121 0 0 1 -6.827 2.141 11.952 11.952 0 0 1 -6.825-2.141h-3.235a6.071 6.071 0 0 0 -5.856 6.252v1.35a1 1 0 0 1 -1 1z"/><path d="m119.958 81.659h-61.916a1 1 0 0 1 0-2h61.916a1 1 0 0 1 0 2z"/><path d="m119.958 95.846h-61.916a1 1 0 0 1 0-2h61.916a1 1 0 0 1 0 2z"/><path d="m119.958 110.033h-61.916a1 1 0 1 1 0-2h61.916a1 1 0 0 1 0 2z"/><path d="m119.958 124.221h-61.916a1 1 0 0 1 0-2h61.916a1 1 0 0 1 0 2z"/></svg>