<?xml version="1.0" encoding="UTF-8"?>
<svg xmlns="http://www.w3.org/2000/svg" id="Layer_1" data-name="Layer 1" viewBox="0 0 150 150" width="512" height="512"><path d="M11,45.333a1,1,0,0,1-1-1V11a1,1,0,0,1,1-1H44.333a1,1,0,0,1,0,2H12V44.333A1,1,0,0,1,11,45.333Z"/><path d="M139,45.333a1,1,0,0,1-1-1V12H105.667a1,1,0,0,1,0-2H139a1,1,0,0,1,1,1V44.333A1,1,0,0,1,139,45.333Z"/><path d="M44.333,140H11a1,1,0,0,1-1-1V105.667a1,1,0,0,1,2,0V138H44.333a1,1,0,0,1,0,2Z"/><path d="M139,140H105.667a1,1,0,0,1,0-2H138V105.667a1,1,0,0,1,2,0V139A1,1,0,0,1,139,140Z"/><path d="M75,134.253A59.253,59.253,0,1,1,134.253,75,59.32,59.32,0,0,1,75,134.253ZM75,17.747A57.253,57.253,0,1,0,132.253,75,57.318,57.318,0,0,0,75,17.747Z"/><path d="M75,121.252A46.253,46.253,0,1,1,121.253,75,46.305,46.305,0,0,1,75,121.252Zm0-90.5A44.253,44.253,0,1,0,119.253,75,44.3,44.3,0,0,0,75,30.747Z"/><path d="M75,108.252A33.253,33.253,0,1,1,108.253,75,33.29,33.29,0,0,1,75,108.252Zm0-64.5A31.253,31.253,0,1,0,106.253,75,31.288,31.288,0,0,0,75,43.747Z"/><path d="M75,23.494a1,1,0,0,1-1-1V11a1,1,0,0,1,2,0V22.494A1,1,0,0,1,75,23.494Z"/><path d="M75,140a1,1,0,0,1-1-1V127.506a1,1,0,0,1,2,0V139A1,1,0,0,1,75,140Z"/><path d="M139,76H127.506a1,1,0,0,1,0-2H139a1,1,0,0,1,0,2Z"/><path d="M22.494,76H11a1,1,0,0,1,0-2H22.494a1,1,0,0,1,0,2Z"/></svg>
