<svg id="Layer_1" height="512" viewBox="0 0 150 150" width="512" xmlns="http://www.w3.org/2000/svg" data-name="Layer 1"><path d="m129.9 109.827a1 1 0 0 1 -1-1v-72.114a5.077 5.077 0 0 0 -5.071-5.07h-97.654a5.077 5.077 0 0 0 -5.071 5.07v72.114a1 1 0 0 1 -2 0v-72.114a7.079 7.079 0 0 1 7.071-7.07h97.65a7.079 7.079 0 0 1 7.071 7.07v72.114a1 1 0 0 1 -.996 1z"/><path d="m130.431 120.357h-110.862a9.58 9.58 0 0 1 -9.569-9.569v-1.961a1 1 0 0 1 1-1h53a1 1 0 0 1 .958.715l.966 3.238h18.153l.966-3.238a1 1 0 0 1 .958-.715h53a1 1 0 0 1 1 1v1.961a9.58 9.58 0 0 1 -9.57 9.569zm-118.431-10.53v.961a7.578 7.578 0 0 0 7.569 7.569h110.862a7.578 7.578 0 0 0 7.569-7.569v-.961h-51.254l-.966 3.238a1 1 0 0 1 -.958.715h-19.644a1 1 0 0 1 -.958-.715l-.966-3.238z"/><path d="m123.469 103.758h-96.938a1 1 0 0 1 -1-1v-65.688a1 1 0 0 1 1-1h96.938a1 1 0 0 1 1 1v65.688a1 1 0 0 1 -1 1zm-95.938-2h94.938v-63.688h-94.938z"/><path d="m75.224 97.287h-7.183a1 1 0 0 1 -1-1v-22.568a1 1 0 0 1 1-1h7.183a1 1 0 0 1 1 1v22.568a1 1 0 0 1 -1 1zm-6.183-2h5.183v-20.568h-5.183z"/><path d="m87.346 97.287h-7.184a1 1 0 0 1 -1-1v-33.851a1 1 0 0 1 1-1h7.184a1 1 0 0 1 1 1v33.851a1 1 0 0 1 -1 1zm-6.184-2h5.184v-31.851h-5.184z"/><path d="m99.467 97.287h-7.184a1 1 0 0 1 -1-1v-25.758a1 1 0 0 1 1-1h7.184a1 1 0 0 1 1 1v25.758a1 1 0 0 1 -1 1zm-6.184-2h5.184v-23.758h-5.184z"/><path d="m111.588 97.287h-7.188a1 1 0 0 1 -1-1v-28.114a1 1 0 0 1 1-1h7.184a1 1 0 0 1 1 1v28.114a1 1 0 0 1 -.996 1zm-6.184-2h5.184v-26.114h-5.188z"/><path d="m115.962 97.287h-52.295a1 1 0 0 1 0-2h52.3a1 1 0 1 1 0 2z"/><path d="m94.585 62.847a1 1 0 0 1 -.6-.2l-8.985-6.698a1 1 0 0 1 1.2-1.6l8.987 6.7a1 1 0 0 1 -.6 1.8z"/><path d="m98.594 63.7a1 1 0 0 1 -.279-1.961l6.946-2.01a1 1 0 1 1 .556 1.921l-6.945 2.01a.994.994 0 0 1 -.278.04z"/><path d="m73.442 62.878a1 1 0 0 1 -.619-1.786l8.507-6.692a1 1 0 0 1 1.236 1.572l-8.506 6.692a1 1 0 0 1 -.618.214z"/><path d="m107.746 63.332a3.305 3.305 0 1 1 3.305-3.3 3.308 3.308 0 0 1 -3.305 3.3zm0-4.61a1.305 1.305 0 1 0 1.305 1.306 1.307 1.307 0 0 0 -1.305-1.306z"/><path d="m83.756 57.075a3.305 3.305 0 1 1 3.305-3.3 3.309 3.309 0 0 1 -3.305 3.3zm0-4.61a1.3 1.3 0 1 0 1.305 1.3 1.307 1.307 0 0 0 -1.305-1.3z"/><path d="m71.634 66.6a3.306 3.306 0 1 1 3.3-3.3 3.309 3.309 0 0 1 -3.3 3.3zm0-4.611a1.306 1.306 0 1 0 1.3 1.306 1.307 1.307 0 0 0 -1.3-1.303z"/><path d="m96.375 66.6a3.306 3.306 0 1 1 3.305-3.3 3.31 3.31 0 0 1 -3.305 3.3zm0-4.611a1.306 1.306 0 1 0 1.305 1.311 1.308 1.308 0 0 0 -1.305-1.308z"/><path d="m53.216 52.792a1 1 0 0 1 -.808-.41 5.906 5.906 0 0 0 -3.024-2.137 1 1 0 0 1 -.707-.956v-6.589a1 1 0 0 1 1.151-.988 14.541 14.541 0 0 1 10.472 7.342 1 1 0 0 1 -.535 1.421l-6.207 2.257a1 1 0 0 1 -.342.06zm-2.539-4.2a7.942 7.942 0 0 1 2.866 2.022l4.389-1.6a12.563 12.563 0 0 0 -7.255-5.087z"/><path d="m60.171 61.83a.994.994 0 0 1 -.5-.132l-5.711-3.272a1 1 0 0 1 -.475-1.106 5.532 5.532 0 0 0 .157-1.32 1.2 1.2 0 0 0 -.005-.181 1.03 1.03 0 0 1 .643-1.119l6.2-2.246a.993.993 0 0 1 .828.067 1 1 0 0 1 .492.669 13.939 13.939 0 0 1 .274 2.81 14.238 14.238 0 0 1 -.971 5.2 1 1 0 0 1 -.932.636zm-4.6-4.786 4.041 2.314a12.309 12.309 0 0 0 .462-3.358c0-.425-.02-.843-.06-1.25l-4.379 1.588q-.016.355-.064.706z"/><path d="m47.625 70.447a14.45 14.45 0 0 1 -2.2-28.732 1 1 0 0 1 1.15.988v6.586a1 1 0 0 1 -.706.956 6.016 6.016 0 0 0 1.758 11.77 5.914 5.914 0 0 0 4.091-1.632 1 1 0 0 1 1.182-.143l5.725 3.282a1 1 0 0 1 .285 1.491 14.359 14.359 0 0 1 -11.285 5.434zm-3.052-26.523a12.45 12.45 0 0 0 3.052 24.523 12.361 12.361 0 0 0 8.948-3.8l-4.051-2.323a7.9 7.9 0 0 1 -4.9 1.688 8.015 8.015 0 0 1 -3.052-15.427z"/><path d="m57.276 82.206h-19.312a1 1 0 0 1 0-2h19.312a1 1 0 0 1 0 2z"/><path d="m57.276 87.393h-19.312a1 1 0 0 1 0-2h19.312a1 1 0 1 1 0 2z"/><path d="m57.276 92.581h-19.312a1 1 0 0 1 0-2h19.312a1 1 0 0 1 0 2z"/></svg>