<svg id="Layer_1" height="512" viewBox="0 0 150 150" width="512" xmlns="http://www.w3.org/2000/svg" data-name="Layer 1"><path d="m64.227 80.232a1 1 0 0 1 -.881-1.47l2.005-3.762a1 1 0 1 1 1.764.941l-2 3.76a1 1 0 0 1 -.888.531z"/><path d="m85.774 80.232a1 1 0 0 1 -.886-.536l-1.964-3.751a1 1 0 0 1 1.772-.927l1.963 3.75a1 1 0 0 1 -.885 1.464z"/><path d="m59.341 64.406h-.061a5.472 5.472 0 0 1 -2.3-10.265 1 1 0 1 1 .959 1.755 3.472 3.472 0 0 0 1.46 6.514 1 1 0 0 1 -.058 2z"/><path d="m90.707 64.4a1 1 0 0 1 -.057-2 3.471 3.471 0 0 0 1.772-6.325 1 1 0 1 1 1.142-1.641 5.471 5.471 0 0 1 -2.8 9.964z"/><path d="m109.983 101.312h-69.966a1 1 0 0 1 -.978-1.209 27.868 27.868 0 0 1 25.115-21.873 1 1 0 0 1 1.034 1.27c.048 1.96 4.06 4.071 9.8 4.071 5.788 0 9.822-2.136 9.822-4.054v-.017a1 1 0 0 1 1.034-1.271 27.869 27.869 0 0 1 25.117 21.871 1 1 0 0 1 -.978 1.209zm-68.7-2h67.432a25.883 25.883 0 0 0 -22-18.993c-.715 3.044-5.515 5.251-11.725 5.251s-10.99-2.207-11.709-5.251a25.881 25.881 0 0 0 -21.997 18.993z"/><path d="m75.021 79.713c-9.651 0-16.863-9.9-16.863-18.754v-1.3a1 1 0 0 1 2 0v1.3c0 7.908 6.357 16.754 14.863 16.754s14.879-8.846 14.879-16.754v-1.3a1 1 0 0 1 2 0v1.3c0 8.852-7.221 18.754-16.879 18.754z"/><path d="m59.158 60.661h-.392a1 1 0 0 1 -.946-.681c-2.048-6.092-4.538-17.331 1.8-24.153a23.163 23.163 0 0 1 7.121-5.319c2.726-2.619 7.951-2.729 10.854-2.556a17.8 17.8 0 0 1 11.552 5.5c4.346 4.424 6.255 11.137 5.376 18.9a19.751 19.751 0 0 1 -2.395 7.76 1.061 1.061 0 0 1 -.9.551h-.332a1 1 0 0 1 -1-.945c-.181-3.277-.3-4.416-1.481-6.558-.508-.916-1.632-2.431-3.358-2.274a33.272 33.272 0 0 1 -17.038-3.109 3.025 3.025 0 0 0 -3.645.683 19.837 19.837 0 0 0 -4.216 11.192 1 1 0 0 1 -1 1.012zm26.142-11.789c1.929 0 3.683 1.189 4.862 3.316a11.452 11.452 0 0 1 1.46 4.2 21.455 21.455 0 0 0 .908-4.262c.81-7.154-.9-13.288-4.815-17.275a15.808 15.808 0 0 0 -10.244-4.9c-2.105-.125-7.238-.172-9.444 2.1a1 1 0 0 1 -.315.219 20.934 20.934 0 0 0 -6.631 4.925c-4.6 4.952-3.87 12.809-2.41 18.612a22.146 22.146 0 0 1 4.148-8.6 4.978 4.978 0 0 1 6.062-1.226 31.259 31.259 0 0 0 16 2.921c.14-.023.281-.03.419-.03z"/><path d="m38.243 45.416a1 1 0 0 1 -.707-.293l-19.973-19.966-3.257 3.259a1 1 0 0 1 -1.7-.554l-2.591-16.707a1 1 0 0 1 1.14-1.141l16.723 2.576a1 1 0 0 1 .555 1.7l-3.275 3.276 19.972 19.961a1 1 0 0 1 0 1.414l-6.18 6.182a1 1 0 0 1 -.707.293zm-20.68-22.673a1 1 0 0 1 .707.293l19.973 19.964 4.766-4.768-19.972-19.964a1 1 0 0 1 0-1.414l2.587-2.588-13.424-2.066 2.083 13.411 2.571-2.573a1 1 0 0 1 .709-.295z"/><path d="m11 140a1 1 0 0 1 -.988-1.153l2.575-16.722a1 1 0 0 1 1.7-.555l3.276 3.275 19.966-19.972a1.029 1.029 0 0 1 1.414 0l6.182 6.18a1 1 0 0 1 0 1.414l-19.97 19.972 3.259 3.257a1 1 0 0 1 -.554 1.7l-16.707 2.595a.976.976 0 0 1 -.153.009zm3.264-15.62-2.064 13.42 13.41-2.083-2.572-2.572a1 1 0 0 1 0-1.414l19.962-19.972-4.768-4.766-19.966 19.972a1.029 1.029 0 0 1 -1.414 0z"/><path d="m111.757 45.416a1 1 0 0 1 -.707-.293l-6.18-6.182a1 1 0 0 1 0-1.414l19.972-19.966-3.275-3.276a1 1 0 0 1 .555-1.7l16.723-2.576a1 1 0 0 1 1.14 1.141l-2.6 16.707a1 1 0 0 1 -1.7.554l-3.258-3.259-19.963 19.971a1 1 0 0 1 -.707.293zm-4.766-7.182 4.766 4.766 19.972-19.966a1 1 0 0 1 .707-.293 1 1 0 0 1 .707.293l2.572 2.573 2.085-13.407-13.423 2.068 2.587 2.588a1 1 0 0 1 0 1.414z"/><path d="m139 140a.986.986 0 0 1 -.153-.012l-16.707-2.595a1 1 0 0 1 -.554-1.7l3.259-3.257-19.966-19.973a1 1 0 0 1 0-1.414l6.182-6.18a1 1 0 0 1 1.414 0l19.966 19.972 3.276-3.275a1 1 0 0 1 1.695.555l2.576 16.722a1 1 0 0 1 -.988 1.157zm-14.606-4.281 13.406 2.081-2.068-13.422-2.588 2.586a1 1 0 0 1 -.707.293 1 1 0 0 1 -.707-.293l-19.966-19.972-4.764 4.767 19.966 19.973a1 1 0 0 1 0 1.414z"/><path d="m54.371 101.312a1 1 0 0 1 -1-1v-8.383a1 1 0 0 1 2 0v8.383a1 1 0 0 1 -1 1z"/><path d="m95.629 101.312a1 1 0 0 1 -1-1v-8.383a1 1 0 0 1 2 0v8.383a1 1 0 0 1 -1 1z"/></svg>