<svg id="Layer_1" height="512" viewBox="0 0 150 150" width="512" xmlns="http://www.w3.org/2000/svg" data-name="Layer 1"><path d="m75 112.4a37.4 37.4 0 1 1 37.405-37.4 37.446 37.446 0 0 1 -37.405 37.4zm0-72.8a35.4 35.4 0 1 0 35.405 35.4 35.445 35.445 0 0 0 -35.405-35.4z"/><path d="m82.272 140h-14.544a1 1 0 0 1 -.983-.819l-2.6-14.091a50.769 50.769 0 0 1 -16.882-7l-11.809 8.133a1 1 0 0 1 -1.275-.117l-10.279-10.286a1 1 0 0 1 -.116-1.275l8.133-11.808a50.732 50.732 0 0 1 -7-16.883l-14.092-2.6a1 1 0 0 1 -.825-.982v-14.544a1 1 0 0 1 .819-.984l14.092-2.6a50.754 50.754 0 0 1 7-16.884l-8.131-11.805a1 1 0 0 1 .12-1.275l10.28-10.28a1 1 0 0 1 1.275-.117l11.809 8.133a50.733 50.733 0 0 1 16.882-7l2.6-14.091a1 1 0 0 1 .982-.825h14.544a1 1 0 0 1 .983.819l2.6 14.091a50.733 50.733 0 0 1 16.882 7l11.809-8.133a1 1 0 0 1 1.275.117l10.279 10.286a1 1 0 0 1 .117 1.275l-8.134 11.808a50.769 50.769 0 0 1 7 16.884l14.091 2.6a1 1 0 0 1 .819.984v14.541a1 1 0 0 1 -.819.984l-14.091 2.6a50.755 50.755 0 0 1 -7 16.883l8.134 11.808a1 1 0 0 1 -.117 1.275l-10.28 10.278a1 1 0 0 1 -1.275.117l-11.809-8.133a50.769 50.769 0 0 1 -16.882 7l-2.6 14.091a1 1 0 0 1 -.982.825zm-13.711-2h12.878l2.569-13.933a1 1 0 0 1 .786-.8 48.775 48.775 0 0 0 17.4-7.216 1 1 0 0 1 1.121.009l11.676 8.041 9.107-9.107-8.042-11.676a1 1 0 0 1 -.009-1.12 48.777 48.777 0 0 0 7.218-17.4 1 1 0 0 1 .8-.785l13.935-2.573v-12.88l-13.933-2.568a1 1 0 0 1 -.8-.785 48.786 48.786 0 0 0 -7.218-17.4 1 1 0 0 1 .009-1.12l8.042-11.681-9.106-9.106-11.676 8.041a1 1 0 0 1 -1.121.009 48.763 48.763 0 0 0 -17.4-7.217 1 1 0 0 1 -.786-.8l-2.572-13.933h-12.878l-2.569 13.933a1 1 0 0 1 -.786.8 48.763 48.763 0 0 0 -17.406 7.217 1 1 0 0 1 -1.121-.009l-11.673-8.041-9.106 9.106 8.042 11.676a1 1 0 0 1 .009 1.12 48.773 48.773 0 0 0 -7.217 17.4 1 1 0 0 1 -.8.785l-13.934 2.573v12.88l13.934 2.569a1 1 0 0 1 .8.785 48.764 48.764 0 0 0 7.217 17.4 1 1 0 0 1 -.009 1.12l-8.042 11.68 9.107 9.107 11.677-8.041a1 1 0 0 1 1.12-.009 48.775 48.775 0 0 0 17.4 7.216 1 1 0 0 1 .786.8z"/><path d="m60.618 93.429h-7.081a1 1 0 0 1 -1-1v-19.2a1 1 0 0 1 1-1h7.081a1 1 0 0 1 1 1v19.2a1 1 0 0 1 -1 1zm-6.081-2h5.081v-17.2h-5.081z"/><path d="m72.566 93.429h-7.081a1 1 0 0 1 -1-1v-30.323a1 1 0 0 1 1-1h7.081a1 1 0 0 1 1 1v30.323a1 1 0 0 1 -1 1zm-6.081-2h5.081v-28.323h-5.081z"/><path d="m84.515 93.429h-7.081a1 1 0 0 1 -1-1v-22.345a1 1 0 0 1 1-1h7.081a1 1 0 0 1 1 1v22.345a1 1 0 0 1 -1 1zm-6.081-2h5.081v-20.345h-5.081z"/><path d="m96.463 93.429h-7.081a1 1 0 0 1 -1-1v-24.668a1 1 0 0 1 1-1h7.081a1 1 0 0 1 1 1v24.668a1 1 0 0 1 -1 1zm-6.081-2h5.081v-22.668h-5.081z"/><path d="m99.464 93.429h-48.928a1 1 0 0 1 0-2h48.928a1 1 0 0 1 0 2z"/><path d="m79.7 63.088a.994.994 0 0 1 -.6-.2l-8.858-6.6a1 1 0 1 1 1.195-1.6l8.858 6.6a1 1 0 0 1 -.6 1.8z"/><path d="m83.654 63.93a1 1 0 0 1 -.278-1.961l6.847-1.98a1 1 0 0 1 .556 1.92l-6.847 1.981a.994.994 0 0 1 -.278.04z"/><path d="m58.861 63.118a1 1 0 0 1 -.619-1.786l8.386-6.592a1 1 0 1 1 1.236 1.572l-8.385 6.593a1 1 0 0 1 -.618.213z"/><path d="m92.676 63.567a3.273 3.273 0 1 1 3.272-3.273 3.277 3.277 0 0 1 -3.272 3.273zm0-4.545a1.273 1.273 0 1 0 1.272 1.272 1.274 1.274 0 0 0 -1.272-1.272z"/><path d="m69.027 57.4a3.272 3.272 0 1 1 3.273-3.274 3.276 3.276 0 0 1 -3.273 3.274zm0-4.544a1.272 1.272 0 1 0 1.273 1.27 1.274 1.274 0 0 0 -1.273-1.272z"/><path d="m57.079 66.79a3.272 3.272 0 1 1 3.272-3.272 3.275 3.275 0 0 1 -3.272 3.272zm0-4.544a1.272 1.272 0 1 0 1.272 1.272 1.273 1.273 0 0 0 -1.272-1.272z"/><path d="m81.467 66.79a3.272 3.272 0 1 1 3.272-3.272 3.276 3.276 0 0 1 -3.272 3.272zm0-4.544a1.272 1.272 0 1 0 1.272 1.272 1.274 1.274 0 0 0 -1.272-1.272z"/></svg>