<svg id="Layer_1" height="512" viewBox="0 0 150 150" width="512" xmlns="http://www.w3.org/2000/svg" data-name="Layer 1"><path d="m125.5 37.565h-25.564a1 1 0 0 1 -1-1v-25.565a1 1 0 0 1 1.707-.707l25.564 25.564a1 1 0 0 1 -.707 1.708zm-24.564-2h22.15l-22.15-22.151z"/><path d="m125.5 140h-101a1 1 0 0 1 -1-1v-128a1 1 0 0 1 1-1h75.436a1 1 0 0 1 .707.293l25.564 25.564a1 1 0 0 1 .293.708v102.435a1 1 0 0 1 -1 1zm-100-2h99v-101.021l-24.979-24.979h-74.021z"/><path d="m60.25 51.01a10.416 10.416 0 1 1 10.415-10.41 10.427 10.427 0 0 1 -10.415 10.41zm0-18.831a8.416 8.416 0 1 0 8.415 8.421 8.426 8.426 0 0 0 -8.415-8.421z"/><path d="m62.579 62.1h-4.659a1 1 0 0 1 -.983-.819l-.751-4.081a16.887 16.887 0 0 1 -4.8-1.993l-3.415 2.353a1 1 0 0 1 -1.274-.117l-3.297-3.292a1 1 0 0 1 -.117-1.274l2.352-3.415a16.907 16.907 0 0 1 -1.992-4.8l-4.075-.751a1 1 0 0 1 -.819-.984v-4.662a1 1 0 0 1 .819-.983l4.075-.751a16.913 16.913 0 0 1 1.992-4.8l-2.352-3.414a1 1 0 0 1 .117-1.274l3.294-3.3a1 1 0 0 1 1.274-.117l3.415 2.353a16.887 16.887 0 0 1 4.8-1.993l.751-4.074a1 1 0 0 1 .983-.819h4.659a1 1 0 0 1 .983.819l.751 4.074a16.887 16.887 0 0 1 4.8 1.993l3.414-2.353a1 1 0 0 1 1.275.117l3.294 3.3a1 1 0 0 1 .117 1.274l-2.352 3.415a16.919 16.919 0 0 1 1.992 4.8l4.075.751a1 1 0 0 1 .818.983v4.659a1 1 0 0 1 -.818.984l-4.075.751a16.931 16.931 0 0 1 -1.992 4.8l2.352 3.415a1 1 0 0 1 -.117 1.274l-3.294 3.295a1 1 0 0 1 -1.275.117l-3.407-2.351a16.887 16.887 0 0 1 -4.8 1.993l-.751 4.074a1 1 0 0 1 -.987.823zm-3.827-2h2.994l.721-3.907a1 1 0 0 1 .785-.8 14.951 14.951 0 0 0 5.333-2.213 1 1 0 0 1 1.121.01l3.274 2.255 2.12-2.119-2.255-3.275a1 1 0 0 1 -.009-1.12 14.934 14.934 0 0 0 2.208-5.331 1 1 0 0 1 .8-.786l3.906-.72v-2.994l-3.906-.721a1 1 0 0 1 -.8-.785 14.926 14.926 0 0 0 -2.211-5.333 1 1 0 0 1 .009-1.121l2.258-3.276-2.12-2.117-3.274 2.253a1 1 0 0 1 -1.121.009 14.967 14.967 0 0 0 -5.333-2.209 1 1 0 0 1 -.785-.8l-.721-3.907h-2.994l-.72 3.907a1 1 0 0 1 -.785.8 14.957 14.957 0 0 0 -5.333 2.212 1 1 0 0 1 -1.121-.012l-3.274-2.255-2.119 2.119 2.255 3.274a1 1 0 0 1 .009 1.12 14.943 14.943 0 0 0 -2.212 5.334 1 1 0 0 1 -.8.785l-3.907.721v2.994l3.907.72a1 1 0 0 1 .8.786 14.939 14.939 0 0 0 2.212 5.333 1 1 0 0 1 -.009 1.12l-2.255 3.275 2.117 2.117 3.274-2.255a1 1 0 0 1 1.121-.01 14.959 14.959 0 0 0 5.333 2.213 1 1 0 0 1 .785.8z"/><path d="m115.25 69.846h-80.5a1 1 0 0 1 0-2h80.5a1 1 0 0 1 0 2z"/><path d="m115.25 81.83h-80.5a1 1 0 0 1 0-2h80.5a1 1 0 0 1 0 2z"/><path d="m115.25 93.816h-12.339a1 1 0 0 1 0-2h12.339a1 1 0 0 1 0 2z"/><path d="m44.875 93.816h-10.125a1 1 0 0 1 0-2h10.125a1 1 0 0 1 0 2z"/><path d="m58.591 132.221h-8.078a1 1 0 0 1 -1-1v-21.906a1 1 0 0 1 1-1h8.078a1 1 0 0 1 1 1v21.906a1 1 0 0 1 -1 1zm-7.078-2h6.078v-19.906h-6.078z"/><path d="m72.223 132.221h-8.078a1 1 0 0 1 -1-1v-34.595a1 1 0 0 1 1-1h8.078a1 1 0 0 1 1 1v34.6a1 1 0 0 1 -1 .995zm-7.078-2h6.078v-32.595h-6.078z"/><path d="m85.855 132.221h-8.078a1 1 0 0 1 -1-1v-25.493a1 1 0 0 1 1-1h8.078a1 1 0 0 1 1 1v25.493a1 1 0 0 1 -1 1zm-7.078-2h6.078v-23.493h-6.078z"/><path d="m99.487 132.221h-8.078a1 1 0 0 1 -1-1v-28.143a1 1 0 0 1 1-1h8.078a1 1 0 0 1 1 1v28.143a1 1 0 0 1 -1 1zm-7.078-2h6.078v-26.143h-6.078z"/><path d="m102.911 132.221h-55.822a1 1 0 0 1 0-2h55.822a1 1 0 0 1 0 2z"/><path d="m80.365 97.605a.992.992 0 0 1 -.6-.2l-10.103-7.533a1 1 0 0 1 1.195-1.6l10.107 7.528a1 1 0 0 1 -.6 1.8z"/><path d="m84.873 98.566a1 1 0 0 1 -.277-1.96l7.811-2.261a1 1 0 1 1 .556 1.921l-7.812 2.26a.989.989 0 0 1 -.278.04z"/><path d="m56.586 97.64a1 1 0 0 1 -.618-1.786l9.567-7.522a1 1 0 0 1 1.236 1.568l-9.571 7.526a1 1 0 0 1 -.614.214z"/><path d="m95.167 98.151a3.593 3.593 0 1 1 3.592-3.592 3.6 3.6 0 0 1 -3.592 3.592zm0-5.185a1.593 1.593 0 1 0 1.592 1.593 1.6 1.6 0 0 0 -1.592-1.593z"/><path d="m68.186 91.114a3.593 3.593 0 1 1 3.592-3.592 3.6 3.6 0 0 1 -3.592 3.592zm0-5.185a1.593 1.593 0 1 0 1.592 1.593 1.594 1.594 0 0 0 -1.592-1.593z"/><path d="m54.554 101.829a3.593 3.593 0 1 1 3.592-3.593 3.6 3.6 0 0 1 -3.592 3.593zm0-5.185a1.593 1.593 0 1 0 1.592 1.592 1.594 1.594 0 0 0 -1.592-1.592z"/><path d="m82.378 101.829a3.593 3.593 0 1 1 3.592-3.593 3.6 3.6 0 0 1 -3.592 3.593zm0-5.185a1.593 1.593 0 1 0 1.592 1.592 1.594 1.594 0 0 0 -1.592-1.592z"/></svg>