<svg id="Layer_1" height="512" viewBox="0 0 150 150" width="512" xmlns="http://www.w3.org/2000/svg" data-name="Layer 1"><path d="m103.043 140a1 1 0 0 1 -1-1v-13.274a8.639 8.639 0 0 0 -17.278 0v13.274a1 1 0 0 1 -1.456.89 22.174 22.174 0 0 1 -.546-39.194v-51.409a22.154 22.154 0 0 1 .546-39.177 1 1 0 0 1 1.456.89v13.273a8.639 8.639 0 1 0 17.278 0v-13.273a1 1 0 0 1 1.455-.89 22.173 22.173 0 0 1 .543 39.2v51.4a22.155 22.155 0 0 1 -.543 39.18 1 1 0 0 1 -.455.11zm-9.643-24.913a10.651 10.651 0 0 1 10.639 10.639v11.564a20.157 20.157 0 0 0 -1.46-35.09 1 1 0 0 1 -.542-.889v-52.611a1 1 0 0 1 .544-.891 20.174 20.174 0 0 0 1.458-35.1v11.564a10.639 10.639 0 1 1 -21.278 0v-11.563a20.156 20.156 0 0 0 1.46 35.09 1 1 0 0 1 .542.89v52.61a1 1 0 0 1 -.545.89 20.175 20.175 0 0 0 -1.453 35.1v-11.564a10.65 10.65 0 0 1 10.635-10.639z"/><path d="m94.144 64.518h-1.48a1 1 0 0 1 0-2h1.48a1 1 0 0 1 0 2z"/><path d="m94.144 72.172h-1.48a1 1 0 0 1 0-2h1.48a1 1 0 0 1 0 2z"/><path d="m94.144 79.827h-1.48a1 1 0 1 1 0-2h1.48a1 1 0 0 1 0 2z"/><path d="m94.144 87.482h-1.48a1 1 0 0 1 0-2h1.48a1 1 0 0 1 0 2z"/><path d="m49.205 139.992a12.053 12.053 0 0 1 -12.039-12.039v-41.6a1 1 0 0 1 1-1h22.079a1 1 0 0 1 1 1v41.6a12.053 12.053 0 0 1 -12.04 12.039zm-10.039-52.641v40.6a10.04 10.04 0 0 0 20.079 0v-40.6z"/><path d="m60.1 87.351h-21.787a3.889 3.889 0 0 1 0-7.778h21.787a3.889 3.889 0 1 1 0 7.778zm-21.787-5.778a1.889 1.889 0 0 0 0 3.778h21.787a1.889 1.889 0 0 0 0-3.778z"/><path d="m43.5 124.165a1 1 0 0 1 -1-1v-28.637a1 1 0 0 1 2 0v28.637a1 1 0 0 1 -1 1z"/><path d="m54.914 124.165a1 1 0 0 1 -1-1v-28.637a1 1 0 0 1 2 0v28.637a1 1 0 0 1 -1 1z"/><path d="m49.205 128.017a1 1 0 0 1 -1-1v-28.637a1 1 0 0 1 2 0v28.637a1 1 0 0 1 -1 1z"/><path d="m52.349 81.573h-6.287a1 1 0 0 1 -1-1v-51.386a1 1 0 0 1 1-1h6.287a1 1 0 0 1 1 1v51.386a1 1 0 0 1 -1 1zm-5.287-2h4.287v-49.386h-4.287z"/><path d="m52.35 30.187h-6.292a1 1 0 0 1 -.9-.556l-2.233-4.506a1 1 0 0 1 -.079-.669l3.156-13.681a1 1 0 0 1 .978-.775h4.448a1 1 0 0 1 .974.775l3.156 13.681a1 1 0 0 1 -.079.669l-2.233 4.506a1 1 0 0 1 -.896.556zm-5.671-2h5.05l1.8-3.63-2.897-12.557h-2.856l-2.9 12.557z"/></svg>