<svg id="Layer_1" height="512" viewBox="0 0 150 150" width="512" xmlns="http://www.w3.org/2000/svg" data-name="Layer 1"><path d="m124.916 36.409h-24.408a1 1 0 0 1 -1-1v-24.409a1 1 0 0 1 1.707-.707l24.408 24.407a1 1 0 0 1 -.707 1.707zm-23.408-2h20.992l-20.992-20.995z"/><path d="m124.916 140h-99.833a1 1 0 0 1 -1-1v-128a1 1 0 0 1 1-1h75.425a1 1 0 0 1 .707.293l24.408 24.407a1 1 0 0 1 .293.707v103.593a1 1 0 0 1 -1 1zm-98.833-2h97.833v-102.177l-23.822-23.823h-74.011z"/><path d="m44.8 54.082h-.057a1 1 0 0 1 -.942-1.055 8.217 8.217 0 0 1 8.199-7.75h3.957a1 1 0 0 1 .638.23 9.234 9.234 0 0 0 11.1 0 1 1 0 0 1 .638-.23h3.967a8.208 8.208 0 0 1 8.188 7.739 1 1 0 1 1 -2 .113 6.208 6.208 0 0 0 -6.188-5.852h-3.617a11.3 11.3 0 0 1 -13.081 0h-3.602a6.217 6.217 0 0 0 -6.2 5.861 1 1 0 0 1 -1 .944z"/><path d="m62.139 44.97c-5.561 0-9.918-5.968-9.918-13.586a9.919 9.919 0 0 1 19.836 0c0 7.616-4.357 13.586-9.918 13.586zm0-21.34a8.15 8.15 0 0 0 -7.918 7.754c0 6.388 3.552 11.586 7.918 11.586s7.918-5.2 7.918-11.586a8.15 8.15 0 0 0 -7.918-7.754z"/><path d="m50.687 59.364a1 1 0 0 1 -1-1v-5.452a1 1 0 1 1 2 0v5.452a1 1 0 0 1 -1 1z"/><path d="m73.6 59.364a1 1 0 0 1 -1-1v-5.452a1 1 0 1 1 2 0v5.452a1 1 0 0 1 -1 1z"/><path d="m62.139 62.592a22.936 22.936 0 1 1 22.936-22.936 22.962 22.962 0 0 1 -22.936 22.936zm0-43.871a20.936 20.936 0 1 0 20.936 20.935 20.958 20.958 0 0 0 -20.936-20.935z"/><path d="m114.75 78.252h-79.5a1 1 0 0 1 0-2h79.5a1 1 0 0 1 0 2z"/><path d="m114.75 116.385h-79.5a1 1 0 1 1 0-2h79.5a1 1 0 0 1 0 2z"/><path d="m114.75 90.963h-79.5a1 1 0 0 1 0-2h79.5a1 1 0 0 1 0 2z"/><path d="m114.75 103.674h-79.5a1 1 0 0 1 0-2h79.5a1 1 0 0 1 0 2z"/><path d="m114.75 129.1h-79.5a1 1 0 0 1 0-2h79.5a1 1 0 0 1 0 2z"/></svg>