<svg id="Layer_1" height="512" viewBox="0 0 150 150" width="512" xmlns="http://www.w3.org/2000/svg" data-name="Layer 1"><path d="m45.293 55.927a16.561 16.561 0 1 1 2.066-.128 16.812 16.812 0 0 1 -2.066.128zm.041-31.127a14.959 14.959 0 0 0 -1.836.115 14.561 14.561 0 1 0 16.254 12.645 14.567 14.567 0 0 0 -14.418-12.76z"/><path d="m45.622 68.733a1 1 0 0 1 -.952-.7l-1.793-5.663a22.9 22.9 0 0 1 -7.244-2l-4.44 3.953a1 1 0 0 1 -1.28.043l-5.055-3.933a1 1 0 0 1 -.274-1.25l2.739-5.277a22.88 22.88 0 0 1 -3.717-6.529l-5.931-.344a1 1 0 0 1 -.934-.874l-.795-6.356a1 1 0 0 1 .69-1.077l5.664-1.788a22.9 22.9 0 0 1 2-7.243l-3.954-4.44a1 1 0 0 1 -.042-1.279l3.933-5.056a1 1 0 0 1 1.25-.274l5.277 2.738a22.9 22.9 0 0 1 6.528-3.717l.345-5.931a1 1 0 0 1 .874-.934l6.356-.794a1 1 0 0 1 1.077.69l1.794 5.663a22.893 22.893 0 0 1 7.243 2l4.44-3.954a1 1 0 0 1 1.28-.042l5.056 3.932a1 1 0 0 1 .274 1.251l-2.74 5.276a22.886 22.886 0 0 1 3.709 6.525l5.931.344a1 1 0 0 1 .934.874l.794 6.357a1 1 0 0 1 -.686 1.076l-5.663 1.8a22.9 22.9 0 0 1 -2 7.243l3.954 4.44a1 1 0 0 1 .042 1.279l-3.933 5.056a1 1 0 0 1 -1.25.274l-5.273-2.744a22.864 22.864 0 0 1 -6.528 3.717l-.344 5.935a1 1 0 0 1 -.874.934l-6.357.795a1.049 1.049 0 0 1 -.125.004zm-10.157-10.547a.986.986 0 0 1 .445.1 20.924 20.924 0 0 0 7.79 2.151 1 1 0 0 1 .879.7l1.743 5.5 4.7-.588.334-5.764a1 1 0 0 1 .68-.891 20.9 20.9 0 0 0 7.024-4 1 1 0 0 1 1.113-.13l5.129 2.662 2.91-3.742-3.835-4.314a1 1 0 0 1 -.148-1.111 20.9 20.9 0 0 0 2.147-7.792 1 1 0 0 1 .7-.878l5.5-1.744-.586-4.7-5.765-.333a1 1 0 0 1 -.891-.681 20.9 20.9 0 0 0 -4-7.024 1 1 0 0 1 -.13-1.114l2.663-5.128-3.743-2.915-4.315 3.843a1 1 0 0 1 -1.11.149 20.925 20.925 0 0 0 -7.793-2.142 1 1 0 0 1 -.878-.7l-1.744-5.5-4.7.588-.335 5.764a1 1 0 0 1 -.679.891 20.917 20.917 0 0 0 -7.025 4 1 1 0 0 1 -1.113.13l-5.132-2.673-2.91 3.742 3.843 4.316a1 1 0 0 1 .148 1.11 20.927 20.927 0 0 0 -2.146 7.793 1 1 0 0 1 -.7.879l-5.5 1.743.587 4.7 5.765.334a1 1 0 0 1 .891.681 20.929 20.929 0 0 0 4 7.024 1 1 0 0 1 .13 1.112l-2.662 5.129 3.742 2.911 4.312-3.835a1 1 0 0 1 .665-.253z"/><path d="m45.209 126.067a17.957 17.957 0 1 1 1.578-.07c-.529.047-1.056.07-1.578.07zm.041-33.883q-.706 0-1.42.062a15.94 15.94 0 1 0 17.27 14.489 15.943 15.943 0 0 0 -15.85-14.551z"/><path d="m44.426 140a1 1 0 0 1 -.963-.734l-1.739-6.29a24.82 24.82 0 0 1 -7.881-2.488l-5.035 4.16a1 1 0 0 1 -1.279 0l-5.343-4.483a1 1 0 0 1 -.228-1.259l3.221-5.681a24.807 24.807 0 0 1 -3.82-7.329l-6.5-.618a1 1 0 0 1 -.9-.908l-.608-6.947a1 1 0 0 1 .729-1.052l6.29-1.738a24.81 24.81 0 0 1 2.489-7.882l-4.159-5.039a1 1 0 0 1 0-1.28l4.482-5.342a1 1 0 0 1 1.26-.228l5.681 3.221a24.839 24.839 0 0 1 7.328-3.821l.62-6.5a1 1 0 0 1 .908-.9l6.947-.608a1.006 1.006 0 0 1 1.051.729l1.738 6.29a24.818 24.818 0 0 1 7.885 2.49l5.036-4.163a1 1 0 0 1 1.279 0l5.343 4.482a1 1 0 0 1 .228 1.259l-3.222 5.681a24.8 24.8 0 0 1 3.821 7.329l6.5.618a1 1 0 0 1 .9.908l.608 6.947a1 1 0 0 1 -.729 1.051l-6.29 1.739a24.821 24.821 0 0 1 -2.489 7.882l4.159 5.034a1 1 0 0 1 0 1.28l-4.483 5.343a1 1 0 0 1 -1.26.227l-5.68-3.22a24.832 24.832 0 0 1 -7.329 3.82l-.62 6.5a1 1 0 0 1 -.908.9l-6.95.62c-.029 0-.059 0-.088 0zm-10.706-11.707a1.011 1.011 0 0 1 .479.121 22.85 22.85 0 0 0 8.422 2.659 1 1 0 0 1 .853.727l1.7 6.131 5.287-.464.6-6.331a1 1 0 0 1 .713-.865 22.857 22.857 0 0 0 7.833-4.083 1 1 0 0 1 1.117-.088l5.536 3.139 3.413-4.068-4.054-4.907a1 1 0 0 1 -.107-1.115 22.842 22.842 0 0 0 2.658-8.424 1 1 0 0 1 .728-.852l6.131-1.7-.464-5.288-6.331-.6a1 1 0 0 1 -.865-.713 22.837 22.837 0 0 0 -4.084-7.834 1 1 0 0 1 -.088-1.117l3.139-5.536-4.067-3.412-4.908 4.057a1 1 0 0 1 -1.116.107 22.839 22.839 0 0 0 -8.423-2.66 1 1 0 0 1 -.853-.727l-1.694-6.129-5.288.462-.6 6.332a1 1 0 0 1 -.713.864 22.879 22.879 0 0 0 -7.832 4.084 1 1 0 0 1 -1.117.089l-5.537-3.14-3.416 4.068 4.053 4.907a1 1 0 0 1 .108 1.114 22.851 22.851 0 0 0 -2.658 8.425 1 1 0 0 1 -.728.852l-6.131 1.694.464 5.289 6.331.6a1 1 0 0 1 .864.712 22.872 22.872 0 0 0 4.084 7.834 1 1 0 0 1 .088 1.117l-3.138 5.536 4.067 3.412 4.907-4.053a1 1 0 0 1 .637-.226z"/><path d="m100.782 88.223a20.131 20.131 0 1 1 20.118-21.485 20.13 20.13 0 0 1 -18.732 21.438q-.699.047-1.386.047zm.055-38.263q-.62 0-1.245.042a18.131 18.131 0 1 0 19.308 16.871 18.133 18.133 0 0 0 -18.063-16.913z"/><path d="m99.211 103.932a1 1 0 0 1 -.968-.753l-1.843-7.223a27.888 27.888 0 0 1 -8.96-3.029l-5.84 4.636a1 1 0 0 1 -1.279-.031l-5.935-5.182a1 1 0 0 1 -.2-1.264l3.808-6.414a27.9 27.9 0 0 1 -4.2-8.473l-7.406-.856a1 1 0 0 1 -.883-.925l-.529-7.858a1 1 0 0 1 .751-1.036l7.225-1.841a27.9 27.9 0 0 1 3.027-8.961l-4.639-5.845a1 1 0 0 1 .03-1.28l5.182-5.93a1 1 0 0 1 1.264-.2l6.415 3.808a27.919 27.919 0 0 1 8.472-4.2l.856-7.405a1 1 0 0 1 .926-.883l7.857-.529a1.009 1.009 0 0 1 1.036.75l1.842 7.224a27.886 27.886 0 0 1 8.96 3.028l5.846-4.635a1 1 0 0 1 1.279.031l5.931 5.181a1 1 0 0 1 .2 1.264l-3.809 6.414a27.89 27.89 0 0 1 4.2 8.473l7.406.856a1 1 0 0 1 .883.925l.53 7.858a1 1 0 0 1 -.751 1.036l-7.221 1.837a27.917 27.917 0 0 1 -3.027 8.96l4.635 5.845a1 1 0 0 1 -.031 1.279l-5.181 5.931a1 1 0 0 1 -1.264.2l-6.415-3.809a27.931 27.931 0 0 1 -8.472 4.2l-.856 7.405a1 1 0 0 1 -.926.883l-7.857.53zm-11.867-13.2a1 1 0 0 1 .5.132 25.956 25.956 0 0 0 9.5 3.21 1 1 0 0 1 .837.744l1.8 7.064 6.2-.418.837-7.242a1 1 0 0 1 .73-.85 25.94 25.94 0 0 0 8.981-4.454 1 1 0 0 1 1.118-.066l6.274 3.724 4.079-4.676-4.533-5.716a1 1 0 0 1 -.085-1.117 25.944 25.944 0 0 0 3.209-9.5 1 1 0 0 1 .745-.838l7.064-1.8-.417-6.2-7.242-.837a1 1 0 0 1 -.851-.73 25.944 25.944 0 0 0 -4.454-8.982 1 1 0 0 1 -.065-1.118l3.723-6.273-4.676-4.086-5.718 4.535a1 1 0 0 1 -1.117.084 25.954 25.954 0 0 0 -9.5-3.209 1 1 0 0 1 -.836-.744l-1.8-7.064-6.2.417-.836 7.242a1 1 0 0 1 -.731.85 25.92 25.92 0 0 0 -8.98 4.455 1 1 0 0 1 -1.119.066l-6.271-3.725-4.086 4.677 4.532 5.713a1 1 0 0 1 .085 1.117 25.992 25.992 0 0 0 -3.209 9.5 1 1 0 0 1 -.744.838l-7.064 1.8.417 6.195 7.243.838a1 1 0 0 1 .85.73 25.931 25.931 0 0 0 4.454 8.982 1 1 0 0 1 .065 1.118l-3.724 6.273 4.677 4.086 5.717-4.532a1 1 0 0 1 .621-.216z"/></svg>