<svg id="Layer_1" height="512" viewBox="0 0 150 150" width="512" xmlns="http://www.w3.org/2000/svg" data-name="Layer 1"><path d="m128.635 120.941a.993.993 0 0 1 -.707-.293l-24.657-24.657a1 1 0 0 1 .031-1.445c1.091-1 2.248-2.117 3.437-3.322a5.92 5.92 0 0 1 4.224-1.769 5.839 5.839 0 0 1 4.278 1.765l17.492 17.492a5.99 5.99 0 0 1 .161 8.342c-1.113 1.2-2.313 2.411-3.569 3.61a.993.993 0 0 1 -.69.277zm-23.216-25.631 23.228 23.229c.972-.949 1.906-1.9 2.782-2.846a4 4 0 0 0 -.11-5.567l-17.492-17.492a4 4 0 0 0 -2.845-1.179h-.012a3.934 3.934 0 0 0 -2.808 1.174c-.938.951-1.862 1.85-2.743 2.681z"/><path d="m53.116 45.423a1 1 0 0 1 -.707-.293l-24.657-24.658a1 1 0 0 1 -.017-1.4c1.21-1.268 2.438-2.48 3.648-3.6a5.965 5.965 0 0 1 8.3.191l17.5 17.5a5.99 5.99 0 0 1 1.764 4.279 5.92 5.92 0 0 1 -1.767 4.223c-1.2 1.185-2.319 2.342-3.323 3.438a1 1 0 0 1 -.716.325zm-23.255-25.67 23.228 23.229c.835-.889 1.734-1.809 2.682-2.745a3.935 3.935 0 0 0 1.173-2.807 3.993 3.993 0 0 0 -1.178-2.857l-17.5-17.5a3.971 3.971 0 0 0 -5.526-.139c-.952.89-1.919 1.835-2.879 2.819z"/><path d="m98.425 138.4c-31.404-.011-88.425-57.033-88.425-88.425 0-8.568 9.2-22.026 17.738-30.9a1 1 0 0 1 .711-.307 1.023 1.023 0 0 1 .717.293l24.657 24.655a1 1 0 0 1 .027 1.384c-5.891 6.363-6.527 8.911-6.527 9.712 0 15.987 30.266 46.252 46.264 46.263.8 0 3.348-.637 9.711-6.527a1 1 0 0 1 1.387.026l24.657 24.658a1 1 0 0 1 -.014 1.428c-8.877 8.545-22.335 17.74-30.903 17.74zm-69.948-117.2c-9.59 10.187-16.477 22.176-16.477 28.775 0 14.04 12.2 34.957 31.827 54.589s40.553 31.836 54.598 31.836c6.6 0 18.588-6.887 28.778-16.476l-23.256-23.257c-4.7 4.254-8.183 6.409-10.361 6.41-17.141-.012-48.263-31.134-48.263-48.263 0-2.178 2.156-5.662 6.409-10.361z"/><path d="m40.1 91.739a1 1 0 0 1 -.757-.347 144.346 144.346 0 0 1 -9.973-12.865 1 1 0 0 1 1.652-1.127 142.486 142.486 0 0 0 9.835 12.685 1 1 0 0 1 -.756 1.653z"/><path d="m26.634 73.383a1 1 0 0 1 -.861-.489c-5.317-8.946-8.013-16.657-8.014-22.92 0-1.629.847-4.24 2.386-7.352a1 1 0 1 1 1.792.887c-1.364 2.759-2.178 5.176-2.178 6.465 0 5.815 2.675 13.387 7.733 21.9a1 1 0 0 1 -.858 1.511z"/><path d="m76.587 54.979a.993.993 0 0 1 -.707-.293l-6.4-6.4a1 1 0 0 1 0-1.414l26.13-26.133-3.41-3.408a1 1 0 0 1 .5-1.684l18.655-4.024a1 1 0 0 1 1.188 1.188l-4.023 18.656a1 1 0 0 1 -1.685.5l-3.408-3.409-26.133 26.128a.993.993 0 0 1 -.707.293zm-4.987-7.4 4.987 4.987 26.132-26.132a1 1 0 0 1 1.414 0l2.817 2.818 3.31-15.346-15.345 3.31 2.816 2.817a1 1 0 0 1 0 1.414z"/><path d="m97.621 76.013a1 1 0 0 1 -.977-1.21l4.023-18.655a1 1 0 0 1 1.685-.5l3.408 3.407 26.132-26.131a1 1 0 0 1 1.414 0l6.4 6.4a1 1 0 0 1 0 1.414l-26.131 26.137 3.408 3.408a1 1 0 0 1 -.5 1.685l-18.651 4.023a1.008 1.008 0 0 1 -.211.022zm4.614-17.649-3.309 15.345 15.345-3.31-2.817-2.817a1 1 0 0 1 0-1.414l26.132-26.132-4.986-4.987-26.133 26.131a1 1 0 0 1 -1.414 0z"/></svg>