<svg id="Layer_1" height="512" viewBox="0 0 150 150" width="512" xmlns="http://www.w3.org/2000/svg" data-name="Layer 1"><path d="m120.511 44.2h-16.986a1 1 0 0 1 -1-1v-16.989a1 1 0 0 1 1.707-.707l16.986 16.986a1 1 0 0 1 -.707 1.707zm-15.986-2h13.575l-13.575-13.575z"/><path d="m120.511 131.507h-81.685a1 1 0 0 1 -1-1v-104.296a1 1 0 0 1 1-1h16.274a1 1 0 1 1 0 2h-15.274v102.3h79.685v-85.9l-16.4-16.4h-36.106a1 1 0 0 1 0-2h36.52a1 1 0 0 1 .707.293l16.986 16.986a1 1 0 0 1 .293.707v87.31a1 1 0 0 1 -1 1z"/><path d="m111.174 140h-81.685a1 1 0 0 1 -1-1v-104.3a1 1 0 0 1 1-1h9.337a1 1 0 0 1 0 2h-8.337v102.3h79.685v-7.493a1 1 0 0 1 2 0v8.493a1 1 0 0 1 -1 1z"/><path d="m75.065 45.389h-27.308a1 1 0 0 1 0-2h27.308a1 1 0 0 1 0 2z"/><path d="m111.579 56.8h-63.822a1 1 0 0 1 0-2h63.822a1 1 0 0 1 0 2z"/><path d="m111.579 66.085h-63.822a1 1 0 1 1 0-2h63.822a1 1 0 0 1 0 2z"/><path d="m111.579 75.375h-63.822a1 1 0 0 1 0-2h63.822a1 1 0 1 1 0 2z"/><path d="m111.579 84.665h-63.822a1 1 0 1 1 0-2h63.822a1 1 0 0 1 0 2z"/><path d="m111.579 93.954h-63.822a1 1 0 1 1 0-2h63.822a1 1 0 0 1 0 2z"/><path d="m111.579 103.244h-63.822a1 1 0 0 1 0-2h63.822a1 1 0 0 1 0 2z"/><path d="m111.579 112.533h-63.822a1 1 0 1 1 0-2h63.822a1 1 0 0 1 0 2z"/><path d="m111.579 121.822h-63.822a1 1 0 0 1 0-2h63.822a1 1 0 1 1 0 2z"/><path d="m61.053 38.007a6.961 6.961 0 0 1 -6.953-6.952v-8.228a1 1 0 0 1 2 0v8.228a4.953 4.953 0 0 0 9.9 0v-16.2a2.852 2.852 0 0 0 -5.7 0v10.831a.829.829 0 1 0 1.657 0v-3.886a1 1 0 1 1 2 0v3.89a2.829 2.829 0 1 1 -5.657 0v-10.839a4.852 4.852 0 0 1 9.7 0v16.2a6.96 6.96 0 0 1 -6.947 6.956z"/></svg>