<svg id="Layer_1" height="512" viewBox="0 0 150 150" width="512" xmlns="http://www.w3.org/2000/svg" data-name="Layer 1"><path d="m60.253 71.855h-.06a5.222 5.222 0 0 1 -4.905-5.208 5.646 5.646 0 0 1 2.958-4.926 1 1 0 1 1 .96 1.754 3.644 3.644 0 0 0 -1.918 3.172 3.22 3.22 0 0 0 3.024 3.212 1 1 0 0 1 -.059 2z"/><path d="m89.38 71.855a1 1 0 0 1 -.059-2 3.221 3.221 0 0 0 3.025-3.212 3.645 3.645 0 0 0 -1.919-3.172 1 1 0 0 1 .96-1.754 5.646 5.646 0 0 1 2.959 4.926 5.223 5.223 0 0 1 -4.906 5.208z"/><path d="m89.55 68.329a1.078 1.078 0 0 1 -.168-.014 1 1 0 0 1 -.832-1l.006-.408c.041-2.336.115-6.684-2.651-10.1a2.8 2.8 0 0 0 -3.362-.632 22.6 22.6 0 0 1 -3.478 1.17 16.037 16.037 0 0 1 -8.5 0 22.658 22.658 0 0 1 -3.479-1.17 2.8 2.8 0 0 0 -3.362.633c-2.765 3.41-2.69 7.758-2.65 10.094l.006.408a1 1 0 0 1 -1.947.331c-3.5-10.411-3.052-18.083 1.334-22.8a16.535 16.535 0 0 1 12.089-5.185h4.516a16.485 16.485 0 0 1 12.028 5.117l.07.076c4.381 4.716 4.83 12.388 1.33 22.8a1 1 0 0 1 -.95.68zm-5.687-14.452a4.6 4.6 0 0 1 3.594 1.675 13.61 13.61 0 0 1 2.692 5.865c1.429-6.817.61-11.917-2.449-15.217a14.518 14.518 0 0 0 -10.622-4.546h-4.519a14.479 14.479 0 0 0 -10.559 4.486c-3.108 3.347-3.937 8.46-2.511 15.275a13.612 13.612 0 0 1 2.691-5.861 4.753 4.753 0 0 1 5.779-1.176 21.4 21.4 0 0 0 3.141 1.046 14.026 14.026 0 0 0 7.436 0 21.38 21.38 0 0 0 3.144-1.046 5.06 5.06 0 0 1 2.183-.501z"/><path d="m74.833 84.954a16.287 16.287 0 0 1 -15.75-16.407v-1.218a1 1 0 0 1 2 0v1.218c0 7.684 6.3 14.282 13.75 14.407 7.42-.125 13.717-6.723 13.717-14.407v-1.218a1 1 0 0 1 2 0v1.218a16.28 16.28 0 0 1 -15.717 16.407z"/><path d="m53.789 110.339a1 1 0 0 1 -1-1v-11.732a1 1 0 0 1 2 0v11.732a1 1 0 0 1 -1 1z"/><path d="m106.032 110.342h-62.064a1 1 0 0 1 -1-1v-6.411a16.15 16.15 0 0 1 2.472-8.821c4.036-6.258 16.073-8.475 19.827-9.024l.96-3.725a1 1 0 1 1 1.936.5l-1.126 4.374a1 1 0 0 1 -.84.742c-6.936.9-16.094 3.594-19.077 8.22a14.158 14.158 0 0 0 -2.152 7.735v5.411h60.064v-5.411a14.2 14.2 0 0 0 -2.152-7.732c-2.989-4.626-12.145-7.319-19.077-8.22a1 1 0 0 1 -.84-.741l-1.185-4.591a1 1 0 0 1 1.937-.5l1.017 3.942c3.752.549 15.784 2.765 19.828 9.026a16.192 16.192 0 0 1 2.472 8.819v6.411a1 1 0 0 1 -1 .996z"/><path d="m96.208 110.339a1 1 0 0 1 -1-1v-11.732a1 1 0 0 1 2 0v11.732a1 1 0 0 1 -1 1z"/><path d="m75.025 92.9h-.025c-5.494 0-10.546-2.2-13.184-5.753a1 1 0 0 1 1.605-1.193c2.267 3.046 6.704 4.946 11.579 4.946 4.86 0 9.307-1.888 11.573-4.945a1 1 0 1 1 1.606 1.191c-2.632 3.548-7.67 5.754-13.154 5.754z"/><path d="m23.92 73.927h-.06a4.353 4.353 0 0 1 -4.088-4.34 4.691 4.691 0 0 1 2.456-4.087 1 1 0 0 1 .96 1.755 2.686 2.686 0 0 0 -1.416 2.336 2.35 2.35 0 0 0 2.207 2.343 1 1 0 0 1 -.059 2z"/><path d="m47.037 73.927a1 1 0 0 1 -.059-2 2.349 2.349 0 0 0 2.206-2.343 2.687 2.687 0 0 0 -1.415-2.336 1 1 0 1 1 .96-1.755 4.69 4.69 0 0 1 2.455 4.091 4.352 4.352 0 0 1 -4.087 4.34z"/><path d="m47.172 71.129a.968.968 0 0 1 -.172-.014 1 1 0 0 1 -.833-1l.006-.324c.031-1.828.09-5.231-2.058-7.879a2.013 2.013 0 0 0 -2.419-.445 18.271 18.271 0 0 1 -2.8.941 12.934 12.934 0 0 1 -6.852 0 18.289 18.289 0 0 1 -2.795-.941 2.014 2.014 0 0 0 -2.42.446c-2.147 2.648-2.088 6.051-2.057 7.879v.323a1 1 0 0 1 -1.948.331c-2.8-8.34-2.432-14.5 1.1-18.306a13.327 13.327 0 0 1 9.745-4.18h3.585a13.284 13.284 0 0 1 9.692 4.125c3.589 3.862 3.96 10.021 1.156 18.361a1 1 0 0 1 -.93.683zm-4.514-11.883a3.862 3.862 0 0 1 3.013 1.406 10.682 10.682 0 0 1 1.953 3.824c.862-4.879.17-8.557-2.074-10.972a11.317 11.317 0 0 0 -8.279-3.542h-3.585a11.283 11.283 0 0 0 -8.233 3.492c-2.278 2.452-2.979 6.14-2.12 11.02a10.655 10.655 0 0 1 1.952-3.82 3.98 3.98 0 0 1 4.836-.989 16.833 16.833 0 0 0 2.461.816 10.911 10.911 0 0 0 5.793 0 16.753 16.753 0 0 0 2.461-.816 4.219 4.219 0 0 1 1.822-.419z"/><path d="m35.495 84.324a13.135 13.135 0 0 1 -12.71-13.224v-.966a1 1 0 0 1 2 0v.966a11.258 11.258 0 0 0 10.71 11.229c5.772-.1 10.676-5.24 10.676-11.229v-.966a1 1 0 0 1 2 0v.966a13.129 13.129 0 0 1 -12.676 13.224z"/><path d="m18.79 104.471a1 1 0 0 1 -1-1v-9.312a1 1 0 0 1 2 0v9.312a1 1 0 0 1 -1 1z"/><path d="m43.97 104.474h-32.97a1 1 0 0 1 -1-1v-5.085a13.086 13.086 0 0 1 1.987-7.117c3.211-4.971 12.6-6.767 15.744-7.238l.731-2.825a1 1 0 1 1 1.936.5l-.9 3.472a1 1 0 0 1 -.84.741c-5.458.709-12.658 2.818-14.991 6.434a11.1 11.1 0 0 0 -1.667 6.033v4.085h31.97a1 1 0 1 1 0 2z"/><path d="m54.946 89.7a.987.987 0 0 1 -.51-.141c-4.167-2.479-10.125-3.409-11.852-3.635a1 1 0 0 1 -.838-.742l-.939-3.635a1 1 0 1 1 1.936-.5l.772 2.988c2.387.358 7.895 1.4 11.943 3.806a1 1 0 0 1 -.512 1.859z"/><path d="m35.644 90.628h-.021c-4.424 0-8.5-1.782-10.629-4.649a1 1 0 1 1 1.606-1.194c1.762 2.371 5.22 3.843 9.025 3.843h.019c3.8 0 7.243-1.471 9-3.841a1 1 0 0 1 1.607 1.19c-2.128 2.87-6.191 4.651-10.607 4.651z"/><path d="m126.08 73.927a1 1 0 0 1 -.059-2 2.35 2.35 0 0 0 2.207-2.343 2.686 2.686 0 0 0 -1.416-2.336 1 1 0 0 1 .96-1.755 4.691 4.691 0 0 1 2.456 4.091 4.353 4.353 0 0 1 -4.088 4.34z"/><path d="m102.963 73.927h-.06a4.352 4.352 0 0 1 -4.087-4.34 4.69 4.69 0 0 1 2.455-4.091 1 1 0 1 1 .96 1.755 2.687 2.687 0 0 0 -1.415 2.336 2.349 2.349 0 0 0 2.206 2.343 1 1 0 0 1 -.059 2z"/><path d="m126.215 71.129a.968.968 0 0 1 -.168-.014 1 1 0 0 1 -.832-1v-.323c.031-1.828.09-5.231-2.058-7.88a2.013 2.013 0 0 0 -2.419-.445 18.289 18.289 0 0 1 -2.8.941 12.938 12.938 0 0 1 -6.853 0 18.289 18.289 0 0 1 -2.8-.941 2.011 2.011 0 0 0 -2.42.447c-2.147 2.646-2.088 6.049-2.057 7.877l.006.324a1 1 0 0 1 -.833 1 .992.992 0 0 1 -1.115-.667c-2.8-8.34-2.433-14.5 1.1-18.306a13.329 13.329 0 0 1 9.745-4.18h3.585a13.286 13.286 0 0 1 9.693 4.125c3.588 3.862 3.959 10.021 1.156 18.361a1 1 0 0 1 -.93.681zm-4.515-11.883a3.856 3.856 0 0 1 3.012 1.407 10.67 10.67 0 0 1 1.953 3.823c.862-4.879.17-8.557-2.073-10.972a11.319 11.319 0 0 0 -8.28-3.542h-3.585a11.281 11.281 0 0 0 -8.232 3.492c-2.279 2.452-2.979 6.139-2.12 11.019a10.664 10.664 0 0 1 1.951-3.819 3.98 3.98 0 0 1 4.836-.989 16.753 16.753 0 0 0 2.461.816 10.911 10.911 0 0 0 5.793 0 16.833 16.833 0 0 0 2.461-.816 4.223 4.223 0 0 1 1.823-.419z"/><path d="m114.538 84.324a13.134 13.134 0 0 1 -12.709-13.224v-.966a1 1 0 0 1 2 0v.966a11.258 11.258 0 0 0 10.709 11.229c5.772-.1 10.677-5.24 10.677-11.229v-.966a1 1 0 1 1 2 0v.966a13.129 13.129 0 0 1 -12.677 13.224z"/><path d="m131.21 104.471a1 1 0 0 1 -1-1v-9.312a1 1 0 0 1 2 0v9.312a1 1 0 0 1 -1 1z"/><path d="m139 104.474h-32.97a1 1 0 0 1 0-2h31.97v-4.085a11.1 11.1 0 0 0 -1.668-6.034c-2.332-3.615-9.532-5.724-14.992-6.432a1 1 0 0 1 -.84-.741l-.9-3.472a1 1 0 1 1 1.936-.5l.731 2.825c3.143.471 12.533 2.267 15.743 7.237a13.084 13.084 0 0 1 1.99 7.117v5.085a1 1 0 0 1 -1 1z"/><path d="m95.054 89.7a1 1 0 0 1 -.512-1.859c4.048-2.409 9.556-3.448 11.943-3.806l.772-2.988a1 1 0 1 1 1.936.5l-.939 3.635a1 1 0 0 1 -.838.742c-1.727.226-7.685 1.156-11.852 3.635a.987.987 0 0 1 -.51.141z"/><path d="m114.355 90.628c-4.416 0-8.478-1.781-10.605-4.651a1 1 0 0 1 1.607-1.19c1.757 2.37 5.2 3.841 9 3.841h.019c3.806 0 7.264-1.472 9.026-3.843a1 1 0 1 1 1.605 1.194c-2.131 2.867-6.2 4.649-10.63 4.649z"/></svg>